<svg width="54" height="54" viewBox="0 0 54 54" fill="none" xmlns="http://www.w3.org/2000/svg">
<path d="M0 53.6484H44C49.5228 53.6484 54 49.1712 54 43.6484V10.7839C54 5.26102 49.5228 0.783871 44 0.783871H10C4.47715 0.783871 0 5.26102 0 10.7839L0 53.6484Z" fill="#F2F5F9"/>
<path d="M33.9256 31.3084C32.9091 30.7199 31.8742 31.0861 31.4462 31.6643L30.5512 32.8227C30.0965 33.4112 29.2467 33.333 29.2467 33.333C23.0452 31.6931 21.3868 25.2036 21.3868 25.2036C21.3868 25.2036 21.3107 24.325 21.8786 23.8539L22.9979 22.928C23.5576 22.4835 23.9115 21.4136 23.3415 20.3622C21.8189 17.6113 20.7963 16.6627 20.2758 15.9344C19.7285 15.2492 18.9054 15.0949 18.0495 15.5578H18.031C16.2512 16.5989 14.3027 18.5474 14.9261 20.5535C15.9899 22.6687 17.9446 29.4113 24.1748 34.5058C27.1027 36.9152 31.7363 39.3842 33.7033 39.9542L33.7219 39.983C35.6601 40.6291 37.5448 38.6044 38.5509 36.7712V36.7568C38.9974 35.87 38.8493 35.0305 38.197 34.4811C37.0407 33.3536 35.2959 32.1088 33.9256 31.3084Z" fill="#4B5DFF"/>
</svg>
