<svg width="58" height="71" viewBox="0 0 58 71" fill="none" xmlns="http://www.w3.org/2000/svg">
<g clip-path="url(#clip0)">
<path d="M38.3936 58.1682C48.887 58.1682 57.3936 49.6616 57.3936 39.1682C57.3936 28.6747 48.887 20.1682 38.3936 20.1682C27.9001 20.1682 19.3936 28.6747 19.3936 39.1682C19.3936 49.6616 27.9001 58.1682 38.3936 58.1682Z" fill="#D6E3F9"/>
<path d="M46.8065 38.0823C46.6177 38.0823 46.4287 38.0102 46.2846 37.866C45.9963 37.5777 45.9963 37.1104 46.2846 36.8221L47.7611 35.3456C48.0494 35.0573 48.5167 35.0573 48.805 35.3456C49.0933 35.6338 49.0933 36.1012 48.805 36.3895L47.3285 37.866C47.1843 38.0103 46.9955 38.0823 46.8065 38.0823Z" fill="#4B5DFF"/>
<path d="M49.7597 40.2971H47.5449C47.1368 40.2971 46.8066 39.9666 46.8066 39.5589C46.8066 39.1511 47.1368 38.8206 47.5449 38.8206H49.7597C50.1678 38.8206 50.498 39.1511 50.498 39.5589C50.498 39.9666 50.1678 40.2971 49.7597 40.2971Z" fill="#4B5DFF"/>
<path d="M44.5918 37.3441C44.1837 37.3441 43.8535 37.0135 43.8535 36.6058V34.391C43.8535 33.9833 44.1837 33.6527 44.5918 33.6527C44.9999 33.6527 45.3301 33.9833 45.3301 34.391V36.6058C45.3301 37.0135 44.9999 37.3441 44.5918 37.3441Z" fill="#4B5DFF"/>
<path d="M36.9496 49.3754L28.3628 45.4724C28.3706 45.3702 28.3936 45.2724 28.3936 45.1682V43.1682H20.3936V45.1682C20.3936 45.2724 20.4163 45.3702 20.4243 45.4724L11.8376 49.3754C8.52705 50.8801 6.39355 54.2376 6.39355 57.9426V66.1681H42.3936V57.9426C42.3936 54.2379 40.2601 50.8801 36.9496 49.3754Z" fill="#BD9A85"/>
<path d="M24.3936 56.1681L8.39355 42.1681L24.3936 31.1681L41.3936 42.1681L24.3936 56.1681Z" fill="#BD9A85"/>
<path d="M49.6894 18.6527C50.1511 18.6527 50.5253 18.2785 50.5253 17.8168C50.5253 17.3551 50.1511 16.9809 49.6894 16.9809C49.2278 16.9809 48.8535 17.3551 48.8535 17.8168C48.8535 18.2785 49.2278 18.6527 49.6894 18.6527Z" fill="#4B5DFF"/>
<path d="M10.0175 9.98089C10.4792 9.98089 10.8535 9.60665 10.8535 9.14499C10.8535 8.68333 10.4792 8.30908 10.0175 8.30908C9.55589 8.30908 9.18164 8.68333 9.18164 9.14499C9.18164 9.60665 9.55589 9.98089 10.0175 9.98089Z" fill="#4B5DFF"/>
<path d="M37.3934 28.6682C37.3199 28.6682 37.3094 27.9329 37.3214 27.0929C37.3422 25.6377 36.3682 24.3432 34.9549 23.9944C28.0442 22.2892 20.6237 22.6077 13.8882 24.6762C13.0054 24.9472 12.4262 25.7944 12.4522 26.7177C12.4784 27.6542 12.4854 28.6679 12.3932 28.6679C10.9822 28.6679 9.84419 29.8369 9.89494 31.2592C9.92344 32.0589 10.4152 32.7817 11.0784 33.2292C11.8827 33.7719 12.5734 33.7334 13.1862 33.5272C14.1782 38.3669 17.6917 42.4142 22.5429 43.9757C23.9337 44.4234 25.4382 44.3807 26.8282 43.9302L27.2719 43.7864C32.0452 42.2394 35.5277 38.2767 36.5652 33.5167C37.1754 33.7319 37.8707 33.7697 38.6579 33.2792C39.2952 32.8822 39.7817 32.2307 39.8734 31.4854C40.0614 29.9634 38.8787 28.6682 37.3934 28.6682Z" fill="#E7D1C4"/>
<path d="M29.8936 33.6681C30.4458 33.6681 30.8936 33.2204 30.8936 32.6682C30.8936 32.1159 30.4458 31.6682 29.8936 31.6682C29.3413 31.6682 28.8936 32.1159 28.8936 32.6682C28.8936 33.2204 29.3413 33.6681 29.8936 33.6681Z" fill="black"/>
<path d="M19.8936 33.6681C20.4458 33.6681 20.8936 33.2204 20.8936 32.6682C20.8936 32.1159 20.4458 31.6682 19.8936 31.6682C19.3413 31.6682 18.8936 32.1159 18.8936 32.6682C18.8936 33.2204 19.3413 33.6681 19.8936 33.6681Z" fill="black"/>
<path d="M37.3936 20.1681C37.3936 7.16811 12.3936 9.16811 12.4486 22.0031C12.4548 23.4439 12.4851 25.0084 12.4703 26.0891C15.2028 26.1826 17.7556 25.2784 19.4428 23.5839C22.3523 29.2349 30.4631 31.5516 37.3936 26.1379C37.3936 24.0406 37.3936 21.0714 37.3936 20.1681Z" fill="#564642"/>
<path d="M37.7751 38.2124C31.5566 40.8774 29.7798 35.5474 26.6703 35.5474C25.9403 35.5474 25.2986 35.9041 24.8936 36.4479C24.4886 35.9041 23.8468 35.5474 23.1168 35.5474C20.0076 35.5474 18.2308 40.8776 12.0121 38.2124C10.8846 37.7291 18.2306 43.5427 23.5608 40.8774C24.2208 40.5474 24.6298 40.1644 24.8933 39.7444C25.1568 40.1644 25.5661 40.5474 26.2258 40.8774C31.5563 43.5427 38.9023 37.7291 37.7751 38.2124Z" fill="#564642"/>
<path d="M44.1817 16.5129C44.1817 20.5516 35.3222 23.8259 24.3937 23.8259C13.4652 23.8259 4.60547 20.5516 4.60547 16.5129C4.60547 12.4741 12.6045 15.2224 23.5332 15.2224C34.462 15.2224 44.1817 12.4739 44.1817 16.5129Z" fill="#BD9A85"/>
<path d="M13.209 16.9431L15.1692 8.73639C15.4362 7.61864 16.6312 6.99614 17.7 7.41814L22.823 9.44039C23.832 9.83864 24.9547 9.83864 25.9637 9.44039L31.0867 7.41814C32.1557 6.99614 33.3505 7.61864 33.6175 8.73639L35.5777 16.9431C27.462 20.0784 20.0572 19.8324 13.209 16.9431Z" fill="#BD9A85"/>
<path d="M38.3936 52.1682H10.3936L11.7936 68.1681H36.9936L38.3936 52.1682Z" fill="#D6E3F9"/>
<path d="M24.3936 64.1682C26.0504 64.1682 27.3935 62.825 27.3935 61.1682C27.3935 59.5113 26.0504 58.1682 24.3936 58.1682C22.7367 58.1682 21.3936 59.5113 21.3936 61.1682C21.3936 62.825 22.7367 64.1682 24.3936 64.1682Z" fill="#4B5DFF"/>
</g>
<defs>
<clipPath id="clip0">
<rect width="57" height="70" fill="white" transform="translate(0.790039 0.36618)"/>
</clipPath>
</defs>
</svg>
