<svg width="24" height="26" viewBox="0 0 24 26" fill="none" xmlns="http://www.w3.org/2000/svg">
<path d="M23.9319 9.73561C23.9319 7.37468 23.0068 5.14934 21.3265 3.46921C19.6464 1.78908 17.421 0.86377 15.0603 0.86377H9.80358C7.44304 0.86377 5.2175 1.78908 3.53757 3.46902C1.85744 5.14915 0.932129 7.37468 0.932129 9.73542V13.8674C0.932129 15.6956 1.48981 17.4543 2.54495 18.9534C3.47582 20.2759 4.72771 21.3088 6.1873 21.9639V24.3373C6.1873 25.5644 6.87443 25.9997 7.46279 25.9999C7.88316 25.9999 8.30372 25.7924 8.71297 25.3834L11.3569 22.739H15.0605C17.4212 22.739 19.6466 21.8137 21.3267 20.1336C23.0068 18.4534 23.9321 16.2281 23.9321 13.8674L23.9319 9.73561Z" fill="#904AB0"/>
<path d="M12.3959 4.37579C11.9753 4.37579 11.9753 5.03132 12.3959 5.03678C15.6593 5.06191 18.347 7.33658 18.3765 11.509C18.3765 11.9493 19.0211 11.9438 19.0156 11.5035C18.9807 7.00772 16.045 4.40092 12.3959 4.37579Z" fill="white"/>
<path d="M16.6885 10.8174C16.6787 11.2522 17.3222 11.273 17.3276 10.8327C17.3812 8.3537 15.8527 6.31175 12.9804 6.09652C12.5598 6.06592 12.5161 6.72691 12.9356 6.7575C15.4266 6.94651 16.7388 8.6465 16.6885 10.8174Z" fill="white"/>
<path d="M16.0002 13.6372C15.4605 13.3248 14.9109 13.5192 14.6837 13.8262L14.2084 14.4413C13.967 14.7538 13.5158 14.7123 13.5158 14.7123C10.2229 13.8415 9.34227 10.3957 9.34227 10.3957C9.34227 10.3957 9.30185 9.92914 9.60339 9.67895L10.1977 9.18731C10.4949 8.95132 10.6828 8.3832 10.3802 7.82491C9.5717 6.36419 9.02871 5.86053 8.7523 5.47377C8.46168 5.10995 8.02467 5.02801 7.57017 5.27383H7.56034C6.61529 5.82666 5.58066 6.86129 5.9117 7.92652C6.47654 9.04965 7.51445 12.6299 10.8227 15.335C12.3773 16.6144 14.8377 17.9254 15.8822 18.2281L15.892 18.2434C16.9212 18.5864 17.922 17.5114 18.4562 16.5379V16.5303C18.6933 16.0594 18.6147 15.6136 18.2683 15.3219C17.6543 14.7232 16.7278 14.0622 16.0002 13.6372Z" fill="white"/>
<path d="M13.4305 8.53508C14.4805 8.59626 14.9896 9.14471 15.0442 10.2711C15.0639 10.7114 15.703 10.6808 15.6834 10.2405C15.6134 8.76997 14.8465 7.95056 13.4655 7.87409C13.0449 7.84896 13.0055 8.50995 13.4305 8.53508Z" fill="white"/>
</svg>
