<svg width="25" height="25" viewBox="0 0 25 25" fill="none" xmlns="http://www.w3.org/2000/svg">
<path d="M12.9351 0.431854H12.9291C6.31263 0.431854 0.932129 5.81385 0.932129 12.4319C0.932129 15.0569 1.77813 17.4899 3.21663 19.4654L1.72113 23.9234L6.33363 22.4489C8.23113 23.7059 10.4946 24.4319 12.9351 24.4319C19.5516 24.4319 24.9321 19.0484 24.9321 12.4319C24.9321 5.81535 19.5516 0.431854 12.9351 0.431854ZM19.9176 17.3774C19.6281 18.1949 18.4791 18.8729 17.5626 19.0709C16.9356 19.2044 16.1166 19.3109 13.3596 18.1679C9.83313 16.7069 7.56213 13.1234 7.38513 12.8909C7.21563 12.6584 5.96013 10.9934 5.96013 9.27135C5.96013 7.54935 6.83463 6.71085 7.18713 6.35085C7.47663 6.05535 7.95513 5.92035 8.41413 5.92035C8.56263 5.92035 8.69613 5.92785 8.81613 5.93385C9.16863 5.94885 9.34563 5.96985 9.57813 6.52635C9.86763 7.22385 10.5726 8.94585 10.6566 9.12285C10.7421 9.29985 10.8276 9.53986 10.7076 9.77235C10.5951 10.0124 10.4961 10.1189 10.3191 10.3229C10.1421 10.5269 9.97413 10.6829 9.79713 10.9019C9.63513 11.0924 9.45213 11.2964 9.65613 11.6489C9.86013 11.9939 10.5651 13.1444 11.6031 14.0684C12.9426 15.2609 14.0286 15.6419 14.4171 15.8039C14.7066 15.9239 15.0516 15.8954 15.2631 15.6704C15.5316 15.3809 15.8631 14.9009 16.2006 14.4284C16.4406 14.0894 16.7436 14.0474 17.0616 14.1674C17.3856 14.2799 19.1001 15.1274 19.4526 15.3029C19.8051 15.4799 20.0376 15.5639 20.1231 15.7124C20.2071 15.8609 20.2071 16.5584 19.9176 17.3774Z" fill="#35B85A"/>
</svg>
