<svg width="31" height="23" viewBox="0 0 31 23" fill="none" xmlns="http://www.w3.org/2000/svg">
<path fill-rule="evenodd" clip-rule="evenodd" d="M11.2143 8.72959C11.2143 8.53629 11.371 8.37959 11.5643 8.37959H12.7267C12.92 8.37959 13.0767 8.53629 13.0767 8.72959V10.0083L14.4129 10.0083C14.6062 10.0083 14.7629 10.165 14.7629 10.3583V11.552C14.7629 11.7453 14.6062 11.902 14.4129 11.902L13.0767 11.902V13.293C13.0767 13.4863 12.92 13.643 12.7267 13.643H11.5643C11.371 13.643 11.2143 13.4863 11.2143 13.293L11.2143 11.902H9.84948C9.65618 11.902 9.49948 11.7453 9.49948 11.552V10.3583C9.49948 10.165 9.65618 10.0083 9.84948 10.0083H11.2143L11.2143 8.72959ZM11.7143 8.87959L11.7143 10.1583C11.7143 10.3516 11.5576 10.5083 11.3643 10.5083H9.99948V11.402H11.3643C11.5576 11.402 11.7143 11.5587 11.7143 11.752L11.7143 13.143H12.5767V11.752C12.5767 11.5587 12.7334 11.402 12.9267 11.402L14.2629 11.402V10.5083L12.9267 10.5083C12.7334 10.5083 12.5767 10.3516 12.5767 10.1583V8.87959H11.7143Z" fill="#9AA4B6"/>
<path fill-rule="evenodd" clip-rule="evenodd" d="M8.11715 0.35969C9.56174 0.464961 11.103 1.28293 12.7158 2.14081C13.8832 2.76176 15.122 2.89656 15.7161 2.88638L15.7219 2.88628L15.7278 2.88638C16.334 2.89677 17.8493 2.75767 19.009 2.14081C20.6218 1.28293 22.1631 0.464961 23.6077 0.35969C24.3461 0.305877 25.0654 0.436207 25.7585 0.834342C26.4469 1.22973 27.0885 1.87707 27.697 2.82368C30.1056 6.57027 31.1098 12.4983 30.9349 17.8924C30.9066 18.7664 30.8301 19.7304 30.5471 20.5055C30.2593 21.2936 29.7297 21.9495 28.7806 22.0564C27.9194 22.1534 27.2925 21.7445 26.6008 21.0672C26.2884 20.7613 25.9471 20.3847 25.5559 19.9531C25.5153 19.9082 25.4741 19.8627 25.4323 19.8167C24.9859 19.3246 24.4674 18.7576 23.8349 18.1197C22.5681 16.8421 21.774 16.2893 21.0304 16.0373C20.3686 15.8131 19.7259 15.8157 18.7464 15.8197C18.6102 15.8202 18.4675 15.8208 18.3174 15.8208H13.4074C13.2573 15.8208 13.1146 15.8202 12.9784 15.8197C11.9989 15.8157 11.3562 15.8131 10.6944 16.0373C9.95077 16.2893 9.1567 16.8421 7.88991 18.1197C7.25743 18.7576 6.73888 19.3246 6.29254 19.8167C6.25077 19.8627 6.20956 19.9082 6.16889 19.9531C5.77775 20.3847 5.43647 20.7613 5.12402 21.0672C4.43229 21.7445 3.80539 22.1534 2.9442 22.0564C1.9951 21.9495 1.46546 21.2936 1.1777 20.5055C0.894669 19.7304 0.81822 18.7664 0.789876 17.8924C0.614961 12.4983 1.61926 6.57027 4.02779 2.82368C4.63632 1.87707 5.27791 1.22973 5.96629 0.834343C6.65945 0.436207 7.37871 0.305877 8.11715 0.35969ZM6.30352 1.42145C5.73587 1.74749 5.16654 2.30435 4.59732 3.1898C2.29482 6.77147 1.29373 12.54 1.46658 17.8704C1.4948 18.7407 1.57104 19.6088 1.81368 20.2733C2.05159 20.9248 2.42061 21.3161 3.02001 21.3836C3.5676 21.4453 3.9985 21.2217 4.65033 20.5834C4.94743 20.2925 5.27451 19.9317 5.67012 19.4952C5.70974 19.4515 5.75003 19.407 5.79106 19.3618C6.23896 18.868 6.7657 18.292 7.40912 17.643C8.69413 16.347 9.57946 15.7003 10.4771 15.3961C11.2535 15.133 12.0196 15.1371 12.982 15.1422C13.1196 15.143 13.2612 15.1437 13.4074 15.1437H18.3174C18.4636 15.1437 18.6052 15.143 18.7428 15.1422C19.7052 15.1371 20.4713 15.133 21.2477 15.3961C22.1453 15.7003 23.0307 16.347 24.3157 17.643C24.9591 18.292 25.4858 18.868 25.9338 19.3618C25.9748 19.407 26.0151 19.4515 26.0547 19.4952C26.4503 19.9317 26.7774 20.2925 27.0745 20.5834C27.7263 21.2217 28.1572 21.4453 28.7048 21.3836C29.3042 21.3161 29.6732 20.9248 29.9111 20.2733C30.1538 19.6088 30.23 18.7407 30.2582 17.8704C30.4311 12.54 29.43 6.77147 27.1275 3.1898C26.5583 2.30435 25.9889 1.74749 25.4213 1.42145C24.8584 1.09815 24.2766 0.989801 23.6569 1.03496C22.3852 1.12763 20.982 1.85821 19.327 2.73857C18.0302 3.42832 16.3917 3.57392 15.722 3.56344C15.0419 3.57412 13.687 3.42428 12.3979 2.73857C10.7428 1.85821 9.33965 1.12763 8.06795 1.03496C7.44825 0.989801 6.86638 1.09815 6.30352 1.42145Z" fill="#9AA4B6"/>
<path fill-rule="evenodd" clip-rule="evenodd" d="M19.5963 9.49492C19.2673 9.4671 18.9381 9.54708 18.6585 9.72278C18.3789 9.89847 18.164 10.1604 18.0463 10.4689C17.9286 10.7774 17.9144 11.1159 18.006 11.4332C18.0975 11.7505 18.2898 12.0294 18.5538 12.2278C18.8178 12.4262 19.1391 12.5334 19.4693 12.5331C19.7996 12.5329 20.1208 12.4252 20.3844 12.2264C20.6481 12.0275 20.8399 11.7483 20.931 11.4309C21.022 11.1134 21.0073 10.775 20.8891 10.4666C20.8423 10.3444 20.9034 10.2074 21.0256 10.1606C21.1478 10.1137 21.2848 10.1748 21.3317 10.297C21.4867 10.7014 21.5059 11.1452 21.3865 11.5615C21.2671 11.9778 21.0156 12.344 20.6698 12.6048C20.324 12.8655 19.9028 13.0067 19.4697 13.0071C19.0366 13.0074 18.6152 12.8669 18.269 12.6067C17.9228 12.3464 17.6707 11.9807 17.5506 11.5646C17.4306 11.1485 17.4491 10.7046 17.6035 10.3C17.7578 9.89534 18.0396 9.55189 18.4063 9.32148C18.773 9.09106 19.2047 8.98618 19.6363 9.02267C19.7667 9.03369 19.8635 9.14835 19.8524 9.27876C19.8414 9.40917 19.7268 9.50595 19.5963 9.49492Z" fill="#9AA4B6"/>
<path fill-rule="evenodd" clip-rule="evenodd" d="M7.9776 4.28704C7.64854 4.25922 7.31936 4.3392 7.03974 4.51489C6.76013 4.69059 6.54525 4.95247 6.42754 5.26102C6.30984 5.56956 6.29569 5.90802 6.38724 6.22531C6.47879 6.5426 6.67106 6.8215 6.93504 7.01992C7.19901 7.21834 7.52037 7.3255 7.8506 7.32524C8.18084 7.32498 8.50202 7.21731 8.76569 7.01847C9.02935 6.81963 9.22118 6.54043 9.31223 6.22299C9.40327 5.90556 9.38859 5.56712 9.27039 5.25876C9.22355 5.13656 9.28464 4.99952 9.40685 4.95268C9.52905 4.90583 9.6661 4.96693 9.71294 5.08913C9.86794 5.49352 9.8872 5.93736 9.7678 6.35366C9.6484 6.76995 9.39683 7.13611 9.05105 7.39687C8.70527 7.65763 8.28406 7.79884 7.85098 7.79918C7.4179 7.79953 6.99646 7.65899 6.65027 7.39878C6.30408 7.13856 6.05193 6.7728 5.93187 6.3567C5.81181 5.94059 5.83037 5.49672 5.98473 5.09209C6.13909 4.68745 6.42089 4.34401 6.78759 4.1136C7.15429 3.88318 7.58598 3.7783 8.01752 3.81478C8.14793 3.82581 8.24471 3.94047 8.23369 4.07088C8.22266 4.20129 8.10801 4.29807 7.9776 4.28704Z" fill="#9AA4B6"/>
<path fill-rule="evenodd" clip-rule="evenodd" d="M15.6201 5.65963C15.4336 5.73114 15.2831 5.87382 15.2017 6.05628C15.1204 6.23875 15.1148 6.44606 15.1863 6.6326C15.2578 6.81915 15.4005 6.96965 15.583 7.05099C15.7655 7.13234 15.9728 7.13787 16.1593 7.06637C16.3458 6.99486 16.4963 6.85218 16.5777 6.66972C16.659 6.48725 16.6646 6.27994 16.5931 6.0934C16.5216 5.90685 16.3789 5.75635 16.1964 5.67501C16.0139 5.59366 15.8066 5.58813 15.6201 5.65963ZM14.7688 5.8633C14.9014 5.56603 15.1466 5.33358 15.4505 5.21709C15.7544 5.10059 16.0921 5.1096 16.3894 5.24213C16.6867 5.37466 16.9191 5.61985 17.0356 5.92377C17.1521 6.22768 17.1431 6.56542 17.0106 6.8627C16.878 7.15997 16.6328 7.39242 16.3289 7.50891C16.025 7.6254 15.6873 7.6164 15.39 7.48387C15.0927 7.35134 14.8603 7.10615 14.7438 6.80223C14.6273 6.49832 14.6363 6.16058 14.7688 5.8633Z" fill="#9AA4B6"/>
<path d="M18.8486 6.36274C18.8486 6.50414 18.734 6.61877 18.5926 6.61877C18.4512 6.61877 18.3366 6.50414 18.3366 6.36274C18.3366 6.22134 18.4512 6.10671 18.5926 6.10671C18.734 6.10671 18.8486 6.22134 18.8486 6.36274Z" fill="#9AA4B6"/>
<path d="M13.4423 6.36274C13.4423 6.50414 13.3277 6.61877 13.1863 6.61877C13.0449 6.61877 12.9303 6.50414 12.9303 6.36274C12.9303 6.22134 13.0449 6.10671 13.1863 6.10671C13.3277 6.10671 13.4423 6.22134 13.4423 6.36274Z" fill="#9AA4B6"/>
<path fill-rule="evenodd" clip-rule="evenodd" d="M22.4494 3.73884C22.4494 3.60796 22.5555 3.50187 22.6864 3.50187H23.7767C23.9076 3.50187 24.0137 3.60796 24.0137 3.73884V4.85316C24.0137 4.91557 23.9891 4.97547 23.9452 5.01983L23.4 5.57079C23.3555 5.61577 23.2948 5.64108 23.2315 5.64108C23.1683 5.64108 23.1076 5.61577 23.0631 5.57079L22.5179 5.01983C22.474 4.97547 22.4494 4.91557 22.4494 4.85316V3.73884ZM22.9233 3.97581V4.75573L23.2315 5.0672L23.5397 4.75573V3.97581H22.9233ZM20.6267 5.56154C20.6267 5.43066 20.7328 5.32457 20.8637 5.32457H21.978C22.0404 5.32457 22.1003 5.34919 22.1447 5.3931L22.6956 5.93827C22.7406 5.98278 22.7659 6.04344 22.7659 6.10672C22.7659 6.17 22.7406 6.23065 22.6956 6.27516L22.1447 6.82034C22.1003 6.86424 22.0404 6.88886 21.978 6.88886H20.8637C20.7328 6.88886 20.6267 6.78277 20.6267 6.65189V5.56154ZM21.1007 5.79851V6.41492H21.8806L22.192 6.10672L21.8806 5.79851H21.1007ZM24.3184 5.3931C24.3628 5.34919 24.4227 5.32457 24.4851 5.32457H25.5994C25.7303 5.32457 25.8364 5.43066 25.8364 5.56154V6.65189C25.8364 6.78277 25.7303 6.88886 25.5994 6.88886H24.4851C24.4227 6.88886 24.3628 6.86424 24.3184 6.82034L23.7675 6.27516C23.7225 6.23065 23.6972 6.17 23.6972 6.10672C23.6972 6.04344 23.7225 5.98278 23.7675 5.93827L24.3184 5.3931ZM24.5825 5.79851L24.2711 6.10672L24.5825 6.41492H25.3625V5.79851H24.5825ZM23.2315 6.57235C23.2948 6.57235 23.3555 6.59766 23.4 6.64264L23.9452 7.19359C23.9891 7.23796 24.0137 7.29785 24.0137 7.36027V8.47459C24.0137 8.60546 23.9076 8.71156 23.7767 8.71156H22.6864C22.5555 8.71156 22.4494 8.60546 22.4494 8.47459V7.36027C22.4494 7.29785 22.474 7.23796 22.5179 7.19359L23.0631 6.64264C23.1076 6.59766 23.1683 6.57235 23.2315 6.57235ZM22.9233 7.4577V8.23762H23.5397V7.4577L23.2315 7.14623L22.9233 7.4577Z" fill="#9AA4B6"/>
</svg>
