<svg width="32" height="22" viewBox="0 0 32 22" fill="none" xmlns="http://www.w3.org/2000/svg">
<path fill-rule="evenodd" clip-rule="evenodd" d="M11.2812 8.45084C11.2812 8.25754 11.4379 8.10084 11.6312 8.10084H12.7936C12.9869 8.10084 13.1436 8.25754 13.1436 8.45084V9.72959L14.4798 9.7296C14.6731 9.7296 14.8298 9.8863 14.8298 10.0796V11.2733C14.8298 11.4666 14.6731 11.6233 14.4798 11.6233L13.1436 11.6233V13.0143C13.1436 13.2076 12.9869 13.3643 12.7936 13.3643H11.6312C11.4379 13.3643 11.2812 13.2076 11.2812 13.0143L11.2812 11.6233H9.91637C9.72307 11.6233 9.56637 11.4666 9.56637 11.2733V10.0796C9.56637 9.8863 9.72307 9.7296 9.91637 9.7296H11.2812L11.2812 8.45084ZM11.7812 8.60084L11.7812 9.87959C11.7812 10.0729 11.6245 10.2296 11.4312 10.2296H10.0664V11.1233H11.4312C11.6245 11.1233 11.7812 11.28 11.7812 11.4733L11.7812 12.8643H12.6436V11.4733C12.6436 11.28 12.8003 11.1233 12.9936 11.1233L14.3298 11.1233V10.2296L12.9936 10.2296C12.8003 10.2296 12.6436 10.0729 12.6436 9.87959V8.60084H11.7812Z" fill="#9AA4B6"/>
<path fill-rule="evenodd" clip-rule="evenodd" d="M8.18405 0.0809426C9.62863 0.186213 11.1699 1.00418 12.7827 1.86206C13.9501 2.48301 15.1889 2.61782 15.783 2.60763L15.7888 2.60753L15.7946 2.60763C16.4009 2.61802 17.9162 2.47892 19.0759 1.86206C20.6887 1.00418 22.23 0.186213 23.6746 0.0809426C24.413 0.0271299 25.1323 0.15746 25.8254 0.555595C26.5138 0.950987 27.1554 1.59832 27.7639 2.54493C30.1724 6.29152 31.1767 12.2196 31.0018 17.6136C30.9735 18.4877 30.897 19.4517 30.614 20.2268C30.3262 21.0149 29.7966 21.6707 28.8475 21.7777C27.9863 21.8747 27.3594 21.4658 26.6677 20.7885C26.3552 20.4825 26.014 20.1059 25.6228 19.6744C25.5822 19.6295 25.5409 19.584 25.4992 19.5379C25.0528 19.0459 24.5343 18.4789 23.9018 17.841C22.635 16.5634 21.8409 16.0106 21.0973 15.7586C20.4355 15.5343 19.7928 15.5369 18.8133 15.5409C18.6771 15.5415 18.5344 15.542 18.3843 15.542H13.4743C13.3242 15.542 13.1815 15.5415 13.0453 15.5409C12.0658 15.5369 11.4231 15.5343 10.7613 15.7586C10.0177 16.0106 9.2236 16.5634 7.9568 17.841C7.32432 18.4789 6.80578 19.0459 6.35943 19.5379C6.31766 19.584 6.27645 19.6295 6.23578 19.6743C5.84465 20.1059 5.50336 20.4825 5.19092 20.7885C4.49919 21.4658 3.87229 21.8747 3.0111 21.7777C2.06199 21.6707 1.53236 21.0149 1.24459 20.2268C0.961563 19.4517 0.885115 18.4877 0.856771 17.6136C0.681856 12.2196 1.68616 6.29152 4.09468 2.54493C4.70322 1.59832 5.34481 0.950987 6.03319 0.555595C6.72634 0.15746 7.4456 0.0271299 8.18405 0.0809426ZM6.37041 1.1427C5.80277 1.46874 5.23343 2.02561 4.66421 2.91106C2.36171 6.49272 1.36062 12.2612 1.53348 17.5917C1.5617 18.462 1.63793 19.3301 1.88058 19.9946C2.11848 20.6461 2.4875 21.0373 3.08691 21.1049C3.63449 21.1666 4.06539 20.943 4.71722 20.3047C5.01432 20.0138 5.34141 19.6529 5.73702 19.2164C5.77663 19.1727 5.81693 19.1283 5.85795 19.083C6.30586 18.5893 6.83259 18.0132 7.47602 17.3643C8.76103 16.0683 9.64636 15.4215 10.544 15.1173C11.3204 14.8543 12.0865 14.8583 13.0489 14.8635C13.1865 14.8642 13.3281 14.865 13.4743 14.865H18.3843C18.5305 14.865 18.6721 14.8642 18.8097 14.8635C19.7721 14.8583 20.5382 14.8543 21.3146 15.1173C22.2122 15.4215 23.0976 16.0683 24.3826 17.3643C25.026 18.0132 25.5527 18.5893 26.0007 19.083C26.0417 19.1283 26.082 19.1727 26.1216 19.2165C26.5172 19.6529 26.8443 20.0138 27.1414 20.3047C27.7932 20.943 28.2241 21.1666 28.7717 21.1049C29.3711 21.0373 29.7401 20.6461 29.978 19.9946C30.2207 19.3301 30.2969 18.462 30.3251 17.5917C30.498 12.2612 29.4969 6.49272 27.1944 2.91106C26.6252 2.02561 26.0558 1.46874 25.4882 1.1427C24.9253 0.8194 24.3435 0.711054 23.7238 0.756213C22.4521 0.848886 21.0489 1.57946 19.3938 2.45982C18.0971 3.14958 16.4586 3.29517 15.7888 3.28469C15.1088 3.29537 13.7539 3.14553 12.4648 2.45982C10.8097 1.57946 9.40655 0.848886 8.13484 0.756213C7.51514 0.711054 6.93328 0.8194 6.37041 1.1427Z" fill="#9AA4B6"/>
<path fill-rule="evenodd" clip-rule="evenodd" d="M19.6632 9.21618C19.3342 9.18836 19.005 9.26833 18.7254 9.44403C18.4458 9.61972 18.2309 9.88161 18.1132 10.1902C17.9955 10.4987 17.9813 10.8372 18.0729 11.1544C18.1644 11.4717 18.3567 11.7506 18.6207 11.9491C18.8847 12.1475 19.206 12.2546 19.5362 12.2544C19.8665 12.2541 20.1877 12.1464 20.4513 11.9476C20.715 11.7488 20.9068 11.4696 20.9979 11.1521C21.0889 10.8347 21.0742 10.4963 20.956 10.1879C20.9092 10.0657 20.9703 9.92865 21.0925 9.88181C21.2147 9.83497 21.3517 9.89606 21.3986 10.0183C21.5536 10.4227 21.5728 10.8665 21.4534 11.2828C21.334 11.6991 21.0825 12.0652 20.7367 12.326C20.3909 12.5868 19.9697 12.728 19.5366 12.7283C19.1035 12.7287 18.6821 12.5881 18.3359 12.3279C17.9897 12.0677 17.7376 11.7019 17.6175 11.2858C17.4975 10.8697 17.516 10.4259 17.6704 10.0212C17.8247 9.61659 18.1065 9.27314 18.4732 9.04273C18.8399 8.81232 19.2716 8.70744 19.7032 8.74392C19.8336 8.75494 19.9304 8.8696 19.9193 9.00001C19.9083 9.13042 19.7936 9.2272 19.6632 9.21618Z" fill="#9AA4B6"/>
<path fill-rule="evenodd" clip-rule="evenodd" d="M8.04449 4.00829C7.71543 3.98047 7.38625 4.06045 7.10664 4.23615C6.82702 4.41184 6.61214 4.67373 6.49444 4.98227C6.37673 5.29081 6.36259 5.62927 6.45413 5.94656C6.54568 6.26385 6.73795 6.54276 7.00193 6.74117C7.26591 6.93959 7.58727 7.04676 7.9175 7.04649C8.24773 7.04623 8.56892 6.93856 8.83258 6.73972C9.09625 6.54089 9.28808 6.26168 9.37912 5.94424C9.47016 5.62681 9.45548 5.28837 9.33729 4.98002C9.29044 4.85781 9.35154 4.72077 9.47374 4.67393C9.59595 4.62709 9.73299 4.68818 9.77983 4.81039C9.93484 5.21478 9.95409 5.65861 9.83469 6.07491C9.7153 6.4912 9.46372 6.85736 9.11795 7.11812C8.77217 7.37889 8.35095 7.52009 7.91787 7.52044C7.4848 7.52078 7.06336 7.38024 6.71717 7.12003C6.37098 6.85982 6.11882 6.49405 5.99876 6.07795C5.87871 5.66184 5.89726 5.21798 6.05162 4.81334C6.20599 4.4087 6.48778 4.06526 6.85448 3.83485C7.22118 3.60443 7.65288 3.49955 8.08442 3.53604C8.21483 3.54706 8.31161 3.66172 8.30058 3.79213C8.28956 3.92254 8.1749 4.01932 8.04449 4.00829Z" fill="#9AA4B6"/>
<path fill-rule="evenodd" clip-rule="evenodd" d="M15.687 5.38089C15.5004 5.45239 15.3499 5.59507 15.2686 5.77754C15.1873 5.96 15.1817 6.16731 15.2532 6.35386C15.3247 6.5404 15.4674 6.6909 15.6499 6.77225C15.8323 6.85359 16.0397 6.85912 16.2262 6.78762C16.4127 6.71612 16.5632 6.57344 16.6446 6.39097C16.7259 6.2085 16.7315 6.00119 16.66 5.81465C16.5885 5.6281 16.4458 5.4776 16.2633 5.39626C16.0808 5.31491 15.8735 5.30938 15.687 5.38089ZM14.8357 5.58456C14.9683 5.28728 15.2134 5.05483 15.5174 4.93834C15.8213 4.82185 16.159 4.83086 16.4563 4.96338C16.7536 5.09591 16.986 5.3411 17.1025 5.64502C17.219 5.94893 17.21 6.28668 17.0775 6.58395C16.9449 6.88122 16.6997 7.11367 16.3958 7.23017C16.0919 7.34666 15.7542 7.33765 15.4569 7.20512C15.1596 7.07259 14.9272 6.8274 14.8107 6.52349C14.6942 6.21957 14.7032 5.88183 14.8357 5.58456Z" fill="#9AA4B6"/>
<path d="M18.9155 6.08399C18.9155 6.22539 18.8009 6.34002 18.6595 6.34002C18.5181 6.34002 18.4035 6.22539 18.4035 6.08399C18.4035 5.94259 18.5181 5.82796 18.6595 5.82796C18.8009 5.82796 18.9155 5.94259 18.9155 6.08399Z" fill="#9AA4B6"/>
<path d="M13.5092 6.08399C13.5092 6.22539 13.3946 6.34002 13.2532 6.34002C13.1118 6.34002 12.9972 6.22539 12.9972 6.08399C12.9972 5.94259 13.1118 5.82796 13.2532 5.82796C13.3946 5.82796 13.5092 5.94259 13.5092 6.08399Z" fill="#9AA4B6"/>
<path fill-rule="evenodd" clip-rule="evenodd" d="M22.5163 3.46009C22.5163 3.32921 22.6224 3.22312 22.7533 3.22312H23.8436C23.9745 3.22312 24.0806 3.32921 24.0806 3.46009V4.57441C24.0806 4.63682 24.056 4.69672 24.0121 4.74109L23.4669 5.29204C23.4224 5.33702 23.3617 5.36233 23.2984 5.36233C23.2352 5.36233 23.1745 5.33702 23.13 5.29204L22.5848 4.74109C22.5409 4.69672 22.5163 4.63682 22.5163 4.57441V3.46009ZM22.9902 3.69706V4.47698L23.2984 4.78845L23.6066 4.47698V3.69706H22.9902ZM20.6936 5.28279C20.6936 5.15192 20.7997 5.04582 20.9306 5.04582H22.0449C22.1073 5.04582 22.1672 5.07045 22.2116 5.11435L22.7625 5.65952C22.8075 5.70403 22.8328 5.76469 22.8328 5.82797C22.8328 5.89125 22.8075 5.9519 22.7625 5.99641L22.2116 6.54159C22.1672 6.58549 22.1073 6.61012 22.0449 6.61012H20.9306C20.7997 6.61012 20.6936 6.50402 20.6936 6.37315V5.28279ZM21.1675 5.51976V6.13618H21.9475L22.2589 5.82797L21.9475 5.51976H21.1675ZM24.3853 5.11435C24.4297 5.07045 24.4896 5.04582 24.552 5.04582H25.6663C25.7972 5.04582 25.9033 5.15192 25.9033 5.28279V6.37315C25.9033 6.50402 25.7972 6.61012 25.6663 6.61012H24.552C24.4896 6.61012 24.4297 6.58549 24.3853 6.54159L23.8344 5.99641C23.7894 5.9519 23.7641 5.89125 23.7641 5.82797C23.7641 5.76469 23.7894 5.70403 23.8344 5.65952L24.3853 5.11435ZM24.6494 5.51976L24.338 5.82797L24.6494 6.13618H25.4293V5.51976H24.6494ZM23.2984 6.2936C23.3617 6.2936 23.4224 6.31891 23.4669 6.36389L24.0121 6.91484C24.056 6.95921 24.0806 7.01911 24.0806 7.08152V8.19584C24.0806 8.32672 23.9745 8.43281 23.8436 8.43281H22.7533C22.6224 8.43281 22.5163 8.32672 22.5163 8.19584V7.08152C22.5163 7.01911 22.5409 6.95921 22.5848 6.91484L23.13 6.36389C23.1745 6.31891 23.2352 6.2936 23.2984 6.2936ZM22.9902 7.17895V7.95887H23.6066V7.17895L23.2984 6.86748L22.9902 7.17895Z" fill="#9AA4B6"/>
</svg>
