<svg width="31" height="23" viewBox="0 0 31 23" fill="none" xmlns="http://www.w3.org/2000/svg">
<path fill-rule="evenodd" clip-rule="evenodd" d="M11.2143 8.72935C11.2143 8.53605 11.371 8.37934 11.5643 8.37934H12.7267C12.92 8.37934 13.0767 8.53605 13.0767 8.72935V10.0081L14.4129 10.0081C14.6062 10.0081 14.7629 10.1648 14.7629 10.3581V11.5518C14.7629 11.7451 14.6062 11.9018 14.4129 11.9018L13.0767 11.9018V13.2928C13.0767 13.4861 12.92 13.6428 12.7267 13.6428H11.5643C11.371 13.6428 11.2143 13.4861 11.2143 13.2928L11.2143 11.9018H9.84948C9.65618 11.9018 9.49948 11.7451 9.49948 11.5518V10.3581C9.49948 10.1648 9.65618 10.0081 9.84948 10.0081H11.2143L11.2143 8.72935ZM11.7143 8.87934L11.7143 10.1581C11.7143 10.3514 11.5576 10.5081 11.3643 10.5081H9.99948V11.4018H11.3643C11.5576 11.4018 11.7143 11.5585 11.7143 11.7518L11.7143 13.1428H12.5767V11.7518C12.5767 11.5585 12.7334 11.4018 12.9267 11.4018L14.2629 11.4018V10.5081L12.9267 10.5081C12.7334 10.5081 12.5767 10.3514 12.5767 10.1581V8.87934H11.7143Z" fill="#4B5DFF"/>
<path fill-rule="evenodd" clip-rule="evenodd" d="M8.11715 0.359446C9.56174 0.464717 11.103 1.28268 12.7158 2.14056C13.8832 2.76151 15.122 2.89632 15.7161 2.88613L15.7219 2.88603L15.7278 2.88613C16.334 2.89653 17.8493 2.75743 19.009 2.14056C20.6218 1.28268 22.1631 0.464717 23.6077 0.359446C24.3461 0.305633 25.0654 0.435963 25.7585 0.834098C26.4469 1.22949 27.0885 1.87682 27.697 2.82343C30.1056 6.57003 31.1098 12.4981 30.9349 17.8921C30.9066 18.7662 30.8301 19.7302 30.5471 20.5053C30.2594 21.2934 29.7297 21.9492 28.7806 22.0562C27.9194 22.1532 27.2925 21.7443 26.6008 21.067C26.2884 20.761 25.9471 20.3844 25.5559 19.9529C25.5153 19.908 25.4741 19.8625 25.4323 19.8164C24.9859 19.3244 24.4674 18.7574 23.8349 18.1195C22.5681 16.8419 21.774 16.2891 21.0304 16.0371C20.3686 15.8128 19.7259 15.8154 18.7464 15.8194C18.6102 15.82 18.4675 15.8205 18.3174 15.8205H13.4074C13.2573 15.8205 13.1146 15.82 12.9784 15.8194C11.9989 15.8154 11.3562 15.8128 10.6944 16.0371C9.95077 16.2891 9.1567 16.8419 7.88991 18.1195C7.25743 18.7574 6.73888 19.3244 6.29254 19.8164C6.25077 19.8625 6.20956 19.908 6.16889 19.9528C5.77775 20.3844 5.43647 20.761 5.12402 21.067C4.43229 21.7443 3.80539 22.1532 2.9442 22.0562C1.9951 21.9492 1.46546 21.2934 1.1777 20.5053C0.894669 19.7302 0.81822 18.7662 0.789876 17.8921C0.614961 12.4981 1.61926 6.57003 4.02779 2.82343C4.63632 1.87682 5.27791 1.22949 5.96629 0.834098C6.65945 0.435963 7.37871 0.305633 8.11715 0.359446ZM6.30352 1.4212C5.73587 1.74725 5.16654 2.30411 4.59732 3.18956C2.29482 6.77122 1.29373 12.5397 1.46658 17.8702C1.4948 18.7405 1.57104 19.6086 1.81368 20.2731C2.05159 20.9246 2.42061 21.3158 3.02001 21.3834C3.5676 21.4451 3.9985 21.2215 4.65033 20.5832C4.94743 20.2923 5.27451 19.9314 5.67012 19.4949C5.70974 19.4512 5.75003 19.4068 5.79106 19.3615C6.23896 18.8678 6.7657 18.2917 7.40912 17.6428C8.69413 16.3468 9.57947 15.7 10.4771 15.3959C11.2535 15.1328 12.0196 15.1368 12.982 15.142C13.1196 15.1427 13.2612 15.1435 13.4074 15.1435H18.3174C18.4636 15.1435 18.6052 15.1427 18.7428 15.142C19.7052 15.1368 20.4713 15.1328 21.2477 15.3959C22.1453 15.7 23.0307 16.3468 24.3157 17.6428C24.9591 18.2917 25.4858 18.8678 25.9338 19.3615C25.9748 19.4068 26.0151 19.4513 26.0547 19.495C26.4503 19.9314 26.7774 20.2923 27.0745 20.5832C27.7263 21.2215 28.1572 21.4451 28.7048 21.3834C29.3042 21.3158 29.6732 20.9246 29.9111 20.2731C30.1538 19.6086 30.23 18.7405 30.2582 17.8702C30.4311 12.5397 29.43 6.77122 27.1275 3.18956C26.5583 2.30411 25.9889 1.74725 25.4213 1.4212C24.8584 1.0979 24.2766 0.989557 23.6569 1.03472C22.3852 1.12739 20.982 1.85796 19.327 2.73832C18.0302 3.42808 16.3917 3.57367 15.722 3.56319C15.0419 3.57387 13.687 3.42404 12.3979 2.73832C10.7428 1.85796 9.33965 1.12739 8.06795 1.03472C7.44825 0.989557 6.86638 1.0979 6.30352 1.4212Z" fill="#4B5DFF"/>
<path fill-rule="evenodd" clip-rule="evenodd" d="M19.5963 9.49468C19.2673 9.46686 18.9381 9.54683 18.6585 9.72253C18.3789 9.89823 18.164 10.1601 18.0463 10.4687C17.9286 10.7772 17.9144 11.1157 18.006 11.4329C18.0975 11.7502 18.2898 12.0291 18.5538 12.2276C18.8178 12.426 19.1391 12.5331 19.4693 12.5329C19.7996 12.5326 20.1208 12.4249 20.3844 12.2261C20.6481 12.0273 20.8399 11.7481 20.931 11.4306C21.022 11.1132 21.0073 10.7748 20.8891 10.4664C20.8423 10.3442 20.9034 10.2072 21.0256 10.1603C21.1478 10.1135 21.2848 10.1746 21.3317 10.2968C21.4867 10.7012 21.5059 11.145 21.3865 11.5613C21.2671 11.9776 21.0156 12.3438 20.6698 12.6045C20.324 12.8653 19.9028 13.0065 19.4697 13.0068C19.0366 13.0072 18.6152 12.8666 18.269 12.6064C17.9228 12.3462 17.6707 11.9804 17.5506 11.5643C17.4306 11.1482 17.4491 10.7044 17.6035 10.2997C17.7578 9.89509 18.0396 9.55165 18.4063 9.32123C18.773 9.09082 19.2047 8.98594 19.6363 9.02242C19.7667 9.03345 19.8635 9.1481 19.8524 9.27851C19.8414 9.40892 19.7268 9.50571 19.5963 9.49468Z" fill="#4B5DFF"/>
<path fill-rule="evenodd" clip-rule="evenodd" d="M7.9776 4.2868C7.64854 4.25898 7.31936 4.33895 7.03974 4.51465C6.76013 4.69034 6.54525 4.95223 6.42754 5.26077C6.30984 5.56932 6.29569 5.90778 6.38724 6.22507C6.47878 6.54236 6.67106 6.82126 6.93504 7.01968C7.19901 7.21809 7.52037 7.32526 7.8506 7.325C8.18084 7.32474 8.50202 7.21706 8.76569 7.01823C9.02935 6.81939 9.22118 6.54018 9.31223 6.22275C9.40327 5.90531 9.38859 5.56688 9.27039 5.25852C9.22355 5.13631 9.28464 4.99927 9.40685 4.95243C9.52905 4.90559 9.6661 4.96668 9.71294 5.08889C9.86794 5.49328 9.8872 5.93712 9.7678 6.35341C9.6484 6.76971 9.39683 7.13587 9.05105 7.39663C8.70527 7.65739 8.28406 7.7986 7.85098 7.79894C7.4179 7.79928 6.99646 7.65874 6.65027 7.39853C6.30408 7.13832 6.05193 6.77256 5.93187 6.35645C5.81181 5.94035 5.83037 5.49648 5.98473 5.09184C6.13909 4.68721 6.42089 4.34377 6.78759 4.11335C7.15429 3.88294 7.58598 3.77806 8.01752 3.81454C8.14793 3.82557 8.24471 3.94022 8.23369 4.07063C8.22266 4.20104 8.10801 4.29782 7.9776 4.2868Z" fill="#4B5DFF"/>
<path fill-rule="evenodd" clip-rule="evenodd" d="M15.6201 5.65939C15.4336 5.73089 15.2831 5.87357 15.2017 6.05604C15.1204 6.23851 15.1148 6.44582 15.1863 6.63236C15.2578 6.8189 15.4005 6.9694 15.583 7.05075C15.7655 7.1321 15.9728 7.13763 16.1593 7.06612C16.3458 6.99462 16.4963 6.85194 16.5777 6.66947C16.659 6.487 16.6646 6.2797 16.5931 6.09315C16.5216 5.90661 16.3789 5.75611 16.1964 5.67476C16.0139 5.59342 15.8066 5.58789 15.6201 5.65939ZM14.7688 5.86306C14.9014 5.56579 15.1466 5.33334 15.4505 5.21684C15.7544 5.10035 16.0921 5.10936 16.3894 5.24189C16.6867 5.37442 16.9191 5.61961 17.0356 5.92352C17.1521 6.22744 17.1431 6.56518 17.0106 6.86245C16.878 7.15973 16.6328 7.39218 16.3289 7.50867C16.025 7.62516 15.6873 7.61615 15.39 7.48362C15.0927 7.3511 14.8603 7.1059 14.7438 6.80199C14.6273 6.49807 14.6363 6.16033 14.7688 5.86306Z" fill="#4B5DFF"/>
<path d="M18.8486 6.36249C18.8486 6.50389 18.734 6.61852 18.5926 6.61852C18.4512 6.61852 18.3366 6.50389 18.3366 6.36249C18.3366 6.22109 18.4512 6.10646 18.5926 6.10646C18.734 6.10646 18.8486 6.22109 18.8486 6.36249Z" fill="#4B5DFF"/>
<path d="M13.4423 6.36249C13.4423 6.50389 13.3277 6.61852 13.1863 6.61852C13.0449 6.61852 12.9303 6.50389 12.9303 6.36249C12.9303 6.22109 13.0449 6.10646 13.1863 6.10646C13.3277 6.10646 13.4423 6.22109 13.4423 6.36249Z" fill="#4B5DFF"/>
<path fill-rule="evenodd" clip-rule="evenodd" d="M22.4494 3.73859C22.4494 3.60772 22.5555 3.50162 22.6864 3.50162H23.7767C23.9076 3.50162 24.0137 3.60772 24.0137 3.73859V4.85291C24.0137 4.91533 23.9891 4.97522 23.9452 5.01959L23.4 5.57054C23.3555 5.61552 23.2948 5.64083 23.2315 5.64083C23.1683 5.64083 23.1076 5.61552 23.0631 5.57054L22.5179 5.01959C22.474 4.97522 22.4494 4.91533 22.4494 4.85291V3.73859ZM22.9233 3.97556V4.75549L23.2315 5.06696L23.5397 4.75549V3.97556H22.9233ZM20.6267 5.5613C20.6267 5.43042 20.7328 5.32432 20.8637 5.32432H21.978C22.0404 5.32432 22.1003 5.34895 22.1447 5.39285L22.6956 5.93803C22.7406 5.98254 22.7659 6.04319 22.7659 6.10647C22.7659 6.16975 22.7406 6.23041 22.6956 6.27492L22.1447 6.82009C22.1003 6.864 22.0404 6.88862 21.978 6.88862H20.8637C20.7328 6.88862 20.6267 6.78253 20.6267 6.65165V5.5613ZM21.1007 5.79827V6.41468H21.8806L22.192 6.10647L21.8806 5.79827H21.1007ZM24.3184 5.39285C24.3628 5.34895 24.4227 5.32432 24.4851 5.32432H25.5994C25.7303 5.32432 25.8364 5.43042 25.8364 5.5613V6.65165C25.8364 6.78253 25.7303 6.88862 25.5994 6.88862H24.4851C24.4227 6.88862 24.3628 6.864 24.3184 6.82009L23.7675 6.27492C23.7225 6.23041 23.6972 6.16975 23.6972 6.10647C23.6972 6.04319 23.7225 5.98254 23.7675 5.93803L24.3184 5.39285ZM24.5825 5.79827L24.2711 6.10647L24.5825 6.41468H25.3625V5.79827H24.5825ZM23.2315 6.5721C23.2948 6.5721 23.3555 6.59741 23.4 6.6424L23.9452 7.19335C23.9891 7.23771 24.0137 7.29761 24.0137 7.36003V8.47434C24.0137 8.60522 23.9076 8.71132 23.7767 8.71132H22.6864C22.5555 8.71132 22.4494 8.60522 22.4494 8.47434V7.36003C22.4494 7.29761 22.474 7.23771 22.5179 7.19335L23.0631 6.6424C23.1076 6.59741 23.1683 6.5721 23.2315 6.5721ZM22.9233 7.45745V8.23737H23.5397V7.45745L23.2315 7.14598L22.9233 7.45745Z" fill="#4B5DFF"/>
</svg>
