<svg width="19" height="29" viewBox="0 0 19 29" fill="none" xmlns="http://www.w3.org/2000/svg">
<path fill-rule="evenodd" clip-rule="evenodd" d="M16.8952 1.53915H2.0822C1.71459 1.53915 1.41659 1.83715 1.41659 2.20476V26.6789C1.41659 27.0465 1.71459 27.3445 2.0822 27.3445H16.8952C17.2628 27.3445 17.5608 27.0465 17.5608 26.6789V2.20476C17.5608 1.83715 17.2628 1.53915 16.8952 1.53915ZM2.0822 0.873535C1.34699 0.873535 0.750977 1.46954 0.750977 2.20476V26.6789C0.750977 27.4141 1.34698 28.0101 2.0822 28.0101H16.8952C17.6304 28.0101 18.2264 27.4141 18.2264 26.6789V2.20476C18.2264 1.46954 17.6304 0.873535 16.8952 0.873535H2.0822Z" fill="#4B5DFF"/>
<path fill-rule="evenodd" clip-rule="evenodd" d="M1.10907 3.48654C1.20005 3.39557 1.34755 3.39557 1.43853 3.48654L9.89551 11.9435C9.98649 12.0345 9.98649 12.182 9.89551 12.273C9.80453 12.364 9.65703 12.364 9.56605 12.273L1.10907 3.81601C1.01809 3.72503 1.01809 3.57752 1.10907 3.48654Z" fill="#4B5DFF"/>
<path fill-rule="evenodd" clip-rule="evenodd" d="M17.7276 26.1325C17.6378 26.2246 17.4903 26.2264 17.3982 26.1366L5.06211 14.1059C4.97 14.016 4.96815 13.8685 5.05798 13.7764C5.14781 13.6843 5.29531 13.6825 5.38742 13.7723L17.7235 25.8031C17.8156 25.8929 17.8174 26.0404 17.7276 26.1325Z" fill="#4B5DFF"/>
<path fill-rule="evenodd" clip-rule="evenodd" d="M16.6442 18.9755C16.5536 19.0669 16.4061 19.0677 16.3147 18.9772L11.3165 14.0294C11.2251 13.9389 11.2243 13.7914 11.3149 13.7C11.4054 13.6085 11.5529 13.6078 11.6443 13.6983L16.6425 18.646C16.7339 18.7365 16.7347 18.8841 16.6442 18.9755Z" fill="#4B5DFF"/>
<path d="M12.0741 6.53461C12.0951 6.38115 12.3169 6.38115 12.3379 6.53461L12.4898 7.64679C12.4979 7.706 12.5445 7.75257 12.6037 7.76066L13.7159 7.91262C13.8694 7.93359 13.8694 8.15544 13.7159 8.17641L12.6037 8.32837C12.5445 8.33646 12.4979 8.38303 12.4898 8.44225L12.3379 9.55442C12.3169 9.70789 12.0951 9.70789 12.0741 9.55442L11.9221 8.44225C11.914 8.38303 11.8675 8.33646 11.8083 8.32837L10.6961 8.17641C10.5426 8.15544 10.5426 7.93359 10.6961 7.91262L11.8083 7.76066C11.8675 7.75257 11.914 7.706 11.9221 7.64679L12.0741 6.53461Z" fill="#4B5DFF"/>
<path d="M14.5952 4.53416C14.6161 4.38069 14.838 4.38069 14.859 4.53416L14.9239 5.00957C14.932 5.06879 14.9786 5.11536 15.0378 5.12345L15.5132 5.1884C15.6667 5.20937 15.6667 5.43123 15.5132 5.4522L15.0378 5.51715C14.9786 5.52524 14.932 5.57181 14.9239 5.63103L14.859 6.10644C14.838 6.2599 14.6161 6.2599 14.5952 6.10644L14.5302 5.63103C14.5221 5.57181 14.4756 5.52524 14.4163 5.51715L13.9409 5.4522C13.7875 5.43123 13.7875 5.20937 13.9409 5.1884L14.4163 5.12345C14.4756 5.11536 14.5221 5.06879 14.5302 5.00957L14.5952 4.53416Z" fill="#4B5DFF"/>
</svg>
