<svg width="19" height="28" viewBox="0 0 19 28" fill="none" xmlns="http://www.w3.org/2000/svg">
<path fill-rule="evenodd" clip-rule="evenodd" d="M16.9621 0.992638H2.14909C1.78149 0.992638 1.48348 1.29064 1.48348 1.65825V26.1324C1.48348 26.5 1.78149 26.798 2.14909 26.798H16.9621C17.3297 26.798 17.6277 26.5 17.6277 26.1324V1.65825C17.6277 1.29064 17.3297 0.992638 16.9621 0.992638ZM2.14909 0.327026C1.41388 0.327026 0.817871 0.923036 0.817871 1.65825V26.1324C0.817871 26.8676 1.41388 27.4636 2.14909 27.4636H16.9621C17.6973 27.4636 18.2933 26.8676 18.2933 26.1324V1.65825C18.2933 0.923035 17.6973 0.327026 16.9621 0.327026H2.14909Z" fill="#9AA4B6"/>
<path fill-rule="evenodd" clip-rule="evenodd" d="M1.17597 2.94004C1.26694 2.84906 1.41445 2.84906 1.50543 2.94004L9.96241 11.397C10.0534 11.488 10.0534 11.6355 9.96241 11.7265C9.87143 11.8175 9.72392 11.8175 9.63295 11.7265L1.17597 3.2695C1.08499 3.17852 1.08499 3.03101 1.17597 2.94004Z" fill="#9AA4B6"/>
<path fill-rule="evenodd" clip-rule="evenodd" d="M17.7945 25.586C17.7047 25.6781 17.5572 25.6799 17.4651 25.5901L5.12901 13.5594C5.0369 13.4695 5.03505 13.322 5.12488 13.2299C5.21471 13.1378 5.3622 13.136 5.45431 13.2258L17.7904 25.2565C17.8825 25.3464 17.8843 25.4939 17.7945 25.586Z" fill="#9AA4B6"/>
<path fill-rule="evenodd" clip-rule="evenodd" d="M16.7111 18.429C16.6205 18.5204 16.473 18.5212 16.3816 18.4307L11.3834 13.4829C11.292 13.3924 11.2912 13.2449 11.3818 13.1534C11.4723 13.062 11.6198 13.0613 11.7112 13.1518L16.7094 18.0995C16.8008 18.19 16.8016 18.3375 16.7111 18.429Z" fill="#9AA4B6"/>
<path d="M12.141 5.9881C12.162 5.83464 12.3838 5.83464 12.4048 5.9881L12.5567 7.10028C12.5648 7.15949 12.6114 7.20606 12.6706 7.21415L13.7828 7.36611C13.9363 7.38708 13.9363 7.60894 13.7828 7.6299L12.6706 7.78186C12.6114 7.78996 12.5648 7.83652 12.5567 7.89574L12.4048 9.00791C12.3838 9.16138 12.162 9.16138 12.141 9.00791L11.989 7.89574C11.9809 7.83652 11.9344 7.78996 11.8752 7.78186L10.763 7.6299C10.6095 7.60894 10.6095 7.38708 10.763 7.36611L11.8752 7.21415C11.9344 7.20606 11.9809 7.15949 11.989 7.10028L12.141 5.9881Z" fill="#9AA4B6"/>
<path d="M14.6621 3.98765C14.683 3.83419 14.9049 3.83419 14.9259 3.98765L14.9908 4.46306C14.9989 4.52228 15.0455 4.56885 15.1047 4.57694L15.5801 4.64189C15.7336 4.66286 15.7336 4.88472 15.5801 4.90569L15.1047 4.97064C15.0455 4.97873 14.9989 5.0253 14.9908 5.08452L14.9259 5.55993C14.9049 5.71339 14.683 5.71339 14.6621 5.55993L14.5971 5.08452C14.589 5.0253 14.5425 4.97873 14.4832 4.97064L14.0078 4.90569C13.8544 4.88472 13.8544 4.66286 14.0078 4.64189L14.4832 4.57694C14.5425 4.56885 14.589 4.52228 14.5971 4.46306L14.6621 3.98765Z" fill="#9AA4B6"/>
</svg>
