<svg width="42" height="29" viewBox="0 0 42 29" fill="none" xmlns="http://www.w3.org/2000/svg">
<path fill-rule="evenodd" clip-rule="evenodd" d="M37.7698 1.0484H4.0848C3.71087 1.0484 3.40774 1.35153 3.40774 1.72546V24.7299H38.4469V1.72546C38.4469 1.35153 38.1438 1.0484 37.7698 1.0484ZM4.0848 0.371338C3.33694 0.371338 2.73068 0.977597 2.73068 1.72546V25.407H39.124V1.72546C39.124 0.977599 38.5177 0.371338 37.7698 0.371338H4.0848Z" fill="#4B5DFF"/>
<path fill-rule="evenodd" clip-rule="evenodd" d="M38.3215 27.3697H3.5331C2.32421 27.3697 1.30706 26.5487 1.0088 25.4339H40.8458C40.5476 26.5487 39.5304 27.3697 38.3215 27.3697ZM41.5417 25.4339C41.2296 26.9261 39.9064 28.0468 38.3215 28.0468H3.5331C1.9482 28.0468 0.625059 26.9261 0.312906 25.4339C0.267195 25.2154 0.243164 24.9889 0.243164 24.7568H41.6115C41.6115 24.9889 41.5874 25.2154 41.5417 25.4339Z" fill="#4B5DFF"/>
<path fill-rule="evenodd" clip-rule="evenodd" d="M3.93809 3.01934C3.93809 2.88846 4.04418 2.78237 4.17506 2.78237H37.6796C37.8105 2.78237 37.9166 2.88846 37.9166 3.01934V23.8222C37.9166 23.953 37.8105 24.0591 37.6796 24.0591H4.17506C4.04418 24.0591 3.93809 23.953 3.93809 23.8222V3.01934ZM4.41203 3.25631V23.5852H37.4426V3.25631H4.41203Z" fill="#4B5DFF"/>
<path fill-rule="evenodd" clip-rule="evenodd" d="M20.5591 1.82574C20.5591 1.69486 20.6652 1.58876 20.7961 1.58876H21.0585C21.1894 1.58876 21.2955 1.69486 21.2955 1.82574C21.2955 1.95661 21.1894 2.06271 21.0585 2.06271H20.7961C20.6652 2.06271 20.5591 1.95661 20.5591 1.82574Z" fill="#4B5DFF"/>
<path fill-rule="evenodd" clip-rule="evenodd" d="M13.4313 2.95278C13.5238 2.86023 13.6738 2.86023 13.7664 2.95278L20.9236 10.1099C21.0161 10.2025 21.0161 10.3525 20.9236 10.4451C20.831 10.5376 20.681 10.5376 20.5884 10.4451L13.4313 3.2879C13.3387 3.19536 13.3387 3.04532 13.4313 2.95278ZM13.6701 7.87508C13.7615 7.78139 13.9115 7.77951 14.0052 7.87088L24.5243 18.1296C24.618 18.221 24.6199 18.3711 24.5285 18.4648C24.4371 18.5584 24.2871 18.5603 24.1934 18.4689L13.6743 8.21018C13.5806 8.11881 13.5787 7.96878 13.6701 7.87508ZM22.0795 11.0944C22.1716 11.0014 22.3216 11.0006 22.4146 11.0927L26.6766 15.3117C26.7696 15.4038 26.7704 15.5538 26.6783 15.6468C26.5863 15.7398 26.4362 15.7406 26.3432 15.6485L22.0812 11.4295C21.9882 11.3374 21.9874 11.1874 22.0795 11.0944ZM25.2691 19.2189C25.3612 19.1259 25.5112 19.1252 25.6043 19.2172L29.8663 23.4362C29.9593 23.5283 29.96 23.6783 29.868 23.7714C29.7759 23.8644 29.6258 23.8651 29.5328 23.7731L25.2708 19.5541C25.1778 19.462 25.1771 19.3119 25.2691 19.2189Z" fill="#4B5DFF"/>
</svg>
