<svg width="42" height="29" viewBox="0 0 42 29" fill="none" xmlns="http://www.w3.org/2000/svg">
<path fill-rule="evenodd" clip-rule="evenodd" d="M37.8362 1.33948H4.15121C3.77728 1.33948 3.47415 1.64261 3.47415 2.01653V25.021H38.5133V2.01654C38.5133 1.64261 38.2102 1.33948 37.8362 1.33948ZM4.15121 0.662415C3.40335 0.662415 2.79709 1.26867 2.79709 2.01653V25.698H39.1904V2.01654C39.1904 1.26868 38.5841 0.662415 37.8362 0.662415H4.15121Z" fill="#9AA4B6"/>
<path fill-rule="evenodd" clip-rule="evenodd" d="M38.3879 27.6608H3.59951C2.39061 27.6608 1.37347 26.8398 1.07521 25.725H40.9122C40.614 26.8398 39.5968 27.6608 38.3879 27.6608ZM41.6081 25.725C41.296 27.2171 39.9728 28.3378 38.3879 28.3378H3.59951C2.01461 28.3378 0.691466 27.2171 0.379312 25.725C0.333602 25.5065 0.30957 25.28 0.30957 25.0479H41.6779C41.6779 25.28 41.6538 25.5065 41.6081 25.725Z" fill="#9AA4B6"/>
<path fill-rule="evenodd" clip-rule="evenodd" d="M4.0045 3.31041C4.0045 3.17954 4.11059 3.07344 4.24147 3.07344H37.746C37.8769 3.07344 37.983 3.17954 37.983 3.31041V24.1132C37.983 24.2441 37.8769 24.3502 37.746 24.3502H4.24147C4.11059 24.3502 4.0045 24.2441 4.0045 24.1132V3.31041ZM4.47844 3.54738V23.8763H37.509V3.54738H4.47844Z" fill="#9AA4B6"/>
<path fill-rule="evenodd" clip-rule="evenodd" d="M20.6255 2.11681C20.6255 1.98594 20.7316 1.87984 20.8625 1.87984H21.125C21.2558 1.87984 21.3619 1.98594 21.3619 2.11681C21.3619 2.24769 21.2558 2.35378 21.125 2.35378H20.8625C20.7316 2.35378 20.6255 2.24769 20.6255 2.11681Z" fill="#9AA4B6"/>
<path fill-rule="evenodd" clip-rule="evenodd" d="M13.4977 3.24385C13.5902 3.15131 13.7403 3.15131 13.8328 3.24385L20.99 10.401C21.0825 10.4936 21.0825 10.6436 20.99 10.7362C20.8974 10.8287 20.7474 10.8287 20.6548 10.7362L13.4977 3.57898C13.4051 3.48644 13.4051 3.3364 13.4977 3.24385ZM13.7365 8.16616C13.8279 8.07246 13.9779 8.07058 14.0716 8.16196L24.5907 18.4207C24.6844 18.5121 24.6863 18.6621 24.5949 18.7558C24.5035 18.8495 24.3535 18.8514 24.2598 18.76L13.7407 8.50126C13.647 8.40988 13.6451 8.25985 13.7365 8.16616ZM22.1459 11.3855C22.238 11.2925 22.388 11.2917 22.481 11.3838L26.743 15.6028C26.836 15.6948 26.8368 15.8449 26.7447 15.9379C26.6527 16.0309 26.5026 16.0317 26.4096 15.9396L22.1476 11.7206C22.0546 11.6285 22.0538 11.4785 22.1459 11.3855ZM25.3355 19.51C25.4276 19.417 25.5776 19.4162 25.6707 19.5083L29.9327 23.7273C30.0257 23.8194 30.0264 23.9694 29.9344 24.0624C29.8423 24.1554 29.6923 24.1562 29.5992 24.0641L25.3372 19.8451C25.2442 19.7531 25.2435 19.603 25.3355 19.51Z" fill="#9AA4B6"/>
</svg>
