<svg width="16" height="29" viewBox="0 0 16 29" fill="none" xmlns="http://www.w3.org/2000/svg">
<path fill-rule="evenodd" clip-rule="evenodd" d="M13.0635 1.0838H2.83276C1.71096 1.0838 0.801573 1.99319 0.801573 3.11498V25.3019C0.801573 26.4237 1.71096 27.333 2.83275 27.333H13.0635C14.1853 27.333 15.0947 26.4237 15.0947 25.3019V3.11498C15.0947 1.99319 14.1853 1.0838 13.0635 1.0838ZM2.83276 0.406738C1.33703 0.406738 0.124512 1.61926 0.124512 3.11498V25.3019C0.124512 26.7976 1.33703 28.0101 2.83275 28.0101H13.0635C14.5592 28.0101 15.7718 26.7976 15.7718 25.3019V3.11498C15.7718 1.61926 14.5593 0.406738 13.0635 0.406738H2.83276Z" fill="#4B5DFF"/>
<path fill-rule="evenodd" clip-rule="evenodd" d="M1.35029 4.2591C1.35029 4.12822 1.45639 4.02213 1.58727 4.02213H14.309C14.4399 4.02213 14.546 4.12822 14.546 4.2591V23.0358C14.546 23.1667 14.4399 23.2728 14.309 23.2728H1.58727C1.45639 23.2728 1.35029 23.1667 1.35029 23.0358V4.2591ZM1.82424 4.49607V22.7988H14.0721V4.49607H1.82424Z" fill="#4B5DFF"/>
<path fill-rule="evenodd" clip-rule="evenodd" d="M8.02433 24.419C7.82877 24.4025 7.63314 24.45 7.46697 24.5544C7.3008 24.6588 7.1731 24.8145 7.10315 24.9978C7.0332 25.1812 7.02479 25.3823 7.0792 25.5709C7.1336 25.7595 7.24787 25.9252 7.40475 26.0431C7.56162 26.161 7.7526 26.2247 7.94886 26.2246C8.14511 26.2244 8.33599 26.1604 8.49268 26.0423C8.64937 25.9241 8.76338 25.7582 8.81748 25.5695C8.87159 25.3809 8.86286 25.1797 8.79262 24.9965C8.74578 24.8743 8.80687 24.7372 8.92908 24.6904C9.05128 24.6436 9.18832 24.7047 9.23517 24.8269C9.34222 25.1061 9.35552 25.4127 9.27306 25.7002C9.1906 25.9877 9.01685 26.2406 8.77805 26.4207C8.53924 26.6008 8.24833 26.6983 7.94923 26.6985C7.65013 26.6988 7.35907 26.6017 7.11998 26.422C6.88089 26.2423 6.70675 25.9897 6.62383 25.7023C6.54091 25.4149 6.55373 25.1084 6.66034 24.8289C6.76694 24.5494 6.96156 24.3123 7.21482 24.1531C7.46807 23.994 7.76622 23.9216 8.06425 23.9468C8.19466 23.9578 8.29144 24.0724 8.28042 24.2028C8.26939 24.3333 8.15474 24.43 8.02433 24.419Z" fill="#4B5DFF"/>
<path fill-rule="evenodd" clip-rule="evenodd" d="M5.28383 2.41353C5.28383 2.28265 5.38992 2.17655 5.5208 2.17655H5.78327C5.91415 2.17655 6.02024 2.28265 6.02024 2.41353C6.02024 2.5444 5.91415 2.6505 5.78327 2.6505H5.5208C5.38992 2.6505 5.28383 2.5444 5.28383 2.41353ZM6.68431 2.49752C6.68431 2.36665 6.79041 2.26055 6.92129 2.26055H10.1385C10.2694 2.26055 10.3755 2.36665 10.3755 2.49752C10.3755 2.6284 10.2694 2.73449 10.1385 2.73449H6.92129C6.79041 2.73449 6.68431 2.6284 6.68431 2.49752Z" fill="#4B5DFF"/>
<path fill-rule="evenodd" clip-rule="evenodd" d="M1.40057 4.09153C1.49311 3.99899 1.64315 3.99899 1.7357 4.09153L8.89287 11.2487C8.98541 11.3412 8.98541 11.4913 8.89287 11.5838C8.80033 11.6764 8.65028 11.6764 8.55774 11.5838L1.40057 4.42666C1.30802 4.33412 1.30802 4.18408 1.40057 4.09153ZM3.62029 11.4159C3.71166 11.3222 3.86169 11.3203 3.95539 11.4117L14.4745 21.6705C14.5682 21.7618 14.5701 21.9119 14.4787 22.0056C14.3873 22.0993 14.2373 22.1011 14.1436 22.0098L3.62448 11.751C3.53079 11.6596 3.52891 11.5096 3.62029 11.4159ZM9.8786 12.8445C9.97068 12.7515 10.1207 12.7507 10.2137 12.8428L14.4757 17.0618C14.5687 17.1539 14.5695 17.3039 14.4774 17.3969C14.3854 17.4899 14.2353 17.4907 14.1423 17.3986L9.8803 13.1796C9.78729 13.0875 9.78653 12.9375 9.8786 12.8445Z" fill="#4B5DFF"/>
</svg>
