<svg width="16" height="29" viewBox="0 0 16 29" fill="none" xmlns="http://www.w3.org/2000/svg">
<path fill-rule="evenodd" clip-rule="evenodd" d="M13.1304 1.37539H2.89965C1.77786 1.37539 0.868467 2.28479 0.868467 3.40658V25.5935C0.868467 26.7153 1.77786 27.6246 2.89965 27.6246H13.1304C14.2522 27.6246 15.1616 26.7153 15.1616 25.5935V3.40658C15.1616 2.28478 14.2522 1.37539 13.1304 1.37539ZM2.89965 0.698334C1.40393 0.698334 0.191406 1.91086 0.191406 3.40658V25.5935C0.191406 27.0892 1.40392 28.3017 2.89965 28.3017H13.1304C14.6261 28.3017 15.8387 27.0892 15.8387 25.5935V3.40658C15.8387 1.91086 14.6261 0.698334 13.1304 0.698334H2.89965Z" fill="#9AA4B6"/>
<path fill-rule="evenodd" clip-rule="evenodd" d="M1.41719 4.55069C1.41719 4.41982 1.52328 4.31372 1.65416 4.31372H14.3759C14.5068 4.31372 14.6129 4.41982 14.6129 4.55069V23.3274C14.6129 23.4583 14.5068 23.5644 14.3759 23.5644H1.65416C1.52328 23.5644 1.41719 23.4583 1.41719 23.3274V4.55069ZM1.89113 4.78766V23.0904H14.139V4.78766H1.89113Z" fill="#9AA4B6"/>
<path fill-rule="evenodd" clip-rule="evenodd" d="M8.09122 24.7106C7.89567 24.6941 7.70004 24.7416 7.53387 24.846C7.36769 24.9504 7.24 25.1061 7.17004 25.2894C7.10009 25.4728 7.09169 25.6739 7.14609 25.8625C7.2005 26.0511 7.31476 26.2168 7.47164 26.3347C7.62852 26.4526 7.8195 26.5163 8.01575 26.5162C8.21201 26.516 8.40288 26.452 8.55958 26.3339C8.71627 26.2157 8.83027 26.0498 8.88438 25.8611C8.93848 25.6725 8.92976 25.4713 8.85952 25.2881C8.81267 25.1659 8.87377 25.0288 8.99597 24.982C9.11818 24.9352 9.25522 24.9963 9.30206 25.1185C9.40911 25.3977 9.42241 25.7043 9.33995 25.9918C9.25749 26.2793 9.08375 26.5322 8.84494 26.7123C8.60613 26.8924 8.31523 26.9899 8.01613 26.9901C7.71703 26.9904 7.42597 26.8933 7.18688 26.7136C6.94778 26.5339 6.77364 26.2813 6.69072 25.9939C6.60781 25.7065 6.62062 25.4 6.72723 25.1205C6.83384 24.841 7.02846 24.6038 7.28171 24.4447C7.53497 24.2856 7.83311 24.2132 8.13115 24.2383C8.26156 24.2494 8.35834 24.364 8.34731 24.4944C8.33629 24.6248 8.22163 24.7216 8.09122 24.7106Z" fill="#9AA4B6"/>
<path fill-rule="evenodd" clip-rule="evenodd" d="M5.35072 2.70512C5.35072 2.57425 5.45682 2.46815 5.58769 2.46815H5.85017C5.98104 2.46815 6.08714 2.57425 6.08714 2.70512C6.08714 2.836 5.98104 2.94209 5.85017 2.94209H5.58769C5.45682 2.94209 5.35072 2.836 5.35072 2.70512ZM6.75121 2.78912C6.75121 2.65824 6.8573 2.55215 6.98818 2.55215H10.2054C10.3363 2.55215 10.4424 2.65824 10.4424 2.78912C10.4424 2.91999 10.3363 3.02609 10.2054 3.02609H6.98818C6.8573 3.02609 6.75121 2.91999 6.75121 2.78912Z" fill="#9AA4B6"/>
<path fill-rule="evenodd" clip-rule="evenodd" d="M1.46746 4.38313C1.56001 4.29059 1.71005 4.29059 1.80259 4.38313L8.95976 11.5403C9.05231 11.6328 9.05231 11.7829 8.95976 11.8754C8.86722 11.968 8.71718 11.968 8.62464 11.8754L1.46746 4.71826C1.37492 4.62571 1.37492 4.47567 1.46746 4.38313ZM3.68718 11.7075C3.77856 11.6138 3.92859 11.6119 4.02228 11.7033L14.5414 21.9621C14.6351 22.0534 14.637 22.2035 14.5456 22.2972C14.4542 22.3909 14.3042 22.3927 14.2105 22.3014L3.69138 12.0426C3.59768 11.9512 3.5958 11.8012 3.68718 11.7075ZM9.9455 13.1361C10.0376 13.0431 10.1876 13.0423 10.2806 13.1344L14.5426 17.3534C14.6356 17.4455 14.6364 17.5955 14.5443 17.6885C14.4523 17.7815 14.3022 17.7823 14.2092 17.6902L9.9472 13.4712C9.85419 13.3791 9.85343 13.2291 9.9455 13.1361Z" fill="#9AA4B6"/>
</svg>
