<svg width="22" height="29" viewBox="0 0 22 29" fill="none" xmlns="http://www.w3.org/2000/svg">
<path fill-rule="evenodd" clip-rule="evenodd" d="M20.479 1.37539H2.12023C1.7463 1.37539 1.44317 1.67853 1.44317 2.05246V26.9476C1.44317 27.3215 1.7463 27.6246 2.12023 27.6246H20.479C20.8529 27.6246 21.156 27.3215 21.156 26.9476V2.05246C21.156 1.67852 20.8529 1.37539 20.479 1.37539ZM2.12023 0.698334C1.37237 0.698334 0.766113 1.3046 0.766113 2.05246V26.9476C0.766113 27.6954 1.37237 28.3017 2.12023 28.3017H20.479C21.2268 28.3017 21.8331 27.6954 21.8331 26.9476V2.05246C21.8331 1.30459 21.2268 0.698334 20.479 0.698334H2.12023Z" fill="#9AA4B6"/>
<path fill-rule="evenodd" clip-rule="evenodd" d="M2.05374 3.98827C2.05374 3.85739 2.15983 3.7513 2.29071 3.7513H20.3085C20.4394 3.7513 20.5455 3.85739 20.5455 3.98827V24.1492C20.5455 24.28 20.4394 24.3861 20.3085 24.3861H2.29071C2.15983 24.3861 2.05374 24.28 2.05374 24.1492V3.98827ZM2.52768 4.22524V23.9122H20.0715V4.22524H2.52768Z" fill="#9AA4B6"/>
<path fill-rule="evenodd" clip-rule="evenodd" d="M11.2531 25.3521C11.1235 25.3412 10.9938 25.3727 10.8836 25.4419C10.7735 25.5111 10.6888 25.6143 10.6425 25.7359C10.5961 25.8574 10.5905 25.9908 10.6266 26.1158C10.6626 26.2408 10.7384 26.3506 10.8424 26.4288C10.9464 26.507 11.073 26.5492 11.2031 26.5491C11.3332 26.549 11.4597 26.5066 11.5636 26.4282C11.6675 26.3499 11.7431 26.2399 11.7789 26.1148C11.8148 25.9898 11.809 25.8565 11.7624 25.735C11.7156 25.6128 11.7767 25.4757 11.8989 25.4289C12.0211 25.382 12.1581 25.4431 12.205 25.5653C12.2884 25.7829 12.2987 26.0216 12.2345 26.2455C12.1703 26.4694 12.035 26.6664 11.849 26.8066C11.663 26.9469 11.4364 27.0229 11.2035 27.023C10.9705 27.0232 10.7438 26.9476 10.5576 26.8077C10.3714 26.6677 10.2358 26.471 10.1712 26.2471C10.1066 26.0233 10.1166 25.7846 10.1996 25.5669C10.2827 25.3493 10.4342 25.1646 10.6315 25.0406C10.8287 24.9167 11.0609 24.8603 11.293 24.8799C11.4235 24.8909 11.5202 25.0056 11.5092 25.136C11.4982 25.2664 11.3835 25.3632 11.2531 25.3521Z" fill="#9AA4B6"/>
<path fill-rule="evenodd" clip-rule="evenodd" d="M8.64985 2.57149C8.64985 2.44062 8.75595 2.33452 8.88682 2.33452H9.14929C9.28017 2.33452 9.38626 2.44062 9.38626 2.57149C9.38626 2.70237 9.28017 2.80846 9.14929 2.80846H8.88682C8.75595 2.80846 8.64985 2.70237 8.64985 2.57149ZM10.2336 2.57149C10.2336 2.44062 10.3397 2.33452 10.4706 2.33452H13.7124C13.8433 2.33452 13.9494 2.44062 13.9494 2.57149C13.9494 2.70237 13.8433 2.80846 13.7124 2.80846H10.4706C10.3397 2.80846 10.2336 2.70237 10.2336 2.57149Z" fill="#9AA4B6"/>
<path fill-rule="evenodd" clip-rule="evenodd" d="M3.56283 3.8207C3.65538 3.72816 3.80542 3.72816 3.89796 3.8207L11.0551 10.9779C11.1477 11.0704 11.1477 11.2205 11.0551 11.313C10.9626 11.4055 10.8126 11.4055 10.72 11.313L3.56283 4.15583C3.47029 4.06329 3.47029 3.91325 3.56283 3.8207ZM12.2111 11.9623C12.3031 11.8693 12.4532 11.8686 12.5462 11.9606L16.8082 16.1796C16.9012 16.2717 16.902 16.4217 16.8099 16.5148C16.7178 16.6078 16.5678 16.6085 16.4748 16.5165L12.2128 12.2975C12.1198 12.2054 12.119 12.0553 12.2111 11.9623ZM7.44315 12.5953C7.53453 12.5016 7.68456 12.4998 7.77825 12.5911L18.2974 22.8499C18.3911 22.9413 18.3929 23.0913 18.3016 23.185C18.2102 23.2787 18.0602 23.2806 17.9665 23.1892L7.44735 12.9304C7.35366 12.8391 7.35178 12.689 7.44315 12.5953Z" fill="#9AA4B6"/>
</svg>
