<svg width="22" height="29" viewBox="0 0 22 29" fill="none" xmlns="http://www.w3.org/2000/svg">
<path fill-rule="evenodd" clip-rule="evenodd" d="M20.4121 1.08453H2.05334C1.67941 1.08453 1.37628 1.38766 1.37628 1.76159V26.6567C1.37628 27.0306 1.67941 27.3338 2.05334 27.3338H20.4121C20.786 27.3338 21.0891 27.0306 21.0891 26.6567V1.76159C21.0891 1.38766 20.786 1.08453 20.4121 1.08453ZM2.05334 0.407471C1.30548 0.407471 0.699219 1.01373 0.699219 1.76159V26.6567C0.699219 27.4046 1.30548 28.0108 2.05334 28.0108H20.4121C21.1599 28.0108 21.7662 27.4046 21.7662 26.6567V1.76159C21.7662 1.01373 21.1599 0.407471 20.4121 0.407471H2.05334Z" fill="#4B5DFF"/>
<path fill-rule="evenodd" clip-rule="evenodd" d="M1.98684 3.6974C1.98684 3.56653 2.09294 3.46043 2.22382 3.46043H20.2416C20.3725 3.46043 20.4786 3.56653 20.4786 3.6974V23.8583C20.4786 23.9892 20.3725 24.0953 20.2416 24.0953H2.22382C2.09294 24.0953 1.98684 23.9892 1.98684 23.8583V3.6974ZM2.46079 3.93437V23.6213H20.0046V3.93437H2.46079Z" fill="#4B5DFF"/>
<path fill-rule="evenodd" clip-rule="evenodd" d="M11.1862 25.0613C11.0566 25.0503 10.9269 25.0818 10.8167 25.1511C10.7066 25.2203 10.6219 25.3234 10.5756 25.445C10.5292 25.5666 10.5236 25.6999 10.5597 25.8249C10.5957 25.9499 10.6715 26.0598 10.7755 26.138C10.8795 26.2161 11.0061 26.2583 11.1362 26.2582C11.2663 26.2581 11.3928 26.2157 11.4967 26.1374C11.6006 26.059 11.6762 25.949 11.712 25.824C11.7479 25.6989 11.7421 25.5656 11.6955 25.4441C11.6487 25.3219 11.7098 25.1849 11.832 25.138C11.9542 25.0912 12.0913 25.1523 12.1381 25.2745C12.2215 25.492 12.2318 25.7307 12.1676 25.9547C12.1034 26.1786 11.9681 26.3755 11.7821 26.5158C11.5961 26.656 11.3695 26.732 11.1366 26.7322C10.9036 26.7324 10.6769 26.6568 10.4907 26.5168C10.3045 26.3768 10.1689 26.1801 10.1043 25.9563C10.0397 25.7325 10.0497 25.4937 10.1327 25.2761C10.2158 25.0584 10.3673 24.8737 10.5646 24.7498C10.7618 24.6258 10.994 24.5694 11.2262 24.589C11.3566 24.6001 11.4533 24.7147 11.4423 24.8451C11.4313 24.9755 11.3166 25.0723 11.1862 25.0613Z" fill="#4B5DFF"/>
<path fill-rule="evenodd" clip-rule="evenodd" d="M8.58296 2.28063C8.58296 2.14975 8.68905 2.04366 8.81993 2.04366H9.0824C9.21327 2.04366 9.31937 2.14975 9.31937 2.28063C9.31937 2.4115 9.21327 2.5176 9.0824 2.5176H8.81993C8.68905 2.5176 8.58296 2.4115 8.58296 2.28063ZM10.1667 2.28063C10.1667 2.14975 10.2728 2.04366 10.4037 2.04366H13.6455C13.7764 2.04366 13.8825 2.14975 13.8825 2.28063C13.8825 2.4115 13.7764 2.5176 13.6455 2.5176H10.4037C10.2728 2.5176 10.1667 2.4115 10.1667 2.28063Z" fill="#4B5DFF"/>
<path fill-rule="evenodd" clip-rule="evenodd" d="M3.49594 3.52984C3.58848 3.4373 3.73852 3.4373 3.83107 3.52984L10.9882 10.687C11.0808 10.7796 11.0808 10.9296 10.9882 11.0221C10.8957 11.1147 10.7457 11.1147 10.6531 11.0221L3.49594 3.86497C3.4034 3.77242 3.4034 3.62238 3.49594 3.52984ZM12.1442 11.6715C12.2362 11.5785 12.3863 11.5777 12.4793 11.6698L16.7413 15.8888C16.8343 15.9808 16.8351 16.1309 16.743 16.2239C16.6509 16.3169 16.5009 16.3177 16.4079 16.2256L12.1459 12.0066C12.0529 11.9145 12.0521 11.7645 12.1442 11.6715ZM7.37626 12.3045C7.46764 12.2108 7.61767 12.2089 7.71136 12.3003L18.2305 22.559C18.3242 22.6504 18.326 22.8004 18.2347 22.8941C18.1433 22.9878 17.9933 22.9897 17.8996 22.8983L7.38046 12.6396C7.28676 12.5482 7.28488 12.3982 7.37626 12.3045Z" fill="#4B5DFF"/>
</svg>
