<svg width="16" height="16" viewBox="0 0 16 16" fill="none" xmlns="http://www.w3.org/2000/svg">
<path d="M11.6796 0.311035H4.6311C2.33709 0.311035 0.470825 2.1773 0.470825 4.47131V11.52C0.470825 13.8139 2.33709 15.6801 4.6311 15.6801H11.6798C13.9737 15.6801 15.8399 13.8139 15.8399 11.52V4.47131C15.8399 2.1773 13.9737 0.311035 11.6796 0.311035ZM8.15538 12.198C5.83814 12.198 3.953 10.3128 3.953 7.99558C3.953 5.67835 5.83814 3.79321 8.15538 3.79321C10.4726 3.79321 12.3577 5.67835 12.3577 7.99558C12.3577 10.3128 10.4726 12.198 8.15538 12.198ZM12.4582 4.78427C11.7735 4.78427 11.2165 4.2273 11.2165 3.54252C11.2165 2.85774 11.7735 2.30065 12.4582 2.30065C13.143 2.30065 13.7001 2.85774 13.7001 3.54252C13.7001 4.2273 13.143 4.78427 12.4582 4.78427Z" fill="#4B5DFF"/>
<path d="M10.5991 7.99561C10.5991 9.3452 9.50499 10.4393 8.1554 10.4393C6.80581 10.4393 5.71175 9.3452 5.71175 7.99561C5.71175 6.64602 6.80581 5.55196 8.1554 5.55196C9.50499 5.55196 10.5991 6.64602 10.5991 7.99561Z" fill="#4B5DFF"/>
</svg>
