<svg width="36" height="28" viewBox="0 0 36 28" fill="none" xmlns="http://www.w3.org/2000/svg">
<g clip-path="url(#clip0)">
<path d="M35.111 27.0015V27.0717H35.1763C35.1907 27.0717 35.2031 27.0683 35.2121 27.0628C35.2203 27.0574 35.2251 27.0478 35.2251 27.0362C35.2251 27.0246 35.2203 27.0158 35.2121 27.0103C35.2031 27.0042 35.1907 27.0015 35.1763 27.0015H35.111ZM35.177 26.9524C35.2107 26.9524 35.2368 26.9599 35.2554 26.9749C35.2739 26.9899 35.2829 27.0103 35.2829 27.0362C35.2829 27.0581 35.276 27.0758 35.2609 27.0901C35.2464 27.1038 35.2258 27.1126 35.1983 27.116L35.2849 27.2149H35.2176L35.1371 27.1167H35.111V27.2149H35.0546V26.9524H35.177ZM35.1598 27.3056C35.1907 27.3056 35.2196 27.2995 35.2457 27.2879C35.2726 27.2763 35.2959 27.2606 35.3159 27.2408C35.3358 27.2211 35.3517 27.1979 35.3633 27.1706C35.3743 27.144 35.3805 27.1153 35.3805 27.0847C35.3805 27.054 35.3743 27.0253 35.3633 26.9987C35.3517 26.9721 35.3358 26.9483 35.3159 26.9285C35.2959 26.9087 35.2726 26.893 35.2457 26.8814C35.2196 26.8705 35.1907 26.8651 35.1598 26.8651C35.1288 26.8651 35.0993 26.8705 35.0724 26.8814C35.0449 26.893 35.0209 26.9087 35.0009 26.9285C34.981 26.9483 34.9652 26.9721 34.9542 26.9987C34.9425 27.0253 34.937 27.054 34.937 27.0847C34.937 27.1153 34.9425 27.144 34.9542 27.1706C34.9652 27.1979 34.981 27.2211 35.0009 27.2408C35.0209 27.2606 35.0449 27.2763 35.0724 27.2879C35.0993 27.2995 35.1288 27.3056 35.1598 27.3056ZM35.1598 26.8016C35.2004 26.8016 35.2375 26.8091 35.2733 26.8242C35.3083 26.8385 35.3386 26.8589 35.3654 26.8848C35.3915 26.9101 35.4122 26.9401 35.4273 26.9749C35.4424 27.009 35.45 27.0458 35.45 27.0847C35.45 27.1235 35.4424 27.1604 35.4273 27.1945C35.4122 27.2286 35.3915 27.2586 35.3654 27.2845C35.3386 27.3097 35.3083 27.3302 35.2733 27.3452C35.2375 27.3602 35.2004 27.3677 35.1598 27.3677C35.1185 27.3677 35.0807 27.3602 35.0449 27.3452C35.0092 27.3302 34.9782 27.3097 34.9521 27.2845C34.926 27.2586 34.9053 27.2286 34.8902 27.1945C34.8751 27.1604 34.8675 27.1235 34.8675 27.0847C34.8675 27.0458 34.8751 27.009 34.8902 26.9749C34.9053 26.9401 34.926 26.9101 34.9521 26.8848C34.9782 26.8589 35.0092 26.8385 35.0449 26.8242C35.0807 26.8091 35.1185 26.8016 35.1598 26.8016ZM8.36692 25.7903C8.36692 25.2897 8.69769 24.8785 9.23821 24.8785C9.75466 24.8785 10.1033 25.272 10.1033 25.7903C10.1033 26.3086 9.75466 26.7021 9.23821 26.7021C8.69769 26.7021 8.36692 26.2909 8.36692 25.7903ZM10.692 25.7903V24.3664H10.0676V24.7121C9.86951 24.4557 9.56899 24.2947 9.1605 24.2947C8.35523 24.2947 7.72393 24.9208 7.72393 25.7903C7.72393 26.6605 8.35523 27.2858 9.1605 27.2858C9.56899 27.2858 9.86951 27.1249 10.0676 26.8685V27.2142H10.692V25.7903ZM31.7929 25.7903C31.7929 25.2897 32.1237 24.8785 32.6642 24.8785C33.1813 24.8785 33.5293 25.272 33.5293 25.7903C33.5293 26.3086 33.1813 26.7021 32.6642 26.7021C32.1237 26.7021 31.7929 26.2909 31.7929 25.7903ZM34.1186 25.7903V23.2227H33.4935V24.7121C33.2955 24.4557 32.995 24.2947 32.5865 24.2947C31.7812 24.2947 31.1499 24.9208 31.1499 25.7903C31.1499 26.6605 31.7812 27.2858 32.5865 27.2858C32.995 27.2858 33.2955 27.1249 33.4935 26.8685V27.2142H34.1186V25.7903ZM18.4429 24.8492C18.8452 24.8492 19.1037 25.0995 19.1698 25.54H17.6795C17.7462 25.1288 17.9979 24.8492 18.4429 24.8492ZM18.4552 24.2947C17.6135 24.2947 17.0249 24.9024 17.0249 25.7903C17.0249 26.6959 17.6376 27.2858 18.4972 27.2858C18.9297 27.2858 19.3259 27.1788 19.6745 26.8869L19.3685 26.4279C19.1278 26.6182 18.8211 26.7259 18.533 26.7259C18.1307 26.7259 17.7641 26.5411 17.674 26.0283H19.8065C19.8127 25.9512 19.8189 25.8735 19.8189 25.7903C19.8127 24.9024 19.2598 24.2947 18.4552 24.2947ZM25.995 25.7903C25.995 25.2897 26.3258 24.8785 26.8663 24.8785C27.3828 24.8785 27.7314 25.272 27.7314 25.7903C27.7314 26.3086 27.3828 26.7021 26.8663 26.7021C26.3258 26.7021 25.995 26.2909 25.995 25.7903ZM28.3201 25.7903V24.3664H27.6957V24.7121C27.4969 24.4557 27.1971 24.2947 26.7886 24.2947C25.9833 24.2947 25.352 24.9208 25.352 25.7903C25.352 26.6605 25.9833 27.2858 26.7886 27.2858C27.1971 27.2858 27.4969 27.1249 27.6957 26.8685V27.2142H28.3201V25.7903ZM22.4686 25.7903C22.4686 26.6543 23.0751 27.2858 24.0007 27.2858C24.4333 27.2858 24.7214 27.1904 25.0336 26.9462L24.7338 26.4457C24.4993 26.6127 24.2531 26.7021 23.9822 26.7021C23.4836 26.6959 23.1171 26.3386 23.1171 25.7903C23.1171 25.242 23.4836 24.8846 23.9822 24.8785C24.2531 24.8785 24.4993 24.9678 24.7338 25.1349L25.0336 24.6344C24.7214 24.3902 24.4333 24.2947 24.0007 24.2947C23.0751 24.2947 22.4686 24.9262 22.4686 25.7903ZM30.5193 24.2947C30.1589 24.2947 29.9244 24.4618 29.7622 24.7121V24.3664H29.1432V27.2142H29.7683V25.6178C29.7683 25.1465 29.9726 24.8846 30.3811 24.8846C30.5076 24.8846 30.6396 24.9024 30.7717 24.9563L30.9642 24.3725C30.826 24.3186 30.6458 24.2947 30.5193 24.2947ZM13.7804 24.5928C13.4798 24.3964 13.0659 24.2947 12.6092 24.2947C11.8817 24.2947 11.4134 24.6405 11.4134 25.2065C11.4134 25.671 11.762 25.9574 12.4043 26.0467L12.6993 26.0883C13.0418 26.136 13.2034 26.2254 13.2034 26.3863C13.2034 26.6066 12.9751 26.7321 12.5487 26.7321C12.1162 26.7321 11.804 26.595 11.5935 26.4341L11.2992 26.9162C11.6417 27.1665 12.0742 27.2858 12.5425 27.2858C13.3719 27.2858 13.8526 26.8985 13.8526 26.3563C13.8526 25.8558 13.4743 25.5939 12.8492 25.5046L12.5549 25.4623C12.2847 25.4268 12.068 25.3736 12.068 25.1827C12.068 24.974 12.2723 24.8492 12.6147 24.8492C12.9813 24.8492 13.3361 24.9863 13.5101 25.0933L13.7804 24.5928ZM21.8373 24.2947C21.4769 24.2947 21.2424 24.4618 21.0808 24.7121V24.3664H20.4619V27.2142H21.0863V25.6178C21.0863 25.1465 21.2906 24.8846 21.6991 24.8846C21.8256 24.8846 21.9576 24.9024 22.0897 24.9563L22.2822 24.3725C22.144 24.3186 21.9638 24.2947 21.8373 24.2947ZM16.5084 24.3664H15.4872V23.5023H14.8559V24.3664H14.2734V24.9324H14.8559V26.2315C14.8559 26.8923 15.1145 27.2858 15.853 27.2858C16.124 27.2858 16.4362 27.2026 16.6343 27.0656L16.4541 26.535C16.2677 26.6421 16.0635 26.6959 15.9012 26.6959C15.589 26.6959 15.4872 26.505 15.4872 26.2192V24.9324H16.5084V24.3664ZM7.17172 27.2142V25.4268C7.17172 24.7537 6.73917 24.3009 6.04186 24.2947C5.67532 24.2886 5.29709 24.4018 5.03234 24.8014C4.83428 24.4857 4.52207 24.2947 4.08333 24.2947C3.77662 24.2947 3.47679 24.3841 3.24229 24.7176V24.3664H2.61719V27.2142H3.24779V25.6355C3.24779 25.1411 3.52424 24.8785 3.95129 24.8785C4.36597 24.8785 4.57571 25.1465 4.57571 25.6294V27.2142H5.20701V25.6355C5.20701 25.1411 5.49515 24.8785 5.90982 24.8785C6.33618 24.8785 6.54043 25.1465 6.54043 25.6294V27.2142H7.17172Z" fill="#9AA4B6"/>
<path d="M35.4957 17.7427V17.3267H35.3863L35.2598 17.6124L35.1339 17.3267H35.0239V17.7427H35.1016V17.429L35.2199 17.6997H35.3003L35.4186 17.4283V17.7427H35.4957ZM34.8018 17.7427V17.3976H34.9421V17.3274H34.5845V17.3976H34.7248V17.7427H34.8018Z" fill="#F79410"/>
<path d="M23.0623 19.5323H13.5986V2.66602H23.0623V19.5323Z" fill="#C8D0DD"/>
<path d="M14.205 11.0976C14.205 7.67621 15.8204 4.62851 18.3359 2.66446C16.4964 1.22824 14.1748 0.371016 11.6516 0.371016C5.67841 0.371016 0.836426 5.1734 0.836426 11.0976C0.836426 17.0218 5.67841 21.8242 11.6516 21.8242C14.1748 21.8242 16.4964 20.967 18.3359 19.5308C15.8204 17.5667 14.205 14.519 14.205 11.0976Z" fill="#9AA4B6"/>
<path d="M35.8259 11.0976C35.8259 17.0218 30.9839 21.8242 25.0107 21.8242C22.4876 21.8242 20.1659 20.967 18.3257 19.5308C20.8419 17.5667 22.4573 14.519 22.4573 11.0976C22.4573 7.67621 20.8419 4.62851 18.3257 2.66446C20.1659 1.22824 22.4876 0.371016 25.0107 0.371016C30.9839 0.371016 35.8259 5.1734 35.8259 11.0976Z" fill="#B9C3D4"/>
</g>
<defs>
<clipPath id="clip0">
<rect width="35" height="27" fill="white" transform="translate(0.823242 0.379883)"/>
</clipPath>
</defs>
</svg>
