<svg width="51" height="14" viewBox="0 0 51 14" fill="none" xmlns="http://www.w3.org/2000/svg">
<g clip-path="url(#clip0)">
<path fill-rule="evenodd" clip-rule="evenodd" d="M36.8862 6.25293V13.3798H41.1966V9.15648H46.0816C48.1376 9.14246 49.8841 7.93605 50.5427 6.25293H36.8862Z" fill="#9AA4B6"/>
<path fill-rule="evenodd" clip-rule="evenodd" d="M36.3115 0.379883C36.5626 3.29297 39.5628 5.59308 43.227 5.59308C43.239 5.59308 50.7218 5.59308 50.7218 5.59308C50.7771 5.32591 50.806 5.05017 50.806 4.76821C50.806 2.35508 48.6866 0.397735 46.0647 0.380004L36.3115 0.379883Z" fill="#B9C3D4"/>
<path fill-rule="evenodd" clip-rule="evenodd" d="M29.9324 5.52376L29.9358 5.51711L29.9362 5.51721C29.9804 5.44438 30.0651 5.39511 30.1623 5.39511C30.3027 5.39511 30.417 5.49791 30.4208 5.62605L30.4209 5.62608V13.3139H34.7313V0.379883H30.4209C29.8743 0.396595 29.2568 0.765038 29.0272 1.21731L25.597 7.97447C25.5885 8.00209 25.5753 8.02787 25.5581 8.05102L25.557 8.05328L25.5565 8.05315C25.5046 8.12176 25.4182 8.16669 25.3204 8.16669C25.1617 8.16669 25.033 8.04851 25.033 7.90273V0.379883H20.7227V13.3139H25.033V13.3124C25.5736 13.2865 26.1767 12.9222 26.4029 12.4765L29.9236 5.54119C29.9263 5.53525 29.9292 5.52944 29.9324 5.52376Z" fill="#9AA4B6"/>
<path fill-rule="evenodd" clip-rule="evenodd" d="M13.8371 5.74485L11.3179 13.3139H8.21715L5.69642 5.74026C5.67211 5.61898 5.55641 5.52709 5.41735 5.52709C5.26063 5.52709 5.13359 5.64379 5.13359 5.78775C5.13359 5.78885 5.13359 5.78995 5.13361 5.79105L5.13359 13.3139H0.823242V0.379883H4.52295H5.6248C6.41792 0.379883 7.24905 0.945272 7.48082 1.64163L9.57855 7.94434C9.68292 8.25794 9.85226 8.2576 9.95652 7.94434L12.0543 1.64163C12.2862 0.944785 13.117 0.379883 13.9103 0.379883L15.0118 0.379883H18.7112V13.3139H14.4008V5.79105C14.4008 5.78995 14.4008 5.78885 14.4008 5.78775C14.4008 5.64379 14.2738 5.52709 14.1171 5.52709C13.9763 5.52709 13.8594 5.6213 13.8371 5.74485Z" fill="#9AA4B6"/>
</g>
<defs>
<clipPath id="clip0">
<rect width="50" height="13" fill="white" transform="translate(0.823242 0.379883)"/>
</clipPath>
</defs>
</svg>
