<svg width="27" height="26" viewBox="0 0 27 26" fill="none" xmlns="http://www.w3.org/2000/svg">
<g clip-path="url(#clip0)">
<path d="M24.8003 5.24708C24.5159 4.85989 24.2344 4.47269 23.9867 4.08245L8.77821 12.7898L1.43704 8.59464C1.26855 9.04731 1.16556 9.52158 1.13116 10.0032L8.84857 14.4574L24.8003 5.24708Z" fill="#9AA4B6"/>
<path d="M8.77822 16.0672L0.892569 11.555C0.834215 11.8325 0.810584 12.1162 0.822216 12.3995C0.822216 15.8494 2.19717 19.1579 4.64461 21.5973C7.09205 24.0367 10.4115 25.4071 13.8727 25.4071C17.3339 25.4071 20.6533 24.0367 23.1008 21.5973C25.5482 19.1579 26.9232 15.8494 26.9232 12.3995C26.9378 10.3413 26.453 8.30999 25.51 6.47879L8.77822 16.0672Z" fill="#9AA4B6"/>
<path d="M22.9253 2.99098C22.5536 2.64133 22.1636 2.31159 21.7568 2.00318L8.77821 9.51233L2.51986 5.95135C2.3088 6.33854 2.09469 6.76233 1.84692 7.21964L8.70786 11.1678L22.9253 2.99098Z" fill="#9AA4B6"/>
<path d="M20.4843 1.15867C19.9931 0.865573 19.4821 0.60682 18.9549 0.384277L8.77821 6.22574L4.21751 3.66172C3.91163 3.96659 3.60574 4.36598 3.29986 4.75318L8.74457 7.85684L20.4843 1.15867Z" fill="#9AA4B6"/>
</g>
<defs>
<clipPath id="clip0">
<rect width="26" height="25" fill="white" transform="translate(0.823242 0.379883)"/>
</clipPath>
</defs>
</svg>
