<svg width="39" height="34" viewBox="0 0 39 34" fill="none" xmlns="http://www.w3.org/2000/svg">
<g clip-path="url(#clip0)">
<path d="M38.265 15.8624L38.7341 14.3224L37.1062 14.3728C36.355 14.3439 35.6291 14.1 35.0186 13.6715C35.0936 13.6715 35.164 13.6715 35.239 13.6715C35.7276 13.6703 36.206 13.5358 36.6204 13.2831C37.0349 13.0304 37.3689 12.6697 37.5847 12.2415L38.2837 10.7245C37.7208 10.7291 37.1581 10.697 36.5995 10.6282C36.0671 10.5049 35.5879 10.2211 35.2297 9.81697C34.989 9.56585 34.6985 9.36523 34.3758 9.22733C34.0532 9.08944 33.7053 9.01715 33.3531 9.01488C33.0743 9.0161 32.7974 9.05939 32.5321 9.14322C32.5718 9.02009 32.6032 8.89454 32.626 8.76738C32.736 7.87393 32.4797 6.97423 31.9129 6.26488L30.6884 4.78447L29.9284 6.52613C29.8086 6.77327 29.6241 6.98513 29.3936 7.1403C29.2638 6.5205 28.9506 5.95156 28.4929 5.50405C28.1128 5.12351 27.6581 4.82183 27.1559 4.61706C26.6537 4.4123 26.1143 4.30867 25.5702 4.31238C25.3786 4.31143 25.1872 4.32523 24.9978 4.35363L23.5435 4.63322C23.6717 4.14796 23.8741 3.6844 24.144 3.25822L24.9509 2.00238L22.8961 2.23155L22.244 0.856549L20.9773 1.49363L19.7904 0.379883L18.6223 1.51197L17.3556 0.874883L16.7035 2.21322L14.6299 2.00238L15.4462 3.24447C15.7154 3.67044 15.9163 4.13413 16.042 4.61947L14.6346 4.34905H14.5877C14.3921 4.3201 14.1944 4.30631 13.9966 4.3078C13.4524 4.30382 12.9129 4.40733 12.4107 4.61211C11.9084 4.81689 11.4537 5.11872 11.0739 5.49947C10.6146 5.94655 10.2998 6.51548 10.1684 7.13572C9.94096 6.98438 9.75815 6.77733 9.6383 6.5353L8.90176 4.78905L7.65855 6.27863C7.1019 6.98901 6.85109 7.88362 6.95954 8.77197C6.9827 8.89905 7.01404 9.02457 7.05336 9.1478C6.78822 9.06346 6.51121 9.02016 6.23238 9.01947C5.88029 9.022 5.5324 9.09441 5.20982 9.23229C4.88724 9.37017 4.5967 9.57064 4.35583 9.82155C3.99951 10.2211 3.52629 10.5043 3.00003 10.6328C2.43799 10.7141 1.86965 10.7463 1.30176 10.729L2.00077 12.2461C2.21706 12.6739 2.55114 13.0344 2.96549 13.287C3.37983 13.5396 3.85806 13.6743 4.34645 13.6761C4.42151 13.6761 4.49189 13.6761 4.56695 13.6761C3.95799 14.1095 3.23193 14.3582 2.47929 14.3911L0.823242 14.3407L1.32522 15.8807C1.50531 16.473 1.85811 17.0013 2.34049 17.4009C2.82286 17.8006 3.41395 18.0543 4.04151 18.1311C3.97629 18.5304 3.81459 18.9087 3.56983 19.2347C3.32507 19.5607 3.0043 19.825 2.63411 20.0057L1.40028 20.5007L2.07583 21.6466C2.34881 22.0622 2.72525 22.4035 3.16995 22.6383C3.61464 22.8732 4.11306 22.994 4.61855 22.9895C4.8866 22.989 5.15387 22.9613 5.41608 22.907C5.47647 23.1931 5.55163 23.4761 5.64127 23.7549C5.87356 24.3566 5.8901 25.0174 5.68818 25.6295L5.0783 26.8761L6.4388 27.2245C6.74552 27.3004 7.06067 27.3388 7.37707 27.3391C7.60795 27.3386 7.83792 27.3109 8.06201 27.2565C8.22205 27.2216 8.37894 27.1741 8.53114 27.1145C8.70553 27.4214 8.92 27.7049 9.16917 27.9578C10.0418 28.8332 11.2803 29.2778 12.8425 29.2778H13.959L11.6509 30.1945L13.4055 31.024C14.11 31.3653 14.8318 31.6712 15.5682 31.9407L15.3477 32.5274L15.9529 32.7978C16.9571 33.1852 18.0217 33.4022 19.1008 33.4395C19.1008 33.4395 19.5699 33.4395 19.8232 33.4395C20.0766 33.4395 20.541 33.4395 20.541 33.4395C21.6135 33.4018 22.6716 33.1864 23.6702 32.8024L24.2753 32.532L24.0548 31.9453C24.7996 31.6656 25.5293 31.349 26.241 30.9966L27.9627 30.1807L25.6593 29.264H26.7805C28.3474 29.264 29.5953 28.8057 30.4585 27.944C30.7081 27.6914 30.9226 27.4079 31.0966 27.1007C31.249 27.1599 31.4058 27.2074 31.5657 27.2428C31.7841 27.2923 32.0077 27.3169 32.2319 27.3161C32.5482 27.3154 32.8633 27.2769 33.1702 27.2015L34.54 26.8486L33.9442 25.6249C33.7311 25.0057 33.7444 24.3335 33.9818 23.7228C34.0756 23.4432 34.16 23.159 34.2257 22.8795C34.4895 22.9338 34.7583 22.9615 35.0279 22.962C35.5376 22.9656 36.0397 22.8411 36.4859 22.6002C36.932 22.3594 37.3072 22.0105 37.5753 21.587L38.2415 20.4549L37.0077 19.9599C36.637 19.7798 36.3159 19.5156 36.071 19.1895C35.8262 18.8634 35.6648 18.4848 35.6003 18.0853C36.2266 18.0052 36.816 17.7502 37.2978 17.3511C37.7796 16.9519 38.1333 16.4255 38.3166 15.8349L38.265 15.8624Z" fill="white"/>
<path d="M19.7905 5.09589C18.4816 5.09589 17.5012 5.51756 17.29 6.01256L19.7905 6.97506L22.2957 6.00797C22.0846 5.51298 21.1041 5.09131 19.7905 5.09131" fill="white"/>
<path d="M19.8187 30.6297H19.7905C18.9773 30.6227 18.1678 30.5212 17.3791 30.3271L16.7271 32.0047C18.7317 32.5692 20.8587 32.5692 22.8633 32.0047L22.23 30.3317C21.4413 30.5255 20.6319 30.627 19.8187 30.6342" fill="white"/>
<path d="M24.6087 28.9756C23.9219 29.3107 23.208 29.5897 22.4741 29.8098L22.9855 31.1847C23.804 30.9749 24.5991 30.6862 25.3593 30.3231L24.2944 29.9793L24.6087 28.9756Z" fill="white"/>
<path d="M14.9816 28.9756L15.2959 29.9793L14.231 30.3231C14.9898 30.6856 15.7833 30.9742 16.6001 31.1847L17.1161 29.8098C16.3823 29.5896 15.6684 29.3106 14.9816 28.9756Z" fill="white"/>
<path d="M19.7903 3.49651C20.7297 3.48698 21.6567 3.70591 22.4879 4.13359C22.568 3.86966 22.6652 3.61095 22.7787 3.35901L22.4973 3.39109L22.2017 3.42318L22.075 3.16193L21.6997 2.38734L21.0148 2.73568L20.7474 2.86859L20.5363 2.67151L19.7903 1.93359L19.0491 2.67151L18.838 2.87776L18.5706 2.74484L17.881 2.39651L17.5103 3.17109L17.3837 3.43234L17.0881 3.40026L16.8066 3.36818C16.9198 3.62029 17.0169 3.87898 17.0975 4.14276C17.9266 3.713 18.8518 3.49094 19.7903 3.49651Z" fill="white"/>
<path d="M34.8497 12.4664C34.9748 12.5091 35.1065 12.5308 35.2391 12.5305C35.5023 12.5282 35.7601 12.4568 35.9855 12.3238C36.2108 12.1907 36.3953 12.0009 36.5198 11.7743C35.6967 11.642 34.9458 11.2356 34.3946 10.6239C34.264 10.4812 34.1043 10.3667 33.9258 10.2878C33.7472 10.2088 33.5538 10.1672 33.3578 10.1655C33.0513 10.1711 32.7524 10.26 32.4946 10.4222C33.8223 11.1143 34.0944 12.2234 34.8403 12.4709" fill="white"/>
<path d="M4.35145 12.5302C4.4825 12.5305 4.61262 12.5088 4.73615 12.4661C5.49615 12.2186 5.76825 11.0911 7.08183 10.4173C6.82406 10.2551 6.52516 10.1663 6.21861 10.1606C6.02187 10.1617 5.82753 10.203 5.64814 10.2819C5.46875 10.3609 5.3083 10.4757 5.17713 10.619C4.62739 11.2301 3.87819 11.6365 3.05664 11.7694C3.18112 11.996 3.36568 12.1858 3.591 12.3189C3.81632 12.4519 4.07411 12.5233 4.33738 12.5256" fill="white"/>
<path d="M35.2108 16.9761H35.2718C36.6792 16.9761 37.1483 15.5186 37.1483 15.5186H37.1202C36.3868 15.4944 35.6676 15.3141 35.0129 14.9903C34.3582 14.6665 33.7837 14.2071 33.3295 13.644C32.3678 12.4477 31.575 11.3982 30.0174 10.9857L29.8626 10.9582L29.8298 10.8069C29.7876 10.5732 29.9518 10.3486 30.2989 10.1194C32.4523 8.74442 30.9886 6.989 30.9886 6.989C30.9886 6.989 30.374 8.3915 28.9994 8.3915H28.8962C28.7388 8.38865 28.5819 8.37332 28.4271 8.34567L28.1737 8.29983C28.277 7.94911 28.2801 7.57745 28.1825 7.22517C28.0849 6.87289 27.8904 6.55345 27.6202 6.3015C27.3501 6.03101 27.0266 5.81682 26.6694 5.67187C26.3122 5.52692 25.9287 5.45422 25.5419 5.45817C25.4036 5.45655 25.2654 5.46729 25.129 5.49025C25.5982 6.09525 25.95 7.10358 25.4011 7.72692C24.932 8.26317 23.7686 8.28608 23.7686 9.10192C23.7686 9.44108 24.0923 9.83067 24.6693 10.1836C26.4098 11.2561 28.1362 12.6769 28.8587 14.579C29.7547 16.9532 28.7461 18.5298 27.3011 19.4373C27.6146 19.6955 28.0004 19.8553 28.4083 19.8957C28.5444 19.8957 28.671 19.8957 28.793 19.8957C29.5477 19.9258 30.29 19.7008 30.8947 19.2586C30.7742 19.8854 30.4843 20.4694 30.055 20.9498C29.7015 21.3512 29.2595 21.669 28.7622 21.8793C28.2649 22.0897 27.7253 22.1872 27.1839 22.1644C27.1907 22.3831 27.2462 22.5977 27.3467 22.7932C27.4472 22.9888 27.5901 23.1605 27.7656 23.2965C28.1395 23.5418 28.5668 23.6987 29.0135 23.7548C29.0135 23.7548 27.3809 24.0802 27.1979 26.4361C27.2024 27.0351 27.0541 27.6258 26.7663 28.1548H26.7945C30.5851 28.1548 30.4866 24.9786 30.4866 24.9786C30.5848 25.2705 30.758 25.5328 30.9896 25.7407C31.2212 25.9485 31.5035 26.0948 31.8095 26.1657C31.9384 26.1971 32.0708 26.2125 32.2036 26.2115C32.4187 26.2101 32.6328 26.184 32.8416 26.1336C32.499 25.2475 32.499 24.2697 32.8416 23.3836C33.1085 22.6483 33.2372 21.8719 33.2216 21.0919C33.4351 21.3473 33.7076 21.5494 34.0168 21.6817C34.3259 21.814 34.6628 21.8726 34.9997 21.8527C35.299 21.858 35.5948 21.7893 35.8596 21.6531C36.1245 21.5169 36.3499 21.3176 36.515 21.0736C33.9863 20.0469 34.2397 16.7423 34.2397 16.7423C34.5304 16.9161 34.8653 17.0066 35.2061 17.0036L35.2108 16.9761ZM34.4461 20.4594C33.4187 19.9644 32.7666 18.649 32.6118 18.1677C32.4569 20.7527 31.1434 22.5632 29.6421 24.3048C29.1771 24.8278 28.816 25.4309 28.5772 26.0832C28.702 25.4255 28.9885 24.8073 29.4123 24.2819C30.8197 22.6136 32.1848 20.5373 32.2834 18.1402C32.3627 16.6837 31.9934 15.2373 31.2231 13.9877C31.4633 14.6649 31.499 15.3953 31.326 16.0918C31.153 16.7883 30.7785 17.4214 30.2473 17.9157C30.2473 17.9157 32.851 14.8723 29.2105 11.7465C27.7562 10.5594 26.1611 9.82608 25.3402 9.30358C28.3004 10.2477 29.75 9.20733 29.75 9.20733C29.3402 9.51995 28.8658 9.74206 28.3596 9.85837C27.8534 9.97468 27.3275 9.98243 26.8179 9.88108C27.0244 9.97733 27.2402 10.0827 27.47 10.2019C29.9658 11.5265 32.213 13.7082 32.593 16.7286V16.7057C33.1747 19.6711 34.4695 20.4319 34.4695 20.4319" fill="white"/>
<path d="M10.5768 23.7276C11.0179 23.6784 11.4416 23.531 11.8153 23.2968C11.9842 23.1583 12.1206 22.9859 12.2153 22.7914C12.31 22.5968 12.3608 22.3847 12.3642 22.1693C11.8221 22.1921 11.2818 22.0947 10.7837 21.8843C10.2856 21.674 9.84281 21.3562 9.48842 20.9547C9.06174 20.4731 8.77358 19.8895 8.65336 19.2635C9.25702 19.7077 10.0001 19.9329 10.7551 19.9006C10.8818 19.9006 11.0084 19.9006 11.1445 19.9006C11.5539 19.8608 11.9415 19.701 12.2563 19.4422C10.8114 18.5256 9.79805 16.9626 10.6941 14.5839C11.4119 12.6818 13.143 11.2564 14.8835 10.1885C15.4605 9.83556 15.7842 9.44139 15.7842 9.10681C15.7842 8.30931 14.6255 8.28639 14.1516 7.73181C13.6027 7.10848 13.9452 6.10473 14.419 5.49514C14.2827 5.47213 14.1445 5.46139 14.0062 5.46306C13.6194 5.45912 13.2359 5.53182 12.8787 5.67676C12.5214 5.82171 12.198 6.0359 11.9279 6.30639C11.6572 6.55805 11.4625 6.87748 11.3648 7.22986C11.2672 7.58224 11.2705 7.95404 11.3743 8.30473L11.121 8.35514C10.9661 8.38235 10.8092 8.39768 10.6519 8.40098H10.5534C9.1741 8.40098 8.56422 6.99847 8.56422 6.99847C8.56422 6.99847 7.12398 8.74473 9.27262 10.1197C9.64324 10.3535 9.80743 10.5781 9.74176 10.8072L9.70892 10.9585L9.5541 10.986C7.99657 11.3985 7.20842 12.4481 6.242 13.6443C5.78919 14.2022 5.21788 14.6575 4.56751 14.9787C3.91713 15.3 3.20315 15.4796 2.47484 15.5051H2.43262C2.43262 15.5051 2.90175 16.9626 4.30916 16.9626H4.37484C4.71566 16.9657 5.05051 16.8752 5.34126 16.7014C5.34126 16.7014 5.5899 20.006 3.06126 21.0326C3.2266 21.2763 3.45207 21.4754 3.71689 21.6116C3.98171 21.7478 4.27735 21.8166 4.57657 21.8118C4.91344 21.8317 5.25032 21.7731 5.55945 21.6408C5.86859 21.5085 6.14112 21.3063 6.35459 21.051C6.33935 21.831 6.46807 22.6073 6.73459 23.3426C7.07633 24.2289 7.07633 25.2064 6.73459 26.0926C6.94185 26.1428 7.15442 26.1689 7.36793 26.1706C7.50075 26.1718 7.63319 26.1564 7.762 26.1247C8.06801 26.0539 8.35031 25.9076 8.58193 25.6997C8.81354 25.4919 8.98674 25.2295 9.08496 24.9376C9.08496 24.9376 8.98645 28.1139 12.7771 28.1139H12.8052C12.52 27.5841 12.3734 26.9937 12.3783 26.3951C12.2 24.0393 10.5627 23.7139 10.5627 23.7139L10.5768 23.7276ZM9.95286 24.2868C8.43286 22.5451 7.13805 20.7393 6.95509 18.1314C6.80027 18.5897 6.14818 19.9189 5.12077 20.4231C5.12077 20.4231 6.41089 19.6622 6.99731 16.6968V16.7197C7.382 13.6993 9.62447 11.5176 12.125 10.1931C12.3548 10.0693 12.5706 9.96847 12.7771 9.87222C12.2682 9.97288 11.7432 9.96479 11.2379 9.84849C10.7325 9.73219 10.259 9.51044 9.84965 9.19848C9.84965 9.19848 11.2946 10.2389 14.2595 9.29473C13.4479 9.82181 11.8529 10.5551 10.4079 11.7422C6.76743 14.8635 9.37114 17.9114 9.37114 17.9114C8.83994 17.4171 8.46549 16.784 8.29247 16.0875C8.11945 15.3911 8.15515 14.6607 8.39533 13.9835C7.62368 15.2324 7.25427 16.6793 7.33509 18.136C7.4336 20.5376 8.78472 22.6093 10.2015 24.2776C10.6269 24.8026 10.9151 25.4208 11.0413 26.0789C10.7999 25.4268 10.4373 24.8239 9.97163 24.3006" fill="white"/>
<path d="M16.9757 12.1179C17.0367 12.182 17.0976 12.2554 17.1586 12.3241L17.2009 12.3745L17.3651 12.5945L17.4026 12.6449C17.4636 12.7366 17.5246 12.8374 17.5855 12.9337C17.7947 13.3427 18.1067 13.6931 18.4924 13.952C18.8781 14.2109 19.3247 14.3699 19.7905 14.4141C20.255 14.3697 20.7003 14.211 21.0851 13.9529C21.4698 13.6948 21.7814 13.3458 21.9907 12.9383C22.0517 12.8374 22.1127 12.7366 22.1784 12.6449L22.2065 12.6037C22.2628 12.5258 22.3191 12.4479 22.3754 12.3745L22.4129 12.3287C22.4739 12.2554 22.5349 12.182 22.6006 12.1179L22.6334 12.0904C22.9187 11.7977 23.2805 11.5869 23.6796 11.4808L23.4873 11.3708L22.7179 10.9124L21.9297 10.4541L19.7905 11.6091L17.6794 10.4862L16.8912 10.9445L16.1218 11.4029L15.9248 11.5129C16.321 11.6065 16.6841 11.8028 16.9757 12.0812L17.0085 12.1133L16.9757 12.1179ZM18.9554 12.0216H20.7288V12.622C20.6475 12.5453 20.5497 12.4874 20.4426 12.4525C20.3354 12.4176 20.2216 12.4066 20.1095 12.4204V13.282C20.1139 13.4957 20.1719 13.705 20.2784 13.8916H19.3964C19.5038 13.7053 19.5618 13.4958 19.5653 13.282V12.4249C19.4532 12.4112 19.3394 12.4221 19.2322 12.457C19.125 12.4919 19.0272 12.5499 18.946 12.6266L18.9554 12.0216Z" fill="white"/>
<path d="M19.6123 10.8665V7.36025L17.3276 6.604L17.9141 10.0048L19.6123 10.8665ZM19.1432 8.22192V8.78567L19.0306 8.73525C18.8584 8.67857 18.6991 8.58986 18.5615 8.474C18.4389 8.39834 18.3339 8.29851 18.2531 8.18092C18.1723 8.06332 18.1176 7.93055 18.0923 7.79109L19.1432 8.22192Z" fill="white"/>
<path d="M21.6671 10.0046L22.2676 6.6084L19.9829 7.36465V10.8709L21.6671 10.0046ZM20.4755 8.22632L21.5123 7.80007C21.4873 7.93962 21.4327 8.0725 21.3519 8.19014C21.2711 8.30777 21.1659 8.40753 21.0432 8.48298C20.9055 8.59883 20.7462 8.68755 20.574 8.74423L20.4661 8.79465L20.4755 8.22632Z" fill="white"/>
<path d="M16.3799 18.993C16.5829 19.0575 16.7951 19.09 17.0086 19.0893V19.0251C17.0217 18.9844 17.0327 18.9431 17.0414 18.9014C17.0752 18.7182 17.094 18.5328 17.0977 18.3468C16.9698 18.2723 16.8658 18.1643 16.7975 18.0351C16.769 17.9583 16.7165 17.8922 16.6475 17.8462C16.5784 17.8001 16.4963 17.7764 16.4128 17.7784C16.205 17.7954 16.005 17.8632 15.831 17.9755C15.8024 18.1766 15.8373 18.3814 15.9312 18.5624C16.0252 18.7435 16.1736 18.8922 16.3565 18.9884" fill="white"/>
<path d="M21.4325 17.1318C21.0102 17.5902 20.1752 18.3693 20.1376 18.406L20.086 18.4564L17.4448 18.4152C17.4425 18.627 17.4142 18.8379 17.3604 19.0431V19.1256L20.4801 19.6756C20.8038 19.4556 21.6999 18.8139 22.047 18.5664C21.8329 18.2457 21.7539 17.8565 21.8265 17.4802C21.6762 17.3882 21.5429 17.272 21.4325 17.1364" fill="white"/>
<path d="M21.7888 14.0522C21.5383 14.3255 21.2317 14.5442 20.889 14.6943C20.5463 14.8443 20.1752 14.9222 19.7997 14.9231C19.7044 14.9279 19.6088 14.9279 19.5135 14.9231C19.4188 14.9156 19.3248 14.9018 19.232 14.8818C19.1716 15.1038 19.1881 15.3391 19.2789 15.551C19.3459 15.6784 19.4387 15.7912 19.5515 15.8826C19.6644 15.974 19.7951 16.0421 19.9357 16.0827L20.0436 16.1239V16.2385C20.0566 16.4719 20.1476 16.6947 20.3027 16.8727C20.4578 17.0507 20.6684 17.1741 20.9022 17.2239C21.0382 17.0864 21.1602 16.9627 21.254 16.8618C21.1704 16.7019 21.1413 16.5201 21.1708 16.3428C21.2003 16.1656 21.287 16.0022 21.4182 15.8764C21.3802 16.1461 21.425 16.4207 21.547 16.6655C21.6689 16.9103 21.8625 17.1142 22.1031 17.2514L22.2345 17.311L22.197 17.4485C22.1114 17.716 22.1355 18.0055 22.2642 18.256C22.3928 18.5065 22.616 18.6985 22.8866 18.7914L23.0602 18.8556L22.9851 19.0206C22.8722 19.2689 22.8613 19.5502 22.9548 19.8061C23.0482 20.0621 23.2388 20.2731 23.4871 20.3956H25.4199V18.8831C25.1547 18.8493 24.9079 18.7323 24.7167 18.5496C24.5254 18.3669 24.4002 18.1285 24.3597 17.8702C24.0668 17.833 23.8006 17.6848 23.6185 17.4577C23.5002 17.3127 23.4297 17.1361 23.4163 16.9511C23.4029 16.7662 23.4472 16.5816 23.5434 16.4218C23.5477 16.7284 23.6623 17.0237 23.8671 17.256C24.0357 17.4276 24.2625 17.5335 24.5051 17.5539H24.6459V17.696C24.6595 17.901 24.7432 18.0955 24.8836 18.2485C25.024 18.4014 25.2128 18.5038 25.4199 18.5393V15.4547C25.4383 14.9727 25.5448 14.4977 25.7342 14.0522H21.7888Z" fill="white"/>
<path d="M16.5443 15.4636L16.4927 17.4298L16.7226 17.4619L17.2808 15.5782L16.9993 14.9961L16.5443 15.4636Z" fill="white"/>
<path d="M22.7085 24.4788H22.7648C23.112 24.5751 23.2011 25.7988 23.811 25.9088C23.8656 25.9144 23.9206 25.9144 23.9752 25.9088C24.0533 25.9092 24.1302 25.8905 24.199 25.8545C24.2678 25.8185 24.3263 25.7663 24.3693 25.7026C24.3693 25.7026 24.0643 25.2442 23.8345 24.9142C23.5295 24.4972 23.2949 23.9976 22.7226 23.9976H22.6804C22.573 24.0013 22.4689 24.0346 22.3801 24.0938C22.1904 23.9725 21.9689 23.9072 21.7421 23.9059C21.4813 23.937 21.2238 23.9907 20.9727 24.0663L19.7061 23.9426C19.535 23.9029 19.3868 23.7992 19.2932 23.6538V23.6217C19.2932 23.5897 19.2932 23.553 19.2932 23.5209C19.3014 23.1894 19.1939 22.8649 18.9885 22.6009C18.783 22.3369 18.4918 22.149 18.1626 22.068C18.1626 22.068 18.1954 21.8755 18.1204 21.8022L17.8389 22.1322L16.9006 21.6738L17.5574 22.4209L16.9757 23.0626C16.9485 23.0881 16.9306 23.1217 16.9247 23.158C16.9188 23.1944 16.9252 23.2317 16.9428 23.2642L17.1821 23.4705L17.487 23.2917C17.5116 23.2851 17.5375 23.2851 17.5621 23.2917C17.6466 23.2917 17.7732 23.2917 17.8858 23.2917C17.9984 23.2917 18.1157 23.2642 18.1298 23.1542C18.0922 23.5301 17.7357 24.1809 17.9703 24.6942L18.1438 25.0838L17.0226 24.928L16.5066 25.7988C16.4241 25.9098 16.3771 26.042 16.3712 26.179C16.3654 26.316 16.401 26.4516 16.4737 26.5688L16.6707 26.8072C16.8072 26.6726 16.9212 26.518 17.0085 26.3488L16.9194 26.2526C16.8869 26.2222 16.8666 26.1814 16.8623 26.1377C16.858 26.0939 16.87 26.0501 16.8959 26.0142L17.2243 25.4826L18.5473 25.7851L18.6177 25.6705C18.6537 25.6091 18.7067 25.559 18.7706 25.5257C18.8345 25.4925 18.9067 25.4775 18.9789 25.4826C19.0382 25.4782 19.0978 25.4782 19.1572 25.4826C19.5048 25.5512 19.8581 25.588 20.2127 25.5926C20.4122 25.612 20.6137 25.5924 20.8054 25.535C20.9971 25.4775 21.1752 25.3834 21.3293 25.258C21.7984 25.9547 22.7789 26.0647 22.7038 26.4176L22.4458 27.6047C22.6147 27.6047 22.7789 27.6047 22.9149 27.568L23.1589 26.3305C23.187 26.1976 23.2105 26.0142 23.2105 26.0142C23.0275 25.863 22.8693 25.6852 22.7414 25.4872C22.5678 25.1663 22.6616 24.9967 22.5021 24.5705C22.5177 24.5422 22.5407 24.5184 22.5687 24.5015C22.5967 24.4846 22.6287 24.4752 22.6616 24.4742L22.7085 24.4788ZM17.7075 22.7326C17.6923 22.732 17.6774 22.7284 17.6636 22.7221C17.6499 22.7157 17.6376 22.7067 17.6275 22.6955C17.6174 22.6844 17.6097 22.6714 17.605 22.6573C17.6002 22.6431 17.5984 22.6282 17.5996 22.6134C17.6002 22.5986 17.6039 22.584 17.6104 22.5705C17.6169 22.5571 17.6261 22.5451 17.6375 22.5352C17.6489 22.5254 17.6623 22.5179 17.6767 22.5132C17.6912 22.5085 17.7064 22.5067 17.7216 22.508C17.7521 22.508 17.7813 22.5198 17.8029 22.5409C17.8244 22.5619 17.8365 22.5905 17.8365 22.6203C17.8365 22.6501 17.8244 22.6786 17.8029 22.6997C17.7813 22.7207 17.7521 22.7326 17.7216 22.7326" fill="white"/>
<path d="M15.9483 25.5882C15.9483 25.5882 16.3893 25.4095 16.4174 25.2857L16.3611 25.1436C16.3367 25.1042 16.3276 25.0576 16.3353 25.0122C16.343 24.9668 16.3672 24.9256 16.4034 24.8961L16.8725 24.5753L17.6653 24.722C17.5761 24.6042 17.5298 24.4605 17.534 24.314L16.7787 24.1582L16.0656 24.5799C15.9416 24.6697 15.852 24.7975 15.8112 24.9429C15.7704 25.0883 15.7806 25.2429 15.8404 25.3819L15.9483 25.5882Z" fill="white"/>
<path d="M21.5454 27.6186H22.0145C22.0145 27.6186 22.4227 26.4545 22.4462 26.4178C22.1429 26.2797 21.847 26.1267 21.5595 25.9595C21.6815 26.1382 21.9723 26.3353 21.916 26.4911L21.5454 27.6186Z" fill="white"/>
<path d="M25.4204 20.7207H14.1611V24.8457C14.1611 26.537 15.4137 27.5957 17.2621 27.5957C18.8056 27.5957 19.2137 27.6553 19.7908 28.2099C19.9704 28.0218 20.1886 27.8728 20.4311 27.7725C20.6735 27.6722 20.9349 27.6229 21.1982 27.6278V27.5636L21.5547 26.4911L20.9542 25.822C20.7126 25.8931 20.4602 25.9226 20.2083 25.909C19.8333 25.9045 19.4595 25.8661 19.0918 25.7945C19.0528 25.7901 19.0134 25.7901 18.9745 25.7945C18.9229 25.7945 18.9229 25.7945 18.9088 25.822L18.8384 25.9365L18.7118 26.1428L18.4678 26.0878L17.3888 25.8403L17.2387 26.0786V26.1061L17.37 26.2482L17.3137 26.4315C17.2153 26.656 17.0735 26.8599 16.8962 27.032L16.6241 27.3161L16.3801 27.0136L16.1972 26.789C16.1006 26.6653 16.0379 26.5196 16.015 26.3656C15.992 26.2117 16.0095 26.0546 16.0658 25.909L15.7609 26.0328L15.6248 25.744L15.531 25.5378C15.4376 25.3276 15.4206 25.0924 15.4829 24.8715C15.5452 24.6505 15.683 24.457 15.8735 24.3232L16.7414 23.8649L17.5671 24.0253C17.5671 23.9474 17.6187 23.6724 17.6421 23.599H17.5952L17.1261 23.7732L16.6569 23.4615C16.634 23.4394 16.6157 23.413 16.6033 23.3839C16.5908 23.3547 16.5844 23.3235 16.5844 23.292C16.5844 23.2604 16.5908 23.2292 16.6033 23.2001C16.6157 23.1709 16.634 23.1445 16.6569 23.1224L17.1026 22.4624L15.972 21.0874L17.7078 21.784L17.8251 21.6465L18.0597 21.3715L18.3271 21.619C18.3969 21.6851 18.4457 21.7695 18.4678 21.862C18.9369 22.0453 19.8001 22.5815 19.8752 23.4524L19.6078 23.5578C19.6407 23.6013 19.6842 23.636 19.7345 23.6586L20.973 23.7778L21.0856 23.7457C21.2959 23.6688 21.5179 23.627 21.7424 23.622C21.9666 23.6234 22.1877 23.6735 22.3898 23.7686C22.4788 23.7373 22.5721 23.7187 22.6666 23.7136H22.7276C22.9973 23.737 23.2558 23.83 23.4767 23.983C23.6976 24.136 23.8729 24.3436 23.9848 24.5845L24.1209 24.777C24.3508 25.0978 24.6557 25.5607 24.6651 25.5836L24.8011 25.7899L24.6322 25.9778C24.5555 26.0757 24.4568 26.1551 24.3438 26.2099C24.2308 26.2647 24.1064 26.2935 23.9801 26.294C23.9053 26.3009 23.8299 26.3009 23.755 26.294C23.6873 26.2811 23.6213 26.2611 23.5579 26.2345C23.5579 26.2986 23.5579 26.3765 23.5204 26.4407L23.3046 27.5453C23.9292 27.4216 24.4872 27.0818 24.8759 26.5884C25.2646 26.095 25.458 25.481 25.4204 24.8595V20.7207Z" fill="#9AA4B6"/>
<path d="M14.1609 20.3908H22.915C22.7397 20.2111 22.6175 19.9884 22.5613 19.7463C22.5052 19.5042 22.5171 19.2518 22.596 19.0158C22.4773 18.9603 22.3668 18.8894 22.2676 18.805C21.9251 19.0525 20.8602 19.795 20.6068 19.9829L20.5505 20.0196L17.1165 19.4146H17.0461C16.9351 19.4209 16.8239 19.4209 16.713 19.4146C16.697 19.4869 16.6562 19.5518 16.5973 19.5985C16.5385 19.6451 16.4651 19.6708 16.3893 19.6712H16.333C16.2444 19.6566 16.1652 19.6085 16.1125 19.5373C16.0599 19.4662 16.0379 19.3776 16.0515 19.2908V19.2175C15.8351 19.064 15.6693 18.8521 15.5743 18.6079C15.4793 18.3636 15.4593 18.0976 15.5167 17.8425L15.5683 17.7966L15.6199 17.76C15.6199 17.76 15.6856 17.7141 15.7747 17.6683L15.5261 17.6316C15.4816 17.6238 15.442 17.5993 15.4157 17.5633C15.3894 17.5274 15.3785 17.4828 15.3853 17.4391C15.3887 17.4173 15.3966 17.3964 15.4084 17.3776C15.4202 17.3588 15.4358 17.3426 15.4541 17.3297C15.4725 17.3169 15.4933 17.3078 15.5153 17.303C15.5374 17.2982 15.5602 17.2977 15.5824 17.3016L16.1782 17.3933L16.2345 15.3491L17.1211 14.4325L17.6747 15.5691L17.093 17.5354L17.6184 17.6179C17.6629 17.6257 17.7025 17.6503 17.7288 17.6862C17.7551 17.7222 17.766 17.7667 17.7592 17.8104C17.7524 17.8492 17.7317 17.8844 17.7008 17.9097C17.6698 17.9349 17.6306 17.9484 17.5903 17.9479H17.5621L17.1352 17.8791V17.9112C17.1827 17.9931 17.2547 18.0587 17.3416 18.0991L19.9594 18.1404L20.6303 17.4941C20.3797 17.4095 20.1588 17.2575 19.9928 17.0556C19.8268 16.8537 19.7225 16.6101 19.692 16.3529C19.3658 16.2322 19.0991 15.9945 18.9461 15.6883C18.8188 15.3986 18.7973 15.075 18.8851 14.7716C18.472 14.6136 18.099 14.3696 17.792 14.0566H13.856C14.0406 14.5016 14.1439 14.9747 14.1609 15.4546V20.3908Z" fill="#9AA4B6"/>
<path d="M17.7732 22.5175C17.7581 22.5162 17.7428 22.518 17.7284 22.5227C17.7139 22.5274 17.7006 22.5348 17.6892 22.5447C17.6778 22.5546 17.6685 22.5666 17.662 22.58C17.6555 22.5934 17.6519 22.608 17.6513 22.6229C17.65 22.6377 17.6518 22.6526 17.6566 22.6668C17.6614 22.6809 17.6691 22.6939 17.6791 22.705C17.6892 22.7162 17.7015 22.7252 17.7153 22.7316C17.729 22.7379 17.744 22.7415 17.7592 22.7421C17.7897 22.7421 17.8189 22.7302 17.8404 22.7092C17.862 22.6881 17.8741 22.6596 17.8741 22.6298C17.8741 22.6 17.862 22.5714 17.8404 22.5504C17.8189 22.5293 17.7897 22.5175 17.7592 22.5175" fill="#222220"/>
<path d="M25.4202 30.0201L24.7728 29.7772L24.9511 29.1217L25.1481 28.4067C24.2632 28.8497 23.3361 29.2073 22.3802 29.4747C21.9111 29.603 21.5733 29.6626 21.5733 29.6626V30.1484C20.9977 30.2398 20.4159 30.2888 19.8328 30.2951H19.7906C19.2075 30.2889 18.6257 30.2399 18.0501 30.1484V29.6626C18.0501 29.6626 17.7029 29.603 17.2432 29.4747C16.2872 29.2075 15.3601 28.8498 14.4753 28.4067L14.6301 29.1217L14.813 29.7772L14.1609 30.0201L13.4385 30.2813C14.407 30.7784 15.4179 31.1925 16.4597 31.5188L16.2111 32.1788C17.3425 32.6005 18.5471 32.8029 19.7577 32.7747H19.7906C21.0012 32.803 22.2059 32.6006 23.3372 32.1788L23.0886 31.5188C24.1307 31.1933 25.1417 30.7792 26.1098 30.2813L25.4202 30.0201ZM14.2407 30.3272L15.3056 29.9834L14.9913 28.9797C15.6781 29.3147 16.392 29.5937 17.1259 29.8138L16.6098 31.1888C15.7932 30.978 14.9996 30.6894 14.2407 30.3272ZM19.7906 32.4309C18.7547 32.4205 17.7248 32.2771 16.7271 32.0047L17.3605 30.3317C18.1554 30.5255 18.9713 30.6255 19.7906 30.6297H19.8422C20.6554 30.6223 21.4648 30.5207 22.2535 30.3272L22.8634 32.0047C21.8641 32.2761 20.8325 32.4179 19.7953 32.4263L19.7906 32.4309ZM22.9854 31.1842L22.4693 29.8092C23.2032 29.5892 23.9172 29.3102 24.6039 28.9751L24.2896 29.9788L25.3545 30.3226C24.5942 30.6855 23.7991 30.9741 22.9807 31.1842" fill="#222220"/>
<path d="M19.7906 3.89982C20.8496 3.87192 21.889 4.18251 22.7508 4.7844C22.8851 4.10445 23.1442 3.45385 23.5155 2.86398L22.4506 2.98315L21.8923 1.82815L20.8227 2.3644L19.7906 1.36523L18.7585 2.3644L17.6888 1.82815L17.1352 2.98315L16.0703 2.86398C16.442 3.45366 16.7011 4.10434 16.835 4.7844C17.6959 4.18407 18.7332 3.87359 19.7906 3.89982ZM17.0883 3.38648L17.3839 3.41857L17.5106 3.15732L17.8812 2.38273L18.5708 2.73107L18.8382 2.86398L19.0493 2.65773L19.7906 1.93357L20.5365 2.67148L20.7523 2.87773L21.0197 2.74482L21.7046 2.39648L22.0799 3.17107L22.2066 3.43232L22.5022 3.40023L22.7836 3.36815C22.6701 3.62009 22.5729 3.8788 22.4928 4.14273C21.6586 3.72524 20.7348 3.50751 19.7976 3.50751C18.8604 3.50751 17.9366 3.72524 17.1024 4.14273C17.0218 3.87895 16.9247 3.62027 16.8115 3.36815L17.0883 3.38648Z" fill="#222220"/>
<path d="M35.272 17.4206C36.9797 17.4206 37.552 15.7247 37.5755 15.6514L37.7678 15.0556H37.1298C36.4634 15.0335 35.8099 14.8695 35.2152 14.575C34.6204 14.2804 34.0986 13.8626 33.6863 13.3506L33.5597 13.1947C32.6871 12.1131 31.8614 11.0818 30.3789 10.6097C30.4377 10.5592 30.5004 10.5132 30.5666 10.4722C30.9141 10.2797 31.215 10.0163 31.449 9.6999C31.6829 9.38354 31.8444 9.02168 31.9224 8.6389C32.0019 7.93988 31.8 7.23804 31.3594 6.68182L30.8903 6.1089L30.5807 6.7964C30.5807 6.83765 30.0599 7.92849 29.0091 7.92849H28.9293H28.7229C28.7494 7.57078 28.6959 7.21172 28.5663 6.87617C28.4367 6.54062 28.234 6.2366 27.9723 5.98515C27.6589 5.67275 27.2842 5.42529 26.8707 5.25755C26.4572 5.08981 26.0133 5.00525 25.5656 5.0089C25.3976 5.00819 25.2297 5.02045 25.0636 5.04557L24.3459 5.18307L24.7868 5.7514C25.134 6.20974 25.4483 7.00265 25.0777 7.42432C24.9001 7.57528 24.6969 7.69472 24.4772 7.77724C24.0081 7.99265 23.3325 8.29974 23.3325 9.06974C23.3325 9.56932 23.7313 10.0918 24.4491 10.5318C26.5742 11.8381 27.8831 13.1993 28.4508 14.7027C29.3281 16.9943 28.1834 18.3372 27.0715 19.0293L26.5742 19.341L27.0105 19.7306C27.3997 20.0546 27.881 20.2545 28.3898 20.3035C28.5399 20.3035 28.6807 20.3035 28.8167 20.3035C29.2521 20.3052 29.6854 20.2434 30.1021 20.1202C29.9983 20.2975 29.8773 20.4648 29.7409 20.6197C29.4289 20.9743 29.0379 21.2545 28.598 21.4388C28.1581 21.6231 27.6809 21.7066 27.2029 21.6831H26.7854L26.7525 22.091C26.7504 22.3735 26.8119 22.6529 26.9327 22.9096C27.0535 23.1662 27.2306 23.3937 27.4515 23.576C27.5685 23.6763 27.6996 23.7597 27.8409 23.8235C27.1477 24.4833 26.7512 25.3851 26.7384 26.3306C26.7377 26.8496 26.6174 27.3618 26.3866 27.8293L25.9175 28.5168H26.7525C28.1286 28.5168 29.1826 28.1486 29.9145 27.4122C30.2944 27.0221 30.577 26.5516 30.7402 26.0372C31.0113 26.2605 31.3329 26.4176 31.6784 26.4956C31.843 26.5328 32.0115 26.5512 32.1804 26.5506C32.4332 26.5499 32.6851 26.5206 32.931 26.4635L33.4612 26.326L33.2266 25.8402C32.9327 25.0653 32.9327 24.2133 33.2266 23.4385C33.4006 22.9323 33.5216 22.4102 33.5878 21.8802C34.0103 22.0905 34.4788 22.1975 34.953 22.1918C35.3339 22.1974 35.71 22.1087 36.0463 21.934C36.3826 21.7593 36.6682 21.5043 36.8765 21.1927L37.1345 20.7343L36.6654 20.5418C35.0937 19.9047 34.7466 18.1952 34.6809 17.2693C34.8355 17.3 34.9924 17.3183 35.15 17.3243L35.272 17.4206ZM36.5152 21.0414C36.3502 21.2854 36.1248 21.4847 35.8599 21.6209C35.595 21.7572 35.2992 21.8258 34.9999 21.8206C34.6631 21.8401 34.3263 21.7813 34.0173 21.649C33.7082 21.5168 33.4356 21.3148 33.2219 21.0597C33.2358 21.84 33.1055 22.6164 32.8372 23.3514C32.4946 24.2375 32.4946 25.2153 32.8372 26.1014C32.6284 26.1518 32.4143 26.178 32.1992 26.1793C32.0664 26.1803 31.934 26.1649 31.8051 26.1335C31.4991 26.0626 31.2168 25.9163 30.9852 25.7085C30.7536 25.5007 30.5804 25.2383 30.4821 24.9464C30.4821 24.9464 30.5807 28.1227 26.79 28.1227H26.7619C27.0494 27.5936 27.1978 27.0029 27.1935 26.4039C27.3718 24.0481 29.0044 23.7227 29.0044 23.7227C28.5636 23.675 28.1399 23.5292 27.7658 23.2964C27.597 23.1579 27.4606 22.9855 27.3659 22.791C27.2712 22.5964 27.2204 22.3843 27.217 22.1689C27.7584 22.192 28.2982 22.0947 28.7955 21.8843C29.2929 21.6739 29.7348 21.3559 30.0881 20.9543C30.5174 20.4738 30.8073 19.8899 30.9278 19.2631C30.3242 19.7073 29.5811 19.9325 28.8261 19.9002C28.7041 19.9002 28.5728 19.9002 28.4414 19.9002C28.0335 19.8598 27.6477 19.7 27.3342 19.4418C28.7792 18.5252 29.7878 16.9622 28.8918 14.5835C28.174 12.6814 26.4429 11.256 24.7024 10.1881C24.1254 9.83515 23.8017 9.44099 23.8017 9.1064C23.8017 8.3089 24.9604 8.28599 25.4342 7.7314C25.9831 7.10807 25.6407 6.10432 25.1621 5.49474C25.2985 5.47178 25.4367 5.46104 25.575 5.46265C25.9618 5.45871 26.3453 5.53141 26.7025 5.67636C27.0597 5.82131 27.3832 6.0355 27.6533 6.30599C27.9235 6.55794 28.118 6.87738 28.2156 7.22966C28.3132 7.58194 28.3101 7.9536 28.2068 8.30432L28.4602 8.35474C28.6151 8.38219 28.7719 8.39752 28.9293 8.40057H29.0325C30.4071 8.40057 31.0217 6.99807 31.0217 6.99807C31.0217 6.99807 32.4807 8.75349 30.332 10.1285C29.9614 10.3622 29.7972 10.5868 29.8629 10.816L29.8957 10.9672L30.0505 10.9947C31.6081 11.4072 32.3962 12.4568 33.3626 13.6531C33.815 14.2073 34.3845 14.6597 35.0322 14.9792C35.68 15.2988 36.3906 15.478 37.1157 15.5047H37.1486C37.1486 15.5047 36.6794 16.9622 35.272 16.9622H35.2063C34.8655 16.9653 34.5307 16.8748 34.2399 16.701C34.2399 16.701 33.9913 20.0056 36.5152 21.0322" fill="#222220"/>
<path d="M32.2791 10.8118C32.8036 11.1039 33.2579 11.5024 33.6114 11.9806C33.8775 12.3846 34.2592 12.7034 34.7092 12.8973C34.88 12.9531 35.0591 12.981 35.2393 12.9798C35.5907 12.9788 35.9351 12.8833 36.2346 12.7039C36.5342 12.5244 36.7774 12.2678 36.9376 11.9623L37.2097 11.371L36.5482 11.3343C35.8388 11.2087 35.1948 10.8496 34.7233 10.3168C34.5492 10.1322 34.3383 9.98453 34.1035 9.88283C33.8686 9.78113 33.6149 9.72761 33.3581 9.72559C32.9582 9.73232 32.5682 9.84822 32.2321 10.0602L31.627 10.4773L32.2791 10.8118ZM33.3628 10.161C33.5587 10.1627 33.7521 10.2043 33.9307 10.2832C34.1092 10.3622 34.2689 10.4766 34.3995 10.6193C34.9507 11.231 35.7016 11.6375 36.5247 11.7698C36.3999 11.9961 36.2152 12.1856 35.99 12.3186C35.7647 12.4516 35.5072 12.5232 35.244 12.526C35.1114 12.5263 34.9798 12.5046 34.8546 12.4618C34.0993 12.2143 33.8272 11.0868 32.5089 10.4131C32.7666 10.2507 33.0656 10.1618 33.3721 10.1564" fill="#222220"/>
<path d="M32.5746 16.7014C32.1899 13.681 29.9475 11.4993 27.4517 10.1748C27.2218 10.0556 27.006 9.95018 26.7996 9.85393C27.3091 9.95497 27.835 9.94706 28.3411 9.83076C28.8473 9.71446 29.3216 9.49252 29.7317 9.18018C29.7317 9.18018 28.2867 10.2206 25.3218 9.27643C26.1428 9.79434 27.7331 10.5277 29.1921 11.7193C32.828 14.8406 30.2289 17.8885 30.2289 17.8885C30.7601 17.3942 31.1346 16.7611 31.3076 16.0646C31.4806 15.3682 31.4449 14.6378 31.2047 13.9606C31.9748 15.2102 32.3441 16.6565 32.265 18.1131C32.1665 20.5148 30.8154 22.5864 29.3939 24.2548C28.9702 24.7802 28.6836 25.3983 28.5588 26.056C28.8064 25.4121 29.1738 24.8185 29.6425 24.3052C31.1625 22.5635 32.4573 20.7577 32.6356 18.1498C32.7904 18.6081 33.4425 19.9373 34.4699 20.4414C34.4699 20.4414 33.1751 19.6806 32.5934 16.7152" fill="#222220"/>
<path d="M13.1946 27.8799C12.967 27.4113 12.8469 26.8998 12.8428 26.3811C12.83 25.4357 12.4335 24.5339 11.7403 23.8741C11.8817 23.8105 12.0129 23.7271 12.1297 23.6266C12.3508 23.4445 12.5281 23.217 12.649 22.9603C12.7698 22.7037 12.8312 22.4241 12.8287 22.1416L12.8005 21.7336H12.3783C11.901 21.7565 11.4248 21.6726 10.9857 21.4883C10.5467 21.304 10.1565 21.0243 9.84498 20.6703C9.70361 20.5111 9.57794 20.3393 9.46967 20.157C9.88486 20.28 10.3165 20.3418 10.7504 20.3403C10.8865 20.3403 11.0272 20.3403 11.1773 20.3403C11.6866 20.2897 12.1679 20.0882 12.5566 19.7628L12.9929 19.3732L12.4956 19.0616C11.3837 18.3649 10.2437 17.0449 11.1163 14.7349C11.684 13.2316 12.9929 11.8703 15.1181 10.5641C15.8358 10.1057 16.2299 9.59698 16.2299 9.10198C16.2299 8.33198 15.5731 8.02948 15.0899 7.80948C14.8701 7.72722 14.6668 7.60776 14.4894 7.45656C14.1141 7.0349 14.4284 6.22365 14.7756 5.78365L15.2213 5.21531L14.4988 5.07781C14.3343 5.05278 14.168 5.04052 14.0015 5.04115C13.5538 5.03723 13.1098 5.12168 12.6963 5.28943C12.2827 5.45718 11.9081 5.70478 11.5949 6.0174C11.343 6.26873 11.1487 6.56954 11.0249 6.89985C10.9012 7.23016 10.8508 7.58242 10.8771 7.93323H10.6707H10.5956C9.51658 7.94698 9.00053 6.85615 9.00053 6.79656L8.70498 6.11365L8.23584 6.68656C7.79824 7.24411 7.59821 7.94535 7.67757 8.64365C7.75528 9.02653 7.91664 9.38852 8.15062 9.70491C8.3846 10.0213 8.6857 10.2847 9.03337 10.477C9.09973 10.5176 9.1625 10.5636 9.22103 10.6145C7.73856 11.0728 6.91288 12.1178 6.04029 13.1995L5.91362 13.3553C5.50084 13.8679 4.97833 14.2861 4.38269 14.5806C3.78705 14.8752 3.13269 15.0389 2.46547 15.0603H1.82275L2.01979 15.6561C2.01979 15.7295 2.6109 17.4253 4.31856 17.4253H4.403C4.56062 17.4191 4.71749 17.4007 4.87214 17.3703C4.80177 18.287 4.45461 20.0057 2.883 20.6428L2.41387 20.8353L2.67189 21.2936C2.88 21.6068 3.16608 21.8631 3.50333 22.0387C3.84058 22.2143 4.21795 22.3033 4.60004 22.2974C5.07262 22.3021 5.53937 22.1952 5.96053 21.9857C6.02645 22.5158 6.14749 23.038 6.32177 23.5441C6.61566 24.3189 6.61566 25.1709 6.32177 25.9457L6.0872 26.4316L6.62201 26.5691C6.86795 26.6262 7.11983 26.6554 7.37263 26.6561C7.54158 26.6569 7.71004 26.6385 7.87461 26.6011C8.22024 26.5235 8.54191 26.3664 8.81288 26.1428C8.97471 26.6567 9.25565 27.1272 9.63386 27.5178C10.3657 28.2542 11.4197 28.6224 12.7958 28.6224H13.6309L13.1946 27.8799ZM12.7911 28.132C9.00053 28.132 9.09905 24.9557 9.09905 24.9557C9.00083 25.2476 8.82763 25.51 8.59601 25.7178C8.36439 25.9256 8.0821 26.072 7.77609 26.1428C7.64728 26.1745 7.51484 26.1899 7.38202 26.1886C7.1685 26.1871 6.95591 26.161 6.74868 26.1107C7.09041 25.2245 7.09041 24.247 6.74868 23.3607C6.48216 22.6253 6.35344 21.849 6.36868 21.0691C6.15521 21.3244 5.88267 21.5266 5.57354 21.6589C5.26441 21.7912 4.92753 21.8498 4.59066 21.8299C4.29144 21.8347 3.9958 21.7659 3.73098 21.6297C3.46616 21.4935 3.24069 21.2944 3.07535 21.0507C5.5993 20.0241 5.35535 16.7195 5.35535 16.7195C5.0646 16.8932 4.72975 16.9838 4.38893 16.9807H4.30917C2.90177 16.9807 2.43263 15.5232 2.43263 15.5232H2.46078C3.19342 15.4987 3.91175 15.3182 4.56564 14.9944C5.21953 14.6706 5.79323 14.2114 6.2467 13.6486C7.20843 12.4524 8.00127 11.4028 9.5588 10.9903L9.71362 10.9628L9.74646 10.8116C9.78868 10.5778 9.62448 10.3532 9.27732 10.1241C7.12868 8.74906 8.58769 6.99365 8.58769 6.99365C8.58769 6.99365 9.19757 8.39615 10.5768 8.39615H10.6753C10.8327 8.39285 10.9896 8.37752 11.1445 8.35031L11.3978 8.2999C11.294 7.94921 11.2907 7.57741 11.3883 7.22503C11.4859 6.87265 11.6807 6.55322 11.9514 6.30156C12.2215 6.03107 12.5449 5.81688 12.9021 5.67194C13.2593 5.52699 13.6429 5.45429 14.0297 5.45823C14.168 5.45654 14.3062 5.46728 14.4425 5.49031C13.9734 6.09531 13.6262 7.10365 14.1751 7.72698C14.6442 8.26323 15.8077 8.28615 15.8077 9.10198C15.8077 9.44115 15.484 9.83073 14.9069 10.1836C13.1665 11.2561 11.44 12.677 10.7176 14.5791C9.82152 16.9532 10.8349 18.5299 12.2798 19.4374C11.9649 19.6962 11.5774 19.856 11.1679 19.8957C11.0319 19.8957 10.9052 19.8957 10.7786 19.8957C10.0235 19.9281 9.28049 19.7029 8.67683 19.2586C8.79704 19.8847 9.08521 20.4683 9.51189 20.9499C9.86628 21.3513 10.3091 21.6691 10.8072 21.8795C11.3052 22.0898 11.8456 22.1873 12.3877 22.1645C12.382 22.3824 12.3279 22.5966 12.2291 22.7921C12.1302 22.9876 11.9891 23.1597 11.8153 23.2966C11.44 23.5425 11.0111 23.6994 10.5628 23.7549C10.5628 23.7549 12.1953 24.0803 12.3783 26.4361C12.3734 27.0347 12.5201 27.6251 12.8052 28.1549L12.7911 28.132Z" fill="#222220"/>
<path d="M4.35123 12.9748C4.53138 12.9759 4.7105 12.9481 4.88135 12.8923C5.33145 12.6986 5.71324 12.3798 5.97913 11.9756C6.33261 11.4974 6.78694 11.0989 7.31148 10.8068L7.96827 10.4631L7.35839 10.046C7.02248 9.83384 6.63241 9.71792 6.23246 9.71143C5.97561 9.71345 5.72191 9.76697 5.48708 9.86867C5.25225 9.97037 5.0413 10.1181 4.86728 10.3027C4.39572 10.8355 3.75172 11.1945 3.04234 11.3202L2.38086 11.3798L2.65296 11.971C2.8138 12.2757 3.05728 12.5314 3.35679 12.71C3.6563 12.8886 4.00031 12.9834 4.35123 12.9839V12.9748ZM5.19098 10.6327C5.32215 10.4894 5.4826 10.3746 5.66199 10.2956C5.84138 10.2167 6.03572 10.1754 6.23246 10.1743C6.53901 10.18 6.83791 10.2688 7.09568 10.431C5.76802 11.1231 5.49592 12.2323 4.75 12.4798C4.62647 12.5225 4.49635 12.5442 4.36531 12.5439C4.10204 12.5416 3.84425 12.4702 3.61893 12.3372C3.39361 12.2041 3.20904 12.0143 3.08456 11.7877C3.90598 11.6544 4.65507 11.248 5.20506 10.6373" fill="#222220"/>
<path d="M7.33032 18.1356C7.2495 16.6788 7.61891 15.232 8.39057 13.9831C8.15039 14.6602 8.11468 15.3906 8.2877 16.0871C8.46072 16.7836 8.83517 17.4167 9.36637 17.911C9.36637 17.911 6.76267 14.8631 10.4079 11.7418C11.8622 10.5547 13.4525 9.82139 14.2735 9.29889C11.3133 10.2431 9.86365 9.20264 9.86365 9.20264C10.273 9.51461 10.7465 9.73635 11.2519 9.85265C11.7572 9.96895 12.2822 9.97705 12.7911 9.87639C12.5846 9.97264 12.3688 10.0781 12.139 10.1972C9.63847 11.5218 7.396 13.7035 7.01131 16.7239V16.701C6.42958 19.6664 5.13477 20.4272 5.13477 20.4272C6.16217 19.9322 6.80958 18.6168 6.96908 18.1356C7.14267 20.7435 8.44217 22.5493 9.96686 24.291C10.4326 24.8143 10.7952 25.4172 11.0365 26.0693C10.9104 25.4112 10.6221 24.793 10.1967 24.2681C8.78933 22.5997 7.42884 20.5235 7.33032 18.1264" fill="#222220"/>
<path d="M18.9364 12.0264V12.6268C19.0177 12.5501 19.1154 12.4921 19.2226 12.4572C19.3298 12.4223 19.4436 12.4113 19.5557 12.4251V13.2868C19.5523 13.5006 19.4942 13.7101 19.3868 13.8964H20.2594C20.1529 13.7097 20.0949 13.5004 20.0905 13.2868V12.4251C20.2026 12.4113 20.3164 12.4223 20.4236 12.4572C20.5308 12.4921 20.6286 12.5501 20.7098 12.6268V12.0264H18.9224H18.9364Z" fill="#222220"/>
<path d="M18.5566 8.47423C18.6943 8.59008 18.8536 8.6788 19.0258 8.73548L19.1384 8.7859V8.22215L18.1016 7.7959C18.1268 7.93536 18.1816 8.06813 18.2624 8.18573C18.3431 8.30333 18.4482 8.40315 18.5707 8.47881" fill="#222220"/>
<path d="M21.0291 8.47393C21.1518 8.39848 21.257 8.29872 21.3378 8.18109C21.4186 8.06345 21.4732 7.93057 21.4982 7.79102L20.4614 8.21727V8.78102L20.5693 8.7306C20.7418 8.67457 20.9012 8.58578 21.0385 8.46935" fill="#222220"/>
<path d="M22.901 6.17786C22.901 5.32078 21.4279 4.55078 19.8 4.55078C18.1721 4.55078 16.699 5.32078 16.699 6.17786L16.7319 6.3887L17.384 10.0554L16.7319 10.4266L15.0289 11.3799C15.0289 11.3799 14.6489 11.5724 14.4706 11.687C13.8279 12.1454 13.6919 12.7595 14.0625 13.0208C14.1073 12.7184 14.2646 12.4428 14.5044 12.2467C14.7441 12.0505 15.0494 11.9475 15.362 11.9574C15.6282 11.9645 15.889 12.0329 16.123 12.1572C16.357 12.2814 16.5576 12.458 16.7084 12.6724C16.8002 12.7833 16.8848 12.8996 16.9617 13.0208C17.0602 13.1766 17.1588 13.3141 17.2526 13.447H12.9131C13.2785 14.0628 13.4922 14.7533 13.537 15.4637V24.8595C13.537 27.1512 15.3291 28.2237 17.2901 28.2237C18.7867 28.2237 18.9884 28.1549 19.8188 28.9616C20.6398 28.1549 20.8415 28.2237 22.3427 28.2237C24.2802 28.2237 26.0723 27.1374 26.0723 24.8595V15.4545C26.1172 14.7441 26.3309 14.0536 26.6963 13.4379H22.324C22.4225 13.3049 22.521 13.1674 22.6148 13.0116C22.6928 12.8911 22.7773 12.7749 22.8681 12.6633C23.0192 12.4491 23.2199 12.2727 23.4538 12.1485C23.6878 12.0243 23.9484 11.9557 24.2146 11.9483C24.5269 11.9394 24.8316 12.0427 25.0712 12.2387C25.3107 12.4347 25.4683 12.7097 25.5141 13.0116C25.8894 12.7504 25.7533 12.0949 25.1059 11.6779C24.9323 11.5587 24.5523 11.3708 24.5523 11.3708L22.8635 10.4083L22.2114 10.037L22.8635 6.37036L22.901 6.17786ZM17.3277 6.59953L19.6123 7.35578V10.862L17.9141 10.0049L17.3277 6.59953ZM17.7968 14.0474C18.1037 14.3605 18.4767 14.6045 18.8899 14.7624C18.802 15.0658 18.8236 15.3894 18.9509 15.6791C19.1038 15.9853 19.3706 16.223 19.6968 16.3437C19.7273 16.6009 19.8316 16.8445 19.9976 17.0464C20.1636 17.2483 20.3845 17.4003 20.6351 17.4849L19.9642 18.1312L17.3464 18.0899C17.2595 18.0495 17.1874 17.9839 17.14 17.902V17.8699L17.5669 17.9387H17.5951C17.6354 17.9392 17.6746 17.9257 17.7055 17.9005C17.7365 17.8753 17.7572 17.84 17.764 17.8012C17.7708 17.7575 17.7599 17.713 17.7336 17.677C17.7073 17.6411 17.6677 17.6165 17.6232 17.6087L17.0978 17.5262L17.6795 15.5599L17.1259 14.4233L16.2393 15.3399L16.183 17.3841L15.5684 17.2833C15.5462 17.2794 15.5234 17.2798 15.5014 17.2846C15.4793 17.2895 15.4585 17.2986 15.4402 17.3114C15.4218 17.3242 15.4062 17.3405 15.3944 17.3593C15.3826 17.3781 15.3748 17.399 15.3714 17.4208C15.3645 17.4645 15.3754 17.509 15.4017 17.545C15.428 17.5809 15.4676 17.6054 15.5121 17.6133L15.7607 17.6499C15.6716 17.7004 15.6106 17.737 15.6059 17.7462L15.5684 17.7966V17.8562C15.511 18.1114 15.531 18.3774 15.626 18.6216C15.721 18.8658 15.8868 19.0777 16.1032 19.2312V19.3045C16.0896 19.3913 16.1116 19.4799 16.1642 19.5511C16.2169 19.6222 16.2961 19.6703 16.3847 19.6849H16.441C16.5168 19.6845 16.5902 19.6589 16.649 19.6122C16.7079 19.5655 16.7487 19.5007 16.7647 19.4283C16.8756 19.4346 16.9868 19.4346 17.0978 19.4283H17.1682L20.6022 20.0333L20.6585 19.9966C20.9306 19.8087 21.9768 19.0799 22.3193 18.8187C22.4185 18.9031 22.529 18.974 22.6477 19.0295C22.5688 19.2655 22.5569 19.5179 22.613 19.76C22.6692 20.0021 22.7914 20.2248 22.9667 20.4045H14.161V15.4545C14.1415 14.9726 14.0351 14.4978 13.8467 14.052L17.7968 14.0474ZM22.019 18.562C21.6719 18.8141 20.7758 19.4512 20.4521 19.6712L17.3323 19.1212V19.0387C17.3952 18.8361 17.433 18.6268 17.4449 18.4154L20.0674 18.4566L20.119 18.4062C20.1565 18.3695 20.9916 17.5812 21.4138 17.132C21.5245 17.2674 21.6577 17.3836 21.8079 17.4758C21.7353 17.8521 21.8143 18.2413 22.0284 18.562H22.019ZM16.8163 18.0395C16.8846 18.1688 16.9886 18.2767 17.1165 18.3512C17.1126 18.5372 17.0938 18.7226 17.0602 18.9058C17.0602 18.947 17.0602 18.9883 17.0274 19.0295V19.0937C16.814 19.0943 16.6018 19.0618 16.3988 18.9974C16.2158 18.9012 16.0675 18.7525 15.9735 18.5715C15.8796 18.3904 15.8446 18.1856 15.8733 17.9845C16.0427 17.8783 16.2358 17.8138 16.4363 17.7966C16.5192 17.7949 16.6006 17.8188 16.6688 17.8648C16.7371 17.9109 16.7887 17.9769 16.8163 18.0533V18.0395ZM16.5067 17.4299L16.5583 15.4637L17.0274 15.0054L17.3089 15.5829L16.7506 17.4666L16.5067 17.4299ZM22.0284 27.6141H21.5593L21.9299 26.482C21.9862 26.3262 21.6953 26.1245 21.5733 25.9458C21.8607 26.1133 22.1566 26.2662 22.46 26.4041C22.46 26.4408 22.0284 27.6049 22.0284 27.6049V27.6141ZM23.1965 26.3216L22.9526 27.5591C22.7978 27.5591 22.6336 27.5912 22.4835 27.5958L22.7415 26.4087C22.8165 26.0558 21.8454 25.9504 21.3669 25.2491C21.213 25.3747 21.0349 25.469 20.8432 25.5265C20.6515 25.5839 20.4499 25.6034 20.2504 25.5837C19.8958 25.5791 19.5424 25.5423 19.1948 25.4737C19.1355 25.4691 19.0759 25.4691 19.0165 25.4737C18.9443 25.4686 18.8721 25.4836 18.8082 25.5168C18.7443 25.5501 18.6913 25.6003 18.6553 25.6616L18.5849 25.7762L17.262 25.4737L16.9336 26.0054C16.9085 26.0416 16.8971 26.0852 16.9014 26.1287C16.9057 26.1722 16.9254 26.2128 16.957 26.2437L17.0462 26.3399C16.9589 26.5091 16.8449 26.6638 16.7084 26.7983L16.5114 26.5599C16.4352 26.4472 16.3941 26.3153 16.3933 26.1802C16.3925 26.0451 16.4319 25.9127 16.5067 25.7991L17.0321 24.9329L18.1533 25.0887L17.9798 24.6991C17.7452 24.1858 18.1017 23.5349 18.1393 23.1591C18.1393 23.2737 18.0173 23.2966 17.8953 23.2966C17.7733 23.2966 17.656 23.2966 17.5716 23.2966C17.5471 23.2897 17.5211 23.2897 17.4965 23.2966L17.1916 23.4754L16.9758 23.2645C16.9581 23.232 16.9517 23.1947 16.9577 23.1583C16.9636 23.1219 16.9815 23.0884 17.0086 23.0629L17.5622 22.4533L16.9054 21.7062L17.8437 22.1645L18.1252 21.8345C18.2002 21.9079 18.1674 22.1004 18.1674 22.1004C18.4966 22.1814 18.7878 22.3693 18.9933 22.6333C19.1987 22.8973 19.3062 23.2217 19.298 23.5533C19.298 23.5854 19.298 23.6174 19.298 23.6541V23.6862C19.3916 23.8316 19.5398 23.9353 19.7109 23.9749L20.9775 24.0987C21.2286 24.0231 21.4861 23.9694 21.7469 23.9383C21.9737 23.9393 22.1953 24.0046 22.3849 24.1262C22.4737 24.067 22.5778 24.0336 22.6852 24.0299H22.7274C23.2951 24.0299 23.5343 24.5341 23.8393 24.9466C24.0691 25.2629 24.3741 25.7349 24.3741 25.7349C24.3311 25.7986 24.2726 25.8509 24.2038 25.8869C24.135 25.9229 24.0581 25.9416 23.98 25.9412C23.9254 25.9466 23.8704 25.9466 23.8158 25.9412C23.2059 25.8312 23.1168 24.6074 22.7696 24.5112H22.7133C22.6804 24.5122 22.6484 24.5216 22.6204 24.5385C22.5924 24.5554 22.5694 24.5792 22.5538 24.6074C22.7133 25.0245 22.6195 25.1941 22.7931 25.5241C22.921 25.7222 23.0792 25.9 23.2622 26.0512C23.2622 26.0512 23.2388 26.2299 23.2106 26.3674L23.1965 26.3216ZM16.3706 25.162L16.4269 25.3041C16.3894 25.4279 15.9578 25.6066 15.9578 25.6066L15.864 25.4049C15.8042 25.2659 15.7939 25.1113 15.8347 24.9659C15.8756 24.8205 15.9651 24.6927 16.0891 24.6029L16.8022 24.1812L17.5575 24.337C17.5534 24.4835 17.5997 24.6271 17.6889 24.7449L16.8961 24.5983L16.4269 24.9191C16.3915 24.9492 16.368 24.9903 16.3603 25.0354C16.3526 25.0806 16.3612 25.127 16.3847 25.1666L16.3706 25.162ZM23.3185 27.5041L23.5343 26.3949C23.5343 26.3308 23.5578 26.2529 23.5672 26.1887C23.6305 26.2153 23.6965 26.2353 23.7642 26.2483C23.8391 26.2551 23.9145 26.2551 23.9894 26.2483C24.1156 26.2478 24.24 26.219 24.353 26.1642C24.4661 26.1093 24.5648 26.0299 24.6415 25.932L24.8104 25.7441L24.6743 25.5379C24.6743 25.5379 24.36 25.052 24.1301 24.7312L23.9988 24.5387C23.8869 24.2978 23.7115 24.0902 23.4906 23.9372C23.2697 23.7842 23.0112 23.6913 22.7415 23.6679H22.6805C22.586 23.6728 22.4927 23.6913 22.4037 23.7229C22.2017 23.6276 21.9806 23.5775 21.7563 23.5762C21.5318 23.5813 21.3098 23.6231 21.0995 23.6999L20.9869 23.732L19.7484 23.6129C19.6977 23.5888 19.6541 23.5525 19.6217 23.5074L19.8891 23.402C19.8141 22.5312 18.9509 21.9949 18.4817 21.8116C18.4605 21.7175 18.4116 21.6315 18.341 21.5641L18.0736 21.3166L17.839 21.5916L17.7217 21.7291L15.9859 21.0324L17.1119 22.4074L16.6662 23.0674C16.6432 23.0896 16.625 23.116 16.6125 23.1451C16.6 23.1742 16.5936 23.2055 16.5936 23.237C16.5936 23.2686 16.6 23.2998 16.6125 23.3289C16.625 23.358 16.6432 23.3844 16.6662 23.4066L17.1353 23.7183L17.6044 23.5441H17.6514C17.6514 23.6129 17.5998 23.8924 17.5763 23.9704L16.7506 23.8099L15.8827 24.2683C15.6923 24.4021 15.5545 24.5956 15.4922 24.8165C15.4298 25.0375 15.4468 25.2726 15.5402 25.4829L15.6388 25.6891L15.7748 25.9779L16.0798 25.8541C16.0234 25.9996 16.0059 26.1568 16.0289 26.3107C16.0519 26.4647 16.1146 26.6104 16.2111 26.7341L16.3941 26.9587L16.638 27.2612L16.9101 26.977C17.0878 26.8052 17.2296 26.6013 17.3277 26.3766L17.384 26.1933L17.2526 26.0512V26.0237L17.4027 25.7854L18.4817 26.0329L18.7257 26.0879L18.857 25.877L18.9274 25.7624C18.9274 25.7395 18.9274 25.7349 18.9931 25.7349H19.1104C19.4782 25.8066 19.8519 25.845 20.2269 25.8495C20.4788 25.863 20.7313 25.8336 20.9728 25.7624L21.564 26.5049L21.198 27.5774V27.6416C20.9348 27.6367 20.6734 27.686 20.4309 27.7863C20.1884 27.8866 19.9703 28.0356 19.7906 28.2237C19.2136 27.6645 18.8101 27.6095 17.262 27.6095C15.4136 27.6095 14.161 26.5508 14.161 24.8595V20.7345H25.4202V24.8595C25.4461 25.4741 25.2468 26.0775 24.8581 26.5614C24.4694 27.0453 23.9169 27.3779 23.2998 27.4995L23.3185 27.5041ZM25.7346 14.052C25.5449 14.4974 25.4384 14.9724 25.4202 15.4545V18.5391C25.2207 18.4977 25.0403 18.3939 24.9066 18.2434C24.7728 18.0928 24.6929 17.9038 24.679 17.7049V17.5629H24.5383C24.2957 17.5424 24.0689 17.4366 23.9002 17.2649C23.6815 17.0348 23.5549 16.7355 23.5437 16.4216C23.4453 16.5787 23.3976 16.7611 23.4068 16.945C23.416 17.129 23.4817 17.3059 23.5953 17.4529C23.7774 17.68 24.0437 17.8282 24.3365 17.8654C24.3782 18.1271 24.5069 18.3681 24.7028 18.5512C24.8987 18.7342 25.1508 18.8492 25.4202 18.8783V20.3908H23.4733C23.225 20.2683 23.0344 20.0573 22.941 19.8013C22.8476 19.5454 22.8584 19.2641 22.9714 19.0158L23.0464 18.8508L22.8728 18.7866C22.6022 18.6937 22.3791 18.5017 22.2504 18.2512C22.1218 18.0007 22.0977 17.7112 22.1832 17.4437L22.2207 17.3062L22.0894 17.2466C21.8487 17.1094 21.6552 16.9055 21.5332 16.6607C21.4113 16.4159 21.3665 16.1413 21.4044 15.8716C21.2733 15.9974 21.1866 16.1608 21.1571 16.338C21.1275 16.5153 21.1567 16.6971 21.2402 16.857C21.1464 16.9579 21.0244 17.0862 20.8884 17.2191C20.6539 17.1691 20.4428 17.045 20.2876 16.8661C20.1324 16.6872 20.0419 16.4633 20.0299 16.2291V16.1008L19.922 16.0595C19.7815 16.0187 19.6509 15.9505 19.5381 15.8592C19.4252 15.7678 19.3324 15.6551 19.2652 15.5279C19.1744 15.316 19.1579 15.0807 19.2183 14.8587C19.311 14.8789 19.405 14.8927 19.4998 14.8999C19.5951 14.9048 19.6906 14.9048 19.7859 14.8999C20.1614 14.8991 20.5326 14.8212 20.8753 14.6711C21.2179 14.5211 21.5245 14.3024 21.7751 14.0291L25.7346 14.052ZM22.6993 10.9216L23.4686 11.3799L23.661 11.4899C23.2618 11.596 22.9001 11.8069 22.6148 12.0995L22.582 12.127C22.5163 12.1958 22.4553 12.2645 22.3943 12.3379L22.3568 12.3837C22.2974 12.457 22.2411 12.5334 22.1879 12.6129L22.1598 12.6541C22.0941 12.7458 22.0331 12.8466 21.9721 12.9474C21.7632 13.3508 21.4541 13.6965 21.0729 13.9527C20.6918 14.209 20.2508 14.3676 19.7906 14.4141C19.327 14.3689 18.8826 14.2099 18.4987 13.9519C18.1148 13.6939 17.804 13.3452 17.5951 12.9383C17.5341 12.8374 17.4731 12.7412 17.4121 12.6495L17.3746 12.5991L17.2104 12.3791L17.1682 12.3287C17.1072 12.2554 17.0462 12.1866 16.9852 12.1224L16.9758 12.0812C16.69 11.7902 16.3283 11.581 15.9296 11.4762L16.1267 11.3662L16.8961 10.9079L17.6842 10.4495L19.7906 11.6091L21.9017 10.4862L22.6993 10.9216ZM21.6672 10.0049L19.983 10.8712V7.36036L22.2677 6.60411L21.6672 10.0049ZM19.7906 6.97995L17.2901 6.01286C17.5012 5.52245 18.4864 5.0962 19.7906 5.0962C21.0948 5.0962 22.08 5.51786 22.2958 6.01286L19.7906 6.97995Z" fill="#222220"/>
</g>
<defs>
<clipPath id="clip0">
<rect width="38" height="33" fill="white" transform="translate(0.823242 0.379883)"/>
</clipPath>
</defs>
</svg>
