<svg width="52" height="16" viewBox="0 0 52 16" fill="none" xmlns="http://www.w3.org/2000/svg">
<g clip-path="url(#clip0)">
<path d="M22.9233 15.1635H18.792L21.376 0.643066H25.5072L22.9233 15.1635Z" fill="#9AA4B6"/>
<path d="M37.8998 0.998074C37.0849 0.704274 35.7924 0.379883 34.1943 0.379883C30.1144 0.379883 27.2414 2.35703 27.2238 5.18374C27.1899 7.26929 29.2808 8.42765 30.8446 9.12304C32.443 9.83362 32.9863 10.2974 32.9863 10.9308C32.97 11.9036 31.6947 12.352 30.5053 12.352C28.8558 12.352 27.9721 12.1208 26.629 11.5796L26.085 11.3476L25.5068 14.6071C26.4758 15.0083 28.261 15.3643 30.1144 15.3799C34.4493 15.3799 37.2715 13.4333 37.3049 10.421C37.3214 8.76806 36.2174 7.5015 33.8371 6.46653C32.3921 5.80214 31.5072 5.35415 31.5072 4.67437C31.5242 4.05638 32.2557 3.42341 33.8868 3.42341C35.2299 3.39241 36.2167 3.6858 36.9643 3.97939L37.3379 4.13358L37.8998 0.998074Z" fill="#9AA4B6"/>
<path d="M43.3909 10.0194C43.7311 9.18523 45.0403 5.95671 45.0403 5.95671C45.0232 5.98772 45.3799 5.10714 45.5839 4.56655L45.8726 5.81772C45.8726 5.81772 46.655 9.29342 46.8249 10.0194C46.1792 10.0194 44.2069 10.0194 43.3909 10.0194ZM48.4905 0.643066H45.2949C44.3095 0.643066 43.5608 0.905454 43.1356 1.84783L36.999 15.1633H41.3339C41.3339 15.1633 42.0476 13.3711 42.201 12.9851C42.6766 12.9851 46.8935 12.9851 47.5053 12.9851C47.6239 13.4949 47.9983 15.1633 47.9983 15.1633H51.8235L48.4905 0.643066Z" fill="#9AA4B6"/>
<path d="M15.3411 0.643066L11.2951 10.5446L10.853 8.53644C10.105 6.21931 7.75905 3.70179 5.14111 2.45001L8.84707 15.1481H13.2159L19.7096 0.643066H15.3411Z" fill="#9AA4B6"/>
<path d="M7.53819 0.643066H0.891243L0.823242 0.936455C6.00828 2.14142 9.44223 5.04596 10.8531 8.53706L9.40812 1.86364C9.17022 0.93625 8.43915 0.673658 7.53819 0.643066Z" fill="#B9C3D5"/>
</g>
<defs>
<clipPath id="clip0">
<rect width="51" height="15" fill="white" transform="translate(0.823242 0.379883)"/>
</clipPath>
</defs>
</svg>
