<svg width="21" height="12" viewBox="0 0 21 12" fill="none" xmlns="http://www.w3.org/2000/svg">
<path d="M16.9472 6.80591C16.6279 6.40275 16.7193 6.22339 16.9472 5.86301C16.9513 5.8589 19.5866 2.2173 19.8581 0.982318L19.8598 0.981496C19.9947 0.531438 19.8598 0.200684 19.2073 0.200684H17.0484C16.4988 0.200684 16.2454 0.48454 16.1096 0.802131C16.1096 0.802131 15.0104 3.43336 13.4553 5.13897C12.9534 5.63181 12.7214 5.78978 12.4474 5.78978C12.3125 5.78978 12.1027 5.63181 12.1027 5.18175V0.981496C12.1027 0.441756 11.9488 0.200684 11.4938 0.200684H8.09907C7.75433 0.200684 7.54946 0.452452 7.54946 0.686943C7.54946 1.19871 8.32698 1.31636 8.40761 2.75622V5.88029C8.40761 6.56484 8.28337 6.69072 8.00774 6.69072C7.27383 6.69072 5.49253 4.0488 4.43691 1.0251C4.22381 0.438465 4.01565 0.201506 3.46192 0.201506H1.30214C0.685884 0.201506 0.561646 0.485363 0.561646 0.802954C0.561646 1.36409 1.29556 4.15411 3.97451 7.84014C5.75993 10.3562 8.27432 11.7195 10.5616 11.7195C11.9365 11.7195 12.1043 11.4167 12.1043 10.8959C12.1043 8.49177 11.9801 8.26469 12.6688 8.26469C12.988 8.26469 13.5376 8.42266 14.8211 9.63625C16.2881 11.0753 16.5292 11.7195 17.3503 11.7195H19.5093C20.1247 11.7195 20.4366 11.4167 20.2572 10.8194C19.8466 9.56302 17.0722 6.97869 16.9472 6.80591Z" fill="#4B5DFF"/>
</svg>
