<svg width="8" height="8" viewBox="0 0 8 8" fill="none" xmlns="http://www.w3.org/2000/svg">
<path d="M2.89151 1.18608C3.19036 0.263726 4.49529 0.263726 4.79414 1.18608L4.96199 1.70413C5.09561 2.11655 5.47977 2.3959 5.9133 2.3959H6.46244C7.43048 2.3959 7.83371 3.63408 7.05131 4.20413L6.60221 4.53134C6.25271 4.78598 6.10647 5.23643 6.23976 5.6478L6.41016 6.17371C6.70883 7.09552 5.65314 7.86078 4.86998 7.29017L4.43169 6.97084C4.08075 6.71514 3.6049 6.71514 3.25396 6.97084L2.81567 7.29017C2.0325 7.86078 0.976816 7.09552 1.27549 6.17371L1.44589 5.6478C1.57917 5.23643 1.43294 4.78598 1.08344 4.53134L0.63434 4.20413C-0.14806 3.63408 0.255165 2.3959 1.22321 2.3959H1.77235C2.20588 2.3959 2.59003 2.11655 2.72366 1.70413L2.89151 1.18608Z" fill="#9AA4B6"/>
</svg>
