<svg width="12" height="12" viewBox="0 0 12 12" fill="none" xmlns="http://www.w3.org/2000/svg">
<path d="M5.37951 1.17705C5.67886 0.255738 6.98227 0.25574 7.28162 1.17705L7.90216 3.08688C8.03604 3.4989 8.41999 3.77786 8.85322 3.77786H10.8613C11.8301 3.77786 12.2328 5.01748 11.4491 5.58688L9.82452 6.76722C9.47403 7.02187 9.32738 7.47323 9.46125 7.88526L10.0818 9.79508C10.3811 10.7164 9.32666 11.4825 8.54295 10.9131L6.91835 9.73278C6.56786 9.47813 6.09327 9.47813 5.74278 9.73278L4.11818 10.9131C3.33447 11.4825 2.27999 10.7164 2.57934 9.79508L3.19988 7.88526C3.33376 7.47323 3.1871 7.02186 2.83661 6.76722L1.21201 5.58688C0.428298 5.01748 0.831074 3.77786 1.7998 3.77786H3.80791C4.24114 3.77786 4.62509 3.4989 4.75897 3.08688L5.37951 1.17705Z" fill="#9AA4B6"/>
</svg>
