<svg width="375" height="472" viewBox="0 0 375 472" fill="none" xmlns="http://www.w3.org/2000/svg">
<path d="M0.000366211 0H374C374.553 0 375 0.447715 375 1V452C375 463.046 366.046 472 355 472H20.0004C8.95467 472 0.000366211 463.046 0.000366211 452V0Z" fill="url(#paint0_linear)"/>
<mask id="mask0" mask-type="alpha" maskUnits="userSpaceOnUse" x="0" y="0" width="376" height="472">
<rect x="0.000366211" width="375" height="472" fill="url(#paint1_linear)"/>
</mask>
<g mask="url(#mask0)">
<path fill-rule="evenodd" clip-rule="evenodd" d="M353.222 408.507V364.544C353.222 363.523 352.395 362.695 351.374 362.695H270.051C269.03 362.695 268.203 363.523 268.203 364.544V408.507C268.203 409.528 269.03 410.356 270.051 410.356H351.374C352.395 410.356 353.222 409.528 353.222 408.507ZM353.839 364.544C353.839 363.183 352.735 362.079 351.374 362.079H270.051C268.69 362.079 267.587 363.183 267.587 364.544V408.507C267.587 409.868 268.69 410.972 270.051 410.972H351.374C352.735 410.972 353.839 409.868 353.839 408.507V364.544Z" fill="#69AEFF"/>
<path fill-rule="evenodd" clip-rule="evenodd" d="M341.803 366.434C341.922 366.434 342.019 366.531 342.019 366.65V406.401C342.019 406.52 341.922 406.617 341.803 406.617H283.132C283.013 406.617 282.916 406.52 282.916 406.401V366.65C282.916 366.531 283.013 366.434 283.132 366.434H341.803ZM341.587 366.865H283.347V406.186H341.587V366.865Z" fill="#69AEFF"/>
<path fill-rule="evenodd" clip-rule="evenodd" d="M279.332 386.808C279.394 386.083 279.218 385.359 278.831 384.743C278.444 384.127 277.867 383.654 277.188 383.395C276.509 383.136 275.763 383.105 275.065 383.306C274.366 383.508 273.752 383.931 273.315 384.512C272.878 385.094 272.642 385.801 272.643 386.528C272.643 387.255 272.881 387.963 273.318 388.543C273.756 389.124 274.371 389.546 275.07 389.747C275.769 389.947 276.514 389.915 277.193 389.654C277.304 389.612 277.429 389.667 277.471 389.779C277.514 389.89 277.458 390.015 277.347 390.057C276.581 390.351 275.74 390.387 274.951 390.161C274.162 389.935 273.468 389.458 272.974 388.803C272.48 388.148 272.212 387.349 272.212 386.529C272.211 385.708 272.477 384.909 272.97 384.253C273.463 383.597 274.157 383.119 274.945 382.892C275.734 382.664 276.575 382.699 277.342 382.992C278.108 383.285 278.759 383.819 279.196 384.513C279.633 385.208 279.831 386.026 279.762 386.844C279.752 386.963 279.648 387.051 279.529 387.041C279.41 387.031 279.322 386.927 279.332 386.808Z" fill="#69AEFF"/>
<path fill-rule="evenodd" clip-rule="evenodd" d="M346.782 382.577C346.901 382.577 346.998 382.673 346.998 382.792V393.895C346.998 394.014 346.901 394.11 346.782 394.11C346.663 394.11 346.567 394.014 346.567 393.895V382.792C346.567 382.673 346.663 382.577 346.782 382.577Z" fill="#69AEFF"/>
<path fill-rule="evenodd" clip-rule="evenodd" d="M347.57 378.725C347.689 378.725 347.785 378.822 347.785 378.941V379.761C347.785 379.88 347.689 379.977 347.57 379.977C347.451 379.977 347.354 379.88 347.354 379.761V378.941C347.354 378.822 347.451 378.725 347.57 378.725Z" fill="#69AEFF"/>
<path fill-rule="evenodd" clip-rule="evenodd" d="M341.281 366.517C341.366 366.601 341.366 366.738 341.281 366.822V366.674L318.849 389.106C318.765 389.191 318.629 389.191 318.544 389.106C318.46 389.022 318.46 388.886 318.544 388.801L340.671 366.674L340.976 366.517C341.061 366.433 341.197 366.433 341.281 366.517Z" fill="#69AEFF"/>
<path fill-rule="evenodd" clip-rule="evenodd" d="M286.717 406.556C286.632 406.473 286.63 406.336 286.713 406.251L318.769 373.382C318.852 373.297 318.988 373.295 319.074 373.378C319.159 373.461 319.161 373.598 319.078 373.683L287.022 406.552C286.939 406.637 286.802 406.639 286.717 406.556Z" fill="#69AEFF"/>
<path fill-rule="evenodd" clip-rule="evenodd" d="M301.121 406.554C301.036 406.471 301.035 406.334 301.119 406.249L314.302 392.932C314.386 392.847 314.523 392.847 314.607 392.931C314.692 393.014 314.693 393.151 314.609 393.235L301.426 406.553C301.342 406.638 301.205 406.638 301.121 406.554Z" fill="#69AEFF"/>
<path fill-rule="evenodd" clip-rule="evenodd" d="M66.4286 341.569H22.465C21.4441 341.569 20.6165 342.397 20.6165 343.418V424.74C20.6165 425.761 21.4441 426.589 22.465 426.589H66.4286C67.4494 426.589 68.277 425.761 68.277 424.74V343.418C68.277 342.397 67.4494 341.569 66.4286 341.569ZM22.465 340.953C21.1038 340.953 20.0004 342.057 20.0004 343.418V424.74C20.0004 426.102 21.1038 427.205 22.465 427.205H66.4286C67.7897 427.205 68.8931 426.102 68.8931 424.74V343.418C68.8931 342.057 67.7897 340.953 66.4286 340.953H22.465Z" fill="#69AEFF"/>
<path fill-rule="evenodd" clip-rule="evenodd" d="M24.3552 352.989C24.3552 352.87 24.4518 352.773 24.5709 352.773H64.3225C64.4416 352.773 64.5381 352.87 64.5381 352.989V411.66C64.5381 411.779 64.4416 411.876 64.3225 411.876H24.5709C24.4518 411.876 24.3552 411.779 24.3552 411.66V352.989ZM24.7865 353.204V411.444H64.1068V353.204H24.7865Z" fill="#69AEFF"/>
<path fill-rule="evenodd" clip-rule="evenodd" d="M44.7292 415.459C44.0046 415.398 43.2798 415.574 42.6642 415.961C42.0485 416.348 41.5754 416.924 41.3162 417.604C41.0571 418.283 41.0259 419.028 41.2275 419.727C41.429 420.426 41.8524 421.04 42.4336 421.477C43.0149 421.913 43.7224 422.149 44.4495 422.149C45.1767 422.148 45.8839 421.911 46.4644 421.473C47.0449 421.036 47.4673 420.421 47.6678 419.722C47.8682 419.023 47.8359 418.278 47.5757 417.599C47.533 417.488 47.5886 417.363 47.6998 417.32C47.8111 417.278 47.9358 417.333 47.9784 417.444C48.2721 418.211 48.3086 419.052 48.0824 419.841C47.8561 420.63 47.3794 421.324 46.7241 421.818C46.0688 422.312 45.2706 422.58 44.4499 422.58C43.6292 422.581 42.8305 422.314 42.1745 421.821C41.5184 421.328 41.0406 420.635 40.8131 419.847C40.5856 419.058 40.6207 418.217 40.9132 417.45C41.2058 416.683 41.7398 416.032 42.4347 415.596C43.1296 415.159 43.9477 414.96 44.7655 415.03C44.8842 415.04 44.9722 415.144 44.9622 415.263C44.9522 415.381 44.8478 415.469 44.7292 415.459Z" fill="#69AEFF"/>
<path fill-rule="evenodd" clip-rule="evenodd" d="M40.4978 348.009C40.4978 347.89 40.5943 347.794 40.7134 347.794H51.8158C51.9349 347.794 52.0315 347.89 52.0315 348.009C52.0315 348.128 51.9349 348.225 51.8158 348.225H40.7134C40.5943 348.225 40.4978 348.128 40.4978 348.009Z" fill="#69AEFF"/>
<path fill-rule="evenodd" clip-rule="evenodd" d="M36.6465 347.222C36.6465 347.103 36.7431 347.006 36.8622 347.006H37.6823C37.8014 347.006 37.898 347.103 37.898 347.222C37.898 347.341 37.8014 347.438 37.6823 347.438H36.8622C36.7431 347.438 36.6465 347.341 36.6465 347.222Z" fill="#69AEFF"/>
<path fill-rule="evenodd" clip-rule="evenodd" d="M24.438 353.51C24.5222 353.426 24.6588 353.426 24.743 353.51H24.5956L47.0277 375.942C47.1119 376.027 47.1119 376.163 47.0277 376.247C46.9434 376.332 46.8069 376.332 46.7227 376.247L24.5956 354.12L24.438 353.815C24.3538 353.731 24.3538 353.595 24.438 353.51Z" fill="#69AEFF"/>
<path fill-rule="evenodd" clip-rule="evenodd" d="M64.477 408.075C64.3938 408.16 64.2573 408.162 64.172 408.078L31.3031 376.023C31.2178 375.94 31.2161 375.803 31.2993 375.718C31.3824 375.633 31.519 375.631 31.6042 375.714L64.4731 407.77C64.5584 407.853 64.5601 407.989 64.477 408.075Z" fill="#69AEFF"/>
<path fill-rule="evenodd" clip-rule="evenodd" d="M64.4757 393.671C64.3919 393.756 64.2554 393.756 64.1707 393.673L50.8533 380.489C50.7687 380.406 50.768 380.269 50.8518 380.185C50.9356 380.1 51.0721 380.099 51.1567 380.183L64.4742 393.366C64.5588 393.45 64.5595 393.586 64.4757 393.671Z" fill="#69AEFF"/>
<path fill-rule="evenodd" clip-rule="evenodd" d="M242.966 341.569H199.002C197.982 341.569 197.154 342.397 197.154 343.418V424.74C197.154 425.761 197.982 426.589 199.002 426.589H242.966C243.987 426.589 244.814 425.761 244.814 424.74V343.418C244.814 342.397 243.987 341.569 242.966 341.569ZM199.002 340.953C197.641 340.953 196.538 342.057 196.538 343.418V424.74C196.538 426.102 197.641 427.205 199.002 427.205H242.966C244.327 427.205 245.431 426.102 245.431 424.74V343.418C245.431 342.057 244.327 340.953 242.966 340.953H199.002Z" fill="#69AEFF"/>
<path fill-rule="evenodd" clip-rule="evenodd" d="M200.893 352.989C200.893 352.87 200.989 352.773 201.108 352.773H240.86C240.979 352.773 241.076 352.87 241.076 352.989V411.66C241.076 411.779 240.979 411.876 240.86 411.876H201.108C200.989 411.876 200.893 411.779 200.893 411.66V352.989ZM201.324 353.204V411.444H240.644V353.204H201.324Z" fill="#69AEFF"/>
<path fill-rule="evenodd" clip-rule="evenodd" d="M221.267 415.459C220.542 415.398 219.817 415.574 219.202 415.961C218.586 416.348 218.113 416.924 217.854 417.604C217.594 418.283 217.563 419.028 217.765 419.727C217.966 420.426 218.39 421.04 218.971 421.477C219.552 421.913 220.26 422.149 220.987 422.149C221.714 422.148 222.421 421.911 223.002 421.473C223.582 421.036 224.005 420.421 224.205 419.722C224.406 419.023 224.373 418.278 224.113 417.599C224.07 417.488 224.126 417.363 224.237 417.32C224.348 417.278 224.473 417.333 224.516 417.444C224.81 418.211 224.846 419.052 224.62 419.841C224.394 420.63 223.917 421.324 223.262 421.818C222.606 422.312 221.808 422.58 220.987 422.58C220.167 422.581 219.368 422.314 218.712 421.821C218.056 421.328 217.578 420.635 217.35 419.847C217.123 419.058 217.158 418.217 217.451 417.45C217.743 416.683 218.277 416.032 218.972 415.596C219.667 415.159 220.485 414.96 221.303 415.03C221.422 415.04 221.51 415.144 221.5 415.263C221.49 415.381 221.385 415.469 221.267 415.459Z" fill="#69AEFF"/>
<path fill-rule="evenodd" clip-rule="evenodd" d="M217.035 348.009C217.035 347.89 217.132 347.794 217.251 347.794H228.353C228.472 347.794 228.569 347.89 228.569 348.009C228.569 348.128 228.472 348.225 228.353 348.225H217.251C217.132 348.225 217.035 348.128 217.035 348.009Z" fill="#69AEFF"/>
<path fill-rule="evenodd" clip-rule="evenodd" d="M213.184 347.222C213.184 347.103 213.28 347.006 213.4 347.006H214.22C214.339 347.006 214.435 347.103 214.435 347.222C214.435 347.341 214.339 347.438 214.22 347.438H213.4C213.28 347.438 213.184 347.341 213.184 347.222Z" fill="#69AEFF"/>
<path fill-rule="evenodd" clip-rule="evenodd" d="M200.975 353.51C201.06 353.426 201.196 353.426 201.28 353.51H201.133L223.565 375.942C223.649 376.027 223.649 376.163 223.565 376.247C223.481 376.332 223.344 376.332 223.26 376.247L201.133 354.12L200.975 353.815C200.891 353.731 200.891 353.595 200.975 353.51Z" fill="#69AEFF"/>
<path fill-rule="evenodd" clip-rule="evenodd" d="M241.014 408.075C240.931 408.16 240.795 408.162 240.709 408.078L207.841 376.023C207.755 375.94 207.754 375.803 207.837 375.718C207.92 375.633 208.056 375.631 208.142 375.714L241.011 407.77C241.096 407.853 241.098 407.989 241.014 408.075Z" fill="#69AEFF"/>
<path fill-rule="evenodd" clip-rule="evenodd" d="M241.013 393.671C240.929 393.756 240.793 393.756 240.708 393.673L227.391 380.489C227.306 380.406 227.305 380.269 227.389 380.185C227.473 380.1 227.61 380.099 227.694 380.183L241.012 393.366C241.096 393.45 241.097 393.586 241.013 393.671Z" fill="#69AEFF"/>
<path fill-rule="evenodd" clip-rule="evenodd" d="M176.685 408.507V364.544C176.685 363.523 175.857 362.695 174.836 362.695H93.5138C92.4929 362.695 91.6654 363.523 91.6654 364.544V408.507C91.6654 409.528 92.4929 410.356 93.5138 410.356H174.836C175.857 410.356 176.685 409.528 176.685 408.507ZM177.301 364.544C177.301 363.183 176.198 362.079 174.836 362.079H93.5138C92.1526 362.079 91.0492 363.183 91.0492 364.544V408.507C91.0492 409.868 92.1526 410.972 93.5138 410.972H174.836C176.198 410.972 177.301 409.868 177.301 408.507V364.544Z" fill="#69AEFF"/>
<path fill-rule="evenodd" clip-rule="evenodd" d="M165.265 366.434C165.385 366.434 165.481 366.531 165.481 366.65V406.401C165.481 406.52 165.385 406.617 165.265 406.617H106.594C106.475 406.617 106.378 406.52 106.378 406.401V366.65C106.378 366.531 106.475 366.434 106.594 366.434H165.265ZM165.05 366.865H106.81V406.186H165.05V366.865Z" fill="#69AEFF"/>
<path fill-rule="evenodd" clip-rule="evenodd" d="M102.795 386.808C102.856 386.083 102.68 385.359 102.293 384.743C101.906 384.127 101.33 383.654 100.65 383.395C99.971 383.136 99.2258 383.105 98.5272 383.306C97.8286 383.508 97.2145 383.931 96.7776 384.512C96.3407 385.094 96.1048 385.801 96.1053 386.528C96.1059 387.255 96.343 387.963 96.7808 388.543C97.2186 389.124 97.8334 389.546 98.5323 389.747C99.2312 389.947 99.9764 389.915 100.655 389.654C100.767 389.612 100.891 389.667 100.934 389.779C100.977 389.89 100.921 390.015 100.81 390.057C100.043 390.351 99.2023 390.387 98.4134 390.161C97.6245 389.935 96.9306 389.458 96.4364 388.803C95.9423 388.148 95.6747 387.349 95.674 386.529C95.6734 385.708 95.9397 384.909 96.4328 384.253C96.926 383.597 97.6191 383.119 98.4076 382.892C99.1962 382.664 100.037 382.699 100.804 382.992C101.571 383.285 102.222 383.819 102.658 384.513C103.095 385.208 103.294 386.026 103.225 386.844C103.215 386.963 103.11 387.051 102.992 387.041C102.873 387.031 102.785 386.927 102.795 386.808Z" fill="#69AEFF"/>
<path fill-rule="evenodd" clip-rule="evenodd" d="M170.245 382.577C170.364 382.577 170.46 382.673 170.46 382.792V393.895C170.46 394.014 170.364 394.11 170.245 394.11C170.126 394.11 170.029 394.014 170.029 393.895V382.792C170.029 382.673 170.126 382.577 170.245 382.577Z" fill="#69AEFF"/>
<path fill-rule="evenodd" clip-rule="evenodd" d="M171.032 378.725C171.151 378.725 171.248 378.822 171.248 378.941V379.761C171.248 379.88 171.151 379.977 171.032 379.977C170.913 379.977 170.817 379.88 170.817 379.761V378.941C170.817 378.822 170.913 378.725 171.032 378.725Z" fill="#69AEFF"/>
<path fill-rule="evenodd" clip-rule="evenodd" d="M164.744 366.517C164.828 366.601 164.828 366.738 164.744 366.822V366.674L142.312 389.106C142.228 389.191 142.091 389.191 142.007 389.106C141.923 389.022 141.923 388.886 142.007 388.801L164.134 366.674L164.439 366.517C164.523 366.433 164.66 366.433 164.744 366.517Z" fill="#69AEFF"/>
<path fill-rule="evenodd" clip-rule="evenodd" d="M110.18 406.556C110.094 406.473 110.093 406.336 110.176 406.251L142.231 373.382C142.314 373.297 142.451 373.295 142.536 373.378C142.621 373.461 142.623 373.598 142.54 373.683L110.485 406.552C110.401 406.637 110.265 406.639 110.18 406.556Z" fill="#69AEFF"/>
<path fill-rule="evenodd" clip-rule="evenodd" d="M124.583 406.554C124.499 406.471 124.498 406.334 124.582 406.249L137.765 392.932C137.849 392.847 137.985 392.847 138.07 392.931C138.154 393.014 138.155 393.151 138.071 393.235L124.888 406.553C124.804 406.638 124.668 406.638 124.583 406.554Z" fill="#69AEFF"/>
</g>
<defs>
<linearGradient id="paint0_linear" x1="187.5" y1="0" x2="187.5" y2="472" gradientUnits="userSpaceOnUse">
<stop stop-color="#4B5DFF"/>
<stop offset="1" stop-color="#4B93FF"/>
</linearGradient>
<linearGradient id="paint1_linear" x1="187.5" y1="0" x2="187.5" y2="472" gradientUnits="userSpaceOnUse">
<stop stop-color="#4B5DFF"/>
<stop offset="1" stop-color="#4B93FF"/>
</linearGradient>
</defs>
</svg>
