<svg width="768" height="480" viewBox="0 0 768 480" fill="none" xmlns="http://www.w3.org/2000/svg">
<path d="M-1 0H767C767.552 0 768 0.447715 768 1V460C768 471.046 759.046 480 748 480H19C7.95433 480 -1 471.046 -1 460V0Z" fill="url(#paint0_linear)"/>
<mask id="mask0" mask-type="alpha" maskUnits="userSpaceOnUse" x="-1" y="0" width="769" height="480">
<rect x="-1" width="769" height="480" fill="url(#paint1_linear)"/>
</mask>
<g mask="url(#mask0)">
<path fill-rule="evenodd" clip-rule="evenodd" d="M151.133 287.211H66.3862C65.8429 287.211 65.4024 287.652 65.4024 288.195V421.969C65.4024 422.513 65.8429 422.953 66.3862 422.953H151.133C151.677 422.953 152.117 422.513 152.117 421.969V288.195C152.117 287.652 151.677 287.211 151.133 287.211ZM66.3862 286.227C65.2996 286.227 64.4187 287.108 64.4187 288.195V421.969C64.4187 423.056 65.2996 423.937 66.3862 423.937H151.133C152.22 423.937 153.101 423.056 153.101 421.969V288.195C153.101 287.108 152.22 286.227 151.133 286.227H66.3862Z" fill="#69AEFF"/>
<path fill-rule="evenodd" clip-rule="evenodd" d="M65.6434 300.08C65.7779 299.946 65.9959 299.946 66.1303 300.08L110.232 344.182C110.366 344.316 110.366 344.534 110.232 344.669C110.097 344.803 109.879 344.803 109.745 344.669L65.6434 300.567C65.509 300.433 65.509 300.215 65.6434 300.08Z" fill="#69AEFF"/>
<path fill-rule="evenodd" clip-rule="evenodd" d="M149.969 413.823C149.837 413.959 149.619 413.962 149.483 413.829L86.8811 352.777C86.745 352.644 86.7423 352.426 86.875 352.29C87.0078 352.154 87.2258 352.151 87.3619 352.284L149.963 413.336C150.1 413.469 150.102 413.687 149.969 413.823Z" fill="#69AEFF"/>
<path fill-rule="evenodd" clip-rule="evenodd" d="M144.476 377.5C144.342 377.635 144.124 377.636 143.989 377.502L118.624 352.394C118.489 352.26 118.488 352.042 118.622 351.907C118.756 351.772 118.974 351.771 119.109 351.905L144.473 377.013C144.608 377.147 144.609 377.365 144.476 377.5Z" fill="#69AEFF"/>
<path d="M122.354 311.483C122.385 311.256 122.713 311.256 122.744 311.483L124.039 320.96C124.051 321.047 124.119 321.116 124.207 321.128L133.683 322.423C133.91 322.454 133.91 322.781 133.683 322.812L124.207 324.107C124.119 324.119 124.051 324.188 124.039 324.276L122.744 333.752C122.713 333.979 122.385 333.979 122.354 333.752L121.059 324.276C121.047 324.188 120.978 324.119 120.891 324.107L111.415 322.812C111.188 322.781 111.188 322.454 111.415 322.423L120.891 321.128C120.978 321.116 121.047 321.047 121.059 320.96L122.354 311.483Z" fill="#69AEFF"/>
<path d="M135.148 301.332C135.179 301.105 135.507 301.105 135.538 301.332L136.391 307.577C136.403 307.664 136.472 307.733 136.559 307.745L142.804 308.598C143.031 308.629 143.031 308.957 142.804 308.988L136.559 309.841C136.472 309.853 136.403 309.922 136.391 310.01L135.538 316.255C135.507 316.482 135.179 316.482 135.148 316.255L134.295 310.01C134.283 309.922 134.214 309.853 134.126 309.841L127.881 308.988C127.655 308.957 127.655 308.629 127.881 308.598L134.126 307.745C134.214 307.733 134.283 307.664 134.295 307.577L135.148 301.332Z" fill="#69AEFF"/>
<path fill-rule="evenodd" clip-rule="evenodd" d="M216.211 312.708V397.456C216.211 397.999 216.652 398.44 217.195 398.44H350.969C351.513 398.44 351.953 397.999 351.953 397.456V312.708C351.953 312.165 351.513 311.725 350.969 311.725H217.195C216.652 311.725 216.211 312.165 216.211 312.708ZM215.228 397.456C215.228 398.542 216.108 399.423 217.195 399.423H350.969C352.056 399.423 352.937 398.542 352.937 397.456V312.708C352.937 311.622 352.056 310.741 350.969 310.741H217.195C216.108 310.741 215.228 311.622 215.228 312.708V397.456Z" fill="#69AEFF"/>
<path fill-rule="evenodd" clip-rule="evenodd" d="M229.081 398.199C228.946 398.064 228.946 397.846 229.081 397.712L273.182 353.61C273.316 353.476 273.534 353.476 273.669 353.61C273.803 353.745 273.803 353.963 273.669 354.097L229.567 398.199C229.433 398.333 229.215 398.333 229.081 398.199Z" fill="#69AEFF"/>
<path fill-rule="evenodd" clip-rule="evenodd" d="M342.823 313.872C342.959 314.005 342.962 314.223 342.829 314.359L281.777 376.961C281.644 377.097 281.426 377.1 281.29 376.967C281.154 376.834 281.151 376.616 281.284 376.48L342.336 313.879C342.469 313.742 342.687 313.74 342.823 313.872Z" fill="#69AEFF"/>
<path fill-rule="evenodd" clip-rule="evenodd" d="M306.5 319.366C306.635 319.5 306.636 319.718 306.502 319.853L281.394 345.217C281.26 345.353 281.042 345.354 280.907 345.22C280.772 345.086 280.771 344.868 280.905 344.733L306.013 319.369C306.147 319.234 306.365 319.233 306.5 319.366Z" fill="#69AEFF"/>
<path d="M240.483 341.488C240.256 341.457 240.256 341.129 240.483 341.098L249.96 339.803C250.047 339.791 250.116 339.723 250.128 339.635L251.423 330.159C251.454 329.932 251.782 329.932 251.813 330.159L253.107 339.635C253.119 339.723 253.188 339.791 253.276 339.803L262.752 341.098C262.979 341.129 262.979 341.457 262.752 341.488L253.276 342.783C253.188 342.795 253.119 342.864 253.107 342.951L251.813 352.427C251.782 352.654 251.454 352.654 251.423 352.427L250.128 342.951C250.116 342.864 250.047 342.795 249.96 342.783L240.483 341.488Z" fill="#69AEFF"/>
<path d="M230.332 328.694C230.105 328.663 230.105 328.335 230.332 328.304L236.577 327.451C236.664 327.439 236.733 327.37 236.745 327.283L237.598 321.038C237.629 320.811 237.957 320.811 237.988 321.038L238.842 327.283C238.854 327.37 238.922 327.439 239.01 327.451L245.255 328.304C245.482 328.335 245.482 328.663 245.255 328.694L239.01 329.547C238.922 329.559 238.854 329.628 238.842 329.716L237.988 335.96C237.957 336.187 237.629 336.187 237.598 335.96L236.745 329.716C236.733 329.628 236.664 329.559 236.577 329.547L230.332 328.694Z" fill="#69AEFF"/>
<path fill-rule="evenodd" clip-rule="evenodd" d="M501.778 287.211H417.031C416.487 287.211 416.047 287.652 416.047 288.195V421.969C416.047 422.513 416.487 422.953 417.031 422.953H501.778C502.321 422.953 502.762 422.513 502.762 421.969V288.195C502.762 287.652 502.321 287.211 501.778 287.211ZM417.031 286.227C415.944 286.227 415.063 287.108 415.063 288.195V421.969C415.063 423.056 415.944 423.937 417.031 423.937H501.778C502.865 423.937 503.745 423.056 503.745 421.969V288.195C503.745 287.108 502.865 286.227 501.778 286.227H417.031Z" fill="#69AEFF"/>
<path fill-rule="evenodd" clip-rule="evenodd" d="M416.288 300.08C416.422 299.946 416.64 299.946 416.775 300.08L460.876 344.182C461.011 344.316 461.011 344.534 460.876 344.669C460.742 344.803 460.524 344.803 460.389 344.669L416.288 300.567C416.153 300.433 416.153 300.215 416.288 300.08Z" fill="#69AEFF"/>
<path fill-rule="evenodd" clip-rule="evenodd" d="M500.614 413.823C500.481 413.959 500.263 413.962 500.127 413.829L437.526 352.777C437.39 352.644 437.387 352.426 437.52 352.29C437.652 352.154 437.87 352.151 438.006 352.284L500.608 413.336C500.744 413.469 500.747 413.687 500.614 413.823Z" fill="#69AEFF"/>
<path fill-rule="evenodd" clip-rule="evenodd" d="M495.12 377.5C494.986 377.635 494.768 377.636 494.633 377.502L469.269 352.394C469.134 352.26 469.133 352.042 469.267 351.907C469.4 351.772 469.618 351.771 469.753 351.905L495.118 377.013C495.253 377.147 495.254 377.365 495.12 377.5Z" fill="#69AEFF"/>
<path d="M472.998 311.483C473.029 311.256 473.357 311.256 473.388 311.483L474.683 320.96C474.695 321.047 474.764 321.116 474.851 321.128L484.328 322.423C484.555 322.454 484.555 322.781 484.328 322.812L474.851 324.107C474.764 324.119 474.695 324.188 474.683 324.276L473.388 333.752C473.357 333.979 473.029 333.979 472.998 333.752L471.704 324.276C471.692 324.188 471.623 324.119 471.535 324.107L462.059 322.812C461.832 322.781 461.832 322.454 462.059 322.423L471.535 321.128C471.623 321.116 471.692 321.047 471.704 320.96L472.998 311.483Z" fill="#69AEFF"/>
<path d="M485.793 301.332C485.824 301.105 486.151 301.105 486.182 301.332L487.036 307.577C487.048 307.664 487.116 307.733 487.204 307.745L493.449 308.598C493.676 308.629 493.676 308.957 493.449 308.988L487.204 309.841C487.116 309.853 487.048 309.922 487.036 310.01L486.182 316.255C486.151 316.482 485.824 316.482 485.793 316.255L484.939 310.01C484.927 309.922 484.858 309.853 484.771 309.841L478.526 308.988C478.299 308.957 478.299 308.629 478.526 308.598L484.771 307.745C484.858 307.733 484.927 307.664 484.939 307.577L485.793 301.332Z" fill="#69AEFF"/>
<path fill-rule="evenodd" clip-rule="evenodd" d="M566.856 312.708V397.456C566.856 397.999 567.296 398.44 567.84 398.44H701.614C702.157 398.44 702.598 397.999 702.598 397.456V312.708C702.598 312.165 702.157 311.725 701.614 311.725H567.84C567.296 311.725 566.856 312.165 566.856 312.708ZM565.872 397.456C565.872 398.542 566.753 399.423 567.84 399.423H701.614C702.701 399.423 703.581 398.542 703.581 397.456V312.708C703.581 311.622 702.701 310.741 701.614 310.741H567.84C566.753 310.741 565.872 311.622 565.872 312.708V397.456Z" fill="#69AEFF"/>
<path fill-rule="evenodd" clip-rule="evenodd" d="M579.725 398.199C579.591 398.064 579.591 397.846 579.725 397.712L623.826 353.61C623.961 353.476 624.179 353.476 624.313 353.61C624.448 353.745 624.448 353.963 624.313 354.097L580.212 398.199C580.078 398.333 579.86 398.333 579.725 398.199Z" fill="#69AEFF"/>
<path fill-rule="evenodd" clip-rule="evenodd" d="M693.467 313.872C693.604 314.005 693.606 314.223 693.474 314.359L632.421 376.961C632.289 377.097 632.071 377.1 631.935 376.967C631.798 376.834 631.796 376.616 631.928 376.48L692.981 313.879C693.113 313.742 693.331 313.74 693.467 313.872Z" fill="#69AEFF"/>
<path fill-rule="evenodd" clip-rule="evenodd" d="M657.144 319.366C657.279 319.5 657.281 319.718 657.147 319.853L632.039 345.217C631.905 345.353 631.687 345.354 631.552 345.22C631.417 345.086 631.415 344.868 631.549 344.733L656.657 319.369C656.791 319.234 657.009 319.233 657.144 319.366Z" fill="#69AEFF"/>
<path d="M591.128 341.488C590.901 341.457 590.901 341.129 591.128 341.098L600.604 339.803C600.692 339.791 600.76 339.723 600.772 339.635L602.067 330.159C602.098 329.932 602.426 329.932 602.457 330.159L603.752 339.635C603.764 339.723 603.833 339.791 603.92 339.803L613.396 341.098C613.623 341.129 613.623 341.457 613.396 341.488L603.92 342.783C603.833 342.795 603.764 342.864 603.752 342.951L602.457 352.427C602.426 352.654 602.098 352.654 602.067 352.427L600.772 342.951C600.76 342.864 600.692 342.795 600.604 342.783L591.128 341.488Z" fill="#69AEFF"/>
<path d="M580.976 328.694C580.75 328.663 580.75 328.335 580.976 328.304L587.221 327.451C587.309 327.439 587.378 327.37 587.39 327.283L588.243 321.038C588.274 320.811 588.602 320.811 588.633 321.038L589.486 327.283C589.498 327.37 589.567 327.439 589.654 327.451L595.899 328.304C596.126 328.335 596.126 328.663 595.899 328.694L589.654 329.547C589.567 329.559 589.498 329.628 589.486 329.716L588.633 335.96C588.602 336.187 588.274 336.187 588.243 335.96L587.39 329.716C587.378 329.628 587.309 329.559 587.221 329.547L580.976 328.694Z" fill="#69AEFF"/>
</g>
<defs>
<linearGradient id="paint0_linear" x1="383.5" y1="0" x2="383.5" y2="480" gradientUnits="userSpaceOnUse">
<stop stop-color="#4B5DFF"/>
<stop offset="1" stop-color="#4B93FF"/>
</linearGradient>
<linearGradient id="paint1_linear" x1="383.5" y1="0" x2="383.5" y2="480" gradientUnits="userSpaceOnUse">
<stop stop-color="#4B5DFF"/>
<stop offset="1" stop-color="#4B93FF"/>
</linearGradient>
</defs>
</svg>
