<svg width="768" height="480" viewBox="0 0 768 480" fill="none" xmlns="http://www.w3.org/2000/svg">
<path d="M-1 0H767C767.552 0 768 0.447715 768 1V460C768 471.046 759.046 480 748 480H19C7.95433 480 -1 471.046 -1 460V0Z" fill="url(#paint0_linear)"/>
<mask id="mask0" mask-type="alpha" maskUnits="userSpaceOnUse" x="-1" y="0" width="769" height="480">
<rect x="-1" width="769" height="480" fill="url(#paint1_linear)"/>
</mask>
<g mask="url(#mask0)">
<path fill-rule="evenodd" clip-rule="evenodd" d="M716.064 385.68V311.206C716.064 309.476 714.662 308.074 712.933 308.074H575.172C573.443 308.074 572.041 309.476 572.041 311.206V385.68C572.041 387.409 573.443 388.811 575.172 388.811H712.933C714.662 388.811 716.064 387.409 716.064 385.68ZM717.108 311.206C717.108 308.9 715.238 307.031 712.933 307.031H575.172C572.867 307.031 570.997 308.9 570.997 311.206V385.68C570.997 387.986 572.867 389.855 575.172 389.855H712.933C715.238 389.855 717.108 387.986 717.108 385.68V311.206Z" fill="#69AEFF"/>
<path fill-rule="evenodd" clip-rule="evenodd" d="M696.719 314.408C696.921 314.408 697.085 314.571 697.085 314.773V382.112C697.085 382.314 696.921 382.477 696.719 382.477H597.33C597.129 382.477 596.965 382.314 596.965 382.112V314.773C596.965 314.571 597.129 314.408 597.33 314.408H696.719ZM696.354 315.138H597.696V381.747H696.354V315.138Z" fill="#69AEFF"/>
<path fill-rule="evenodd" clip-rule="evenodd" d="M590.895 348.921C590.998 347.694 590.7 346.466 590.045 345.423C589.389 344.38 588.413 343.579 587.262 343.14C586.111 342.701 584.849 342.648 583.665 342.989C582.482 343.331 581.441 344.048 580.701 345.033C579.961 346.017 579.561 347.216 579.562 348.448C579.563 349.679 579.965 350.877 580.707 351.861C581.448 352.844 582.49 353.56 583.674 353.899C584.858 354.239 586.12 354.184 587.27 353.743C587.459 353.671 587.67 353.765 587.742 353.954C587.814 354.142 587.72 354.353 587.532 354.425C586.233 354.923 584.809 354.985 583.472 354.602C582.136 354.218 580.96 353.411 580.123 352.301C579.286 351.191 578.833 349.838 578.832 348.448C578.831 347.058 579.282 345.705 580.117 344.594C580.953 343.482 582.127 342.673 583.463 342.287C584.798 341.902 586.223 341.961 587.522 342.457C588.821 342.953 589.924 343.857 590.663 345.034C591.403 346.212 591.74 347.597 591.623 348.983C591.606 349.184 591.429 349.333 591.228 349.316C591.027 349.299 590.878 349.122 590.895 348.921Z" fill="#69AEFF"/>
<path fill-rule="evenodd" clip-rule="evenodd" d="M705.154 341.753C705.356 341.753 705.52 341.917 705.52 342.119V360.926C705.52 361.128 705.356 361.291 705.154 361.291C704.953 361.291 704.789 361.128 704.789 360.926V342.119C704.789 341.917 704.953 341.753 705.154 341.753Z" fill="#69AEFF"/>
<path fill-rule="evenodd" clip-rule="evenodd" d="M706.488 335.229C706.69 335.229 706.853 335.393 706.853 335.595V336.984C706.853 337.186 706.69 337.349 706.488 337.349C706.286 337.349 706.123 337.186 706.123 336.984V335.595C706.123 335.393 706.286 335.229 706.488 335.229Z" fill="#69AEFF"/>
<path fill-rule="evenodd" clip-rule="evenodd" d="M695.836 314.548C695.978 314.691 695.978 314.922 695.836 315.065V314.815L657.836 352.815C657.693 352.957 657.462 352.957 657.319 352.815C657.177 352.672 657.177 352.441 657.319 352.298L694.803 314.815L695.319 314.548C695.462 314.405 695.693 314.405 695.836 314.548Z" fill="#69AEFF"/>
<path fill-rule="evenodd" clip-rule="evenodd" d="M603.404 382.374C603.26 382.233 603.257 382.002 603.398 381.857L657.7 326.178C657.84 326.033 658.072 326.03 658.216 326.171C658.361 326.312 658.363 326.543 658.223 326.688L603.921 382.367C603.78 382.512 603.549 382.515 603.404 382.374Z" fill="#69AEFF"/>
<path fill-rule="evenodd" clip-rule="evenodd" d="M627.804 382.372C627.66 382.23 627.659 381.999 627.801 381.855L650.133 359.295C650.275 359.152 650.506 359.151 650.65 359.293C650.793 359.435 650.794 359.666 650.652 359.809L628.32 382.369C628.179 382.513 627.947 382.514 627.804 382.372Z" fill="#69AEFF"/>
<path fill-rule="evenodd" clip-rule="evenodd" d="M136.256 273.044H61.7815C60.0522 273.044 58.6503 274.446 58.6503 276.175V413.935C58.6503 415.665 60.0522 417.067 61.7815 417.067H136.256C137.985 417.067 139.387 415.665 139.387 413.935V276.175C139.387 274.446 137.985 273.044 136.256 273.044ZM61.7815 272C59.4757 272 57.6065 273.869 57.6065 276.175V413.935C57.6065 416.241 59.4757 418.11 61.7815 418.11H136.256C138.561 418.11 140.431 416.241 140.431 413.935V276.175C140.431 273.869 138.561 272 136.256 272H61.7815Z" fill="#69AEFF"/>
<path fill-rule="evenodd" clip-rule="evenodd" d="M64.9836 292.388C64.9836 292.187 65.1472 292.023 65.349 292.023H132.688C132.89 292.023 133.053 292.187 133.053 292.388V391.777C133.053 391.979 132.89 392.143 132.688 392.143H65.349C65.1472 392.143 64.9836 391.979 64.9836 391.777V292.388ZM65.7143 292.754V391.412H132.323V292.754H65.7143Z" fill="#69AEFF"/>
<path fill-rule="evenodd" clip-rule="evenodd" d="M99.497 398.213C98.2696 398.109 97.0418 398.408 95.9989 399.063C94.9559 399.718 94.1545 400.695 93.7155 401.846C93.2764 402.997 93.2237 404.259 93.5651 405.443C93.9066 406.626 94.6237 407.666 95.6083 408.406C96.5929 409.146 97.7916 409.546 99.0233 409.545C100.255 409.544 101.453 409.143 102.436 408.401C103.42 407.659 104.135 406.618 104.475 405.434C104.815 404.25 104.76 402.988 104.319 401.837C104.247 401.649 104.341 401.438 104.529 401.366C104.718 401.293 104.929 401.388 105.001 401.576C105.499 402.874 105.561 404.299 105.177 405.635C104.794 406.972 103.986 408.147 102.876 408.984C101.766 409.821 100.414 410.275 99.0239 410.276C97.6336 410.277 96.2807 409.826 95.1693 408.99C94.058 408.155 93.2485 406.981 92.8631 405.645C92.4777 404.309 92.5373 402.884 93.0328 401.585C93.5284 400.287 94.433 399.184 95.6102 398.444C96.7873 397.705 98.1732 397.368 99.5585 397.485C99.7596 397.502 99.9088 397.679 99.8918 397.88C99.8748 398.081 99.698 398.23 99.497 398.213Z" fill="#69AEFF"/>
<path fill-rule="evenodd" clip-rule="evenodd" d="M92.329 283.953C92.329 283.752 92.4926 283.588 92.6944 283.588H111.502C111.703 283.588 111.867 283.752 111.867 283.953C111.867 284.155 111.703 284.319 111.502 284.319H92.6944C92.4926 284.319 92.329 284.155 92.329 283.953Z" fill="#69AEFF"/>
<path fill-rule="evenodd" clip-rule="evenodd" d="M85.805 282.62C85.805 282.418 85.9686 282.254 86.1703 282.254H87.5596C87.7614 282.254 87.9249 282.418 87.9249 282.62C87.9249 282.821 87.7614 282.985 87.5596 282.985H86.1703C85.9686 282.985 85.805 282.821 85.805 282.62Z" fill="#69AEFF"/>
<path fill-rule="evenodd" clip-rule="evenodd" d="M65.1239 293.272C65.2665 293.129 65.4978 293.129 65.6405 293.272H65.3908L103.391 331.272C103.533 331.414 103.533 331.646 103.391 331.788C103.248 331.931 103.017 331.931 102.874 331.788L65.3908 294.305L65.1239 293.788C64.9812 293.646 64.9812 293.415 65.1239 293.272Z" fill="#69AEFF"/>
<path fill-rule="evenodd" clip-rule="evenodd" d="M132.95 385.703C132.809 385.848 132.577 385.851 132.433 385.71L76.7533 331.408C76.6089 331.267 76.606 331.036 76.7468 330.892C76.8877 330.747 77.119 330.744 77.2634 330.885L132.943 385.187C133.088 385.328 133.091 385.559 132.95 385.703Z" fill="#69AEFF"/>
<path fill-rule="evenodd" clip-rule="evenodd" d="M132.948 361.304C132.806 361.447 132.574 361.448 132.431 361.306L109.871 338.974C109.728 338.832 109.727 338.601 109.869 338.458C110.011 338.314 110.242 338.313 110.385 338.455L132.945 360.787C133.088 360.929 133.089 361.16 132.948 361.304Z" fill="#69AEFF"/>
<path fill-rule="evenodd" clip-rule="evenodd" d="M499.612 273.044H425.137C423.408 273.044 422.006 274.446 422.006 276.175V413.935C422.006 415.665 423.408 417.067 425.137 417.067H499.612C501.341 417.067 502.743 415.665 502.743 413.935V276.175C502.743 274.446 501.341 273.044 499.612 273.044ZM425.137 272C422.832 272 420.962 273.869 420.962 276.175V413.935C420.962 416.241 422.832 418.11 425.137 418.11H499.612C501.917 418.11 503.787 416.241 503.787 413.935V276.175C503.787 273.869 501.917 272 499.612 272H425.137Z" fill="#69AEFF"/>
<path fill-rule="evenodd" clip-rule="evenodd" d="M428.34 292.388C428.34 292.187 428.503 292.023 428.705 292.023H496.044C496.246 292.023 496.409 292.187 496.409 292.388V391.777C496.409 391.979 496.246 392.143 496.044 392.143H428.705C428.503 392.143 428.34 391.979 428.34 391.777V292.388ZM429.07 292.754V391.412H495.679V292.754H429.07Z" fill="#69AEFF"/>
<path fill-rule="evenodd" clip-rule="evenodd" d="M462.853 398.213C461.626 398.109 460.398 398.408 459.355 399.063C458.312 399.718 457.51 400.695 457.071 401.846C456.632 402.997 456.58 404.259 456.921 405.443C457.263 406.626 457.98 407.666 458.964 408.406C459.949 409.146 461.148 409.546 462.379 409.545C463.611 409.544 464.809 409.143 465.792 408.401C466.776 407.659 467.491 406.618 467.831 405.434C468.171 404.25 468.116 402.988 467.675 401.837C467.603 401.649 467.697 401.438 467.885 401.366C468.074 401.293 468.285 401.388 468.357 401.576C468.855 402.874 468.917 404.299 468.533 405.635C468.15 406.972 467.342 408.147 466.232 408.984C465.122 409.821 463.77 410.275 462.38 410.276C460.99 410.277 459.637 409.826 458.525 408.99C457.414 408.155 456.604 406.981 456.219 405.645C455.834 404.309 455.893 402.884 456.389 401.585C456.884 400.287 457.789 399.184 458.966 398.444C460.143 397.705 461.529 397.368 462.914 397.485C463.116 397.502 463.265 397.679 463.248 397.88C463.231 398.081 463.054 398.23 462.853 398.213Z" fill="#69AEFF"/>
<path fill-rule="evenodd" clip-rule="evenodd" d="M455.685 283.953C455.685 283.752 455.849 283.588 456.05 283.588H474.858C475.059 283.588 475.223 283.752 475.223 283.953C475.223 284.155 475.059 284.319 474.858 284.319H456.05C455.849 284.319 455.685 284.155 455.685 283.953Z" fill="#69AEFF"/>
<path fill-rule="evenodd" clip-rule="evenodd" d="M449.161 282.62C449.161 282.418 449.325 282.254 449.526 282.254H450.916C451.117 282.254 451.281 282.418 451.281 282.62C451.281 282.821 451.117 282.985 450.916 282.985H449.526C449.325 282.985 449.161 282.821 449.161 282.62Z" fill="#69AEFF"/>
<path fill-rule="evenodd" clip-rule="evenodd" d="M428.48 293.272C428.622 293.129 428.854 293.129 428.996 293.272H428.747L466.747 331.272C466.889 331.414 466.889 331.646 466.747 331.788C466.604 331.931 466.373 331.931 466.23 331.788L428.747 294.305L428.48 293.788C428.337 293.646 428.337 293.415 428.48 293.272Z" fill="#69AEFF"/>
<path fill-rule="evenodd" clip-rule="evenodd" d="M496.306 385.703C496.165 385.848 495.933 385.851 495.789 385.71L440.109 331.408C439.965 331.267 439.962 331.036 440.103 330.892C440.244 330.747 440.475 330.744 440.619 330.885L496.299 385.187C496.444 385.328 496.446 385.559 496.306 385.703Z" fill="#69AEFF"/>
<path fill-rule="evenodd" clip-rule="evenodd" d="M496.304 361.304C496.162 361.447 495.93 361.448 495.787 361.306L473.227 338.974C473.084 338.832 473.083 338.601 473.225 338.458C473.367 338.314 473.598 338.313 473.741 338.455L496.301 360.787C496.444 360.929 496.445 361.16 496.304 361.304Z" fill="#69AEFF"/>
<path fill-rule="evenodd" clip-rule="evenodd" d="M352.708 385.68V311.206C352.708 309.476 351.306 308.074 349.577 308.074H211.816C210.087 308.074 208.685 309.476 208.685 311.206V385.68C208.685 387.409 210.087 388.811 211.816 388.811H349.577C351.306 388.811 352.708 387.409 352.708 385.68ZM353.752 311.206C353.752 308.9 351.882 307.031 349.577 307.031H211.816C209.511 307.031 207.641 308.9 207.641 311.206V385.68C207.641 387.986 209.511 389.855 211.816 389.855H349.577C351.882 389.855 353.752 387.986 353.752 385.68V311.206Z" fill="#69AEFF"/>
<path fill-rule="evenodd" clip-rule="evenodd" d="M333.363 314.408C333.565 314.408 333.729 314.571 333.729 314.773V382.112C333.729 382.314 333.565 382.477 333.363 382.477H233.974C233.773 382.477 233.609 382.314 233.609 382.112V314.773C233.609 314.571 233.773 314.408 233.974 314.408H333.363ZM332.998 315.138H234.34V381.747H332.998V315.138Z" fill="#69AEFF"/>
<path fill-rule="evenodd" clip-rule="evenodd" d="M227.539 348.921C227.642 347.694 227.344 346.466 226.689 345.423C226.033 344.38 225.057 343.579 223.906 343.14C222.755 342.701 221.493 342.648 220.309 342.989C219.126 343.331 218.085 344.048 217.345 345.033C216.605 346.017 216.206 347.216 216.206 348.448C216.207 349.679 216.609 350.877 217.351 351.861C218.092 352.844 219.134 353.56 220.318 353.899C221.502 354.239 222.764 354.184 223.914 353.743C224.103 353.671 224.314 353.765 224.386 353.954C224.458 354.142 224.364 354.353 224.176 354.425C222.878 354.923 221.453 354.985 220.116 354.602C218.78 354.218 217.604 353.411 216.767 352.301C215.93 351.191 215.477 349.838 215.476 348.448C215.475 347.058 215.926 345.705 216.761 344.594C217.597 343.482 218.771 342.673 220.107 342.287C221.442 341.902 222.867 341.961 224.166 342.457C225.465 342.953 226.568 343.857 227.307 345.034C228.047 346.212 228.384 347.597 228.267 348.983C228.25 349.184 228.073 349.333 227.872 349.316C227.671 349.299 227.522 349.122 227.539 348.921Z" fill="#69AEFF"/>
<path fill-rule="evenodd" clip-rule="evenodd" d="M341.798 341.753C342 341.753 342.164 341.917 342.164 342.119V360.926C342.164 361.128 342 361.291 341.798 361.291C341.597 361.291 341.433 361.128 341.433 360.926V342.119C341.433 341.917 341.597 341.753 341.798 341.753Z" fill="#69AEFF"/>
<path fill-rule="evenodd" clip-rule="evenodd" d="M343.132 335.229C343.334 335.229 343.498 335.393 343.498 335.595V336.984C343.498 337.186 343.334 337.349 343.132 337.349C342.93 337.349 342.767 337.186 342.767 336.984V335.595C342.767 335.393 342.93 335.229 343.132 335.229Z" fill="#69AEFF"/>
<path fill-rule="evenodd" clip-rule="evenodd" d="M332.48 314.548C332.623 314.691 332.623 314.922 332.48 315.065V314.815L294.48 352.815C294.337 352.957 294.106 352.957 293.963 352.815C293.821 352.672 293.821 352.441 293.963 352.298L331.447 314.815L331.963 314.548C332.106 314.405 332.337 314.405 332.48 314.548Z" fill="#69AEFF"/>
<path fill-rule="evenodd" clip-rule="evenodd" d="M240.048 382.374C239.904 382.233 239.901 382.002 240.042 381.857L294.344 326.178C294.484 326.033 294.716 326.03 294.86 326.171C295.005 326.312 295.007 326.543 294.867 326.688L240.565 382.367C240.424 382.512 240.193 382.515 240.048 382.374Z" fill="#69AEFF"/>
<path fill-rule="evenodd" clip-rule="evenodd" d="M264.448 382.372C264.304 382.23 264.303 381.999 264.445 381.855L286.777 359.295C286.919 359.152 287.151 359.151 287.294 359.293C287.437 359.435 287.438 359.666 287.297 359.809L264.965 382.369C264.823 382.513 264.591 382.514 264.448 382.372Z" fill="#69AEFF"/>
</g>
<defs>
<linearGradient id="paint0_linear" x1="383.5" y1="0" x2="383.5" y2="480" gradientUnits="userSpaceOnUse">
<stop stop-color="#4B5DFF"/>
<stop offset="1" stop-color="#4B93FF"/>
</linearGradient>
<linearGradient id="paint1_linear" x1="383.5" y1="0" x2="383.5" y2="480" gradientUnits="userSpaceOnUse">
<stop stop-color="#4B5DFF"/>
<stop offset="1" stop-color="#4B93FF"/>
</linearGradient>
</defs>
</svg>
