<svg width="1365" height="366" viewBox="0 0 1365 366" fill="none" xmlns="http://www.w3.org/2000/svg">
<path d="M0 0H1364C1364.55 0 1365 0.447715 1365 1V346C1365 357.046 1356.05 366 1345 366H20C8.9543 366 0 357.046 0 346V0Z" fill="url(#paint0_linear)"/>
<mask id="mask0" mask-type="alpha" maskUnits="userSpaceOnUse" x="0" y="0" width="1365" height="366">
<rect width="1365" height="365.08" fill="url(#paint1_linear)"/>
</mask>
<g mask="url(#mask0)">
<path fill-rule="evenodd" clip-rule="evenodd" d="M913.309 84.1429H789.871C789.079 84.1429 788.438 84.7844 788.438 85.5758V280.424C788.438 281.216 789.079 281.857 789.871 281.857H913.309C914.1 281.857 914.742 281.216 914.742 280.424V85.5757C914.742 84.7844 914.1 84.1429 913.309 84.1429ZM789.871 82.71C788.288 82.71 787.005 83.9931 787.005 85.5758V280.424C787.005 282.007 788.288 283.29 789.871 283.29H913.309C914.892 283.29 916.175 282.007 916.175 280.424V85.5757C916.175 83.9931 914.892 82.71 913.309 82.71H789.871Z" fill="#69AEFF"/>
<path fill-rule="evenodd" clip-rule="evenodd" d="M788.789 102.888C788.985 102.692 789.302 102.692 789.498 102.888L853.734 167.123C853.93 167.319 853.93 167.637 853.734 167.832C853.538 168.028 853.22 168.028 853.024 167.832L788.789 103.597C788.593 103.401 788.593 103.083 788.789 102.888Z" fill="#69AEFF"/>
<path fill-rule="evenodd" clip-rule="evenodd" d="M911.614 268.559C911.42 268.757 911.103 268.761 910.904 268.568L819.722 179.642C819.524 179.449 819.52 179.131 819.714 178.933C819.907 178.735 820.224 178.731 820.423 178.924L911.605 267.849C911.803 268.043 911.807 268.36 911.614 268.559Z" fill="#69AEFF"/>
<path fill-rule="evenodd" clip-rule="evenodd" d="M903.611 215.652C903.416 215.849 903.099 215.851 902.902 215.656L865.958 179.085C865.761 178.89 865.76 178.572 865.954 178.375C866.149 178.179 866.467 178.177 866.664 178.372L903.608 214.943C903.805 215.138 903.806 215.455 903.611 215.652Z" fill="#69AEFF"/>
<path d="M871.39 119.496C871.435 119.166 871.913 119.166 871.958 119.496L873.844 133.299C873.861 133.426 873.962 133.527 874.089 133.544L887.892 135.43C888.222 135.475 888.222 135.953 887.892 135.998L874.089 137.884C873.962 137.901 873.861 138.001 873.844 138.129L871.958 151.932C871.913 152.262 871.435 152.262 871.39 151.932L869.504 138.129C869.487 138.001 869.387 137.901 869.259 137.884L855.456 135.998C855.126 135.953 855.126 135.475 855.456 135.43L869.259 133.544C869.387 133.527 869.487 133.426 869.504 133.299L871.39 119.496Z" fill="#69AEFF"/>
<path d="M890.025 104.71C890.07 104.38 890.548 104.38 890.593 104.71L891.836 113.806C891.853 113.934 891.954 114.034 892.081 114.051L901.177 115.294C901.508 115.339 901.508 115.817 901.177 115.862L892.081 117.105C891.954 117.122 891.853 117.223 891.836 117.35L890.593 126.446C890.548 126.776 890.07 126.776 890.025 126.446L888.783 117.35C888.765 117.223 888.665 117.122 888.537 117.105L879.441 115.862C879.111 115.817 879.111 115.339 879.441 115.294L888.537 114.051C888.665 114.034 888.765 113.934 888.783 113.806L890.025 104.71Z" fill="#69AEFF"/>
<path fill-rule="evenodd" clip-rule="evenodd" d="M1375.06 84.1429H1251.62C1250.83 84.1429 1250.19 84.7844 1250.19 85.5758V280.424C1250.19 281.216 1250.83 281.857 1251.62 281.857H1375.06C1375.85 281.857 1376.49 281.216 1376.49 280.424V85.5757C1376.49 84.7844 1375.85 84.1429 1375.06 84.1429ZM1251.62 82.71C1250.04 82.71 1248.75 83.9931 1248.75 85.5758V280.424C1248.75 282.007 1250.04 283.29 1251.62 283.29H1375.06C1376.64 283.29 1377.92 282.007 1377.92 280.424V85.5757C1377.92 83.9931 1376.64 82.71 1375.06 82.71H1251.62Z" fill="#69AEFF"/>
<path fill-rule="evenodd" clip-rule="evenodd" d="M1250.54 102.888C1250.73 102.692 1251.05 102.692 1251.25 102.888L1315.48 167.123C1315.68 167.319 1315.68 167.637 1315.48 167.832C1315.29 168.028 1314.97 168.028 1314.77 167.832L1250.54 103.597C1250.34 103.401 1250.34 103.083 1250.54 102.888Z" fill="#69AEFF"/>
<path fill-rule="evenodd" clip-rule="evenodd" d="M1373.36 268.559C1373.17 268.757 1372.85 268.761 1372.65 268.568L1281.47 179.642C1281.27 179.449 1281.27 179.131 1281.46 178.933C1281.66 178.735 1281.97 178.731 1282.17 178.924L1373.35 267.849C1373.55 268.043 1373.56 268.36 1373.36 268.559Z" fill="#69AEFF"/>
<path fill-rule="evenodd" clip-rule="evenodd" d="M1365.36 215.652C1365.17 215.849 1364.85 215.851 1364.65 215.656L1327.71 179.085C1327.51 178.89 1327.51 178.572 1327.7 178.375C1327.9 178.179 1328.22 178.177 1328.41 178.372L1365.36 214.943C1365.55 215.138 1365.56 215.455 1365.36 215.652Z" fill="#69AEFF"/>
<path d="M1333.14 119.496C1333.19 119.166 1333.66 119.166 1333.71 119.496L1335.59 133.299C1335.61 133.426 1335.71 133.527 1335.84 133.544L1349.64 135.43C1349.97 135.475 1349.97 135.953 1349.64 135.998L1335.84 137.884C1335.71 137.901 1335.61 138.001 1335.59 138.129L1333.71 151.932C1333.66 152.262 1333.19 152.262 1333.14 151.932L1331.25 138.129C1331.24 138.001 1331.14 137.901 1331.01 137.884L1317.21 135.998C1316.88 135.953 1316.88 135.475 1317.21 135.43L1331.01 133.544C1331.14 133.527 1331.24 133.426 1331.25 133.299L1333.14 119.496Z" fill="#69AEFF"/>
<path d="M1351.78 104.71C1351.82 104.38 1352.3 104.38 1352.34 104.71L1353.59 113.806C1353.6 113.934 1353.7 114.034 1353.83 114.051L1362.93 115.294C1363.26 115.339 1363.26 115.817 1362.93 115.862L1353.83 117.105C1353.7 117.122 1353.6 117.223 1353.59 117.35L1352.34 126.446C1352.3 126.776 1351.82 126.776 1351.78 126.446L1350.53 117.35C1350.52 117.223 1350.41 117.122 1350.29 117.105L1341.19 115.862C1340.86 115.817 1340.86 115.339 1341.19 115.294L1350.29 114.051C1350.41 114.034 1350.52 113.934 1350.53 113.806L1351.78 104.71Z" fill="#69AEFF"/>
<path fill-rule="evenodd" clip-rule="evenodd" d="M1181.32 244.719V121.281C1181.32 120.489 1180.68 119.848 1179.89 119.848L985.041 119.848C984.249 119.848 983.608 120.489 983.608 121.281V244.719C983.608 245.51 984.249 246.152 985.041 246.152H1179.89C1180.68 246.152 1181.32 245.51 1181.32 244.719ZM1182.75 121.281C1182.75 119.698 1181.47 118.415 1179.89 118.415L985.041 118.415C983.458 118.415 982.175 119.698 982.175 121.281V244.719C982.175 246.302 983.458 247.585 985.041 247.585H1179.89C1181.47 247.585 1182.75 246.302 1182.75 244.719V121.281Z" fill="#69AEFF"/>
<path fill-rule="evenodd" clip-rule="evenodd" d="M1162.58 120.199C1162.77 120.395 1162.77 120.712 1162.58 120.908L1098.34 185.144C1098.15 185.34 1097.83 185.34 1097.63 185.144C1097.44 184.948 1097.44 184.631 1097.63 184.435L1161.87 120.199C1162.06 120.003 1162.38 120.003 1162.58 120.199Z" fill="#69AEFF"/>
<path fill-rule="evenodd" clip-rule="evenodd" d="M996.906 243.024C996.708 242.83 996.704 242.513 996.897 242.315L1085.82 151.133C1086.02 150.934 1086.33 150.93 1086.53 151.124C1086.73 151.317 1086.73 151.635 1086.54 151.833L997.615 243.015C997.422 243.213 997.105 243.217 996.906 243.024Z" fill="#69AEFF"/>
<path fill-rule="evenodd" clip-rule="evenodd" d="M1049.81 235.022C1049.62 234.827 1049.61 234.509 1049.81 234.312L1086.38 197.368C1086.58 197.171 1086.89 197.17 1087.09 197.365C1087.29 197.56 1087.29 197.877 1087.09 198.074L1050.52 235.018C1050.33 235.215 1050.01 235.216 1049.81 235.022Z" fill="#69AEFF"/>
<path d="M1145.97 202.8C1146.3 202.846 1146.3 203.323 1145.97 203.368L1132.17 205.254C1132.04 205.272 1131.94 205.372 1131.92 205.499L1130.03 219.302C1129.99 219.632 1129.51 219.632 1129.47 219.302L1127.58 205.499C1127.56 205.372 1127.46 205.272 1127.34 205.254L1113.53 203.368C1113.2 203.323 1113.2 202.846 1113.53 202.8L1127.34 200.915C1127.46 200.897 1127.56 200.797 1127.58 200.669L1129.47 186.867C1129.51 186.536 1129.99 186.536 1130.03 186.867L1131.92 200.669C1131.94 200.797 1132.04 200.897 1132.17 200.915L1145.97 202.8Z" fill="#69AEFF"/>
<path d="M1160.75 221.436C1161.09 221.481 1161.09 221.958 1160.75 222.003L1151.66 223.246C1151.53 223.264 1151.43 223.364 1151.41 223.491L1150.17 232.587C1150.13 232.918 1149.65 232.918 1149.6 232.587L1148.36 223.491C1148.34 223.364 1148.24 223.264 1148.11 223.246L1139.02 222.003C1138.69 221.958 1138.69 221.481 1139.02 221.436L1148.11 220.193C1148.24 220.175 1148.34 220.075 1148.36 219.948L1149.6 210.852C1149.65 210.521 1150.13 210.521 1150.17 210.852L1151.41 219.948C1151.43 220.075 1151.53 220.175 1151.66 220.193L1160.75 221.436Z" fill="#69AEFF"/>
</g>
<defs>
<linearGradient id="paint0_linear" x1="682.5" y1="0" x2="682.5" y2="366" gradientUnits="userSpaceOnUse">
<stop stop-color="#4B5DFF"/>
<stop offset="1" stop-color="#4B93FF"/>
</linearGradient>
<linearGradient id="paint1_linear" x1="682.5" y1="0" x2="682.5" y2="365.08" gradientUnits="userSpaceOnUse">
<stop stop-color="#4B5DFF"/>
<stop offset="1" stop-color="#4B93FF"/>
</linearGradient>
</defs>
</svg>
