<svg width="1365" height="366" viewBox="0 0 1365 366" fill="none" xmlns="http://www.w3.org/2000/svg">
<path d="M0 0H1364C1364.55 0 1365 0.447715 1365 1V346C1365 357.046 1356.05 366 1345 366H20C8.9543 366 0 357.046 0 346V0Z" fill="url(#paint0_linear)"/>
<mask id="mask0" mask-type="alpha" maskUnits="userSpaceOnUse" x="0" y="0" width="1365" height="366">
<rect width="1365" height="365.08" fill="url(#paint1_linear)"/>
</mask>
<g mask="url(#mask0)">
<path fill-rule="evenodd" clip-rule="evenodd" d="M963.969 78.2288H861.731C859.357 78.2288 857.433 80.1533 857.433 82.5274V271.644C857.433 274.019 859.357 275.943 861.731 275.943H963.969C966.343 275.943 968.268 274.019 968.268 271.644V82.5274C968.268 80.1533 966.343 78.2288 963.969 78.2288ZM861.731 76.7959C858.566 76.7959 856 79.362 856 82.5274V271.644C856 274.81 858.566 277.376 861.731 277.376H963.969C967.135 277.376 969.701 274.81 969.701 271.644V82.5274C969.701 79.362 967.135 76.7959 963.969 76.7959H861.731Z" fill="#69AEFF"/>
<path fill-rule="evenodd" clip-rule="evenodd" d="M866.127 104.785C866.127 104.508 866.352 104.284 866.629 104.284H959.072C959.349 104.284 959.573 104.508 959.573 104.785V241.226C959.573 241.503 959.349 241.728 959.072 241.728H866.629C866.352 241.728 866.127 241.503 866.127 241.226V104.785ZM867.13 105.287V240.725H958.57V105.287H867.13Z" fill="#69AEFF"/>
<path fill-rule="evenodd" clip-rule="evenodd" d="M913.507 250.061C911.822 249.919 910.137 250.328 908.705 251.228C907.273 252.127 906.173 253.468 905.57 255.048C904.968 256.628 904.895 258.361 905.364 259.986C905.833 261.61 906.817 263.038 908.169 264.054C909.521 265.07 911.166 265.619 912.857 265.618C914.548 265.616 916.192 265.065 917.543 264.047C918.893 263.029 919.875 261.599 920.341 259.974C920.807 258.348 920.732 256.616 920.127 255.037C920.028 254.778 920.157 254.488 920.416 254.389C920.674 254.29 920.964 254.419 921.063 254.678C921.746 256.46 921.831 258.416 921.305 260.25C920.779 262.085 919.67 263.699 918.146 264.848C916.623 265.997 914.766 266.619 912.858 266.621C910.949 266.622 909.092 266.003 907.566 264.856C906.041 263.709 904.929 262.098 904.4 260.264C903.871 258.43 903.953 256.474 904.633 254.691C905.313 252.907 906.555 251.394 908.171 250.378C909.787 249.363 911.69 248.901 913.592 249.062C913.868 249.085 914.072 249.328 914.049 249.604C914.026 249.88 913.783 250.084 913.507 250.061Z" fill="#69AEFF"/>
<path fill-rule="evenodd" clip-rule="evenodd" d="M903.667 93.2053C903.667 92.9284 903.892 92.7038 904.169 92.7038H929.987C930.264 92.7038 930.489 92.9284 930.489 93.2053C930.489 93.4823 930.264 93.7068 929.987 93.7068H904.169C903.892 93.7068 903.667 93.4823 903.667 93.2053Z" fill="#69AEFF"/>
<path fill-rule="evenodd" clip-rule="evenodd" d="M894.711 91.3744C894.711 91.0974 894.935 90.8729 895.212 90.8729H897.12C897.397 90.8729 897.621 91.0974 897.621 91.3744C897.621 91.6513 897.397 91.8759 897.12 91.8759H895.212C894.935 91.8759 894.711 91.6513 894.711 91.3744Z" fill="#69AEFF"/>
<path fill-rule="evenodd" clip-rule="evenodd" d="M866.32 105.998C866.516 105.802 866.833 105.802 867.029 105.998H866.686L918.852 158.164C919.048 158.36 919.048 158.677 918.852 158.873C918.657 159.069 918.339 159.069 918.143 158.873L866.686 107.416L866.32 106.707C866.124 106.511 866.124 106.194 866.32 105.998Z" fill="#69AEFF"/>
<path fill-rule="evenodd" clip-rule="evenodd" d="M959.431 232.888C959.238 233.086 958.92 233.09 958.722 232.897L882.285 158.351C882.086 158.158 882.082 157.84 882.276 157.642C882.469 157.444 882.787 157.44 882.985 157.633L959.422 232.179C959.62 232.372 959.624 232.69 959.431 232.888Z" fill="#69AEFF"/>
<path fill-rule="evenodd" clip-rule="evenodd" d="M959.428 199.392C959.233 199.589 958.916 199.591 958.719 199.396L927.749 168.738C927.552 168.543 927.551 168.226 927.745 168.029C927.94 167.832 928.258 167.831 928.455 168.025L959.425 198.683C959.621 198.878 959.623 199.195 959.428 199.392Z" fill="#69AEFF"/>
<path fill-rule="evenodd" clip-rule="evenodd" d="M1385.2 78.2288H1282.97C1280.59 78.2288 1278.67 80.1533 1278.67 82.5274V271.644C1278.67 274.019 1280.59 275.943 1282.97 275.943H1385.2C1387.58 275.943 1389.5 274.019 1389.5 271.644V82.5274C1389.5 80.1533 1387.58 78.2288 1385.2 78.2288ZM1282.97 76.7959C1279.8 76.7959 1277.23 79.362 1277.23 82.5274V271.644C1277.23 274.81 1279.8 277.376 1282.97 277.376H1385.2C1388.37 277.376 1390.94 274.81 1390.94 271.644V82.5274C1390.94 79.362 1388.37 76.7959 1385.2 76.7959H1282.97Z" fill="#69AEFF"/>
<path fill-rule="evenodd" clip-rule="evenodd" d="M1287.36 104.785C1287.36 104.508 1287.59 104.284 1287.86 104.284H1380.31C1380.58 104.284 1380.81 104.508 1380.81 104.785V241.226C1380.81 241.503 1380.58 241.728 1380.31 241.728H1287.86C1287.59 241.728 1287.36 241.503 1287.36 241.226V104.785ZM1288.36 105.287V240.725H1379.8V105.287H1288.36Z" fill="#69AEFF"/>
<path fill-rule="evenodd" clip-rule="evenodd" d="M1334.74 250.061C1333.06 249.919 1331.37 250.328 1329.94 251.228C1328.51 252.127 1327.41 253.468 1326.8 255.048C1326.2 256.628 1326.13 258.361 1326.6 259.986C1327.07 261.61 1328.05 263.038 1329.4 264.054C1330.75 265.07 1332.4 265.619 1334.09 265.618C1335.78 265.616 1337.43 265.065 1338.78 264.047C1340.13 263.029 1341.11 261.599 1341.58 259.974C1342.04 258.348 1341.97 256.616 1341.36 255.037C1341.26 254.778 1341.39 254.488 1341.65 254.389C1341.91 254.29 1342.2 254.419 1342.3 254.678C1342.98 256.46 1343.07 258.416 1342.54 260.25C1342.01 262.085 1340.9 263.699 1339.38 264.848C1337.86 265.997 1336 266.619 1334.09 266.621C1332.18 266.622 1330.33 266.003 1328.8 264.856C1327.27 263.709 1326.16 262.098 1325.63 260.264C1325.11 258.43 1325.19 256.474 1325.87 254.691C1326.55 252.907 1327.79 251.394 1329.41 250.378C1331.02 249.363 1332.92 248.901 1334.83 249.062C1335.1 249.085 1335.31 249.328 1335.28 249.604C1335.26 249.88 1335.02 250.084 1334.74 250.061Z" fill="#69AEFF"/>
<path fill-rule="evenodd" clip-rule="evenodd" d="M1324.9 93.2053C1324.9 92.9284 1325.13 92.7038 1325.4 92.7038H1351.22C1351.5 92.7038 1351.72 92.9284 1351.72 93.2053C1351.72 93.4823 1351.5 93.7068 1351.22 93.7068H1325.4C1325.13 93.7068 1324.9 93.4823 1324.9 93.2053Z" fill="#69AEFF"/>
<path fill-rule="evenodd" clip-rule="evenodd" d="M1315.95 91.3744C1315.95 91.0974 1316.17 90.8729 1316.45 90.8729H1318.35C1318.63 90.8729 1318.86 91.0974 1318.86 91.3744C1318.86 91.6513 1318.63 91.8759 1318.35 91.8759H1316.45C1316.17 91.8759 1315.95 91.6513 1315.95 91.3744Z" fill="#69AEFF"/>
<path fill-rule="evenodd" clip-rule="evenodd" d="M1287.55 105.998C1287.75 105.802 1288.07 105.802 1288.26 105.998H1287.92L1340.09 158.164C1340.28 158.36 1340.28 158.677 1340.09 158.873C1339.89 159.069 1339.57 159.069 1339.38 158.873L1287.92 107.416L1287.55 106.707C1287.36 106.511 1287.36 106.194 1287.55 105.998Z" fill="#69AEFF"/>
<path fill-rule="evenodd" clip-rule="evenodd" d="M1380.67 232.888C1380.47 233.086 1380.15 233.09 1379.96 232.897L1303.52 158.351C1303.32 158.158 1303.32 157.84 1303.51 157.642C1303.7 157.444 1304.02 157.44 1304.22 157.633L1380.66 232.179C1380.85 232.372 1380.86 232.69 1380.67 232.888Z" fill="#69AEFF"/>
<path fill-rule="evenodd" clip-rule="evenodd" d="M1380.66 199.392C1380.47 199.589 1380.15 199.591 1379.95 199.396L1348.98 168.738C1348.79 168.543 1348.78 168.226 1348.98 168.029C1349.17 167.832 1349.49 167.831 1349.69 168.025L1380.66 198.683C1380.86 198.878 1380.86 199.195 1380.66 199.392Z" fill="#69AEFF"/>
<path fill-rule="evenodd" clip-rule="evenodd" d="M1222.32 228.205V125.967C1222.32 123.593 1220.4 121.668 1218.03 121.668L1028.91 121.668C1026.54 121.668 1024.61 123.593 1024.61 125.967V228.205C1024.61 230.579 1026.54 232.503 1028.91 232.503H1218.03C1220.4 232.503 1222.32 230.579 1222.32 228.205ZM1223.76 125.967C1223.76 122.801 1221.19 120.235 1218.03 120.235L1028.91 120.235C1025.74 120.235 1023.18 122.801 1023.18 125.967V228.205C1023.18 231.37 1025.74 233.936 1028.91 233.936H1218.03C1221.19 233.936 1223.76 231.37 1223.76 228.205V125.967Z" fill="#69AEFF"/>
<path fill-rule="evenodd" clip-rule="evenodd" d="M1195.77 130.363C1196.05 130.363 1196.27 130.587 1196.27 130.864V223.307C1196.27 223.584 1196.05 223.809 1195.77 223.809H1059.33C1059.05 223.809 1058.83 223.584 1058.83 223.307V130.864C1058.83 130.587 1059.05 130.363 1059.33 130.363H1195.77ZM1195.27 131.366H1059.83V222.806H1195.27V131.366Z" fill="#69AEFF"/>
<path fill-rule="evenodd" clip-rule="evenodd" d="M1050.49 177.743C1050.64 176.058 1050.23 174.372 1049.33 172.94C1048.43 171.509 1047.09 170.408 1045.51 169.806C1043.93 169.203 1042.19 169.131 1040.57 169.599C1038.94 170.068 1037.52 171.053 1036.5 172.404C1035.48 173.756 1034.93 175.401 1034.94 177.092C1034.94 178.783 1035.49 180.428 1036.51 181.778C1037.52 183.128 1038.95 184.11 1040.58 184.576C1042.21 185.043 1043.94 184.967 1045.52 184.362C1045.78 184.263 1046.07 184.392 1046.16 184.651C1046.26 184.91 1046.13 185.2 1045.88 185.299C1044.09 185.982 1042.14 186.067 1040.3 185.54C1038.47 185.014 1036.86 183.906 1035.71 182.382C1034.56 180.858 1033.93 179.002 1033.93 177.093C1033.93 175.185 1034.55 173.327 1035.7 171.802C1036.84 170.276 1038.46 169.165 1040.29 168.636C1042.12 168.107 1044.08 168.188 1045.86 168.869C1047.65 169.549 1049.16 170.791 1050.18 172.407C1051.19 174.023 1051.65 175.925 1051.49 177.827C1051.47 178.103 1051.23 178.308 1050.95 178.285C1050.67 178.261 1050.47 178.019 1050.49 177.743Z" fill="#69AEFF"/>
<path fill-rule="evenodd" clip-rule="evenodd" d="M1207.35 167.902C1207.63 167.902 1207.85 168.127 1207.85 168.404V194.223C1207.85 194.5 1207.63 194.724 1207.35 194.724C1207.07 194.724 1206.85 194.5 1206.85 194.223V168.404C1206.85 168.127 1207.07 167.902 1207.35 167.902Z" fill="#69AEFF"/>
<path fill-rule="evenodd" clip-rule="evenodd" d="M1209.18 158.946C1209.46 158.946 1209.68 159.171 1209.68 159.448V161.355C1209.68 161.632 1209.46 161.856 1209.18 161.856C1208.9 161.856 1208.68 161.632 1208.68 161.355V159.448C1208.68 159.171 1208.9 158.946 1209.18 158.946Z" fill="#69AEFF"/>
<path fill-rule="evenodd" clip-rule="evenodd" d="M1194.56 130.555C1194.75 130.751 1194.75 131.069 1194.56 131.264V130.922L1142.39 183.088C1142.19 183.284 1141.88 183.284 1141.68 183.088C1141.48 182.892 1141.48 182.574 1141.68 182.378L1193.14 130.922L1193.85 130.555C1194.04 130.359 1194.36 130.359 1194.56 130.555Z" fill="#69AEFF"/>
<path fill-rule="evenodd" clip-rule="evenodd" d="M1067.67 223.666C1067.47 223.473 1067.46 223.155 1067.66 222.957L1142.2 146.52C1142.4 146.322 1142.71 146.318 1142.91 146.511C1143.11 146.705 1143.11 147.022 1142.92 147.22L1068.38 223.657C1068.18 223.856 1067.86 223.86 1067.67 223.666Z" fill="#69AEFF"/>
<path fill-rule="evenodd" clip-rule="evenodd" d="M1101.16 223.663C1100.96 223.469 1100.96 223.151 1101.16 222.954L1131.82 191.984C1132.01 191.788 1132.33 191.786 1132.52 191.981C1132.72 192.176 1132.72 192.493 1132.53 192.69L1101.87 223.66C1101.68 223.857 1101.36 223.858 1101.16 223.663Z" fill="#69AEFF"/>
</g>
<defs>
<linearGradient id="paint0_linear" x1="682.5" y1="0" x2="682.5" y2="366" gradientUnits="userSpaceOnUse">
<stop stop-color="#4B5DFF"/>
<stop offset="1" stop-color="#4B93FF"/>
</linearGradient>
<linearGradient id="paint1_linear" x1="682.5" y1="0" x2="682.5" y2="365.08" gradientUnits="userSpaceOnUse">
<stop stop-color="#4B5DFF"/>
<stop offset="1" stop-color="#4B93FF"/>
</linearGradient>
</defs>
</svg>
