<svg width="375" height="472" viewBox="0 0 375 472" fill="none" xmlns="http://www.w3.org/2000/svg">
<path d="M0.00146484 0H374.001C374.554 0 375.001 0.447715 375.001 1V452C375.001 463.046 366.047 472 355.001 472H20.0015C8.95577 472 0.00146484 463.046 0.00146484 452V0Z" fill="url(#paint0_linear)"/>
<mask id="mask0" mask-type="alpha" maskUnits="userSpaceOnUse" x="0" y="0" width="376" height="472">
<rect x="0.00146484" width="375" height="472" fill="url(#paint1_linear)"/>
</mask>
<g mask="url(#mask0)">
<path fill-rule="evenodd" clip-rule="evenodd" d="M72.6747 338.886H21.1966C20.8666 338.886 20.599 339.153 20.599 339.483V420.742C20.599 421.072 20.8666 421.339 21.1966 421.339H72.6747C73.0047 421.339 73.2723 421.072 73.2723 420.742V339.483C73.2723 339.153 73.0047 338.886 72.6747 338.886ZM21.1966 338.288C20.5365 338.288 20.0015 338.823 20.0015 339.483V420.742C20.0015 421.402 20.5365 421.937 21.1966 421.937H72.6747C73.3347 421.937 73.8698 421.402 73.8698 420.742V339.483C73.8698 338.823 73.3347 338.288 72.6747 338.288H21.1966Z" fill="#69AEFF"/>
<path fill-rule="evenodd" clip-rule="evenodd" d="M20.7454 346.703C20.8271 346.621 20.9595 346.621 21.0412 346.703L47.8297 373.491C47.9114 373.573 47.9114 373.705 47.8297 373.787C47.748 373.869 47.6156 373.869 47.5339 373.787L20.7454 346.999C20.6637 346.917 20.6637 346.785 20.7454 346.703Z" fill="#69AEFF"/>
<path fill-rule="evenodd" clip-rule="evenodd" d="M71.9677 415.794C71.887 415.876 71.7546 415.878 71.6719 415.797L33.6458 378.712C33.5632 378.632 33.5615 378.499 33.6421 378.416C33.7228 378.334 33.8552 378.332 33.9379 378.413L71.964 415.498C72.0467 415.578 72.0483 415.711 71.9677 415.794Z" fill="#69AEFF"/>
<path fill-rule="evenodd" clip-rule="evenodd" d="M68.6305 393.73C68.5492 393.812 68.4168 393.812 68.3347 393.731L52.9277 378.48C52.8456 378.398 52.845 378.266 52.9262 378.184C53.0075 378.102 53.1399 378.101 53.222 378.182L68.629 393.434C68.711 393.515 68.7117 393.648 68.6305 393.73Z" fill="#69AEFF"/>
<path d="M55.1931 353.629C55.2119 353.491 55.4111 353.491 55.4299 353.629L56.2164 359.385C56.2237 359.439 56.2655 359.48 56.3187 359.488L62.0749 360.274C62.2126 360.293 62.2126 360.492 62.0749 360.511L56.3187 361.297C56.2655 361.305 56.2237 361.347 56.2164 361.4L55.4299 367.156C55.4111 367.294 55.2119 367.294 55.1931 367.156L54.4066 361.4C54.3994 361.347 54.3576 361.305 54.3044 361.297L48.5482 360.511C48.4104 360.492 48.4104 360.293 48.5482 360.274L54.3044 359.488C54.3576 359.48 54.3994 359.439 54.4066 359.385L55.1931 353.629Z" fill="#69AEFF"/>
<path d="M62.9646 347.463C62.9834 347.325 63.1826 347.325 63.2014 347.463L63.7197 351.256C63.727 351.309 63.7688 351.351 63.822 351.359L67.6153 351.877C67.7531 351.896 67.7531 352.095 67.6153 352.114L63.822 352.632C63.7688 352.639 63.727 352.681 63.7197 352.734L63.2014 356.528C63.1826 356.665 62.9834 356.665 62.9646 356.528L62.4463 352.734C62.4391 352.681 62.3973 352.639 62.3441 352.632L58.5507 352.114C58.4129 352.095 58.4129 351.896 58.5507 351.877L62.3441 351.359C62.3973 351.351 62.4391 351.309 62.4463 351.256L62.9646 347.463Z" fill="#69AEFF"/>
<path fill-rule="evenodd" clip-rule="evenodd" d="M94.0686 354.373V405.851C94.0686 406.181 94.3362 406.449 94.6662 406.449H175.925C176.255 406.449 176.522 406.181 176.522 405.851V354.373C176.522 354.043 176.255 353.776 175.925 353.776H94.6662C94.3362 353.776 94.0686 354.043 94.0686 354.373ZM93.4711 405.851C93.4711 406.511 94.0061 407.046 94.6662 407.046H175.925C176.585 407.046 177.12 406.511 177.12 405.851V354.373C177.12 353.713 176.585 353.178 175.925 353.178H94.6662C94.0061 353.178 93.4711 353.713 93.4711 354.373V405.851Z" fill="#69AEFF"/>
<path fill-rule="evenodd" clip-rule="evenodd" d="M101.886 406.302C101.804 406.221 101.804 406.088 101.886 406.007L128.674 379.218C128.756 379.136 128.888 379.136 128.97 379.218C129.052 379.3 129.052 379.432 128.97 379.514L102.182 406.302C102.1 406.384 101.967 406.384 101.886 406.302Z" fill="#69AEFF"/>
<path fill-rule="evenodd" clip-rule="evenodd" d="M170.976 355.08C171.059 355.161 171.061 355.293 170.98 355.376L133.895 393.402C133.815 393.485 133.682 393.486 133.599 393.406C133.517 393.325 133.515 393.193 133.596 393.11L170.681 355.084C170.761 355.001 170.894 355 170.976 355.08Z" fill="#69AEFF"/>
<path fill-rule="evenodd" clip-rule="evenodd" d="M148.913 358.417C148.995 358.499 148.995 358.631 148.914 358.713L133.663 374.12C133.581 374.202 133.449 374.203 133.367 374.122C133.285 374.04 133.284 373.908 133.365 373.826L148.617 358.419C148.698 358.337 148.831 358.336 148.913 358.417Z" fill="#69AEFF"/>
<path d="M108.812 371.855C108.674 371.836 108.674 371.637 108.812 371.618L114.568 370.831C114.622 370.824 114.663 370.782 114.671 370.729L115.457 364.973C115.476 364.835 115.675 364.835 115.694 364.973L116.48 370.729C116.488 370.782 116.529 370.824 116.583 370.831L122.339 371.618C122.477 371.637 122.477 371.836 122.339 371.855L116.583 372.641C116.529 372.648 116.488 372.69 116.48 372.743L115.694 378.5C115.675 378.637 115.476 378.637 115.457 378.5L114.671 372.743C114.663 372.69 114.622 372.648 114.568 372.641L108.812 371.855Z" fill="#69AEFF"/>
<path d="M102.646 364.083C102.508 364.064 102.508 363.865 102.646 363.846L106.439 363.328C106.492 363.321 106.534 363.279 106.542 363.226L107.06 359.433C107.079 359.295 107.278 359.295 107.297 359.433L107.815 363.226C107.822 363.279 107.864 363.321 107.917 363.328L111.711 363.846C111.848 363.865 111.848 364.064 111.711 364.083L107.917 364.602C107.864 364.609 107.822 364.651 107.815 364.704L107.297 368.497C107.278 368.635 107.079 368.635 107.06 368.497L106.542 364.704C106.534 364.651 106.492 364.609 106.439 364.602L102.646 364.083Z" fill="#69AEFF"/>
<path fill-rule="evenodd" clip-rule="evenodd" d="M249.394 338.886H197.916C197.586 338.886 197.319 339.153 197.319 339.483V420.742C197.319 421.072 197.586 421.339 197.916 421.339H249.394C249.724 421.339 249.992 421.072 249.992 420.742V339.483C249.992 339.153 249.724 338.886 249.394 338.886ZM197.916 338.288C197.256 338.288 196.721 338.823 196.721 339.483V420.742C196.721 421.402 197.256 421.937 197.916 421.937H249.394C250.054 421.937 250.589 421.402 250.589 420.742V339.483C250.589 338.823 250.054 338.288 249.394 338.288H197.916Z" fill="#69AEFF"/>
<path fill-rule="evenodd" clip-rule="evenodd" d="M197.465 346.703C197.547 346.621 197.679 346.621 197.761 346.703L224.549 373.491C224.631 373.573 224.631 373.705 224.549 373.787C224.468 373.869 224.335 373.869 224.254 373.787L197.465 346.999C197.383 346.917 197.383 346.785 197.465 346.703Z" fill="#69AEFF"/>
<path fill-rule="evenodd" clip-rule="evenodd" d="M248.687 415.794C248.607 415.876 248.474 415.878 248.392 415.797L210.365 378.712C210.283 378.632 210.281 378.499 210.362 378.416C210.442 378.334 210.575 378.332 210.657 378.413L248.684 415.498C248.766 415.578 248.768 415.711 248.687 415.794Z" fill="#69AEFF"/>
<path fill-rule="evenodd" clip-rule="evenodd" d="M245.35 393.73C245.269 393.812 245.136 393.812 245.054 393.731L229.647 378.48C229.565 378.398 229.565 378.266 229.646 378.184C229.727 378.102 229.86 378.101 229.942 378.182L245.349 393.434C245.431 393.515 245.431 393.648 245.35 393.73Z" fill="#69AEFF"/>
<path d="M231.913 353.629C231.932 353.491 232.131 353.491 232.15 353.629L232.936 359.385C232.943 359.439 232.985 359.48 233.038 359.488L238.794 360.274C238.932 360.293 238.932 360.492 238.794 360.511L233.038 361.297C232.985 361.305 232.943 361.347 232.936 361.4L232.15 367.156C232.131 367.294 231.932 367.294 231.913 367.156L231.126 361.4C231.119 361.347 231.077 361.305 231.024 361.297L225.268 360.511C225.13 360.492 225.13 360.293 225.268 360.274L231.024 359.488C231.077 359.48 231.119 359.439 231.126 359.385L231.913 353.629Z" fill="#69AEFF"/>
<path d="M239.684 347.463C239.703 347.325 239.902 347.325 239.921 347.463L240.439 351.256C240.447 351.309 240.488 351.351 240.542 351.359L244.335 351.877C244.473 351.896 244.473 352.095 244.335 352.114L240.542 352.632C240.488 352.639 240.447 352.681 240.439 352.734L239.921 356.528C239.902 356.665 239.703 356.665 239.684 356.528L239.166 352.734C239.159 352.681 239.117 352.639 239.064 352.632L235.27 352.114C235.133 352.095 235.133 351.896 235.27 351.877L239.064 351.359C239.117 351.351 239.159 351.309 239.166 351.256L239.684 347.463Z" fill="#69AEFF"/>
<path fill-rule="evenodd" clip-rule="evenodd" d="M270.788 354.373V405.851C270.788 406.181 271.056 406.449 271.386 406.449H352.645C352.975 406.449 353.242 406.181 353.242 405.851V354.373C353.242 354.043 352.975 353.776 352.645 353.776H271.386C271.056 353.776 270.788 354.043 270.788 354.373ZM270.191 405.851C270.191 406.511 270.726 407.046 271.386 407.046H352.645C353.305 407.046 353.84 406.511 353.84 405.851V354.373C353.84 353.713 353.305 353.178 352.645 353.178H271.386C270.726 353.178 270.191 353.713 270.191 354.373V405.851Z" fill="#69AEFF"/>
<path fill-rule="evenodd" clip-rule="evenodd" d="M278.606 406.302C278.524 406.221 278.524 406.088 278.606 406.007L305.394 379.218C305.476 379.136 305.608 379.136 305.69 379.218C305.772 379.3 305.772 379.432 305.69 379.514L278.901 406.302C278.82 406.384 278.687 406.384 278.606 406.302Z" fill="#69AEFF"/>
<path fill-rule="evenodd" clip-rule="evenodd" d="M347.696 355.08C347.779 355.161 347.781 355.293 347.7 355.376L310.615 393.402C310.534 393.485 310.402 393.486 310.319 393.406C310.237 393.325 310.235 393.193 310.315 393.11L347.4 355.084C347.481 355.001 347.614 355 347.696 355.08Z" fill="#69AEFF"/>
<path fill-rule="evenodd" clip-rule="evenodd" d="M325.632 358.417C325.714 358.499 325.715 358.631 325.634 358.713L310.382 374.12C310.301 374.202 310.169 374.203 310.087 374.122C310.005 374.04 310.004 373.908 310.085 373.826L325.337 358.419C325.418 358.337 325.55 358.336 325.632 358.417Z" fill="#69AEFF"/>
<path d="M285.532 371.855C285.394 371.836 285.394 371.637 285.532 371.618L291.288 370.831C291.341 370.824 291.383 370.782 291.39 370.729L292.177 364.973C292.196 364.835 292.395 364.835 292.414 364.973L293.2 370.729C293.207 370.782 293.249 370.824 293.302 370.831L299.059 371.618C299.196 371.637 299.196 371.836 299.059 371.855L293.302 372.641C293.249 372.648 293.207 372.69 293.2 372.743L292.414 378.5C292.395 378.637 292.196 378.637 292.177 378.5L291.39 372.743C291.383 372.69 291.341 372.648 291.288 372.641L285.532 371.855Z" fill="#69AEFF"/>
<path d="M279.366 364.083C279.228 364.064 279.228 363.865 279.366 363.846L283.159 363.328C283.212 363.321 283.254 363.279 283.261 363.226L283.78 359.433C283.798 359.295 283.998 359.295 284.016 359.433L284.535 363.226C284.542 363.279 284.584 363.321 284.637 363.328L288.43 363.846C288.568 363.865 288.568 364.064 288.43 364.083L284.637 364.602C284.584 364.609 284.542 364.651 284.535 364.704L284.016 368.497C283.998 368.635 283.798 368.635 283.78 368.497L283.261 364.704C283.254 364.651 283.212 364.609 283.159 364.602L279.366 364.083Z" fill="#69AEFF"/>
</g>
<defs>
<linearGradient id="paint0_linear" x1="187.501" y1="0" x2="187.501" y2="472" gradientUnits="userSpaceOnUse">
<stop stop-color="#4B5DFF"/>
<stop offset="1" stop-color="#4B93FF"/>
</linearGradient>
<linearGradient id="paint1_linear" x1="187.501" y1="0" x2="187.501" y2="472" gradientUnits="userSpaceOnUse">
<stop stop-color="#4B5DFF"/>
<stop offset="1" stop-color="#4B93FF"/>
</linearGradient>
</defs>
</svg>
