<svg width="769" height="480" viewBox="0 0 769 480" fill="none" xmlns="http://www.w3.org/2000/svg">
<path d="M0 0H768C768.552 0 769 0.447715 769 1V460C769 471.046 760.046 480 749 480H20C8.95433 480 0 471.046 0 460V0Z" fill="url(#paint0_linear)"/>
<mask id="mask0" mask-type="alpha" maskUnits="userSpaceOnUse" x="0" y="0" width="769" height="480">
<rect width="769" height="480" fill="url(#paint1_linear)"/>
</mask>
<g mask="url(#mask0)">
<path fill-rule="evenodd" clip-rule="evenodd" d="M468.728 260.861H391.307C389.51 260.861 388.052 262.318 388.052 264.116V407.327C388.052 409.125 389.51 410.582 391.307 410.582H468.728C470.526 410.582 471.983 409.125 471.983 407.327V264.116C471.983 262.318 470.526 260.861 468.728 260.861ZM391.307 259.776C388.91 259.776 386.967 261.719 386.967 264.116V407.327C386.967 409.724 388.91 411.667 391.307 411.667H468.728C471.125 411.667 473.069 409.724 473.069 407.327V264.116C473.069 261.719 471.125 259.776 468.728 259.776H391.307Z" fill="#69AEFF"/>
<path fill-rule="evenodd" clip-rule="evenodd" d="M394.636 280.971C394.636 280.761 394.806 280.591 395.016 280.591H465.019C465.229 280.591 465.399 280.761 465.399 280.971V384.292C465.399 384.502 465.229 384.672 465.019 384.672H395.016C394.806 384.672 394.636 384.502 394.636 384.292V280.971ZM395.396 281.35V383.912H464.64V281.35H395.396Z" fill="#69AEFF"/>
<path fill-rule="evenodd" clip-rule="evenodd" d="M430.515 390.983C429.239 390.875 427.963 391.185 426.879 391.866C425.795 392.547 424.961 393.563 424.505 394.759C424.049 395.956 423.994 397.268 424.349 398.498C424.704 399.728 425.449 400.81 426.473 401.579C427.496 402.349 428.742 402.764 430.023 402.763C431.303 402.762 432.549 402.345 433.571 401.574C434.593 400.803 435.337 399.72 435.69 398.489C436.043 397.258 435.986 395.946 435.528 394.75C435.453 394.555 435.551 394.335 435.747 394.26C435.943 394.185 436.162 394.283 436.237 394.479C436.754 395.828 436.819 397.309 436.42 398.699C436.022 400.088 435.182 401.31 434.028 402.18C432.874 403.05 431.469 403.521 430.023 403.523C428.578 403.524 427.172 403.055 426.016 402.186C424.861 401.318 424.02 400.097 423.619 398.709C423.218 397.32 423.28 395.839 423.795 394.488C424.31 393.138 425.251 391.992 426.475 391.223C427.698 390.454 429.139 390.104 430.579 390.226C430.788 390.243 430.943 390.427 430.926 390.636C430.908 390.845 430.724 391 430.515 390.983Z" fill="#69AEFF"/>
<path fill-rule="evenodd" clip-rule="evenodd" d="M423.064 272.202C423.064 271.992 423.234 271.822 423.443 271.822H442.995C443.205 271.822 443.375 271.992 443.375 272.202C443.375 272.412 443.205 272.582 442.995 272.582H423.443C423.234 272.582 423.064 272.412 423.064 272.202Z" fill="#69AEFF"/>
<path fill-rule="evenodd" clip-rule="evenodd" d="M416.282 270.815C416.282 270.606 416.452 270.436 416.661 270.436H418.106C418.315 270.436 418.485 270.606 418.485 270.815C418.485 271.025 418.315 271.195 418.106 271.195H416.661C416.452 271.195 416.282 271.025 416.282 270.815Z" fill="#69AEFF"/>
<path fill-rule="evenodd" clip-rule="evenodd" d="M394.782 281.889C394.93 281.741 395.171 281.741 395.319 281.889H395.06L434.563 321.393C434.711 321.541 434.711 321.781 434.563 321.93C434.415 322.078 434.174 322.078 434.026 321.93L395.06 282.963L394.782 282.426C394.634 282.278 394.634 282.037 394.782 281.889Z" fill="#69AEFF"/>
<path fill-rule="evenodd" clip-rule="evenodd" d="M465.292 377.978C465.145 378.128 464.905 378.131 464.755 377.985L406.872 321.534C406.722 321.388 406.719 321.148 406.865 320.997C407.011 320.847 407.252 320.844 407.402 320.991L465.285 377.441C465.435 377.587 465.438 377.828 465.292 377.978Z" fill="#69AEFF"/>
<path fill-rule="evenodd" clip-rule="evenodd" d="M465.289 352.613C465.142 352.762 464.901 352.763 464.752 352.616L441.3 329.4C441.151 329.252 441.15 329.012 441.297 328.863C441.445 328.714 441.685 328.713 441.834 328.86L465.287 352.076C465.436 352.223 465.437 352.464 465.289 352.613Z" fill="#69AEFF"/>
<path fill-rule="evenodd" clip-rule="evenodd" d="M144.754 261.099H33.1701C32.5708 261.099 32.0851 261.585 32.0851 262.184V409.736C32.0851 410.335 32.5708 410.821 33.1701 410.821H144.754C145.353 410.821 145.839 410.335 145.839 409.736V262.184C145.839 261.585 145.353 261.099 144.754 261.099ZM33.1701 260.014C31.9716 260.014 31 260.986 31 262.184V409.736C31 410.934 31.9716 411.906 33.1701 411.906H144.754C145.952 411.906 146.924 410.934 146.924 409.736V262.184C146.924 260.986 145.952 260.014 144.754 260.014H33.1701Z" fill="#69AEFF"/>
<path fill-rule="evenodd" clip-rule="evenodd" d="M39.0093 278.118C39.0093 277.908 39.1794 277.738 39.3891 277.738H138.534C138.744 277.738 138.914 277.908 138.914 278.118V389.056C138.914 389.265 138.744 389.436 138.534 389.436H39.3891C39.1794 389.436 39.0093 389.265 39.0093 389.056V278.118ZM39.7689 278.497V388.676H138.155V278.497H39.7689Z" fill="#69AEFF"/>
<path fill-rule="evenodd" clip-rule="evenodd" d="M88.7841 394.755C87.8709 394.677 86.9574 394.899 86.1814 395.387C85.4054 395.875 84.8091 396.601 84.4824 397.458C84.1558 398.314 84.1165 399.253 84.3706 400.134C84.6246 401.014 85.1582 401.788 85.8908 402.339C86.6234 402.89 87.5152 403.187 88.4317 403.186C89.3481 403.185 90.2395 402.887 90.9712 402.335C91.7029 401.783 92.2352 401.008 92.4879 400.127C92.7406 399.246 92.6998 398.307 92.3718 397.451C92.2967 397.256 92.3947 397.036 92.5905 396.961C92.7863 396.886 93.006 396.984 93.081 397.18C93.468 398.189 93.5161 399.297 93.218 400.337C92.9199 401.376 92.2918 402.29 91.4285 402.941C90.5652 403.592 89.5135 403.945 88.4323 403.946C87.351 403.947 86.2988 403.596 85.4345 402.946C84.5701 402.296 83.9406 401.383 83.6408 400.344C83.3411 399.305 83.3874 398.197 83.7728 397.187C84.1582 396.177 84.8618 395.319 85.7773 394.744C86.6928 394.169 87.7707 393.907 88.8481 393.998C89.0571 394.016 89.2122 394.199 89.1945 394.408C89.1768 394.617 88.9931 394.772 88.7841 394.755Z" fill="#69AEFF"/>
<path fill-rule="evenodd" clip-rule="evenodd" d="M84.0206 270.322C84.0206 270.112 84.1906 269.942 84.4003 269.942H102.239C102.448 269.942 102.619 270.112 102.619 270.322C102.619 270.531 102.448 270.701 102.239 270.701H84.4003C84.1906 270.701 84.0206 270.531 84.0206 270.322Z" fill="#69AEFF"/>
<path fill-rule="evenodd" clip-rule="evenodd" d="M75.306 270.322C75.306 270.112 75.476 269.942 75.6858 269.942H77.1301C77.3398 269.942 77.5098 270.112 77.5098 270.322C77.5098 270.531 77.3398 270.701 77.1301 270.701H75.6858C75.476 270.701 75.306 270.531 75.306 270.322Z" fill="#69AEFF"/>
<path fill-rule="evenodd" clip-rule="evenodd" d="M45.7363 277.849C45.8846 277.701 46.1251 277.701 46.2734 277.849L86.9638 318.539C87.1121 318.688 87.1121 318.928 86.9638 319.077C86.8155 319.225 86.575 319.225 86.4267 319.077L45.7363 278.386C45.588 278.238 45.588 277.997 45.7363 277.849Z" fill="#69AEFF"/>
<path fill-rule="evenodd" clip-rule="evenodd" d="M126.83 383.105C126.683 383.255 126.443 383.258 126.293 383.112L68.41 326.661C68.2599 326.515 68.2569 326.274 68.4033 326.124C68.5498 325.974 68.7902 325.971 68.9403 326.118L126.823 382.568C126.973 382.714 126.976 382.955 126.83 383.105Z" fill="#69AEFF"/>
<path fill-rule="evenodd" clip-rule="evenodd" d="M118.626 346.396C118.479 346.545 118.238 346.546 118.089 346.399L94.6369 323.183C94.4878 323.036 94.4866 322.795 94.6341 322.646C94.7817 322.497 95.0222 322.496 95.1712 322.643L118.624 345.859C118.773 346.007 118.774 346.247 118.626 346.396Z" fill="#69AEFF"/>
<path fill-rule="evenodd" clip-rule="evenodd" d="M723.042 260.901H527.324C526.724 260.901 526.239 261.386 526.239 261.986V393.996H724.127V261.986C724.127 261.386 723.641 260.901 723.042 260.901ZM527.324 259.816C526.125 259.816 525.154 260.787 525.154 261.986V395.081H725.212V261.986C725.212 260.787 724.241 259.816 723.042 259.816H527.324Z" fill="#69AEFF"/>
<path fill-rule="evenodd" clip-rule="evenodd" d="M732.49 411.018H517.875C514.879 411.018 512.45 408.589 512.45 405.593V395.085H737.915V405.593C737.915 408.589 735.486 411.018 732.49 411.018ZM517.875 412.103C514.28 412.103 511.365 409.189 511.365 405.593V394H739V405.593C739 409.189 736.085 412.103 732.49 412.103H517.875Z" fill="#69AEFF"/>
<path fill-rule="evenodd" clip-rule="evenodd" d="M532.621 274.387C532.621 274.177 532.791 274.007 533.001 274.007H717.365C717.574 274.007 717.745 274.177 717.745 274.387V388.858C717.745 389.067 717.574 389.237 717.365 389.237H533.001C532.791 389.237 532.621 389.067 532.621 388.858V274.387ZM533.381 274.767V388.478H716.985V274.767H533.381Z" fill="#69AEFF"/>
<path fill-rule="evenodd" clip-rule="evenodd" d="M624.08 267.819C624.08 267.609 624.25 267.439 624.46 267.439H625.904C626.114 267.439 626.284 267.609 626.284 267.819C626.284 268.029 626.114 268.199 625.904 268.199H624.46C624.25 268.199 624.08 268.029 624.08 267.819Z" fill="#69AEFF"/>
<path fill-rule="evenodd" clip-rule="evenodd" d="M583.281 274.674C583.429 274.526 583.67 274.526 583.818 274.674L624.508 315.365C624.657 315.513 624.657 315.754 624.508 315.902C624.36 316.05 624.12 316.05 623.971 315.902L583.281 275.211C583.133 275.063 583.133 274.823 583.281 274.674Z" fill="#69AEFF"/>
<path fill-rule="evenodd" clip-rule="evenodd" d="M644.336 358.732C644.19 358.882 643.95 358.885 643.799 358.739L585.917 302.289C585.766 302.142 585.763 301.902 585.91 301.752C586.056 301.601 586.297 301.598 586.447 301.745L644.33 358.195C644.48 358.342 644.483 358.582 644.336 358.732Z" fill="#69AEFF"/>
<path fill-rule="evenodd" clip-rule="evenodd" d="M673.723 387.927C673.576 388.076 673.335 388.077 673.186 387.93L649.734 364.714C649.585 364.567 649.583 364.326 649.731 364.177C649.879 364.028 650.119 364.027 650.268 364.174L673.72 387.39C673.869 387.538 673.871 387.778 673.723 387.927Z" fill="#69AEFF"/>
<path fill-rule="evenodd" clip-rule="evenodd" d="M656.172 343.221C656.024 343.37 655.784 343.371 655.635 343.223L632.182 320.008C632.033 319.86 632.032 319.62 632.18 319.471C632.327 319.322 632.568 319.32 632.717 319.468L656.169 342.684C656.318 342.831 656.319 343.072 656.172 343.221Z" fill="#69AEFF"/>
<path fill-rule="evenodd" clip-rule="evenodd" d="M242.365 321.873C242.365 321.603 242.583 321.384 242.853 321.384H250.133C250.403 321.384 250.622 321.603 250.622 321.873V330.347L259.412 330.347C259.681 330.347 259.9 330.566 259.9 330.835V338.287C259.9 338.557 259.681 338.775 259.412 338.775L250.622 338.775V347.867C250.622 348.137 250.403 348.355 250.133 348.355H242.853C242.583 348.355 242.365 348.137 242.365 347.867L242.365 338.775H233.417C233.148 338.775 232.929 338.557 232.929 338.287V330.835C232.929 330.566 233.148 330.347 233.417 330.347H242.365L242.365 321.873ZM243.124 322.144L243.124 330.618C243.124 330.888 242.906 331.106 242.636 331.106H233.688V338.016H242.636C242.906 338.016 243.124 338.234 243.124 338.504L243.124 347.596H249.862V338.504C249.862 338.234 250.081 338.016 250.35 338.016L259.14 338.016V331.106L250.35 331.106C250.081 331.106 249.862 330.888 249.862 330.618V322.144H243.124Z" fill="#69AEFF"/>
<path fill-rule="evenodd" clip-rule="evenodd" d="M224.23 277.575C231.842 278.13 240.054 282.46 249.011 287.225C255.22 290.527 263.111 291.424 266.946 291.482C270.781 291.424 278.672 290.527 284.88 287.225C293.838 282.46 302.049 278.13 309.661 277.575C313.493 277.296 317.183 277.97 320.743 280.015C324.295 282.055 327.685 285.441 330.957 290.53C344.003 310.825 349.523 343.134 348.565 372.691C348.409 377.494 347.989 382.611 346.51 386.661C345.024 390.731 342.423 393.824 337.882 394.335C333.755 394.8 330.687 392.912 326.959 389.261C325.27 387.607 323.419 385.565 321.259 383.181C321.037 382.936 320.812 382.688 320.583 382.436C318.124 379.725 315.255 376.587 311.753 373.056C304.747 365.99 300.199 362.764 295.807 361.276C291.943 359.967 288.166 359.984 282.813 360.008C282.06 360.011 281.275 360.015 280.455 360.015H253.437C252.616 360.015 251.832 360.011 251.078 360.008C245.726 359.984 241.949 359.967 238.084 361.276C233.692 362.764 229.145 365.99 222.138 373.056C218.637 376.587 215.767 379.725 213.308 382.436C213.08 382.688 212.855 382.936 212.633 383.181C210.472 385.565 208.622 387.607 206.933 389.261C203.204 392.912 200.137 394.8 196.009 394.335C191.469 393.824 188.867 390.731 187.381 386.661C185.903 382.611 185.482 377.494 185.327 372.691C184.368 343.134 189.888 310.825 202.935 290.53C206.207 285.441 209.596 282.055 213.149 280.015C216.709 277.97 220.399 277.296 224.23 277.575ZM280.455 358.93C281.269 358.93 282.052 358.926 282.807 358.922C288.133 358.896 292.107 358.877 296.156 360.248C300.794 361.82 305.488 365.196 312.524 372.292C316.043 375.841 318.925 378.993 321.387 381.707C321.614 381.958 321.838 382.204 322.058 382.447C324.226 384.839 326.053 386.855 327.718 388.485C331.383 392.074 334.136 393.666 337.761 393.257C341.741 392.809 344.085 390.14 345.491 386.288C346.905 382.416 347.325 377.452 347.48 372.656C348.436 343.201 342.921 311.147 330.044 291.117C326.835 286.126 323.561 282.885 320.202 280.956C316.851 279.031 313.381 278.392 309.74 278.657C302.405 279.192 294.415 283.382 285.39 288.183C279.369 291.385 271.883 292.386 267.728 292.546L267.728 292.567C267.49 292.571 267.229 292.571 266.946 292.567C266.663 292.571 266.401 292.571 266.164 292.567L266.164 292.546C262.009 292.386 254.522 291.385 248.502 288.183C239.477 283.382 231.486 279.192 224.152 278.657C220.51 278.392 217.04 279.031 213.689 280.956C210.33 282.885 207.056 286.126 203.847 291.117C190.971 311.147 185.456 343.201 186.411 372.656C186.567 377.452 186.987 382.416 188.4 386.288C189.807 390.14 192.151 392.809 196.131 393.257C199.756 393.666 202.509 392.074 206.173 388.485C207.838 386.855 209.666 384.839 211.833 382.447C212.054 382.204 212.277 381.957 212.505 381.707C214.966 378.993 217.849 375.841 221.368 372.292C228.403 365.196 233.097 361.82 237.736 360.248C241.784 358.877 245.759 358.896 251.084 358.922C251.84 358.926 252.623 358.93 253.437 358.93H280.455Z" fill="#69AEFF"/>
<path fill-rule="evenodd" clip-rule="evenodd" d="M287.57 325.605C285.56 325.435 283.548 325.924 281.84 326.997C280.132 328.071 278.819 329.671 278.099 331.556C277.38 333.441 277.294 335.509 277.853 337.448C278.413 339.387 279.587 341.091 281.2 342.303C282.813 343.515 284.777 344.17 286.794 344.169C288.812 344.167 290.774 343.509 292.385 342.294C293.996 341.079 295.168 339.373 295.725 337.434C296.281 335.494 296.191 333.427 295.469 331.542C295.394 331.347 295.492 331.127 295.688 331.052C295.884 330.977 296.103 331.075 296.178 331.271C296.959 333.309 297.057 335.545 296.455 337.643C295.853 339.741 294.585 341.586 292.843 342.901C291.1 344.215 288.977 344.926 286.795 344.928C284.612 344.93 282.488 344.222 280.744 342.91C278.999 341.599 277.728 339.756 277.123 337.659C276.518 335.562 276.612 333.325 277.39 331.286C278.168 329.246 279.588 327.516 281.436 326.354C283.284 325.193 285.459 324.665 287.634 324.848C287.843 324.866 287.998 325.05 287.981 325.259C287.963 325.468 287.779 325.623 287.57 325.605Z" fill="#69AEFF"/>
<path fill-rule="evenodd" clip-rule="evenodd" d="M223.637 296.948C221.626 296.778 219.615 297.267 217.907 298.341C216.198 299.414 214.885 301.014 214.166 302.899C213.447 304.784 213.36 306.852 213.92 308.791C214.479 310.73 215.654 312.434 217.267 313.646C218.88 314.858 220.843 315.513 222.861 315.512C224.879 315.51 226.841 314.852 228.452 313.637C230.063 312.422 231.235 310.716 231.791 308.777C232.348 306.837 232.258 304.77 231.536 302.886C231.461 302.69 231.559 302.47 231.754 302.395C231.95 302.32 232.17 302.418 232.245 302.614C233.026 304.652 233.123 306.888 232.521 308.986C231.92 311.084 230.652 312.93 228.909 314.244C227.167 315.558 225.044 316.269 222.861 316.271C220.679 316.273 218.555 315.565 216.81 314.253C215.066 312.942 213.795 311.099 213.19 309.002C212.585 306.905 212.678 304.668 213.456 302.629C214.234 300.589 215.654 298.859 217.502 297.697C219.35 296.536 221.526 296.008 223.701 296.192C223.91 296.209 224.065 296.393 224.047 296.602C224.03 296.811 223.846 296.966 223.637 296.948Z" fill="#69AEFF"/>
<path fill-rule="evenodd" clip-rule="evenodd" d="M265.281 304.559C264.026 305.04 263.013 306 262.466 307.228C261.918 308.456 261.881 309.851 262.362 311.106C262.843 312.362 263.804 313.375 265.031 313.922C266.259 314.469 267.654 314.507 268.91 314.025C270.165 313.544 271.178 312.584 271.725 311.356C272.273 310.128 272.31 308.733 271.829 307.478C271.348 306.222 270.387 305.21 269.16 304.662C267.932 304.115 266.537 304.078 265.281 304.559ZM261.772 306.919C262.401 305.507 263.566 304.403 265.009 303.849C266.453 303.296 268.057 303.339 269.469 303.968C270.881 304.598 271.985 305.762 272.538 307.206C273.091 308.649 273.049 310.253 272.419 311.665C271.79 313.077 270.625 314.181 269.182 314.735C267.738 315.288 266.134 315.245 264.722 314.616C263.31 313.986 262.206 312.822 261.653 311.378C261.1 309.935 261.142 308.331 261.772 306.919Z" fill="#69AEFF"/>
<path d="M283.378 309.291C283.378 310.069 282.747 310.7 281.969 310.7C281.191 310.7 280.56 310.069 280.56 309.291C280.56 308.513 281.191 307.882 281.969 307.882C282.747 307.882 283.378 308.513 283.378 309.291Z" fill="#69AEFF"/>
<path d="M253.629 309.291C253.629 310.069 252.999 310.7 252.221 310.7C251.442 310.7 250.812 310.069 250.812 309.291C250.812 308.513 251.442 307.882 252.221 307.882C252.999 307.882 253.629 308.513 253.629 309.291Z" fill="#69AEFF"/>
<path fill-rule="evenodd" clip-rule="evenodd" d="M310.982 307.882C310.982 307.781 311.022 307.684 311.094 307.612L314.126 304.613C314.197 304.542 314.293 304.503 314.393 304.503H320.525C320.734 304.503 320.904 304.673 320.904 304.882V310.882C320.904 311.092 320.734 311.262 320.525 311.262H314.393C314.293 311.262 314.197 311.223 314.126 311.152L311.094 308.152C311.022 308.081 310.982 307.984 310.982 307.882ZM314.549 310.503H320.145V305.262H314.549L311.901 307.882L314.549 310.503Z" fill="#69AEFF"/>
<path fill-rule="evenodd" clip-rule="evenodd" d="M304.009 307.882C304.009 307.781 303.968 307.684 303.896 307.612L300.865 304.613C300.793 304.542 300.698 304.503 300.597 304.503H294.466C294.256 304.503 294.086 304.673 294.086 304.882V310.882C294.086 311.092 294.256 311.262 294.466 311.262H300.597C300.698 311.262 300.793 311.223 300.865 311.152L303.896 308.152C303.968 308.081 304.009 307.984 304.009 307.882ZM300.441 310.503H294.846V305.262H300.441L303.089 307.882L300.441 310.503Z" fill="#69AEFF"/>
<path fill-rule="evenodd" clip-rule="evenodd" d="M307.495 311.368C307.597 311.368 307.694 311.409 307.765 311.481L310.765 314.513C310.836 314.584 310.875 314.68 310.875 314.78V320.911C310.875 321.121 310.705 321.291 310.495 321.291H304.495C304.286 321.291 304.116 321.121 304.116 320.911V314.78C304.116 314.68 304.155 314.584 304.226 314.513L307.225 311.481C307.297 311.409 307.394 311.368 307.495 311.368ZM304.875 314.936V320.532H310.116V314.936L307.495 312.288L304.875 314.936Z" fill="#69AEFF"/>
<path fill-rule="evenodd" clip-rule="evenodd" d="M307.495 304.396C307.597 304.396 307.694 304.355 307.765 304.283L310.765 301.251C310.836 301.18 310.875 301.084 310.875 300.984V294.852C310.875 294.643 310.705 294.473 310.495 294.473H304.495C304.286 294.473 304.116 294.643 304.116 294.852V300.984C304.116 301.084 304.155 301.18 304.226 301.251L307.225 304.283C307.297 304.355 307.394 304.396 307.495 304.396ZM304.875 300.828V295.232H310.116V300.828L307.495 303.476L304.875 300.828Z" fill="#69AEFF"/>
</g>
<defs>
<linearGradient id="paint0_linear" x1="384.5" y1="0" x2="384.5" y2="480" gradientUnits="userSpaceOnUse">
<stop stop-color="#4B5DFF"/>
<stop offset="1" stop-color="#4B93FF"/>
</linearGradient>
<linearGradient id="paint1_linear" x1="384.5" y1="0" x2="384.5" y2="480" gradientUnits="userSpaceOnUse">
<stop stop-color="#4B5DFF"/>
<stop offset="1" stop-color="#4B93FF"/>
</linearGradient>
</defs>
</svg>
