<svg width="376" height="400" viewBox="0 0 376 400" fill="none" xmlns="http://www.w3.org/2000/svg">
<path d="M0.333374 0H374.333C374.886 0 375.333 0.447715 375.333 1V380C375.333 391.046 366.379 400 355.333 400H20.3334C9.28768 400 0.333374 391.046 0.333374 380V0Z" fill="url(#paint0_linear)"/>
<mask id="mask0" mask-type="alpha" maskUnits="userSpaceOnUse" x="0" y="0" width="376" height="400">
<rect x="0.333374" width="375" height="400" fill="url(#paint1_linear)"/>
</mask>
<g mask="url(#mask0)">
<path fill-rule="evenodd" clip-rule="evenodd" d="M228.663 280.388H190.909C190.032 280.388 189.322 281.099 189.322 281.975V351.812C189.322 352.688 190.032 353.399 190.909 353.399H228.663C229.54 353.399 230.25 352.688 230.25 351.812V281.975C230.25 281.099 229.54 280.388 228.663 280.388ZM190.909 279.859C189.74 279.859 188.793 280.806 188.793 281.975V351.812C188.793 352.981 189.74 353.928 190.909 353.928H228.663C229.832 353.928 230.78 352.981 230.78 351.812V281.975C230.78 280.806 229.832 279.859 228.663 279.859H190.909Z" fill="#69AEFF"/>
<path fill-rule="evenodd" clip-rule="evenodd" d="M192.532 290.195C192.532 290.092 192.615 290.009 192.718 290.009H226.854C226.957 290.009 227.04 290.092 227.04 290.195V340.579C227.04 340.681 226.957 340.764 226.854 340.764H192.718C192.615 340.764 192.532 340.681 192.532 340.579V290.195ZM192.903 290.38V340.394H226.669V290.38H192.903Z" fill="#69AEFF"/>
<path fill-rule="evenodd" clip-rule="evenodd" d="M210.029 343.841C209.406 343.789 208.784 343.94 208.255 344.272C207.727 344.605 207.32 345.1 207.098 345.683C206.875 346.267 206.848 346.906 207.021 347.506C207.195 348.106 207.558 348.634 208.057 349.009C208.556 349.384 209.164 349.587 209.788 349.586C210.413 349.586 211.02 349.382 211.519 349.006C212.017 348.63 212.38 348.102 212.552 347.502C212.724 346.902 212.697 346.262 212.473 345.679C212.436 345.583 212.484 345.476 212.58 345.44C212.675 345.403 212.782 345.451 212.819 345.546C213.071 346.204 213.102 346.927 212.908 347.604C212.714 348.282 212.304 348.878 211.742 349.302C211.179 349.726 210.494 349.956 209.789 349.957C209.084 349.957 208.398 349.728 207.835 349.305C207.271 348.881 206.861 348.286 206.666 347.609C206.47 346.932 206.5 346.21 206.752 345.551C207.003 344.893 207.461 344.334 208.058 343.959C208.655 343.584 209.358 343.413 210.06 343.472C210.162 343.481 210.237 343.571 210.229 343.673C210.22 343.774 210.131 343.85 210.029 343.841Z" fill="#69AEFF"/>
<path fill-rule="evenodd" clip-rule="evenodd" d="M206.395 285.918C206.395 285.816 206.478 285.733 206.58 285.733H216.114C216.217 285.733 216.299 285.816 216.299 285.918C216.299 286.021 216.217 286.104 216.114 286.104H206.58C206.478 286.104 206.395 286.021 206.395 285.918Z" fill="#69AEFF"/>
<path fill-rule="evenodd" clip-rule="evenodd" d="M203.088 285.242C203.088 285.14 203.17 285.057 203.273 285.057H203.977C204.079 285.057 204.162 285.14 204.162 285.242C204.162 285.345 204.079 285.428 203.977 285.428H203.273C203.17 285.428 203.088 285.345 203.088 285.242Z" fill="#69AEFF"/>
<path fill-rule="evenodd" clip-rule="evenodd" d="M192.603 290.642C192.676 290.57 192.793 290.57 192.865 290.642H192.739L212.002 309.906C212.075 309.978 212.075 310.096 212.002 310.168C211.93 310.24 211.813 310.24 211.741 310.168L192.739 291.166L192.603 290.904C192.531 290.832 192.531 290.715 192.603 290.642Z" fill="#69AEFF"/>
<path fill-rule="evenodd" clip-rule="evenodd" d="M226.987 337.5C226.916 337.573 226.798 337.575 226.725 337.503L198.499 309.975C198.426 309.904 198.424 309.787 198.496 309.713C198.567 309.64 198.684 309.639 198.758 309.71L226.984 337.238C227.057 337.309 227.059 337.427 226.987 337.5Z" fill="#69AEFF"/>
<path fill-rule="evenodd" clip-rule="evenodd" d="M226.986 325.131C226.914 325.203 226.797 325.204 226.724 325.132L215.288 313.811C215.215 313.739 215.214 313.622 215.286 313.549C215.358 313.476 215.476 313.476 215.548 313.548L226.985 324.869C227.057 324.941 227.058 325.058 226.986 325.131Z" fill="#69AEFF"/>
<path fill-rule="evenodd" clip-rule="evenodd" d="M70.6783 280.504H16.2648C15.9726 280.504 15.7357 280.741 15.7357 281.033V352.986C15.7357 353.278 15.9726 353.515 16.2648 353.515H70.6783C70.9705 353.515 71.2074 353.278 71.2074 352.986V281.033C71.2074 280.741 70.9705 280.504 70.6783 280.504ZM16.2648 279.975C15.6804 279.975 15.2066 280.449 15.2066 281.033V352.986C15.2066 353.571 15.6804 354.044 16.2648 354.044H70.6783C71.2627 354.044 71.7365 353.571 71.7365 352.986V281.033C71.7365 280.449 71.2627 279.975 70.6783 279.975H16.2648Z" fill="#69AEFF"/>
<path fill-rule="evenodd" clip-rule="evenodd" d="M19.1123 288.803C19.1123 288.701 19.1952 288.618 19.2975 288.618H67.6454C67.7477 288.618 67.8306 288.701 67.8306 288.803V342.902C67.8306 343.004 67.7477 343.087 67.6454 343.087H19.2975C19.1952 343.087 19.1123 343.004 19.1123 342.902V288.803ZM19.4827 288.988V342.716H67.4602V288.988H19.4827Z" fill="#69AEFF"/>
<path fill-rule="evenodd" clip-rule="evenodd" d="M43.3848 345.681C42.9395 345.643 42.494 345.751 42.1156 345.989C41.7372 346.227 41.4464 346.581 41.2871 346.999C41.1278 347.416 41.1087 347.874 41.2326 348.304C41.3564 348.733 41.6167 349.111 41.9739 349.379C42.3311 349.648 42.766 349.793 43.2129 349.792C43.6598 349.792 44.0945 349.646 44.4513 349.377C44.8081 349.108 45.0677 348.73 45.1909 348.301C45.3142 347.871 45.2943 347.413 45.1343 346.996C45.0977 346.9 45.1455 346.793 45.241 346.757C45.3365 346.72 45.4436 346.768 45.4802 346.863C45.6689 347.356 45.6923 347.896 45.547 348.403C45.4016 348.91 45.0953 349.355 44.6743 349.673C44.2533 349.99 43.7405 350.162 43.2132 350.163C42.6859 350.163 42.1728 349.992 41.7514 349.675C41.3299 349.358 41.0229 348.913 40.8767 348.406C40.7305 347.9 40.7531 347.359 40.941 346.867C41.129 346.374 41.4721 345.956 41.9185 345.675C42.365 345.395 42.8906 345.267 43.416 345.312C43.5179 345.32 43.5935 345.41 43.5849 345.512C43.5763 345.614 43.4867 345.689 43.3848 345.681Z" fill="#69AEFF"/>
<path fill-rule="evenodd" clip-rule="evenodd" d="M41.0619 285.001C41.0619 284.899 41.1448 284.816 41.2471 284.816H49.9459C50.0482 284.816 50.1311 284.899 50.1311 285.001C50.1311 285.104 50.0482 285.187 49.9459 285.187H41.2471C41.1448 285.187 41.0619 285.104 41.0619 285.001Z" fill="#69AEFF"/>
<path fill-rule="evenodd" clip-rule="evenodd" d="M36.8122 285.001C36.8122 284.899 36.8952 284.816 36.9974 284.816H37.7017C37.804 284.816 37.8869 284.899 37.8869 285.001C37.8869 285.104 37.804 285.187 37.7017 285.187H36.9974C36.8952 285.187 36.8122 285.104 36.8122 285.001Z" fill="#69AEFF"/>
<path fill-rule="evenodd" clip-rule="evenodd" d="M22.3927 288.672C22.465 288.6 22.5823 288.6 22.6546 288.672L42.4971 308.515C42.5694 308.587 42.5694 308.704 42.4971 308.777C42.4248 308.849 42.3075 308.849 42.2352 308.777L22.3927 288.934C22.3204 288.862 22.3204 288.744 22.3927 288.672Z" fill="#69AEFF"/>
<path fill-rule="evenodd" clip-rule="evenodd" d="M61.9377 340C61.8663 340.073 61.749 340.074 61.6758 340.003L33.4495 312.475C33.3762 312.404 33.3748 312.287 33.4462 312.213C33.5176 312.14 33.6348 312.139 33.7081 312.21L61.9344 339.738C62.0076 339.809 62.0091 339.927 61.9377 340Z" fill="#69AEFF"/>
<path fill-rule="evenodd" clip-rule="evenodd" d="M57.9372 322.099C57.8652 322.172 57.748 322.172 57.6753 322.1L46.2389 310.779C46.1662 310.707 46.1656 310.59 46.2375 310.517C46.3095 310.445 46.4268 310.444 46.4994 310.516L57.9359 321.837C58.0086 321.909 58.0092 322.026 57.9372 322.099Z" fill="#69AEFF"/>
<path fill-rule="evenodd" clip-rule="evenodd" d="M352.678 280.408H257.237C256.945 280.408 256.708 280.644 256.708 280.937V345.311H353.208V280.937C353.208 280.644 352.971 280.408 352.678 280.408ZM257.237 279.878C256.653 279.878 256.179 280.352 256.179 280.937V345.84H353.737V280.937C353.737 280.352 353.263 279.878 352.678 279.878H257.237Z" fill="#69AEFF"/>
<path fill-rule="evenodd" clip-rule="evenodd" d="M357.286 353.612H252.63C251.169 353.612 249.984 352.427 249.984 350.966V345.842H359.931V350.966C359.931 352.427 358.747 353.612 357.286 353.612ZM252.63 354.141C250.876 354.141 249.455 352.72 249.455 350.966V345.313H360.46V350.966C360.46 352.72 359.039 354.141 357.286 354.141H252.63Z" fill="#69AEFF"/>
<path fill-rule="evenodd" clip-rule="evenodd" d="M259.821 286.984C259.821 286.882 259.903 286.799 260.006 286.799H349.91C350.012 286.799 350.095 286.882 350.095 286.984V342.805C350.095 342.908 350.012 342.99 349.91 342.99H260.006C259.903 342.99 259.821 342.908 259.821 342.805V286.984ZM260.191 287.169V342.62H349.725V287.169H260.191Z" fill="#69AEFF"/>
<path fill-rule="evenodd" clip-rule="evenodd" d="M304.42 283.781C304.42 283.679 304.503 283.596 304.605 283.596H305.31C305.412 283.596 305.495 283.679 305.495 283.781C305.495 283.884 305.412 283.966 305.31 283.966H304.605C304.503 283.966 304.42 283.884 304.42 283.781Z" fill="#69AEFF"/>
<path fill-rule="evenodd" clip-rule="evenodd" d="M284.524 287.124C284.597 287.052 284.714 287.052 284.786 287.124L304.629 306.967C304.701 307.039 304.701 307.156 304.629 307.229C304.557 307.301 304.439 307.301 304.367 307.229L284.524 287.386C284.452 287.314 284.452 287.197 284.524 287.124Z" fill="#69AEFF"/>
<path fill-rule="evenodd" clip-rule="evenodd" d="M314.298 328.115C314.227 328.188 314.109 328.189 314.036 328.118L285.81 300.59C285.737 300.519 285.735 300.402 285.806 300.328C285.878 300.255 285.995 300.254 286.068 300.325L314.295 327.853C314.368 327.924 314.369 328.042 314.298 328.115Z" fill="#69AEFF"/>
<path fill-rule="evenodd" clip-rule="evenodd" d="M328.628 342.351C328.556 342.424 328.439 342.425 328.366 342.353L316.93 331.032C316.857 330.96 316.857 330.843 316.929 330.77C317.001 330.697 317.118 330.697 317.191 330.769L328.627 342.09C328.7 342.162 328.7 342.279 328.628 342.351Z" fill="#69AEFF"/>
<path fill-rule="evenodd" clip-rule="evenodd" d="M320.069 320.551C319.997 320.623 319.88 320.624 319.808 320.552L308.371 309.231C308.298 309.159 308.298 309.042 308.37 308.969C308.442 308.896 308.559 308.896 308.632 308.968L320.068 320.289C320.141 320.361 320.141 320.478 320.069 320.551Z" fill="#69AEFF"/>
<path fill-rule="evenodd" clip-rule="evenodd" d="M118.278 310.141C118.278 310.009 118.385 309.903 118.516 309.903H122.066C122.198 309.903 122.304 310.009 122.304 310.141V314.273L126.591 314.273C126.722 314.273 126.829 314.38 126.829 314.511V318.145C126.829 318.277 126.722 318.383 126.591 318.383L122.304 318.383V322.817C122.304 322.948 122.198 323.055 122.066 323.055H118.516C118.385 323.055 118.278 322.948 118.278 322.817L118.278 318.383H113.915C113.783 318.383 113.677 318.277 113.677 318.145V314.511C113.677 314.38 113.783 314.273 113.915 314.273H118.278L118.278 310.141ZM118.648 310.273L118.648 314.405C118.648 314.537 118.542 314.644 118.41 314.644H114.047V318.013H118.41C118.542 318.013 118.648 318.119 118.648 318.251L118.648 322.685H121.934V318.251C121.934 318.119 122.041 318.013 122.172 318.013L126.458 318.013V314.644L122.172 314.644C122.041 314.644 121.934 314.537 121.934 314.405V310.273H118.648Z" fill="#69AEFF"/>
<path fill-rule="evenodd" clip-rule="evenodd" d="M109.435 288.539C113.147 288.81 117.151 290.921 121.519 293.245C124.547 294.855 128.395 295.293 130.265 295.321C132.135 295.293 135.983 294.855 139.01 293.245C143.378 290.921 147.383 288.81 151.095 288.539C152.963 288.403 154.763 288.732 156.499 289.729C158.231 290.724 159.884 292.375 161.479 294.857C167.842 304.753 170.533 320.509 170.066 334.922C169.99 337.264 169.785 339.76 169.064 341.734C168.339 343.719 167.071 345.227 164.857 345.477C162.844 345.704 161.348 344.783 159.53 343.002C158.706 342.196 157.804 341.2 156.75 340.038C156.642 339.918 156.532 339.797 156.421 339.674C155.222 338.352 153.822 336.822 152.115 335.1C148.698 331.654 146.481 330.081 144.339 329.356C142.454 328.717 140.613 328.725 138.002 328.737C137.635 328.739 137.252 328.741 136.852 328.741H123.677C123.277 328.741 122.894 328.739 122.527 328.737C119.917 328.725 118.075 328.717 116.191 329.356C114.049 330.081 111.831 331.654 108.415 335.1C106.707 336.822 105.308 338.352 104.109 339.674C103.997 339.797 103.887 339.918 103.779 340.038C102.726 341.2 101.823 342.196 101 343.002C99.1813 344.783 97.6855 345.704 95.6728 345.477C93.4586 345.227 92.1902 343.719 91.4654 341.734C90.7443 339.76 90.5394 337.264 90.4635 334.922C89.9961 320.509 92.6879 304.753 99.05 294.857C100.645 292.375 102.298 290.724 104.031 289.729C105.767 288.732 107.566 288.403 109.435 288.539ZM136.852 328.211C137.249 328.211 137.631 328.21 138 328.208C140.597 328.195 142.535 328.186 144.509 328.855C146.771 329.621 149.06 331.267 152.491 334.727C154.207 336.458 155.612 337.995 156.813 339.319C156.924 339.441 157.033 339.561 157.14 339.68C158.197 340.846 159.088 341.829 159.9 342.624C161.687 344.374 163.03 345.15 164.797 344.951C166.738 344.732 167.881 343.431 168.567 341.553C169.257 339.665 169.461 337.244 169.537 334.905C170.003 320.541 167.314 304.911 161.034 295.143C159.47 292.709 157.873 291.129 156.235 290.188C154.601 289.249 152.909 288.937 151.133 289.067C147.556 289.327 143.66 291.371 139.259 293.712C136.323 295.274 132.672 295.762 130.646 295.84L130.646 295.85C130.53 295.852 130.403 295.852 130.265 295.85C130.127 295.852 129.999 295.852 129.883 295.85L129.883 295.84C127.857 295.762 124.207 295.274 121.271 293.712C116.87 291.371 112.973 289.327 109.396 289.067C107.621 288.937 105.929 289.249 104.294 290.188C102.656 291.129 101.06 292.709 99.4951 295.143C93.2158 304.911 90.5265 320.541 90.9923 334.905C91.0682 337.244 91.2729 339.665 91.9624 341.553C92.6482 343.431 93.7912 344.732 95.7321 344.951C97.4997 345.15 98.8423 344.374 100.629 342.624C101.441 341.829 102.332 340.846 103.389 339.68C103.497 339.561 103.606 339.441 103.717 339.319C104.917 337.995 106.323 336.458 108.039 334.727C111.47 331.267 113.759 329.621 116.021 328.855C117.995 328.186 119.933 328.195 122.53 328.208C122.898 328.21 123.28 328.211 123.677 328.211H136.852Z" fill="#69AEFF"/>
<path fill-rule="evenodd" clip-rule="evenodd" d="M140.322 311.961C139.342 311.878 138.361 312.116 137.528 312.64C136.695 313.163 136.054 313.944 135.704 314.863C135.353 315.782 135.311 316.791 135.584 317.736C135.856 318.681 136.429 319.512 137.216 320.104C138.002 320.695 138.96 321.014 139.944 321.013C140.928 321.012 141.885 320.692 142.67 320.099C143.456 319.507 144.027 318.675 144.299 317.729C144.57 316.783 144.526 315.775 144.174 314.856C144.137 314.761 144.185 314.654 144.281 314.617C144.376 314.58 144.483 314.628 144.52 314.724C144.901 315.717 144.948 316.808 144.655 317.831C144.361 318.854 143.743 319.754 142.893 320.395C142.044 321.036 141.008 321.383 139.944 321.384C138.88 321.384 137.844 321.039 136.993 320.4C136.143 319.76 135.523 318.861 135.228 317.839C134.933 316.816 134.978 315.725 135.358 314.731C135.737 313.736 136.43 312.892 137.331 312.326C138.232 311.76 139.293 311.502 140.353 311.592C140.455 311.6 140.531 311.69 140.522 311.792C140.514 311.894 140.424 311.97 140.322 311.961Z" fill="#69AEFF"/>
<path fill-rule="evenodd" clip-rule="evenodd" d="M109.145 297.986C108.165 297.904 107.184 298.142 106.351 298.665C105.518 299.189 104.878 299.969 104.527 300.888C104.176 301.808 104.134 302.816 104.407 303.762C104.68 304.707 105.252 305.538 106.039 306.129C106.825 306.72 107.783 307.04 108.767 307.039C109.751 307.038 110.708 306.717 111.493 306.125C112.279 305.532 112.851 304.7 113.122 303.755C113.393 302.809 113.349 301.8 112.997 300.882C112.961 300.786 113.008 300.679 113.104 300.643C113.199 300.606 113.306 300.654 113.343 300.749C113.724 301.743 113.771 302.834 113.478 303.857C113.184 304.88 112.566 305.78 111.716 306.42C110.867 307.061 109.831 307.408 108.767 307.409C107.703 307.41 106.667 307.065 105.816 306.425C104.966 305.786 104.346 304.887 104.051 303.864C103.756 302.842 103.801 301.751 104.181 300.756C104.56 299.762 105.253 298.918 106.154 298.352C107.055 297.786 108.116 297.528 109.176 297.617C109.278 297.626 109.354 297.716 109.345 297.818C109.337 297.919 109.247 297.995 109.145 297.986Z" fill="#69AEFF"/>
<path fill-rule="evenodd" clip-rule="evenodd" d="M129.453 301.698C128.841 301.932 128.347 302.401 128.08 302.999C127.813 303.598 127.795 304.278 128.03 304.891C128.264 305.503 128.732 305.997 129.331 306.264C129.93 306.531 130.61 306.549 131.223 306.314C131.835 306.079 132.329 305.611 132.596 305.012C132.862 304.414 132.881 303.733 132.646 303.121C132.411 302.509 131.943 302.015 131.344 301.748C130.745 301.481 130.065 301.463 129.453 301.698ZM127.742 302.848C128.049 302.16 128.617 301.622 129.32 301.352C130.024 301.082 130.807 301.103 131.495 301.41C132.184 301.717 132.722 302.285 132.992 302.989C133.262 303.692 133.241 304.475 132.934 305.163C132.627 305.852 132.059 306.39 131.355 306.66C130.651 306.93 129.869 306.909 129.18 306.602C128.492 306.295 127.954 305.727 127.684 305.023C127.414 304.319 127.435 303.537 127.742 302.848Z" fill="#69AEFF"/>
<path d="M138.278 304.005C138.278 304.385 137.97 304.692 137.591 304.692C137.211 304.692 136.904 304.385 136.904 304.005C136.904 303.626 137.211 303.318 137.591 303.318C137.97 303.318 138.278 303.626 138.278 304.005Z" fill="#69AEFF"/>
<path d="M123.771 304.005C123.771 304.385 123.463 304.692 123.084 304.692C122.705 304.692 122.397 304.385 122.397 304.005C122.397 303.626 122.705 303.318 123.084 303.318C123.463 303.318 123.771 303.626 123.771 304.005Z" fill="#69AEFF"/>
<path fill-rule="evenodd" clip-rule="evenodd" d="M151.739 303.318C151.739 303.269 151.758 303.222 151.794 303.187L153.272 301.724C153.307 301.69 153.353 301.67 153.402 301.67H156.392C156.495 301.67 156.578 301.753 156.578 301.856V304.781C156.578 304.884 156.495 304.967 156.392 304.967H153.402C153.353 304.967 153.307 304.947 153.272 304.913L151.794 303.45C151.758 303.415 151.739 303.368 151.739 303.318ZM153.478 304.596H156.207V302.041H153.478L152.187 303.318L153.478 304.596Z" fill="#69AEFF"/>
<path fill-rule="evenodd" clip-rule="evenodd" d="M148.338 303.318C148.338 303.269 148.319 303.222 148.284 303.187L146.805 301.724C146.77 301.69 146.724 301.67 146.675 301.67H143.685C143.582 301.67 143.5 301.753 143.5 301.856V304.781C143.5 304.884 143.582 304.967 143.685 304.967H146.675C146.724 304.967 146.77 304.947 146.805 304.913L148.284 303.45C148.319 303.415 148.338 303.368 148.338 303.318ZM146.599 304.596H143.87V302.041H146.599L147.89 303.318L146.599 304.596Z" fill="#69AEFF"/>
<path fill-rule="evenodd" clip-rule="evenodd" d="M150.039 305.018C150.088 305.018 150.135 305.038 150.17 305.073L151.633 306.552C151.667 306.586 151.687 306.633 151.687 306.682V309.672C151.687 309.774 151.604 309.857 151.502 309.857H148.576C148.473 309.857 148.391 309.774 148.391 309.672V306.682C148.391 306.633 148.41 306.586 148.444 306.552L149.907 305.073C149.942 305.038 149.989 305.018 150.039 305.018ZM148.761 306.758V309.487H151.316V306.758L150.039 305.467L148.761 306.758Z" fill="#69AEFF"/>
<path fill-rule="evenodd" clip-rule="evenodd" d="M150.039 301.618C150.088 301.618 150.135 301.598 150.17 301.563L151.633 300.085C151.667 300.05 151.687 300.003 151.687 299.955V296.964C151.687 296.862 151.604 296.779 151.502 296.779H148.576C148.473 296.779 148.391 296.862 148.391 296.964V299.955C148.391 300.003 148.41 300.05 148.444 300.085L149.907 301.563C149.942 301.598 149.989 301.618 150.039 301.618ZM148.761 299.878V297.15H151.316V299.878L150.039 301.17L148.761 299.878Z" fill="#69AEFF"/>
</g>
<defs>
<linearGradient id="paint0_linear" x1="187.833" y1="0" x2="187.833" y2="400" gradientUnits="userSpaceOnUse">
<stop stop-color="#4B5DFF"/>
<stop offset="1" stop-color="#4B93FF"/>
</linearGradient>
<linearGradient id="paint1_linear" x1="187.833" y1="0" x2="187.833" y2="400" gradientUnits="userSpaceOnUse">
<stop stop-color="#4B5DFF"/>
<stop offset="1" stop-color="#4B93FF"/>
</linearGradient>
</defs>
</svg>
