<svg width="1365" height="550" viewBox="0 0 1365 550" fill="none" xmlns="http://www.w3.org/2000/svg">
<path d="M0 0H1364C1364.55 0 1365 0.447715 1365 1V530C1365 541.046 1356.05 550 1345 550H20C8.9543 550 0 541.046 0 530V0Z" fill="url(#paint0_linear)"/>
<mask id="mask0" mask-type="alpha" maskUnits="userSpaceOnUse" x="0" y="0" width="1365" height="550">
<rect width="1365" height="550" fill="url(#paint1_linear)"/>
</mask>
<g mask="url(#mask0)">
<path fill-rule="evenodd" clip-rule="evenodd" d="M808.697 280.38H706.459C704.084 280.38 702.16 282.305 702.16 284.679V473.796C702.16 476.17 704.084 478.094 706.458 478.094H808.696C811.071 478.094 812.995 476.17 812.995 473.796V284.679C812.995 282.305 811.071 280.38 808.697 280.38ZM706.459 278.947C703.293 278.947 700.727 281.513 700.727 284.679V473.796C700.727 476.961 703.293 479.527 706.458 479.527H808.696C811.862 479.527 814.428 476.961 814.428 473.796V284.679C814.428 281.513 811.862 278.947 808.697 278.947H706.459Z" fill="#69AEFF"/>
<path fill-rule="evenodd" clip-rule="evenodd" d="M710.854 306.936C710.854 306.659 711.079 306.435 711.356 306.435H803.799C804.076 306.435 804.3 306.659 804.3 306.936V443.377C804.3 443.654 804.076 443.879 803.799 443.879H711.356C711.079 443.879 710.854 443.654 710.854 443.377V306.936ZM711.857 307.438V442.876H803.297V307.438H711.857Z" fill="#69AEFF"/>
<path fill-rule="evenodd" clip-rule="evenodd" d="M758.234 452.212C756.549 452.07 754.864 452.48 753.432 453.379C752 454.279 750.9 455.62 750.297 457.2C749.695 458.779 749.622 460.512 750.091 462.137C750.56 463.762 751.544 465.19 752.896 466.206C754.248 467.222 755.893 467.771 757.584 467.769C759.275 467.768 760.919 467.216 762.27 466.198C763.62 465.18 764.602 463.751 765.068 462.125C765.534 460.5 765.459 458.767 764.854 457.188C764.755 456.929 764.884 456.639 765.143 456.54C765.401 456.441 765.691 456.57 765.79 456.829C766.473 458.611 766.558 460.567 766.032 462.402C765.506 464.236 764.397 465.85 762.873 466.999C761.35 468.148 759.493 468.771 757.585 468.772C755.676 468.774 753.819 468.154 752.293 467.008C750.768 465.861 749.656 464.249 749.127 462.415C748.598 460.581 748.68 458.625 749.36 456.842C750.041 455.059 751.282 453.545 752.898 452.53C754.514 451.514 756.417 451.052 758.319 451.213C758.595 451.236 758.8 451.479 758.776 451.755C758.753 452.031 758.51 452.236 758.234 452.212Z" fill="#69AEFF"/>
<path fill-rule="evenodd" clip-rule="evenodd" d="M748.394 295.357C748.394 295.08 748.619 294.855 748.896 294.855H774.714C774.991 294.855 775.216 295.08 775.216 295.357C775.216 295.634 774.991 295.858 774.714 295.858H748.896C748.619 295.858 748.394 295.634 748.394 295.357Z" fill="#69AEFF"/>
<path fill-rule="evenodd" clip-rule="evenodd" d="M739.438 293.526C739.438 293.249 739.662 293.024 739.939 293.024H741.847C742.124 293.024 742.348 293.249 742.348 293.526C742.348 293.803 742.124 294.027 741.847 294.027H739.939C739.662 294.027 739.438 293.803 739.438 293.526Z" fill="#69AEFF"/>
<path fill-rule="evenodd" clip-rule="evenodd" d="M711.047 308.149C711.243 307.953 711.56 307.953 711.756 308.149H711.413L763.579 360.315C763.775 360.511 763.775 360.829 763.579 361.025C763.384 361.22 763.066 361.22 762.87 361.025L711.413 309.568L711.047 308.858C710.851 308.663 710.851 308.345 711.047 308.149Z" fill="#69AEFF"/>
<path fill-rule="evenodd" clip-rule="evenodd" d="M804.158 435.039C803.965 435.238 803.647 435.241 803.449 435.048L727.012 360.503C726.813 360.309 726.809 359.992 727.003 359.794C727.196 359.595 727.514 359.591 727.712 359.785L804.149 434.33C804.347 434.523 804.351 434.841 804.158 435.039Z" fill="#69AEFF"/>
<path fill-rule="evenodd" clip-rule="evenodd" d="M804.155 401.543C803.96 401.74 803.643 401.742 803.446 401.547L772.476 370.89C772.279 370.695 772.278 370.377 772.472 370.18C772.667 369.984 772.985 369.982 773.182 370.177L804.152 400.834C804.348 401.029 804.35 401.347 804.155 401.543Z" fill="#69AEFF"/>
<path fill-rule="evenodd" clip-rule="evenodd" d="M312.062 280.695H164.71C163.919 280.695 163.278 281.337 163.278 282.128V476.977C163.278 477.768 163.919 478.41 164.71 478.41H312.062C312.854 478.41 313.495 477.768 313.495 476.977V282.128C313.495 281.337 312.854 280.695 312.062 280.695ZM164.71 279.262C163.128 279.262 161.845 280.545 161.845 282.128V476.977C161.845 478.559 163.128 479.842 164.71 479.842H312.062C313.645 479.842 314.928 478.559 314.928 476.977V282.128C314.928 280.545 313.645 279.262 312.062 279.262H164.71Z" fill="#69AEFF"/>
<path fill-rule="evenodd" clip-rule="evenodd" d="M172.421 303.169C172.421 302.892 172.646 302.667 172.923 302.667H303.849C304.126 302.667 304.351 302.892 304.351 303.169V449.668C304.351 449.945 304.126 450.169 303.849 450.169H172.923C172.646 450.169 172.421 449.945 172.421 449.668V303.169ZM173.424 303.67V449.166H303.348V303.67H173.424Z" fill="#69AEFF"/>
<path fill-rule="evenodd" clip-rule="evenodd" d="M238.151 457.194C236.946 457.092 235.739 457.385 234.714 458.029C233.69 458.673 232.902 459.632 232.471 460.763C232.04 461.894 231.988 463.134 232.323 464.297C232.659 465.46 233.363 466.482 234.331 467.209C235.298 467.936 236.476 468.329 237.686 468.328C238.896 468.327 240.073 467.932 241.04 467.204C242.006 466.475 242.709 465.452 243.043 464.288C243.376 463.125 243.322 461.885 242.889 460.755C242.79 460.496 242.919 460.206 243.178 460.107C243.437 460.008 243.727 460.137 243.826 460.396C244.337 461.729 244.4 463.192 244.007 464.565C243.613 465.937 242.784 467.145 241.644 468.004C240.503 468.864 239.115 469.33 237.687 469.331C236.259 469.332 234.869 468.869 233.728 468.011C232.587 467.153 231.755 465.947 231.359 464.575C230.964 463.203 231.025 461.74 231.534 460.406C232.043 459.071 232.972 457.939 234.181 457.179C235.39 456.42 236.813 456.074 238.236 456.194C238.512 456.218 238.717 456.46 238.693 456.736C238.67 457.012 238.427 457.217 238.151 457.194Z" fill="#69AEFF"/>
<path fill-rule="evenodd" clip-rule="evenodd" d="M231.861 292.874C231.861 292.597 232.085 292.372 232.362 292.372H255.919C256.196 292.372 256.42 292.597 256.42 292.874C256.42 293.151 256.196 293.375 255.919 293.375H232.362C232.085 293.375 231.861 293.151 231.861 292.874Z" fill="#69AEFF"/>
<path fill-rule="evenodd" clip-rule="evenodd" d="M220.353 292.874C220.353 292.597 220.577 292.372 220.854 292.372H222.762C223.039 292.372 223.263 292.597 223.263 292.874C223.263 293.151 223.039 293.375 222.762 293.375H220.854C220.577 293.375 220.353 293.151 220.353 292.874Z" fill="#69AEFF"/>
<path fill-rule="evenodd" clip-rule="evenodd" d="M181.305 302.814C181.501 302.618 181.818 302.618 182.014 302.814L235.748 356.548C235.943 356.744 235.943 357.061 235.748 357.257C235.552 357.453 235.234 357.453 235.038 357.257L181.305 303.523C181.109 303.327 181.109 303.01 181.305 302.814Z" fill="#69AEFF"/>
<path fill-rule="evenodd" clip-rule="evenodd" d="M288.393 441.809C288.199 442.008 287.882 442.012 287.684 441.818L211.247 367.273C211.048 367.08 211.044 366.762 211.238 366.564C211.431 366.366 211.749 366.362 211.947 366.555L288.384 441.1C288.582 441.294 288.586 441.611 288.393 441.809Z" fill="#69AEFF"/>
<path fill-rule="evenodd" clip-rule="evenodd" d="M277.559 393.334C277.365 393.531 277.047 393.532 276.85 393.337L245.88 362.68C245.683 362.485 245.682 362.168 245.877 361.971C246.072 361.774 246.389 361.772 246.586 361.967L277.556 392.625C277.753 392.82 277.754 393.137 277.559 393.334Z" fill="#69AEFF"/>
<path fill-rule="evenodd" clip-rule="evenodd" d="M1179 280.433H920.547C919.755 280.433 919.114 281.074 919.114 281.866V456.192H1180.44V281.866C1180.44 281.074 1179.79 280.433 1179 280.433ZM920.547 279C918.964 279 917.681 280.283 917.681 281.866V457.625H1181.87V281.866C1181.87 280.283 1180.58 279 1179 279H920.547Z" fill="#69AEFF"/>
<path fill-rule="evenodd" clip-rule="evenodd" d="M1191.48 478.67H908.07C904.113 478.67 900.906 475.463 900.906 471.506V457.63H1198.64V471.506C1198.64 475.463 1195.44 478.67 1191.48 478.67ZM908.07 480.103C903.322 480.103 899.473 476.254 899.473 471.506V456.197H1200.08V471.506C1200.08 476.254 1196.23 480.103 1191.48 480.103H908.07Z" fill="#69AEFF"/>
<path fill-rule="evenodd" clip-rule="evenodd" d="M927.543 298.242C927.543 297.965 927.767 297.741 928.044 297.741H1171.51C1171.78 297.741 1172.01 297.965 1172.01 298.242V449.406C1172.01 449.683 1171.78 449.908 1171.51 449.908H928.044C927.767 449.908 927.543 449.683 927.543 449.406V298.242ZM928.546 298.744V448.905H1171V298.744H928.546Z" fill="#69AEFF"/>
<path fill-rule="evenodd" clip-rule="evenodd" d="M1048.32 289.569C1048.32 289.292 1048.54 289.067 1048.82 289.067H1050.73C1051 289.067 1051.23 289.292 1051.23 289.569C1051.23 289.846 1051 290.07 1050.73 290.07H1048.82C1048.54 290.07 1048.32 289.846 1048.32 289.569Z" fill="#69AEFF"/>
<path fill-rule="evenodd" clip-rule="evenodd" d="M994.441 298.622C994.637 298.426 994.954 298.426 995.15 298.622L1048.88 352.355C1049.08 352.551 1049.08 352.869 1048.88 353.065C1048.69 353.261 1048.37 353.261 1048.17 353.065L994.441 299.331C994.245 299.135 994.245 298.818 994.441 298.622Z" fill="#69AEFF"/>
<path fill-rule="evenodd" clip-rule="evenodd" d="M1075.07 409.624C1074.87 409.823 1074.56 409.826 1074.36 409.633L997.921 335.088C997.723 334.894 997.719 334.577 997.913 334.379C998.106 334.18 998.423 334.176 998.622 334.37L1075.06 408.915C1075.26 409.108 1075.26 409.426 1075.07 409.624Z" fill="#69AEFF"/>
<path fill-rule="evenodd" clip-rule="evenodd" d="M1113.87 448.177C1113.68 448.374 1113.36 448.376 1113.17 448.181L1082.2 417.524C1082 417.329 1082 417.011 1082.19 416.814C1082.39 416.618 1082.7 416.616 1082.9 416.811L1113.87 447.468C1114.07 447.663 1114.07 447.981 1113.87 448.177Z" fill="#69AEFF"/>
<path fill-rule="evenodd" clip-rule="evenodd" d="M1090.7 389.14C1090.5 389.337 1090.18 389.339 1089.99 389.144L1059.02 358.487C1058.82 358.292 1058.82 357.974 1059.01 357.777C1059.21 357.581 1059.53 357.579 1059.72 357.774L1090.69 388.431C1090.89 388.626 1090.89 388.944 1090.7 389.14Z" fill="#69AEFF"/>
<path fill-rule="evenodd" clip-rule="evenodd" d="M475.39 360.949C475.39 360.593 475.679 360.305 476.035 360.305H485.649C486.005 360.305 486.293 360.593 486.293 360.949V372.14L497.901 372.14C498.257 372.14 498.546 372.429 498.546 372.785V382.625C498.546 382.981 498.257 383.27 497.901 383.27L486.293 383.27V395.276C486.293 395.632 486.005 395.921 485.649 395.921H476.035C475.679 395.921 475.39 395.632 475.39 395.276L475.39 383.27H463.574C463.218 383.27 462.929 382.981 462.929 382.625V372.785C462.929 372.429 463.218 372.14 463.574 372.14H475.39L475.39 360.949ZM476.393 361.308L476.393 372.498C476.393 372.854 476.104 373.143 475.748 373.143H463.932V382.267H475.748C476.104 382.267 476.393 382.556 476.393 382.912L476.393 394.918H485.29V382.912C485.29 382.556 485.579 382.267 485.935 382.267L497.543 382.267V373.143L485.935 373.143C485.579 373.143 485.29 372.854 485.29 372.498V361.308H476.393Z" fill="#69AEFF"/>
<path fill-rule="evenodd" clip-rule="evenodd" d="M451.443 302.452C461.494 303.184 472.338 308.903 484.167 315.195C492.365 319.556 502.786 320.74 507.85 320.817C512.914 320.74 523.335 319.556 531.534 315.195C543.362 308.903 554.206 303.184 564.258 302.452C569.318 302.083 574.191 302.974 578.892 305.674C583.583 308.369 588.059 312.839 592.38 319.56C609.608 346.36 616.898 389.026 615.632 428.058C615.427 434.4 614.872 441.158 612.919 446.505C610.956 451.88 607.521 455.964 601.525 456.64C596.075 457.254 592.024 454.76 587.101 449.939C584.87 447.754 582.426 445.058 579.573 441.91C579.28 441.587 578.983 441.259 578.681 440.926C575.434 437.346 571.645 433.203 567.02 428.539C557.768 419.208 551.763 414.949 545.963 412.984C540.86 411.254 535.872 411.277 528.804 411.309C527.809 411.313 526.773 411.318 525.689 411.318H490.011C488.928 411.318 487.891 411.313 486.896 411.309C479.828 411.277 474.84 411.254 469.737 412.984C463.937 414.949 457.932 419.208 448.68 428.539C444.056 433.203 440.267 437.346 437.019 440.926C436.717 441.259 436.42 441.587 436.127 441.91C433.274 445.058 430.831 447.754 428.6 449.939C423.676 454.76 419.625 457.254 414.175 456.64C408.179 455.964 404.744 451.88 402.781 446.505C400.829 441.158 400.274 434.4 400.068 428.058C398.802 389.026 406.092 346.36 423.32 319.56C427.641 312.839 432.117 308.369 436.808 305.674C441.51 302.974 446.382 302.083 451.443 302.452ZM525.689 409.885C526.764 409.885 527.798 409.88 528.796 409.875C535.829 409.841 541.077 409.815 546.423 411.626C552.549 413.702 558.747 418.16 568.038 427.53C572.685 432.217 576.492 436.38 579.742 439.963C580.043 440.294 580.338 440.62 580.629 440.941C583.492 444.1 585.905 446.762 588.103 448.915C592.942 453.653 596.578 455.755 601.365 455.216C606.621 454.624 609.716 451.099 611.573 446.013C613.44 440.9 613.995 434.345 614.2 428.011C615.461 389.114 608.179 346.786 591.175 320.335C586.937 313.744 582.614 309.464 578.178 306.916C573.753 304.375 569.171 303.531 564.362 303.881C554.676 304.587 544.124 310.121 532.207 316.46C524.256 320.689 514.37 322.011 508.883 322.222L508.883 322.249C508.569 322.255 508.224 322.255 507.85 322.249C507.477 322.255 507.131 322.255 506.817 322.249L506.818 322.222C501.331 322.011 491.444 320.689 483.494 316.46C471.576 310.121 461.024 304.587 451.338 303.881C446.53 303.531 441.948 304.375 437.522 306.916C433.086 309.464 428.763 313.744 424.526 320.335C407.522 346.786 400.239 389.114 401.5 428.011C401.706 434.345 402.26 440.9 404.127 446.013C405.984 451.099 409.08 454.624 414.336 455.216C419.122 455.755 422.758 453.653 427.597 448.915C429.796 446.762 432.209 444.1 435.072 440.941C435.362 440.62 435.658 440.294 435.958 439.963C439.209 436.38 443.015 432.217 447.662 427.53C456.953 418.16 463.151 413.702 469.277 411.626C474.623 409.815 479.872 409.841 486.904 409.875C487.902 409.88 488.936 409.885 490.011 409.885H525.689Z" fill="#69AEFF"/>
<path fill-rule="evenodd" clip-rule="evenodd" d="M535.086 365.879C532.431 365.654 529.775 366.299 527.519 367.717C525.263 369.135 523.529 371.248 522.579 373.737C521.629 376.226 521.515 378.957 522.254 381.517C522.993 384.077 524.544 386.328 526.674 387.929C528.804 389.53 531.397 390.394 534.061 390.392C536.726 390.39 539.317 389.521 541.444 387.917C543.572 386.313 545.12 384.06 545.854 381.499C546.589 378.937 546.47 376.207 545.517 373.719C545.417 373.46 545.547 373.17 545.805 373.071C546.064 372.972 546.354 373.101 546.453 373.36C547.485 376.051 547.613 379.005 546.818 381.775C546.024 384.546 544.35 386.982 542.048 388.718C539.747 390.453 536.944 391.393 534.062 391.395C531.18 391.397 528.375 390.462 526.071 388.73C523.767 386.999 522.089 384.565 521.29 381.795C520.491 379.026 520.615 376.072 521.642 373.38C522.669 370.687 524.545 368.401 526.985 366.868C529.425 365.334 532.298 364.636 535.17 364.879C535.446 364.902 535.651 365.145 535.628 365.421C535.604 365.697 535.362 365.902 535.086 365.879Z" fill="#69AEFF"/>
<path fill-rule="evenodd" clip-rule="evenodd" d="M450.659 328.036C448.004 327.811 445.348 328.456 443.091 329.874C440.835 331.292 439.102 333.405 438.152 335.894C437.202 338.384 437.088 341.114 437.827 343.674C438.565 346.235 440.117 348.485 442.247 350.086C444.377 351.687 446.969 352.551 449.634 352.549C452.298 352.547 454.89 351.678 457.017 350.074C459.145 348.47 460.692 346.217 461.427 343.656C462.162 341.095 462.043 338.364 461.089 335.876C460.99 335.617 461.12 335.327 461.378 335.228C461.637 335.129 461.927 335.258 462.026 335.517C463.058 338.208 463.186 341.162 462.391 343.932C461.597 346.703 459.922 349.14 457.621 350.875C455.32 352.61 452.517 353.55 449.635 353.552C446.753 353.555 443.948 352.619 441.644 350.888C439.34 349.156 437.662 346.722 436.863 343.953C436.064 341.183 436.188 338.229 437.215 335.537C438.242 332.844 440.117 330.558 442.558 329.025C444.998 327.491 447.871 326.793 450.743 327.036C451.019 327.06 451.224 327.302 451.201 327.578C451.177 327.854 450.935 328.059 450.659 328.036Z" fill="#69AEFF"/>
<path fill-rule="evenodd" clip-rule="evenodd" d="M505.652 338.085C503.994 338.721 502.657 339.989 501.934 341.61C501.211 343.232 501.162 345.074 501.797 346.732C502.433 348.39 503.701 349.727 505.322 350.45C506.944 351.173 508.786 351.222 510.444 350.587C512.102 349.951 513.439 348.683 514.162 347.062C514.885 345.44 514.934 343.598 514.299 341.94C513.663 340.282 512.395 338.945 510.774 338.222C509.152 337.499 507.31 337.45 505.652 338.085ZM501.018 341.202C501.849 339.337 503.387 337.88 505.293 337.149C507.199 336.418 509.318 336.475 511.182 337.306C513.047 338.137 514.504 339.675 515.235 341.581C515.966 343.487 515.909 345.606 515.078 347.47C514.247 349.335 512.709 350.793 510.803 351.523C508.897 352.254 506.778 352.197 504.914 351.366C503.049 350.535 501.591 348.997 500.861 347.091C500.13 345.185 500.187 343.066 501.018 341.202Z" fill="#69AEFF"/>
<path d="M529.55 344.335C529.55 345.362 528.717 346.195 527.689 346.195C526.662 346.195 525.829 345.362 525.829 344.335C525.829 343.307 526.662 342.474 527.689 342.474C528.717 342.474 529.55 343.307 529.55 344.335Z" fill="#69AEFF"/>
<path d="M490.265 344.335C490.265 345.362 489.432 346.195 488.405 346.195C487.377 346.195 486.544 345.362 486.544 344.335C486.544 343.307 487.377 342.474 488.405 342.474C489.432 342.474 490.265 343.307 490.265 344.335Z" fill="#69AEFF"/>
<path fill-rule="evenodd" clip-rule="evenodd" d="M566.002 342.475C566.002 342.341 566.055 342.212 566.15 342.118L570.154 338.157C570.248 338.064 570.374 338.011 570.507 338.011H578.604C578.881 338.011 579.105 338.236 579.105 338.513V346.436C579.105 346.713 578.881 346.938 578.604 346.938H570.507C570.374 346.938 570.248 346.885 570.154 346.793L566.15 342.831C566.055 342.737 566.002 342.608 566.002 342.475ZM570.713 345.935H578.102V339.014H570.713L567.216 342.475L570.713 345.935Z" fill="#69AEFF"/>
<path fill-rule="evenodd" clip-rule="evenodd" d="M556.794 342.475C556.794 342.341 556.74 342.212 556.645 342.118L552.642 338.157C552.548 338.064 552.421 338.011 552.289 338.011H544.192C543.915 338.011 543.69 338.236 543.69 338.513V346.436C543.69 346.713 543.915 346.938 544.192 346.938H552.289C552.421 346.938 552.548 346.885 552.642 346.793L556.645 342.831C556.74 342.737 556.794 342.608 556.794 342.475ZM552.083 345.935H544.693V339.014H552.083L555.579 342.475L552.083 345.935Z" fill="#69AEFF"/>
<path fill-rule="evenodd" clip-rule="evenodd" d="M561.398 347.078C561.532 347.078 561.66 347.131 561.754 347.227L565.716 351.23C565.809 351.324 565.861 351.451 565.861 351.583V359.68C565.861 359.957 565.636 360.181 565.359 360.181H557.436C557.159 360.181 556.935 359.957 556.935 359.68V351.583C556.935 351.451 556.987 351.324 557.08 351.23L561.041 347.227C561.136 347.131 561.264 347.078 561.398 347.078ZM557.938 351.789V359.178H564.858V351.789L561.398 348.292L557.938 351.789Z" fill="#69AEFF"/>
<path fill-rule="evenodd" clip-rule="evenodd" d="M561.398 337.87C561.532 337.87 561.66 337.817 561.754 337.721L565.716 333.718C565.809 333.624 565.861 333.497 565.861 333.365V325.268C565.861 324.991 565.636 324.766 565.359 324.766H557.436C557.159 324.766 556.935 324.991 556.935 325.268V333.365C556.935 333.497 556.987 333.624 557.08 333.718L561.041 337.721C561.136 337.817 561.264 337.87 561.398 337.87ZM557.938 333.159V325.769H564.858V333.159L561.398 336.656L557.938 333.159Z" fill="#69AEFF"/>
</g>
<defs>
<linearGradient id="paint0_linear" x1="682.5" y1="0" x2="682.5" y2="550" gradientUnits="userSpaceOnUse">
<stop stop-color="#4B5DFF"/>
<stop offset="1" stop-color="#4B93FF"/>
</linearGradient>
<linearGradient id="paint1_linear" x1="682.5" y1="0" x2="682.5" y2="550" gradientUnits="userSpaceOnUse">
<stop stop-color="#4B5DFF"/>
<stop offset="1" stop-color="#4B93FF"/>
</linearGradient>
</defs>
</svg>
