<svg width="22" height="22" viewBox="0 0 22 22" fill="none" xmlns="http://www.w3.org/2000/svg">
<path d="M0.319505 1.85542C-0.0710194 1.4649 -0.07102 0.831734 0.319504 0.44121C0.710029 0.0506856 1.34319 0.0506856 1.73372 0.44121L21.5327 20.2402C21.9232 20.6307 21.9232 21.2639 21.5327 21.6544C21.1422 22.0449 20.509 22.0449 20.1185 21.6544L0.319505 1.85542Z" fill="#F2F5F9"/>
<path d="M20.1187 0.441209C20.5092 0.0506847 21.1424 0.0506841 21.5329 0.441208C21.9234 0.831733 21.9234 1.4649 21.5329 1.85542L1.73389 21.6544C1.34337 22.0449 0.710204 22.0449 0.31968 21.6544C-0.0708442 21.2639 -0.0708442 20.6307 0.31968 20.2402L20.1187 0.441209Z" fill="#F2F5F9"/>
</svg>
