<svg width="768" height="411" viewBox="0 0 768 411" fill="none" xmlns="http://www.w3.org/2000/svg">
<path d="M0 0.300293H748C759.046 0.300293 768 9.2546 768 20.3003V390.8C768 401.846 759.046 410.8 748 410.8H20C8.95432 410.8 0 401.846 0 390.8V0.300293Z" fill="url(#paint0_linear)"/>
<mask id="mask0" mask-type="alpha" maskUnits="userSpaceOnUse" x="0" y="0" width="768" height="411">
<path d="M0 0.300293H748C759.046 0.300293 768 9.2546 768 20.3003V390.8C768 401.846 759.046 410.8 748 410.8H20C8.95432 410.8 0 401.846 0 390.8V0.300293Z" fill="url(#paint1_linear)"/>
</mask>
<g mask="url(#mask0)">
<path fill-rule="evenodd" clip-rule="evenodd" d="M467.728 199.661H390.307C388.51 199.661 387.052 201.118 387.052 202.916V346.127C387.052 347.925 388.51 349.382 390.307 349.382H467.728C469.526 349.382 470.983 347.925 470.983 346.127V202.916C470.983 201.118 469.526 199.661 467.728 199.661ZM390.307 198.576C387.91 198.576 385.967 200.519 385.967 202.916V346.127C385.967 348.524 387.91 350.467 390.307 350.467H467.728C470.125 350.467 472.068 348.524 472.068 346.127V202.916C472.068 200.519 470.125 198.576 467.728 198.576H390.307Z" fill="#69AEFF"/>
<path fill-rule="evenodd" clip-rule="evenodd" d="M393.636 219.771C393.636 219.561 393.806 219.391 394.016 219.391H464.019C464.229 219.391 464.399 219.561 464.399 219.771V323.092C464.399 323.302 464.229 323.472 464.019 323.472H394.016C393.806 323.472 393.636 323.302 393.636 323.092V219.771ZM394.396 220.151V322.713H463.64V220.151H394.396Z" fill="#69AEFF"/>
<path fill-rule="evenodd" clip-rule="evenodd" d="M429.515 329.783C428.239 329.675 426.963 329.985 425.879 330.666C424.794 331.348 423.961 332.363 423.505 333.559C423.048 334.756 422.994 336.068 423.349 337.298C423.704 338.529 424.449 339.61 425.473 340.38C426.496 341.149 427.742 341.564 429.023 341.563C430.303 341.562 431.549 341.145 432.571 340.374C433.593 339.603 434.337 338.52 434.69 337.289C435.043 336.059 434.986 334.746 434.528 333.551C434.453 333.355 434.551 333.135 434.747 333.06C434.942 332.985 435.162 333.083 435.237 333.279C435.754 334.628 435.819 336.11 435.42 337.499C435.022 338.888 434.182 340.11 433.028 340.98C431.874 341.851 430.469 342.322 429.023 342.323C427.578 342.324 426.172 341.855 425.016 340.987C423.861 340.118 423.019 338.898 422.619 337.509C422.218 336.12 422.28 334.639 422.795 333.289C423.31 331.938 424.251 330.792 425.475 330.023C426.698 329.254 428.139 328.904 429.579 329.026C429.788 329.044 429.943 329.227 429.926 329.436C429.908 329.645 429.724 329.801 429.515 329.783Z" fill="#69AEFF"/>
<path fill-rule="evenodd" clip-rule="evenodd" d="M422.064 211.002C422.064 210.792 422.234 210.622 422.443 210.622H441.995C442.205 210.622 442.375 210.792 442.375 211.002C442.375 211.212 442.205 211.382 441.995 211.382H422.443C422.234 211.382 422.064 211.212 422.064 211.002Z" fill="#69AEFF"/>
<path fill-rule="evenodd" clip-rule="evenodd" d="M415.281 209.616C415.281 209.406 415.451 209.236 415.661 209.236H417.105C417.315 209.236 417.485 209.406 417.485 209.616C417.485 209.825 417.315 209.995 417.105 209.995H415.661C415.451 209.995 415.281 209.825 415.281 209.616Z" fill="#69AEFF"/>
<path fill-rule="evenodd" clip-rule="evenodd" d="M393.782 220.689C393.93 220.541 394.171 220.541 394.319 220.689H394.059L433.563 260.193C433.711 260.341 433.711 260.582 433.563 260.73C433.415 260.878 433.174 260.878 433.026 260.73L394.059 221.764L393.782 221.227C393.634 221.078 393.634 220.838 393.782 220.689Z" fill="#69AEFF"/>
<path fill-rule="evenodd" clip-rule="evenodd" d="M464.291 316.778C464.145 316.928 463.905 316.931 463.754 316.785L405.872 260.335C405.721 260.188 405.718 259.948 405.865 259.798C406.011 259.647 406.252 259.644 406.402 259.791L464.285 316.241C464.435 316.388 464.438 316.628 464.291 316.778Z" fill="#69AEFF"/>
<path fill-rule="evenodd" clip-rule="evenodd" d="M464.289 291.413C464.142 291.562 463.901 291.564 463.752 291.416L440.3 268.2C440.151 268.053 440.15 267.812 440.297 267.663C440.445 267.514 440.685 267.513 440.834 267.661L464.287 290.876C464.436 291.024 464.437 291.264 464.289 291.413Z" fill="#69AEFF"/>
<path fill-rule="evenodd" clip-rule="evenodd" d="M143.754 199.9H32.17C31.5708 199.9 31.085 200.386 31.085 200.985V348.536C31.085 349.135 31.5708 349.621 32.17 349.621H143.754C144.353 349.621 144.839 349.135 144.839 348.536V200.985C144.839 200.386 144.353 199.9 143.754 199.9ZM32.17 198.815C30.9715 198.815 29.9999 199.786 29.9999 200.985V348.536C29.9999 349.735 30.9715 350.706 32.17 350.706H143.754C144.952 350.706 145.924 349.735 145.924 348.536V200.985C145.924 199.786 144.952 198.815 143.754 198.815H32.17Z" fill="#69AEFF"/>
<path fill-rule="evenodd" clip-rule="evenodd" d="M38.0092 216.918C38.0092 216.708 38.1793 216.538 38.389 216.538H137.534C137.744 216.538 137.914 216.708 137.914 216.918V327.856C137.914 328.066 137.744 328.236 137.534 328.236H38.389C38.1793 328.236 38.0092 328.066 38.0092 327.856V216.918ZM38.7688 217.298V327.476H137.155V217.298H38.7688Z" fill="#69AEFF"/>
<path fill-rule="evenodd" clip-rule="evenodd" d="M87.784 333.555C86.8708 333.478 85.9573 333.7 85.1813 334.187C84.4053 334.675 83.809 335.402 83.4824 336.258C83.1557 337.114 83.1164 338.054 83.3705 338.934C83.6246 339.815 84.1581 340.589 84.8907 341.139C85.6233 341.69 86.5151 341.987 87.4316 341.987C88.348 341.986 89.2394 341.687 89.9711 341.135C90.7028 340.583 91.2352 339.809 91.4878 338.928C91.7405 338.047 91.6997 337.107 91.3717 336.252C91.2967 336.056 91.3946 335.836 91.5904 335.761C91.7863 335.686 92.0059 335.784 92.0809 335.98C92.4679 336.99 92.516 338.098 92.2179 339.137C91.9198 340.176 91.2917 341.091 90.4284 341.742C89.5651 342.393 88.5135 342.745 87.4322 342.746C86.3509 342.747 85.2987 342.396 84.4344 341.746C83.57 341.097 82.9405 340.184 82.6407 339.145C82.341 338.106 82.3873 336.998 82.7727 335.987C83.1581 334.977 83.8617 334.12 84.7772 333.544C85.6927 332.969 86.7706 332.707 87.848 332.798C88.057 332.816 88.2121 333 88.1944 333.209C88.1767 333.418 87.993 333.573 87.784 333.555Z" fill="#69AEFF"/>
<path fill-rule="evenodd" clip-rule="evenodd" d="M83.0205 209.122C83.0205 208.912 83.1905 208.742 83.4002 208.742H101.239C101.448 208.742 101.618 208.912 101.618 209.122C101.618 209.332 101.448 209.502 101.239 209.502H83.4002C83.1905 209.502 83.0205 209.332 83.0205 209.122Z" fill="#69AEFF"/>
<path fill-rule="evenodd" clip-rule="evenodd" d="M74.3059 209.122C74.3059 208.912 74.4759 208.742 74.6857 208.742H76.13C76.3397 208.742 76.5097 208.912 76.5097 209.122C76.5097 209.332 76.3397 209.502 76.13 209.502H74.6857C74.4759 209.502 74.3059 209.332 74.3059 209.122Z" fill="#69AEFF"/>
<path fill-rule="evenodd" clip-rule="evenodd" d="M44.7362 216.649C44.8845 216.501 45.125 216.501 45.2733 216.649L85.9637 257.34C86.112 257.488 86.112 257.729 85.9637 257.877C85.8154 258.025 85.5749 258.025 85.4266 257.877L44.7362 217.186C44.5879 217.038 44.5879 216.798 44.7362 216.649Z" fill="#69AEFF"/>
<path fill-rule="evenodd" clip-rule="evenodd" d="M125.83 321.905C125.683 322.055 125.443 322.058 125.293 321.912L67.41 265.462C67.2598 265.315 67.2568 265.075 67.4032 264.925C67.5497 264.774 67.7901 264.771 67.9403 264.918L125.823 321.368C125.973 321.515 125.976 321.755 125.83 321.905Z" fill="#69AEFF"/>
<path fill-rule="evenodd" clip-rule="evenodd" d="M117.626 285.197C117.479 285.346 117.238 285.347 117.089 285.199L93.6368 261.984C93.4877 261.836 93.4865 261.596 93.6341 261.447C93.7816 261.298 94.0221 261.296 94.1711 261.444L117.623 284.659C117.772 284.807 117.774 285.047 117.626 285.197Z" fill="#69AEFF"/>
<path fill-rule="evenodd" clip-rule="evenodd" d="M722.042 199.701H526.324C525.724 199.701 525.239 200.187 525.239 200.786V332.796H723.127V200.786C723.127 200.187 722.641 199.701 722.042 199.701ZM526.324 198.616C525.125 198.616 524.154 199.588 524.154 200.786V333.881H724.212V200.786C724.212 199.588 723.24 198.616 722.042 198.616H526.324Z" fill="#69AEFF"/>
<path fill-rule="evenodd" clip-rule="evenodd" d="M731.49 349.819H516.875C513.879 349.819 511.45 347.39 511.45 344.393V333.885H736.915V344.393C736.915 347.39 734.486 349.819 731.49 349.819ZM516.875 350.904C513.28 350.904 510.365 347.989 510.365 344.393V332.8H738V344.393C738 347.989 735.085 350.904 731.49 350.904H516.875Z" fill="#69AEFF"/>
<path fill-rule="evenodd" clip-rule="evenodd" d="M531.621 213.187C531.621 212.978 531.791 212.808 532.001 212.808H716.365C716.574 212.808 716.744 212.978 716.744 213.187V327.658C716.744 327.868 716.574 328.038 716.365 328.038H532.001C531.791 328.038 531.621 327.868 531.621 327.658V213.187ZM532.381 213.567V327.278H715.985V213.567H532.381Z" fill="#69AEFF"/>
<path fill-rule="evenodd" clip-rule="evenodd" d="M623.08 206.619C623.08 206.41 623.25 206.24 623.46 206.24H624.904C625.114 206.24 625.284 206.41 625.284 206.619C625.284 206.829 625.114 206.999 624.904 206.999H623.46C623.25 206.999 623.08 206.829 623.08 206.619Z" fill="#69AEFF"/>
<path fill-rule="evenodd" clip-rule="evenodd" d="M582.281 213.475C582.429 213.326 582.67 213.326 582.818 213.475L623.508 254.165C623.657 254.313 623.657 254.554 623.508 254.702C623.36 254.851 623.12 254.851 622.971 254.702L582.281 214.012C582.133 213.864 582.133 213.623 582.281 213.475Z" fill="#69AEFF"/>
<path fill-rule="evenodd" clip-rule="evenodd" d="M643.336 297.533C643.19 297.683 642.949 297.686 642.799 297.539L584.916 241.089C584.766 240.943 584.763 240.702 584.91 240.552C585.056 240.402 585.297 240.399 585.447 240.545L643.33 296.996C643.48 297.142 643.483 297.382 643.336 297.533Z" fill="#69AEFF"/>
<path fill-rule="evenodd" clip-rule="evenodd" d="M672.723 326.727C672.575 326.876 672.335 326.878 672.186 326.73L648.734 303.514C648.585 303.367 648.583 303.126 648.731 302.977C648.879 302.828 649.119 302.827 649.268 302.975L672.72 326.19C672.869 326.338 672.871 326.578 672.723 326.727Z" fill="#69AEFF"/>
<path fill-rule="evenodd" clip-rule="evenodd" d="M655.172 282.021C655.024 282.17 654.784 282.171 654.635 282.024L631.182 258.808C631.033 258.661 631.032 258.42 631.18 258.271C631.327 258.122 631.568 258.121 631.717 258.268L655.169 281.484C655.318 281.632 655.319 281.872 655.172 282.021Z" fill="#69AEFF"/>
<path fill-rule="evenodd" clip-rule="evenodd" d="M241.365 260.673C241.365 260.403 241.583 260.185 241.853 260.185H249.133C249.403 260.185 249.621 260.403 249.621 260.673V269.147L258.412 269.147C258.681 269.147 258.9 269.366 258.9 269.635V277.087C258.9 277.357 258.681 277.575 258.412 277.575L249.621 277.575V286.667C249.621 286.937 249.403 287.156 249.133 287.156H241.853C241.583 287.156 241.365 286.937 241.365 286.667L241.365 277.575H232.417C232.147 277.575 231.929 277.357 231.929 277.087V269.635C231.929 269.366 232.147 269.147 232.417 269.147H241.365L241.365 260.673ZM242.124 260.944L242.124 269.418C242.124 269.688 241.906 269.907 241.636 269.907H232.688V276.816H241.636C241.906 276.816 242.124 277.035 242.124 277.304L242.124 286.396H248.862V277.304C248.862 277.035 249.081 276.816 249.35 276.816L258.14 276.816V269.907L249.35 269.907C249.081 269.907 248.862 269.688 248.862 269.418V260.944H242.124Z" fill="#69AEFF"/>
<path fill-rule="evenodd" clip-rule="evenodd" d="M223.23 216.375C230.842 216.93 239.054 221.26 248.011 226.025C254.22 229.327 262.111 230.224 265.946 230.282C269.78 230.224 277.672 229.327 283.88 226.025C292.837 221.26 301.049 216.93 308.661 216.375C312.493 216.096 316.183 216.77 319.743 218.815C323.295 220.855 326.685 224.241 329.957 229.331C343.003 249.625 348.523 281.934 347.565 311.491C347.409 316.294 346.989 321.411 345.51 325.461C344.024 329.531 341.423 332.624 336.882 333.135C332.755 333.601 329.687 331.712 325.959 328.061C324.27 326.407 322.419 324.365 320.259 321.981C320.037 321.736 319.812 321.488 319.583 321.236C317.124 318.525 314.255 315.387 310.753 311.856C303.747 304.79 299.199 301.565 294.807 300.076C290.943 298.767 287.166 298.784 281.813 298.808C281.06 298.811 280.275 298.815 279.454 298.815H252.437C251.616 298.815 250.832 298.811 250.078 298.808C244.725 298.784 240.949 298.767 237.084 300.076C232.692 301.565 228.145 304.79 221.138 311.856C217.637 315.387 214.767 318.525 212.308 321.236C212.08 321.488 211.855 321.736 211.633 321.981C209.472 324.365 207.622 326.407 205.932 328.061C202.204 331.712 199.137 333.601 195.009 333.135C190.469 332.624 187.867 329.531 186.381 325.461C184.902 321.411 184.482 316.294 184.327 311.491C183.368 281.934 188.888 249.625 201.935 229.331C205.206 224.241 208.596 220.855 212.148 218.815C215.709 216.77 219.398 216.096 223.23 216.375ZM279.454 297.73C280.269 297.73 281.052 297.726 281.807 297.722C287.133 297.696 291.107 297.677 295.155 299.049C299.794 300.621 304.488 303.996 311.524 311.092C315.043 314.641 317.925 317.793 320.387 320.507C320.614 320.758 320.838 321.005 321.058 321.248C323.226 323.639 325.053 325.656 326.718 327.286C330.383 330.874 333.136 332.466 336.761 332.057C340.741 331.609 343.085 328.94 344.491 325.089C345.905 321.216 346.325 316.253 346.48 311.456C347.435 282.001 341.921 249.948 329.044 229.917C325.835 224.926 322.561 221.685 319.202 219.756C315.851 217.831 312.381 217.192 308.74 217.457C301.405 217.992 293.415 222.182 284.39 226.983C278.369 230.185 270.883 231.186 266.728 231.346L266.728 231.367C266.49 231.371 266.229 231.371 265.946 231.367C265.663 231.371 265.401 231.371 265.163 231.367L265.164 231.346C261.009 231.186 253.522 230.185 247.502 226.983C238.477 222.182 230.486 217.992 223.151 217.457C219.51 217.192 216.04 217.831 212.689 219.756C209.33 221.685 206.056 224.926 202.847 229.917C189.971 249.948 184.456 282.001 185.411 311.456C185.567 316.253 185.986 321.216 187.4 325.089C188.807 328.94 191.15 331.609 195.131 332.057C198.755 332.466 201.509 330.874 205.173 327.286C206.838 325.656 208.666 323.639 210.833 321.247C211.054 321.004 211.277 320.758 211.505 320.507C213.966 317.793 216.849 314.641 220.368 311.092C227.403 303.996 232.097 300.621 236.736 299.049C240.784 297.677 244.759 297.696 250.084 297.722C250.84 297.726 251.623 297.73 252.437 297.73H279.454Z" fill="#69AEFF"/>
<path fill-rule="evenodd" clip-rule="evenodd" d="M286.57 264.405C284.56 264.236 282.548 264.724 280.84 265.798C279.131 266.871 277.819 268.471 277.099 270.356C276.38 272.242 276.294 274.31 276.853 276.248C277.412 278.187 278.587 279.891 280.2 281.103C281.813 282.316 283.776 282.97 285.794 282.969C287.812 282.967 289.774 282.309 291.385 281.094C292.996 279.879 294.168 278.174 294.725 276.234C295.281 274.295 295.191 272.227 294.469 270.343C294.394 270.147 294.492 269.927 294.688 269.852C294.884 269.777 295.103 269.875 295.178 270.071C295.959 272.109 296.056 274.345 295.455 276.443C294.853 278.541 293.585 280.387 291.843 281.701C290.1 283.015 287.977 283.727 285.795 283.728C283.612 283.73 281.488 283.022 279.744 281.71C277.999 280.399 276.728 278.556 276.123 276.459C275.518 274.362 275.612 272.125 276.39 270.086C277.168 268.047 278.588 266.316 280.436 265.155C282.284 263.993 284.459 263.465 286.634 263.649C286.843 263.666 286.998 263.85 286.981 264.059C286.963 264.268 286.779 264.423 286.57 264.405Z" fill="#69AEFF"/>
<path fill-rule="evenodd" clip-rule="evenodd" d="M222.637 235.749C220.626 235.579 218.615 236.067 216.906 237.141C215.198 238.214 213.885 239.814 213.166 241.699C212.447 243.585 212.36 245.653 212.92 247.591C213.479 249.53 214.654 251.234 216.267 252.446C217.88 253.659 219.843 254.313 221.861 254.312C223.878 254.31 225.841 253.652 227.452 252.437C229.063 251.223 230.235 249.517 230.791 247.577C231.347 245.638 231.258 243.57 230.536 241.686C230.461 241.49 230.558 241.27 230.754 241.195C230.95 241.12 231.17 241.218 231.245 241.414C232.026 243.452 232.123 245.689 231.521 247.786C230.92 249.884 229.652 251.73 227.909 253.044C226.167 254.358 224.044 255.07 221.861 255.071C219.679 255.073 217.555 254.365 215.81 253.053C214.066 251.742 212.795 249.899 212.19 247.802C211.585 245.705 211.678 243.468 212.456 241.429C213.234 239.39 214.654 237.659 216.502 236.498C218.35 235.336 220.526 234.808 222.701 234.992C222.91 235.009 223.065 235.193 223.047 235.402C223.029 235.611 222.846 235.766 222.637 235.749Z" fill="#69AEFF"/>
<path fill-rule="evenodd" clip-rule="evenodd" d="M264.281 243.359C263.026 243.84 262.013 244.8 261.466 246.028C260.918 247.256 260.881 248.651 261.362 249.907C261.843 251.162 262.803 252.175 264.031 252.722C265.259 253.27 266.654 253.307 267.91 252.826C269.165 252.344 270.178 251.384 270.725 250.156C271.273 248.928 271.31 247.533 270.829 246.278C270.348 245.023 269.387 244.01 268.159 243.462C266.932 242.915 265.536 242.878 264.281 243.359ZM260.772 245.719C261.401 244.307 262.566 243.203 264.009 242.65C265.453 242.096 267.057 242.139 268.469 242.769C269.881 243.398 270.985 244.563 271.538 246.006C272.091 247.45 272.048 249.054 271.419 250.466C270.79 251.877 269.625 252.981 268.182 253.535C266.738 254.088 265.134 254.045 263.722 253.416C262.31 252.786 261.206 251.622 260.653 250.178C260.1 248.735 260.142 247.131 260.772 245.719Z" fill="#69AEFF"/>
<path d="M282.378 248.091C282.378 248.869 281.747 249.5 280.969 249.5C280.191 249.5 279.56 248.869 279.56 248.091C279.56 247.313 280.191 246.682 280.969 246.682C281.747 246.682 282.378 247.313 282.378 248.091Z" fill="#69AEFF"/>
<path d="M252.629 248.091C252.629 248.869 251.998 249.5 251.22 249.5C250.442 249.5 249.812 248.869 249.812 248.091C249.812 247.313 250.442 246.682 251.22 246.682C251.998 246.682 252.629 247.313 252.629 248.091Z" fill="#69AEFF"/>
<path fill-rule="evenodd" clip-rule="evenodd" d="M309.981 246.683C309.981 246.581 310.022 246.484 310.094 246.413L313.126 243.413C313.197 243.342 313.293 243.303 313.393 243.303H319.525C319.734 243.303 319.904 243.473 319.904 243.683V249.682C319.904 249.892 319.734 250.062 319.525 250.062H313.393C313.293 250.062 313.197 250.023 313.126 249.952L310.094 246.953C310.022 246.881 309.981 246.784 309.981 246.683ZM313.549 249.303H319.145V244.062H313.549L310.901 246.683L313.549 249.303Z" fill="#69AEFF"/>
<path fill-rule="evenodd" clip-rule="evenodd" d="M303.009 246.683C303.009 246.581 302.968 246.484 302.896 246.413L299.865 243.413C299.793 243.342 299.697 243.303 299.597 243.303H293.466C293.256 243.303 293.086 243.473 293.086 243.683V249.682C293.086 249.892 293.256 250.062 293.466 250.062H299.597C299.697 250.062 299.793 250.023 299.865 249.952L302.896 246.953C302.968 246.881 303.009 246.784 303.009 246.683ZM299.441 249.303H293.845V244.062H299.441L302.089 246.683L299.441 249.303Z" fill="#69AEFF"/>
<path fill-rule="evenodd" clip-rule="evenodd" d="M306.495 250.168C306.597 250.168 306.694 250.209 306.765 250.281L309.765 253.313C309.836 253.384 309.875 253.48 309.875 253.58V259.712C309.875 259.921 309.705 260.091 309.495 260.091H303.495C303.286 260.091 303.116 259.921 303.116 259.712V253.58C303.116 253.48 303.155 253.384 303.225 253.313L306.225 250.281C306.297 250.209 306.394 250.168 306.495 250.168ZM303.875 253.736V259.332H309.115V253.736L306.495 251.088L303.875 253.736Z" fill="#69AEFF"/>
<path fill-rule="evenodd" clip-rule="evenodd" d="M306.495 243.196C306.597 243.196 306.694 243.155 306.765 243.083L309.765 240.051C309.836 239.98 309.875 239.884 309.875 239.784V233.653C309.875 233.443 309.705 233.273 309.495 233.273H303.495C303.286 233.273 303.116 233.443 303.116 233.653V239.784C303.116 239.884 303.155 239.98 303.225 240.051L306.225 243.083C306.297 243.155 306.394 243.196 306.495 243.196ZM303.875 239.628V234.032H309.115V239.628L306.495 242.276L303.875 239.628Z" fill="#69AEFF"/>
</g>
<defs>
<linearGradient id="paint0_linear" x1="384" y1="0.300293" x2="384" y2="410.8" gradientUnits="userSpaceOnUse">
<stop stop-color="#4B5DFF"/>
<stop offset="1" stop-color="#4B93FF"/>
</linearGradient>
<linearGradient id="paint1_linear" x1="384" y1="0.300293" x2="384" y2="410.8" gradientUnits="userSpaceOnUse">
<stop stop-color="#4B5DFF"/>
<stop offset="1" stop-color="#4B93FF"/>
</linearGradient>
</defs>
</svg>
