<svg width="1365" height="305" viewBox="0 0 1365 305" fill="none" xmlns="http://www.w3.org/2000/svg">
<path d="M0 0H1345C1356.05 0 1365 8.9543 1365 20V285C1365 296.046 1356.05 305 1345 305H20C8.9543 305 0 296.046 0 285V0Z" fill="url(#paint0_linear)"/>
<mask id="mask0" mask-type="alpha" maskUnits="userSpaceOnUse" x="0" y="0" width="1365" height="305">
<path d="M0 0H1345C1356.05 0 1365 8.9543 1365 20V285C1365 296.046 1356.05 305 1345 305H20C8.9543 305 0 296.046 0 285V0Z" fill="url(#paint1_linear)"/>
</mask>
<g mask="url(#mask0)">
<path fill-rule="evenodd" clip-rule="evenodd" d="M1085.7 53.6416H983.459C981.084 53.6416 979.16 55.5661 979.16 57.9402V247.057C979.16 249.431 981.084 251.356 983.458 251.356H1085.7C1088.07 251.356 1090 249.431 1090 247.057V57.9402C1090 55.5661 1088.07 53.6416 1085.7 53.6416ZM983.459 52.2087C980.293 52.2087 977.727 54.7748 977.727 57.9402V247.057C977.727 250.223 980.293 252.789 983.458 252.789H1085.7C1088.86 252.789 1091.43 250.223 1091.43 247.057V57.9402C1091.43 54.7748 1088.86 52.2087 1085.7 52.2087H983.459Z" fill="#69AEFF"/>
<path fill-rule="evenodd" clip-rule="evenodd" d="M987.854 80.1978C987.854 79.9209 988.079 79.6963 988.356 79.6963H1080.8C1081.08 79.6963 1081.3 79.9209 1081.3 80.1978V216.639C1081.3 216.916 1081.08 217.14 1080.8 217.14H988.356C988.079 217.14 987.854 216.916 987.854 216.639V80.1978ZM988.857 80.6994V216.137H1080.3V80.6994H988.857Z" fill="#69AEFF"/>
<path fill-rule="evenodd" clip-rule="evenodd" d="M1035.23 225.474C1033.55 225.331 1031.86 225.741 1030.43 226.641C1029 227.54 1027.9 228.881 1027.3 230.461C1026.69 232.041 1026.62 233.774 1027.09 235.399C1027.56 237.023 1028.54 238.451 1029.9 239.467C1031.25 240.483 1032.89 241.032 1034.58 241.031C1036.27 241.029 1037.92 240.478 1039.27 239.46C1040.62 238.442 1041.6 237.012 1042.07 235.387C1042.53 233.761 1042.46 232.028 1041.85 230.449C1041.75 230.191 1041.88 229.901 1042.14 229.802C1042.4 229.703 1042.69 229.832 1042.79 230.091C1043.47 231.873 1043.56 233.829 1043.03 235.663C1042.51 237.498 1041.4 239.112 1039.87 240.261C1038.35 241.41 1036.49 242.032 1034.58 242.034C1032.68 242.035 1030.82 241.416 1029.29 240.269C1027.77 239.122 1026.66 237.51 1026.13 235.677C1025.6 233.843 1025.68 231.887 1026.36 230.104C1027.04 228.32 1028.28 226.807 1029.9 225.791C1031.51 224.776 1033.42 224.314 1035.32 224.474C1035.59 224.498 1035.8 224.74 1035.78 225.016C1035.75 225.292 1035.51 225.497 1035.23 225.474Z" fill="#69AEFF"/>
<path fill-rule="evenodd" clip-rule="evenodd" d="M1025.39 68.6182C1025.39 68.3412 1025.62 68.1167 1025.9 68.1167H1051.71C1051.99 68.1167 1052.22 68.3412 1052.22 68.6182C1052.22 68.8952 1051.99 69.1197 1051.71 69.1197H1025.9C1025.62 69.1197 1025.39 68.8952 1025.39 68.6182Z" fill="#69AEFF"/>
<path fill-rule="evenodd" clip-rule="evenodd" d="M1016.44 66.7872C1016.44 66.5102 1016.66 66.2857 1016.94 66.2857H1018.85C1019.12 66.2857 1019.35 66.5102 1019.35 66.7872C1019.35 67.0642 1019.12 67.2887 1018.85 67.2887H1016.94C1016.66 67.2887 1016.44 67.0642 1016.44 66.7872Z" fill="#69AEFF"/>
<path fill-rule="evenodd" clip-rule="evenodd" d="M988.047 81.4107C988.243 81.2149 988.56 81.2149 988.756 81.4107H988.413L1040.58 133.577C1040.78 133.773 1040.78 134.09 1040.58 134.286C1040.38 134.482 1040.07 134.482 1039.87 134.286L988.413 82.8292L988.047 82.1199C987.851 81.9241 987.851 81.6066 988.047 81.4107Z" fill="#69AEFF"/>
<path fill-rule="evenodd" clip-rule="evenodd" d="M1081.16 208.301C1080.96 208.499 1080.65 208.503 1080.45 208.31L1004.01 133.764C1003.81 133.571 1003.81 133.253 1004 133.055C1004.2 132.857 1004.51 132.853 1004.71 133.046L1081.15 207.592C1081.35 207.785 1081.35 208.102 1081.16 208.301Z" fill="#69AEFF"/>
<path fill-rule="evenodd" clip-rule="evenodd" d="M1081.16 174.805C1080.96 175.002 1080.64 175.003 1080.45 174.809L1049.48 144.151C1049.28 143.956 1049.28 143.639 1049.47 143.442C1049.67 143.245 1049.98 143.243 1050.18 143.438L1081.15 174.096C1081.35 174.291 1081.35 174.608 1081.16 174.805Z" fill="#69AEFF"/>
<path fill-rule="evenodd" clip-rule="evenodd" d="M624.218 53.6436H476.866C476.074 53.6436 475.433 54.2851 475.433 55.0764V249.925C475.433 250.716 476.074 251.358 476.866 251.358H624.218C625.009 251.358 625.651 250.716 625.651 249.925V55.0764C625.651 54.2851 625.009 53.6436 624.218 53.6436ZM476.866 52.2107C475.283 52.2107 474 53.4937 474 55.0764V249.925C474 251.508 475.283 252.791 476.866 252.791H624.218C625.8 252.791 627.083 251.508 627.083 249.925V55.0764C627.083 53.4937 625.8 52.2107 624.218 52.2107H476.866Z" fill="#69AEFF"/>
<path fill-rule="evenodd" clip-rule="evenodd" d="M484.577 76.1169C484.577 75.84 484.801 75.6154 485.078 75.6154H616.004C616.281 75.6154 616.506 75.84 616.506 76.1169V222.616C616.506 222.893 616.281 223.118 616.004 223.118H485.078C484.801 223.118 484.577 222.893 484.577 222.616V76.1169ZM485.58 76.6184V222.115H615.503V76.6184H485.58Z" fill="#69AEFF"/>
<path fill-rule="evenodd" clip-rule="evenodd" d="M550.307 230.142C549.101 230.04 547.894 230.333 546.87 230.977C545.845 231.621 545.058 232.581 544.626 233.711C544.195 234.842 544.143 236.082 544.478 237.245C544.814 238.408 545.519 239.43 546.486 240.157C547.453 240.884 548.631 241.277 549.841 241.276C551.052 241.275 552.229 240.881 553.195 240.152C554.161 239.423 554.864 238.4 555.198 237.237C555.531 236.073 555.478 234.833 555.044 233.703C554.945 233.444 555.075 233.154 555.333 233.055C555.592 232.956 555.882 233.085 555.981 233.344C556.492 234.677 556.556 236.141 556.162 237.513C555.768 238.886 554.939 240.093 553.799 240.953C552.659 241.812 551.27 242.278 549.842 242.279C548.414 242.28 547.025 241.817 545.883 240.959C544.742 240.101 543.911 238.895 543.515 237.523C543.119 236.151 543.18 234.688 543.689 233.354C544.198 232.02 545.127 230.887 546.336 230.128C547.545 229.368 548.968 229.022 550.391 229.142C550.667 229.166 550.872 229.408 550.849 229.684C550.825 229.96 550.583 230.165 550.307 230.142Z" fill="#69AEFF"/>
<path fill-rule="evenodd" clip-rule="evenodd" d="M544.016 65.822C544.016 65.545 544.241 65.3205 544.518 65.3205H568.074C568.351 65.3205 568.576 65.545 568.576 65.822C568.576 66.099 568.351 66.3235 568.074 66.3235H544.518C544.241 66.3235 544.016 66.099 544.016 65.822Z" fill="#69AEFF"/>
<path fill-rule="evenodd" clip-rule="evenodd" d="M532.508 65.822C532.508 65.545 532.733 65.3205 533.01 65.3205H534.917C535.194 65.3205 535.418 65.545 535.418 65.822C535.418 66.099 535.194 66.3235 534.917 66.3235H533.01C532.733 66.3235 532.508 66.099 532.508 65.822Z" fill="#69AEFF"/>
<path fill-rule="evenodd" clip-rule="evenodd" d="M493.46 75.7623C493.656 75.5665 493.973 75.5665 494.169 75.7623L547.903 129.496C548.099 129.692 548.099 130.009 547.903 130.205C547.707 130.401 547.39 130.401 547.194 130.205L493.46 76.4715C493.264 76.2757 493.264 75.9582 493.46 75.7623Z" fill="#69AEFF"/>
<path fill-rule="evenodd" clip-rule="evenodd" d="M600.548 214.758C600.355 214.956 600.037 214.96 599.839 214.767L523.402 140.221C523.203 140.028 523.2 139.71 523.393 139.512C523.586 139.314 523.904 139.31 524.102 139.503L600.539 214.049C600.737 214.242 600.741 214.559 600.548 214.758Z" fill="#69AEFF"/>
<path fill-rule="evenodd" clip-rule="evenodd" d="M589.715 166.282C589.52 166.479 589.202 166.481 589.005 166.286L558.036 135.628C557.839 135.433 557.837 135.116 558.032 134.919C558.227 134.722 558.544 134.721 558.741 134.916L589.711 165.573C589.908 165.768 589.91 166.085 589.715 166.282Z" fill="#69AEFF"/>
<path fill-rule="evenodd" clip-rule="evenodd" d="M1438.36 53.3811H1179.9C1179.11 53.3811 1178.47 54.0226 1178.47 54.814V229.14H1439.79V54.814C1439.79 54.0226 1439.15 53.3811 1438.36 53.3811ZM1179.9 51.9482C1178.32 51.9482 1177.04 53.2313 1177.04 54.814V230.573H1441.22V54.814C1441.22 53.2313 1439.94 51.9482 1438.36 51.9482H1179.9Z" fill="#69AEFF"/>
<path fill-rule="evenodd" clip-rule="evenodd" d="M1450.83 251.619H1167.43C1163.47 251.619 1160.26 248.411 1160.26 244.454V230.578H1458V244.454C1458 248.411 1454.79 251.619 1450.83 251.619ZM1167.43 253.052C1162.68 253.052 1158.83 249.202 1158.83 244.454V229.145H1459.43V244.454C1459.43 249.202 1455.58 253.052 1450.83 253.052H1167.43Z" fill="#69AEFF"/>
<path fill-rule="evenodd" clip-rule="evenodd" d="M1186.9 71.1906C1186.9 70.9136 1187.12 70.6891 1187.4 70.6891H1430.86C1431.14 70.6891 1431.36 70.9136 1431.36 71.1906V222.354C1431.36 222.631 1431.14 222.856 1430.86 222.856H1187.4C1187.12 222.856 1186.9 222.631 1186.9 222.354V71.1906ZM1187.9 71.6921V221.853H1430.36V71.6921H1187.9Z" fill="#69AEFF"/>
<path fill-rule="evenodd" clip-rule="evenodd" d="M1307.67 62.5171C1307.67 62.2401 1307.9 62.0156 1308.18 62.0156H1310.08C1310.36 62.0156 1310.58 62.2401 1310.58 62.5171C1310.58 62.794 1310.36 63.0186 1310.08 63.0186H1308.18C1307.9 63.0186 1307.67 62.794 1307.67 62.5171Z" fill="#69AEFF"/>
<path fill-rule="evenodd" clip-rule="evenodd" d="M1253.8 71.57C1253.99 71.3742 1254.31 71.3742 1254.51 71.57L1308.24 125.304C1308.44 125.499 1308.44 125.817 1308.24 126.013C1308.04 126.209 1307.73 126.209 1307.53 126.013L1253.8 72.2793C1253.6 72.0834 1253.6 71.7659 1253.8 71.57Z" fill="#69AEFF"/>
<path fill-rule="evenodd" clip-rule="evenodd" d="M1334.42 182.572C1334.23 182.771 1333.91 182.775 1333.71 182.581L1257.28 108.036C1257.08 107.843 1257.07 107.525 1257.27 107.327C1257.46 107.128 1257.78 107.124 1257.98 107.318L1334.41 181.863C1334.61 182.057 1334.62 182.374 1334.42 182.572Z" fill="#69AEFF"/>
<path fill-rule="evenodd" clip-rule="evenodd" d="M1373.23 221.126C1373.03 221.322 1372.72 221.324 1372.52 221.129L1341.55 190.472C1341.35 190.277 1341.35 189.959 1341.55 189.763C1341.74 189.566 1342.06 189.564 1342.26 189.759L1373.23 220.416C1373.42 220.611 1373.42 220.929 1373.23 221.126Z" fill="#69AEFF"/>
<path fill-rule="evenodd" clip-rule="evenodd" d="M1350.05 162.089C1349.86 162.286 1349.54 162.287 1349.34 162.092L1318.37 131.435C1318.18 131.24 1318.17 130.923 1318.37 130.726C1318.56 130.529 1318.88 130.527 1319.08 130.722L1350.05 161.379C1350.25 161.574 1350.25 161.892 1350.05 162.089Z" fill="#69AEFF"/>
<path fill-rule="evenodd" clip-rule="evenodd" d="M769.945 133.898C769.945 133.542 770.234 133.253 770.59 133.253H780.204C780.56 133.253 780.848 133.542 780.848 133.898V145.088L792.456 145.088C792.812 145.088 793.101 145.377 793.101 145.733V155.574C793.101 155.93 792.812 156.218 792.456 156.218L780.848 156.218V168.225C780.848 168.581 780.56 168.869 780.204 168.869H770.59C770.234 168.869 769.945 168.581 769.945 168.225L769.945 156.218H758.129C757.773 156.218 757.485 155.93 757.485 155.574V145.733C757.485 145.377 757.773 145.088 758.129 145.088H769.945L769.945 133.898ZM770.948 134.256L770.948 145.446C770.948 145.803 770.659 146.091 770.303 146.091H758.488V155.215H770.303C770.659 155.215 770.948 155.504 770.948 155.86L770.948 167.866H779.845V155.86C779.845 155.504 780.134 155.215 780.49 155.215L792.098 155.215V146.091L780.49 146.091C780.134 146.091 779.845 145.802 779.845 145.446V134.256H770.948Z" fill="#69AEFF"/>
<path fill-rule="evenodd" clip-rule="evenodd" d="M745.998 75.4001C756.05 76.1326 766.893 81.8513 778.722 88.143C786.921 92.5041 797.341 93.6886 802.405 93.7647C807.469 93.6886 817.89 92.5041 826.089 88.143C837.917 81.8513 848.761 76.1326 858.813 75.4001C863.873 75.0314 868.746 75.9218 873.447 78.6222C878.138 81.3167 882.614 85.7876 886.935 92.5086C904.164 119.309 911.453 161.974 910.187 201.006C909.982 207.348 909.427 214.106 907.474 219.453C905.511 224.828 902.077 228.912 896.08 229.588C890.63 230.202 886.579 227.708 881.656 222.887C879.425 220.702 876.982 218.007 874.128 214.858C873.835 214.535 873.538 214.207 873.236 213.874C869.989 210.294 866.2 206.151 861.576 201.487C852.324 192.156 846.318 187.897 840.518 185.932C835.415 184.202 830.428 184.225 823.359 184.257C822.364 184.261 821.328 184.266 820.244 184.266H784.566C783.483 184.266 782.446 184.261 781.451 184.257C774.383 184.225 769.396 184.202 764.292 185.932C758.492 187.897 752.487 192.156 743.235 201.487C738.611 206.151 734.822 210.294 731.574 213.874C731.273 214.207 730.975 214.535 730.682 214.858C727.829 218.007 725.386 220.702 723.155 222.887C718.231 227.708 714.181 230.202 708.73 229.588C702.734 228.912 699.299 224.828 697.337 219.453C695.384 214.106 694.829 207.348 694.623 201.006C693.358 161.974 700.647 119.309 717.876 92.5086C722.196 85.7876 726.672 81.3167 731.364 78.6222C736.065 75.9218 740.938 75.0314 745.998 75.4001ZM820.244 182.833C821.32 182.833 822.353 182.828 823.351 182.823C830.384 182.789 835.633 182.763 840.978 184.575C847.104 186.651 853.302 191.108 862.593 200.478C867.24 205.165 871.047 209.328 874.297 212.912C874.598 213.243 874.893 213.569 875.184 213.889C878.047 217.048 880.46 219.71 882.658 221.863C887.497 226.602 891.133 228.704 895.92 228.164C901.176 227.572 904.271 224.048 906.128 218.962C907.995 213.848 908.55 207.293 908.755 200.96C910.017 162.062 902.734 119.734 885.73 93.2835C881.492 86.6918 877.169 82.4124 872.733 79.8647C868.308 77.3227 863.726 76.4788 858.917 76.8292C849.231 77.5351 838.68 83.0688 826.762 89.4081C818.811 93.6372 808.925 94.9591 803.438 95.1698L803.438 95.1973C803.124 95.2027 802.779 95.2031 802.405 95.1976C802.032 95.2031 801.687 95.2027 801.372 95.1973L801.373 95.1698C795.886 94.9591 786 93.6372 778.049 89.4081C766.131 83.0688 755.58 77.5351 745.894 76.8292C741.085 76.4788 736.503 77.3227 732.077 79.8647C727.642 82.4124 723.318 86.6918 719.081 93.2835C702.077 119.734 694.794 162.062 696.055 200.96C696.261 207.293 696.815 213.848 698.682 218.962C700.54 224.048 703.635 227.572 708.891 228.164C713.677 228.704 717.313 226.602 722.153 221.863C724.351 219.71 726.764 217.048 729.627 213.889C729.918 213.568 730.213 213.242 730.513 212.912C733.764 209.328 737.57 205.165 742.218 200.478C751.508 191.108 757.706 186.651 763.832 184.575C769.178 182.763 774.427 182.789 781.459 182.823C782.457 182.828 783.491 182.833 784.566 182.833H820.244Z" fill="#69AEFF"/>
<path fill-rule="evenodd" clip-rule="evenodd" d="M829.641 138.827C826.986 138.602 824.33 139.248 822.074 140.665C819.818 142.083 818.084 144.196 817.134 146.685C816.185 149.175 816.07 151.906 816.809 154.466C817.548 157.026 819.099 159.276 821.229 160.877C823.359 162.478 825.952 163.342 828.616 163.34C831.281 163.338 833.872 162.469 836 160.865C838.127 159.261 839.675 157.008 840.409 154.447C841.144 151.886 841.025 149.155 840.072 146.667C839.973 146.408 840.102 146.118 840.361 146.019C840.619 145.92 840.909 146.049 841.008 146.308C842.04 148.999 842.168 151.953 841.373 154.723C840.579 157.494 838.905 159.931 836.604 161.666C834.302 163.401 831.499 164.341 828.617 164.343C825.735 164.346 822.93 163.41 820.626 161.679C818.322 159.947 816.644 157.513 815.845 154.744C815.046 151.974 815.17 149.021 816.197 146.328C817.225 143.635 819.1 141.349 821.54 139.816C823.981 138.282 826.854 137.584 829.725 137.827C830.001 137.851 830.206 138.093 830.183 138.369C830.16 138.645 829.917 138.85 829.641 138.827Z" fill="#69AEFF"/>
<path fill-rule="evenodd" clip-rule="evenodd" d="M745.214 100.984C742.559 100.759 739.903 101.405 737.647 102.822C735.391 104.24 733.657 106.353 732.707 108.842C731.757 111.332 731.643 114.063 732.382 116.623C733.121 119.183 734.672 121.433 736.802 123.034C738.932 124.635 741.525 125.5 744.189 125.497C746.854 125.495 749.445 124.627 751.572 123.022C753.7 121.418 755.248 119.165 755.982 116.604C756.717 114.043 756.598 111.312 755.645 108.824C755.545 108.565 755.675 108.275 755.933 108.176C756.192 108.077 756.482 108.207 756.581 108.465C757.613 111.156 757.741 114.11 756.946 116.881C756.152 119.651 754.477 122.088 752.176 123.823C749.875 125.558 747.072 126.498 744.19 126.5C741.308 126.503 738.503 125.567 736.199 123.836C733.895 122.104 732.217 119.67 731.418 116.901C730.619 114.132 730.743 111.178 731.77 108.485C732.797 105.792 734.673 103.506 737.113 101.973C739.553 100.44 742.426 99.7416 745.298 99.9844C745.574 100.008 745.779 100.25 745.756 100.526C745.732 100.802 745.49 101.007 745.214 100.984Z" fill="#69AEFF"/>
<path fill-rule="evenodd" clip-rule="evenodd" d="M800.207 111.034C798.549 111.669 797.212 112.937 796.489 114.559C795.766 116.18 795.717 118.022 796.352 119.68C796.988 121.338 798.256 122.675 799.877 123.398C801.499 124.121 803.341 124.17 804.999 123.535C806.657 122.899 807.994 121.631 808.717 120.01C809.44 118.388 809.489 116.546 808.854 114.888C808.218 113.231 806.95 111.893 805.329 111.17C803.707 110.447 801.865 110.398 800.207 111.034ZM795.573 114.15C796.404 112.286 797.942 110.828 799.848 110.097C801.754 109.366 803.873 109.423 805.737 110.254C807.602 111.085 809.06 112.623 809.79 114.529C810.521 116.436 810.464 118.554 809.633 120.418C808.802 122.283 807.264 123.741 805.358 124.471C803.452 125.202 801.333 125.146 799.469 124.314C797.604 123.483 796.147 121.945 795.416 120.039C794.685 118.133 794.742 116.015 795.573 114.15Z" fill="#69AEFF"/>
<path d="M824.105 117.283C824.105 118.31 823.272 119.143 822.244 119.143C821.217 119.143 820.384 118.31 820.384 117.283C820.384 116.255 821.217 115.422 822.244 115.422C823.272 115.422 824.105 116.255 824.105 117.283Z" fill="#69AEFF"/>
<path d="M784.82 117.283C784.82 118.31 783.987 119.143 782.96 119.143C781.932 119.143 781.1 118.31 781.1 117.283C781.1 116.255 781.932 115.422 782.96 115.422C783.987 115.422 784.82 116.255 784.82 117.283Z" fill="#69AEFF"/>
<path fill-rule="evenodd" clip-rule="evenodd" d="M860.557 115.423C860.557 115.289 860.61 115.16 860.706 115.066L864.709 111.105C864.803 111.012 864.93 110.96 865.062 110.96H873.159C873.436 110.96 873.66 111.184 873.66 111.461V119.384C873.66 119.661 873.436 119.886 873.159 119.886H865.062C864.93 119.886 864.803 119.834 864.709 119.741L860.706 115.779C860.61 115.685 860.557 115.557 860.557 115.423ZM865.268 118.883H872.657V111.963H865.268L861.771 115.423L865.268 118.883Z" fill="#69AEFF"/>
<path fill-rule="evenodd" clip-rule="evenodd" d="M851.349 115.423C851.349 115.289 851.296 115.16 851.2 115.066L847.197 111.105C847.103 111.012 846.976 110.96 846.844 110.96H838.747C838.47 110.96 838.245 111.184 838.245 111.461V119.384C838.245 119.661 838.47 119.886 838.747 119.886H846.844C846.976 119.886 847.103 119.834 847.197 119.741L851.2 115.779C851.296 115.685 851.349 115.557 851.349 115.423ZM846.638 118.883H839.248V111.963H846.638L850.135 115.423L846.638 118.883Z" fill="#69AEFF"/>
<path fill-rule="evenodd" clip-rule="evenodd" d="M855.953 120.026C856.087 120.026 856.215 120.08 856.31 120.175L860.271 124.178C860.364 124.272 860.416 124.399 860.416 124.531V132.628C860.416 132.905 860.192 133.13 859.915 133.13H851.992C851.715 133.13 851.49 132.905 851.49 132.628V124.531C851.49 124.399 851.542 124.272 851.635 124.178L855.597 120.175C855.691 120.08 855.819 120.026 855.953 120.026ZM852.493 124.737V132.127H859.413V124.737L855.953 121.24L852.493 124.737Z" fill="#69AEFF"/>
<path fill-rule="evenodd" clip-rule="evenodd" d="M855.953 110.818C856.087 110.818 856.215 110.765 856.31 110.67L860.271 106.666C860.364 106.572 860.416 106.445 860.416 106.313V98.2161C860.416 97.9391 860.192 97.7146 859.915 97.7146H851.992C851.715 97.7146 851.49 97.9391 851.49 98.2161V106.313C851.49 106.445 851.542 106.572 851.635 106.666L855.597 110.67C855.691 110.765 855.819 110.818 855.953 110.818ZM852.493 106.107V98.7176H859.413V106.107L855.953 109.604L852.493 106.107Z" fill="#69AEFF"/>
</g>
<defs>
<linearGradient id="paint0_linear" x1="682.5" y1="0" x2="682.5" y2="305" gradientUnits="userSpaceOnUse">
<stop stop-color="#4B5DFF"/>
<stop offset="1" stop-color="#4B93FF"/>
</linearGradient>
<linearGradient id="paint1_linear" x1="682.5" y1="0" x2="682.5" y2="305" gradientUnits="userSpaceOnUse">
<stop stop-color="#4B5DFF"/>
<stop offset="1" stop-color="#4B93FF"/>
</linearGradient>
</defs>
</svg>
