<svg width="51" height="76" viewBox="0 0 51 76" fill="none" xmlns="http://www.w3.org/2000/svg">
<path fill-rule="evenodd" clip-rule="evenodd" d="M16.0743 0.277139L15.7317 0.641331L15.4471 0.230231L15.7797 0L16.0743 0.277139ZM20.1214 10.18C20.1712 13.3001 19.0754 15.5998 17.964 17.1176C17.4093 17.875 16.851 18.4378 16.4288 18.813C16.2176 19.0008 16.0399 19.142 15.9131 19.2376C15.8497 19.2855 15.7989 19.3219 15.7629 19.3471C15.7449 19.3597 15.7306 19.3695 15.7203 19.3765L15.7078 19.3849L15.7038 19.3875L15.7024 19.3884C15.7022 19.3886 15.7014 19.3891 15.428 18.9704C15.1318 19.3733 15.1316 19.3731 15.1314 19.373L15.1297 19.3717L15.1259 19.3689L15.1137 19.3597C15.1072 19.3548 15.099 19.3485 15.0892 19.341C15.0837 19.3367 15.0776 19.332 15.071 19.3269C15.0347 19.2987 14.9831 19.2576 14.9184 19.204C14.7889 19.0968 14.6066 18.9391 14.3889 18.732C13.9539 18.3183 13.3753 17.7058 12.794 16.9047C11.6317 15.3031 10.4484 12.933 10.4002 9.88881C10.3518 6.82469 11.6223 4.40697 12.8855 2.76914C13.5178 1.94925 14.1528 1.31862 14.6309 0.891988C14.8702 0.678438 15.0709 0.515327 15.2133 0.404532C15.2845 0.349117 15.3413 0.306734 15.381 0.277618C15.4009 0.263058 15.4166 0.25181 15.4277 0.243904L15.4409 0.234552L15.4449 0.231761L15.4471 0.230231C15.4473 0.230092 15.4471 0.230231 15.7317 0.641331C16.0743 0.277139 16.0741 0.276974 16.0743 0.277139L16.0761 0.2789L16.0794 0.281981L16.0899 0.292087C16.0987 0.300574 16.111 0.312554 16.1265 0.327993C16.1577 0.358868 16.2019 0.403592 16.2573 0.461881C16.3682 0.578435 16.5242 0.749378 16.7104 0.972458C17.0826 1.41836 17.5768 2.07408 18.0734 2.92151C19.0663 4.61588 20.0736 7.08633 20.1214 10.18ZM15.428 18.9704L15.1314 19.373L15.4111 19.5787L15.7014 19.3891L15.428 18.9704ZM15.4421 18.3375C15.5328 18.2652 15.6418 18.1746 15.7645 18.0656C16.1436 17.7286 16.6515 17.2173 17.1572 16.5268C18.1663 15.1486 19.1672 13.0572 19.1215 10.196C19.0771 7.3155 18.1396 5.01242 17.2106 3.42708C16.7463 2.63463 16.2854 2.02388 15.9427 1.61326C15.8446 1.49574 15.7562 1.39475 15.6804 1.31071C15.5727 1.39824 15.443 1.50755 15.2967 1.63807C14.8545 2.03276 14.2643 2.61872 13.6773 3.37986C12.5017 4.90407 11.3564 7.10616 11.4001 9.87301C11.4441 12.6565 12.5247 14.8312 13.6033 16.3174C14.1424 17.0602 14.6785 17.6274 15.0781 18.0074C15.2185 18.141 15.3418 18.2512 15.4421 18.3375ZM26.033 13.8765L25.6409 14.1869L25.4202 13.7382L25.7824 13.56L26.033 13.8765ZM28.0375 24.5805C27.1 27.4799 25.2746 29.4006 23.6942 30.5921C22.9037 31.188 22.171 31.6043 21.6339 31.8725C21.3651 32.0067 21.1446 32.1041 20.9894 32.1687C20.9118 32.201 20.8504 32.2251 20.8075 32.2415C20.786 32.2497 20.7691 32.2559 20.757 32.2603L20.7426 32.2655L20.7382 32.2671L20.7367 32.2676C20.7365 32.2677 20.7357 32.268 20.5706 31.796C20.1867 32.1164 20.1865 32.1162 20.1863 32.116L20.1848 32.1142L20.1818 32.1105L20.1723 32.0988C20.1645 32.0891 20.1536 32.0756 20.1401 32.0583C20.1131 32.0237 20.0752 31.9739 20.0285 31.9096C19.9352 31.7811 19.8066 31.594 19.6595 31.3527C19.3655 30.8705 18.9961 30.169 18.6871 29.2827C18.0679 27.5066 17.6921 24.9876 18.6515 22.0205C19.6073 19.0738 21.2936 17.0067 22.7378 15.6784C23.4601 15.014 24.1239 14.5325 24.6096 14.2158C24.8526 14.0573 25.0515 13.9398 25.1914 13.861C25.2614 13.8216 25.3167 13.7918 25.3554 13.7715C25.3748 13.7613 25.39 13.7534 25.4009 13.7479L25.4139 13.7413L25.4179 13.7393L25.4202 13.7382C25.4204 13.7381 25.4202 13.7382 25.6409 14.1869C26.033 13.8765 26.0328 13.8763 26.033 13.8765L26.0336 13.8774L26.0346 13.8786L26.0376 13.8825L26.0476 13.8953C26.0559 13.9061 26.0676 13.9214 26.0824 13.9411C26.1119 13.9806 26.1539 14.0377 26.2059 14.1115C26.3099 14.259 26.4544 14.4736 26.6211 14.7477C26.9542 15.2953 27.3779 16.0836 27.7435 17.052C28.4739 18.9863 28.9824 21.6683 28.0375 24.5805ZM20.5706 31.796L20.1863 32.116L20.4087 32.3824L20.7357 32.268L20.5706 31.796ZM20.7423 31.1868C20.6767 31.0911 20.5989 30.9725 20.5134 30.8322C20.2493 30.3991 19.9131 29.7616 19.6314 28.9535C19.0691 27.3407 18.7233 25.0487 19.603 22.3281C20.4932 19.5838 22.0638 17.6569 23.4148 16.4144C24.0902 15.7932 24.7087 15.345 25.1559 15.0534C25.2838 14.9699 25.3976 14.8994 25.4945 14.8414C25.5721 14.9567 25.6646 15.0994 25.7668 15.2674C26.0749 15.7739 26.4686 16.5064 26.808 17.4052C27.4876 19.2052 27.9394 21.6432 27.0863 24.2718C26.2291 26.9235 24.5587 28.688 23.0922 29.7936C22.3592 30.3462 21.6806 30.7315 21.1872 30.9778C21.0137 31.0644 20.8635 31.1337 20.7423 31.1868ZM1.56907 15.3182L1.48618 15.8113L1.0213 15.6272L1.17021 15.2512L1.56907 15.3182ZM1.8149 16.3966C1.77376 16.5295 1.72631 16.6928 1.67689 16.883C1.52766 17.4573 1.36142 18.2729 1.29489 19.2323C1.16165 21.1534 1.42954 23.6201 2.99965 25.8926C4.58222 28.189 6.68978 29.4007 8.41282 30.0391C9.27406 30.3582 10.0353 30.5324 10.5789 30.6267C10.77 30.6599 10.9338 30.6831 11.0652 30.6992C11.1005 30.5886 11.1408 30.4526 11.1823 30.2936C11.3104 29.8024 11.4489 29.0946 11.4861 28.239C11.5604 26.5314 11.2323 24.2355 9.6083 21.882C7.96952 19.5078 5.91154 18.1115 4.25984 17.308C3.4342 16.9063 2.71249 16.654 2.20004 16.5026C2.05358 16.4594 1.92438 16.4244 1.8149 16.3966ZM11.4051 31.2334C11.3825 31.7329 11.3823 31.7329 11.3821 31.7329L11.3799 31.7328L11.3752 31.7325L11.3599 31.7317C11.3471 31.7309 11.3291 31.7298 11.3062 31.7281C11.2603 31.7248 11.1945 31.7193 11.1108 31.7107C10.9435 31.6934 10.7042 31.6634 10.408 31.612C9.81606 31.5094 8.99423 31.3209 8.06541 30.9768C6.20833 30.2888 3.90715 28.9717 2.17658 26.4606C0.437263 23.9429 0.154149 21.227 0.297282 19.1631C0.368941 18.1298 0.547749 17.2522 0.709016 16.6315C0.789746 16.3208 0.866326 16.0735 0.923416 15.9022C0.951966 15.8165 0.975666 15.7497 0.992606 15.7033C1.00109 15.6802 1.00787 15.6621 1.01273 15.6494L1.01855 15.6342L1.02032 15.6297L1.0213 15.6272C1.02139 15.627 1.0213 15.6272 1.48618 15.8113C1.56907 15.3182 1.56883 15.3182 1.56907 15.3182L1.5716 15.3186L1.57601 15.3194L1.59037 15.322C1.60238 15.3241 1.61924 15.3273 1.64073 15.3315C1.68371 15.3399 1.74525 15.3526 1.82365 15.3703C1.98042 15.4057 2.20482 15.4613 2.48327 15.5436C3.03987 15.7079 3.81435 15.9792 4.69732 16.4087C6.46281 17.2676 8.67163 18.7647 10.4313 21.314C12.2024 23.8806 12.5669 26.4024 12.4851 28.2825C12.4443 29.2207 12.2925 29.9992 12.1499 30.546C12.0786 30.8195 12.0093 31.0358 11.957 31.1859C11.9308 31.2609 11.9088 31.3194 11.8929 31.3604C11.885 31.3809 11.8785 31.397 11.8738 31.4085L11.8681 31.4224L11.8662 31.4268L11.8656 31.4283C11.8655 31.4286 11.8651 31.4295 11.4051 31.2334ZM11.4051 31.2334L11.3821 31.7329L11.7291 31.7486L11.8651 31.4295L11.4051 31.2334ZM15.3068 22.7678C15.5819 22.7921 15.7852 23.0348 15.7609 23.3099C14.9576 32.3972 19.9893 53.8386 45.0335 67.8878C45.2744 68.0229 45.3601 68.3277 45.225 68.5685C45.0899 68.8093 44.7851 68.8951 44.5443 68.76C19.148 54.5133 13.9277 32.6908 14.7648 23.2218C14.7891 22.9467 15.0318 22.7434 15.3068 22.7678ZM28.5133 28.8067L28.1654 29.1658L27.8879 28.7498L28.2236 28.5259L28.5133 28.8067ZM25.4391 47.2868C25.1004 47.6545 25.1002 47.6543 25.1 47.6541L25.0982 47.6526L25.0948 47.6493L25.0838 47.639C25.0748 47.6304 25.0623 47.6184 25.0467 47.603C25.0154 47.5723 24.9713 47.528 24.9167 47.4704C24.8075 47.3552 24.6557 47.1867 24.4786 46.9669C24.1245 46.5275 23.6671 45.8807 23.2455 45.0425C22.4005 43.3628 21.6996 40.9144 22.262 37.8444C22.8255 34.7973 24.2266 32.5276 25.484 31.0225C26.1129 30.2697 26.7075 29.706 27.1473 29.3287C27.3673 29.14 27.549 28.9976 27.6773 28.9013C27.7415 28.8531 27.7924 28.8164 27.8281 28.7912C27.8459 28.7786 27.86 28.7688 27.8701 28.7619L27.8821 28.7537L27.8858 28.7512L27.8871 28.7504L27.8879 28.7498C27.8881 28.7497 27.8879 28.7498 28.1654 29.1658C28.5133 28.8067 28.5131 28.8065 28.5133 28.8067L28.5141 28.8074L28.5152 28.8086L28.5187 28.812L28.5302 28.8234C28.5354 28.8285 28.5418 28.8349 28.5492 28.8423C28.5556 28.8488 28.5628 28.8561 28.5707 28.8642C28.6052 28.8995 28.6542 28.9505 28.7154 29.0168C28.8378 29.1494 29.0091 29.3431 29.2102 29.5928C29.6119 30.0917 30.1351 30.8176 30.6246 31.7297C31.6024 33.5519 32.4594 36.1448 31.9089 39.1605L31.9087 39.1618C31.3544 42.1542 29.7931 44.296 28.3806 45.6837C27.674 46.3778 27.0016 46.8865 26.5039 47.2229C26.2548 47.3912 26.0488 47.5168 25.9034 47.6012C25.8306 47.6434 25.7729 47.6753 25.7324 47.6972C25.7122 47.7082 25.6963 47.7166 25.6849 47.7225L25.6713 47.7296L25.6672 47.7317L25.6658 47.7324C25.6655 47.7325 25.6648 47.7329 25.4391 47.2868ZM25.4391 47.2868L25.1 47.6541L25.3554 47.8894L25.6648 47.7329L25.4391 47.2868ZM25.5297 46.6602C25.643 46.5915 25.7831 46.503 25.944 46.3943C26.4013 46.0853 27.0244 45.6141 27.6797 44.9703C28.9909 43.6823 30.4184 41.7161 30.9254 38.9801C31.4221 36.2572 30.6532 33.8979 29.7435 32.2026C29.2891 31.3559 28.8029 30.6815 28.4313 30.22C28.3081 30.067 28.1979 29.9378 28.1058 29.8338C28.0175 29.9038 27.9141 29.9885 27.7984 30.0877C27.3936 30.435 26.8394 30.9598 26.2515 31.6636C25.0754 33.0713 23.7706 35.1866 23.2456 38.0246L25.5297 46.6602ZM25.5297 46.6602C25.4523 46.574 25.36 46.4669 25.2572 46.3394C24.9393 45.9449 24.5232 45.3572 24.1388 44.5931C23.3716 43.0681 22.7301 40.84 23.2456 38.0246L25.5297 46.6602ZM3.75715 30.9858C5.69689 31.2854 8.24827 32.0646 10.6811 33.9832C13.1283 35.9142 14.2206 38.2147 14.6976 40.0335C14.9356 40.9412 15.0206 41.729 15.046 42.2927C15.0586 42.5749 15.0564 42.8016 15.0508 42.9602C15.0479 43.0396 15.0443 43.1019 15.0412 43.1457C15.0396 43.1676 15.0382 43.1848 15.0371 43.1972L15.0358 43.2122L15.0353 43.2169L15.0351 43.2186C15.0351 43.2189 15.035 43.2198 14.5377 43.1684C14.6636 43.6523 14.6634 43.6524 14.6631 43.6525L14.661 43.653L14.6565 43.6542L14.6416 43.6579C14.6291 43.6609 14.6116 43.6651 14.5892 43.6703C14.5443 43.6807 14.4799 43.6949 14.3973 43.7114C14.2322 43.7443 13.9945 43.7864 13.6962 43.8249C13.1001 43.9018 12.2588 43.9648 11.2694 43.9108C9.29119 43.8029 6.70309 43.2258 4.30933 41.3401C1.90266 39.4445 0.832396 36.9315 0.362278 34.9163C0.126939 33.9075 0.0400243 33.0161 0.0118893 32.3753C-0.00219373 32.0546 -0.00159372 31.7957 0.00267028 31.6151C0.00480228 31.5248 0.00785326 31.454 0.0104523 31.4047C0.0117523 31.3801 0.0129393 31.3608 0.0138423 31.3472L0.0149643 31.331L0.0153253 31.3262L0.0154493 31.3245C0.0154683 31.3243 0.0155333 31.3235 0.513966 31.363C0.447436 30.8675 0.447655 30.8674 0.447895 30.8674L0.449984 30.8671L0.454421 30.8666L0.468899 30.8648C0.48102 30.8633 0.498052 30.8613 0.519824 30.859C0.563365 30.8543 0.625883 30.8483 0.705996 30.842C0.866186 30.8295 1.09695 30.8164 1.38717 30.8127C1.9673 30.8054 2.78706 30.8359 3.75715 30.9858ZM0.513966 31.363L0.447895 30.8674L0.0474523 30.9212L0.0155333 31.3235L0.513966 31.363ZM1.00003 31.8252C0.999686 31.9644 1.00229 32.1347 1.01093 32.3315C1.03696 32.9243 1.11767 33.7527 1.33613 34.6891C1.77363 36.5645 2.75574 38.8435 4.92807 40.5545C7.11673 42.2786 9.48811 42.8121 11.3239 42.9123C12.2414 42.9624 13.0206 42.9038 13.5683 42.8331C13.7609 42.8083 13.9245 42.782 14.055 42.7585C14.056 42.6427 14.0543 42.5013 14.047 42.3376C14.0242 41.8312 13.9474 41.1149 13.7303 40.2872C13.2971 38.6352 12.3062 36.5393 10.0618 34.7683C7.79617 32.9816 5.41884 32.2544 3.60446 31.974C2.69748 31.8339 1.93382 31.8059 1.3998 31.8127C1.24686 31.8146 1.11293 31.8194 1.00003 31.8252ZM14.5377 43.1684L14.6631 43.6525L14.9994 43.5649L15.035 43.2198L14.5377 43.1684ZM36.1833 38.6122L35.8701 39.002L35.555 38.6138L35.8685 38.3593L36.1833 38.6122ZM34.8567 57.3004C34.5534 57.6979 34.5532 57.6978 34.553 57.6976L34.5512 57.6962L34.5474 57.6933L34.5355 57.684C34.5309 57.6803 34.5253 57.6759 34.519 57.6708C34.512 57.6653 34.5041 57.6589 34.4952 57.6516C34.4611 57.6239 34.4131 57.5838 34.3534 57.5314C34.2338 57.4268 34.0669 57.2729 33.8698 57.0703C33.476 56.6653 32.9598 56.0632 32.4613 55.2675C31.4622 53.6731 30.5343 51.3004 30.8067 48.1945C31.0787 45.1098 32.2609 42.7194 33.3725 41.1028C33.9284 40.2943 34.4681 39.677 34.8711 39.26C35.0727 39.0513 35.2404 38.8925 35.3593 38.7845C35.4187 38.7304 35.466 38.6891 35.4992 38.6606C35.5158 38.6464 35.529 38.6354 35.5383 38.6275L35.5496 38.6182L35.553 38.6154L35.5542 38.6144L35.555 38.6138C35.5552 38.6136 35.555 38.6138 35.8701 39.002C36.1833 38.6122 36.1831 38.6121 36.1833 38.6122L36.1854 38.6139L36.1891 38.617L36.2017 38.6273C36.2074 38.632 36.2144 38.6378 36.2226 38.6447C36.2295 38.6504 36.2372 38.6569 36.2458 38.6642C36.2834 38.6961 36.337 38.7424 36.4041 38.8028C36.5384 38.9235 36.7271 39.1006 36.9507 39.3307C37.3974 39.7904 37.9863 40.4647 38.5591 41.3275C39.7034 43.0509 40.7998 45.5521 40.5344 48.6023C40.2652 51.6341 38.9119 53.9141 37.6356 55.4283C36.9972 56.1857 36.3753 56.7554 35.9111 57.137C35.6788 57.3279 35.4854 57.4723 35.3484 57.5699C35.2799 57.6188 35.2255 57.656 35.1872 57.6816C35.1681 57.6944 35.153 57.7043 35.1422 57.7113L35.1294 57.7196L35.1254 57.7221L35.1241 57.7229C35.1239 57.7231 35.1232 57.7235 34.8567 57.3004ZM34.8567 57.3004L34.553 57.6976L34.8294 57.9085L35.1232 57.7235L34.8567 57.3004ZM34.8886 56.6679C34.995 56.5889 35.1261 56.4878 35.276 56.3645C35.7025 56.0139 36.2789 55.4863 36.871 54.7839C38.0556 53.3784 39.292 51.2869 39.5382 48.5151C39.7776 45.7617 38.791 43.4847 37.726 41.8806C37.1942 41.0796 36.6468 40.4529 36.2335 40.0276C36.0965 39.8866 35.9745 39.768 35.8731 39.6728C35.7915 39.7509 35.6963 39.845 35.5902 39.9548C35.2193 40.3387 34.7162 40.9135 34.1965 41.6694C33.1568 43.1815 32.0562 45.4094 31.8028 48.2819C31.5531 51.1299 32.4012 53.2883 33.3087 54.7365C33.7633 55.4622 34.233 56.0093 34.5868 56.3732C34.7012 56.4909 34.8033 56.5892 34.8886 56.6679ZM8.43378 44.9063C10.3917 44.7666 13.0525 44.9585 15.8512 46.2889C18.6652 47.6273 20.2413 49.6293 21.1106 51.2981C21.5445 52.131 21.8026 52.881 21.9527 53.4256C22.0278 53.6982 22.0761 53.9201 22.1059 54.0761C22.1208 54.1542 22.1311 54.2158 22.1378 54.2592C22.1412 54.2809 22.1436 54.2981 22.1453 54.3104L22.1473 54.3253L22.1479 54.3301L22.1482 54.3317C22.1482 54.332 22.1483 54.3329 21.652 54.3935C21.8816 54.8376 21.8814 54.8377 21.8812 54.8378L21.8751 54.841L21.8614 54.8479C21.85 54.8536 21.8338 54.8616 21.8131 54.8716C21.7716 54.8916 21.7119 54.9197 21.6351 54.954C21.4814 55.0226 21.2589 55.1161 20.9765 55.2195C20.4122 55.4262 19.6057 55.6734 18.6287 55.8396C16.6755 56.1719 14.0232 56.1822 11.2697 54.8759C8.50638 53.5598 6.90489 51.3486 5.99873 49.4904C5.54511 48.5602 5.262 47.7115 5.09191 47.094C5.00677 46.7849 4.94969 46.5328 4.91361 46.356C4.89556 46.2676 4.88276 46.198 4.87431 46.1495C4.87232 46.1381 4.87058 46.1278 4.86906 46.1188C4.86735 46.1086 4.86594 46.0999 4.8648 46.0927L4.86228 46.0767L4.86155 46.0719L4.86132 46.0703C4.86128 46.0701 4.86116 46.0693 5.35585 45.9966C5.18055 45.5284 5.18075 45.5283 5.18098 45.5282L5.18296 45.5275L5.18716 45.5259L5.20087 45.5209C5.21237 45.5168 5.22853 45.5111 5.24924 45.504C5.29066 45.4897 5.35026 45.4698 5.42698 45.4459C5.5804 45.398 5.80246 45.3338 6.08461 45.2656C6.6486 45.1291 7.45463 44.9762 8.43378 44.9063ZM5.35585 45.9966L5.18098 45.5282L4.80249 45.6699L4.86116 46.0693L5.35585 45.9966ZM5.9328 46.3388C5.96346 46.4742 6.00388 46.6392 6.05601 46.8285C6.21337 47.3998 6.47641 48.1885 6.89755 49.0521C7.74094 50.7816 9.20419 52.7845 11.699 53.9728C14.2169 55.1671 16.6483 55.1621 18.461 54.8538C19.3671 54.6997 20.1142 54.4703 20.6326 54.2805C20.8147 54.2138 20.9682 54.1521 21.0901 54.1005C21.0653 53.9872 21.0322 53.8495 20.9886 53.6914C20.8538 53.202 20.6194 52.5198 20.2237 51.7601C19.4339 50.2439 18.0022 48.4193 15.4218 47.192C12.8157 45.9532 10.3362 45.7731 8.50496 45.9038C7.58956 45.9691 6.83883 46.112 6.3197 46.2375C6.17106 46.2735 6.04156 46.308 5.9328 46.3388ZM21.652 54.3935L21.8812 54.8378L22.1904 54.678L22.1483 54.3329L21.652 54.3935ZM43.1069 48.3521L42.9195 48.8156L42.5058 48.5349L42.7325 48.2008L43.1069 48.3521ZM47.2187 66.6364C47.5957 66.9648 47.5959 66.9647 47.596 66.9645L47.5975 66.9628L47.6005 66.9593L47.6104 66.9476C47.6187 66.9379 47.6303 66.924 47.645 66.9063C47.6743 66.8707 47.7157 66.8194 47.7673 66.7528C47.8704 66.6198 48.0142 66.4257 48.1817 66.1758C48.5166 65.6765 48.9484 64.9516 49.3419 64.0422C50.1284 62.224 50.7682 59.6513 50.1514 56.671C49.5274 53.6696 47.757 51.5884 46.1646 50.2673C45.3675 49.606 44.6092 49.13 44.0489 48.8186C43.7684 48.6628 43.5367 48.5477 43.3733 48.4708C43.2916 48.4324 43.227 48.4035 43.1817 48.3838C43.1591 48.374 43.1414 48.3664 43.1288 48.3612L43.1138 48.3549L43.1093 48.3531L43.1078 48.3525C43.1076 48.3524 43.1069 48.3521 42.9195 48.8156C42.5058 48.5349 42.5059 48.5347 42.5058 48.5349L42.5052 48.5358L42.5043 48.537L42.5018 48.5407L42.4938 48.5529C42.487 48.5631 42.4777 48.5774 42.4659 48.5959C42.4422 48.6328 42.4089 48.686 42.3675 48.7549C42.2848 48.8927 42.17 49.0934 42.037 49.3515C41.7713 49.8674 41.4322 50.6147 41.1327 51.5496C40.5337 53.4191 40.0898 56.0495 40.717 59.0812C41.3506 62.1371 42.9227 64.1426 44.339 65.3814C45.0458 65.9996 45.7136 66.427 46.2075 66.7011C46.4547 66.8382 46.6589 66.9373 46.8036 67.003C46.8759 67.0358 46.9334 67.0603 46.9741 67.077C46.9944 67.0854 47.0105 67.0919 47.0221 67.0964L47.0361 67.1019L47.0405 67.1036L47.0421 67.1041C47.0424 67.1042 47.0432 67.1046 47.2187 66.6364ZM47.2187 66.6364L47.596 66.9645L47.3679 67.2263L47.0432 67.1046L47.2187 66.6364ZM47.0669 66.0218C47.1462 65.9154 47.2428 65.7805 47.3512 65.6189C47.6589 65.1601 48.0592 64.4886 48.4241 63.6451C49.1541 61.9576 49.7359 59.5984 49.1722 56.8741C48.6088 54.164 47.008 52.2663 45.5261 51.0369C44.7861 50.423 44.0815 49.9808 43.5631 49.6927C43.3913 49.5973 43.2404 49.5189 43.1159 49.4571C43.0602 49.5556 42.9961 49.6734 42.926 49.8094C42.6813 50.2844 42.3651 50.9805 42.085 51.8547C41.5247 53.6037 41.1122 56.0554 41.6963 58.8786C42.2774 61.681 43.7113 63.5038 44.9974 64.6287C45.6418 65.1923 46.2492 65.5805 46.6928 65.8267C46.8364 65.9064 46.9625 65.971 47.0669 66.0218ZM14.777 57.9125C16.6015 57.1903 19.1955 56.5707 22.2623 56.9894C25.3536 57.4147 27.4611 58.8446 28.7929 60.171C29.4575 60.8329 29.9293 61.469 30.2362 61.9422C30.3898 62.179 30.5025 62.3756 30.5778 62.5152C30.6155 62.585 30.6438 62.6406 30.6633 62.68C30.673 62.6996 30.6805 62.7152 30.6858 62.7265L30.6922 62.7401L30.6942 62.7444L30.6949 62.7459C30.695 62.7462 30.6954 62.747 30.2404 62.9542C30.5939 63.3077 30.5938 63.3079 30.5936 63.3081L30.5887 63.3129L30.5778 63.3236C30.5686 63.3326 30.5556 63.3451 30.5389 63.3609C30.5055 63.3925 30.4571 63.4374 30.3943 63.4933C30.2688 63.6053 30.0852 63.7618 29.8476 63.9459C29.3728 64.3139 28.6797 64.7939 27.7998 65.2482C26.0407 66.1564 23.5188 66.9696 20.5029 66.5579C17.4688 66.1401 15.2711 64.5152 13.8433 63.0163C13.1285 62.2659 12.601 61.5417 12.2515 61.0038C12.0765 60.7345 11.9456 60.5112 11.8575 60.3534C11.8135 60.2745 11.7802 60.2119 11.7574 60.1682C11.746 60.1463 11.7372 60.1291 11.7311 60.1169L11.7239 60.1024L11.7217 60.098L11.721 60.0966C11.7209 60.0964 11.7205 60.0956 12.17 59.8766C11.8624 59.4824 11.8626 59.4823 11.8628 59.4821L11.8644 59.4808L11.868 59.4781L11.8795 59.4692C11.8892 59.4619 11.9029 59.4516 11.9205 59.4386C11.9557 59.4126 12.0066 59.3758 12.0726 59.33C12.2044 59.2384 12.3969 59.1106 12.6454 58.9609C13.1421 58.6616 13.8646 58.2738 14.777 57.9125ZM12.17 59.8766L11.8628 59.4821L11.5431 59.7316L11.7205 60.0956L12.17 59.8766ZM12.8241 60.0292C12.8944 60.1491 12.983 60.2942 13.09 60.4589C13.4134 60.9566 13.9036 61.6298 14.5673 62.3265C15.8964 63.7218 17.8993 65.1898 20.6382 65.5671C23.3955 65.9435 25.7085 65.2025 27.341 64.3596C28.157 63.9383 28.7989 63.4935 29.2351 63.1555C29.3885 63.0366 29.5162 62.9311 29.6168 62.8449C29.5591 62.7446 29.4862 62.6236 29.3972 62.4863C29.1216 62.0614 28.6932 61.483 28.0872 60.8796C26.8779 59.6751 24.9621 58.3703 22.1265 57.9801C19.2702 57.5903 16.8521 58.1666 15.1451 58.8423C14.2918 59.1801 13.6188 59.5419 13.1614 59.8174C13.0311 59.896 12.9184 59.9674 12.8241 60.0292ZM30.2404 62.9542L30.5936 63.3081L30.8391 63.0626L30.6954 62.747L30.2404 62.9542ZM26.63 67.797C28.3524 66.8596 30.8512 65.9318 33.9466 65.9795C37.0684 66.0293 39.3337 67.1993 40.8162 68.3598C41.5559 68.9389 42.101 69.5156 42.4628 69.9499C42.6438 70.1673 42.7794 70.3495 42.871 70.4795C42.9168 70.5445 42.9516 70.5964 42.9757 70.6332C42.9877 70.6516 42.997 70.6663 43.0037 70.6768L43.0117 70.6896L43.0141 70.6936L43.015 70.6951C43.0152 70.6953 43.0156 70.6961 42.5885 70.9559C42.9818 71.2647 42.9816 71.2649 42.9815 71.2651L42.9801 71.2668L42.9772 71.2704L42.9676 71.2824C42.9596 71.2924 42.9482 71.3063 42.9335 71.324C42.9041 71.3594 42.8615 71.4097 42.8058 71.4728C42.6945 71.5989 42.531 71.7762 42.3171 71.9874C41.8897 72.4093 41.2589 72.9687 40.4394 73.5248C38.801 74.6366 36.3935 75.7451 33.3475 75.697C30.2843 75.6503 27.9101 74.3001 26.315 72.9816C25.5165 72.3216 24.9072 71.6648 24.4966 71.1719C24.291 70.9252 24.1346 70.7187 24.0286 70.5724C23.9755 70.4992 23.9351 70.441 23.9073 70.4002C23.8934 70.3798 23.8827 70.3637 23.8751 70.3523L23.8662 70.3388L23.8636 70.3347L23.8627 70.3333C23.8625 70.3331 23.8621 70.3324 24.2827 70.062C23.9293 69.7083 23.9294 69.7081 23.9296 69.708L23.9311 69.7065L23.9343 69.7033L23.9447 69.6931C23.9534 69.6846 23.9658 69.6727 23.9816 69.6577C24.0134 69.6276 24.0594 69.5849 24.1192 69.5314C24.2389 69.4245 24.4143 69.2743 24.6426 69.0956C25.099 68.7383 25.7686 68.2658 26.63 67.797ZM24.2827 70.062L23.9296 69.708L23.644 69.9933L23.8621 70.3324L24.2827 70.062ZM24.9491 70.135C25.0332 70.2461 25.1386 70.3803 25.2649 70.5318C25.6448 70.9879 26.2109 71.5982 26.9521 72.2109C28.4364 73.4377 30.5985 74.655 33.363 74.6971C36.1483 74.7411 38.3575 73.729 39.8779 72.6973C40.6378 72.1816 41.2219 71.6634 41.6145 71.2757C41.7527 71.1393 41.8669 71.0193 41.9565 70.9217C41.887 70.8285 41.7997 70.7164 41.6944 70.5899C41.3695 70.1998 40.8743 69.6753 40.1997 69.1472C38.8536 68.0934 36.7938 67.0251 33.9309 66.9794C31.0483 66.935 28.7192 67.7985 27.108 68.6753C26.3026 69.1137 25.6791 69.5541 25.259 69.883C25.1387 69.9771 25.0352 70.062 24.9491 70.135ZM42.5885 70.9559L42.9815 71.2651L43.1957 70.9921L43.0156 70.6961L42.5885 70.9559Z" fill="#4B5DFF"/>
</svg>
