<svg width="40" height="60" viewBox="0 0 40 60" fill="none" xmlns="http://www.w3.org/2000/svg">
<g clip-path="url(#clip0)">
<path fill-rule="evenodd" clip-rule="evenodd" d="M12.5474 0.216331L12.28 0.500615L12.0578 0.179716L12.3174 0L12.5474 0.216331ZM15.7065 7.94639C15.7454 10.3819 14.89 12.177 14.0225 13.3618C13.5895 13.953 13.1537 14.3923 12.8241 14.6852C12.6593 14.8318 12.5206 14.942 12.4216 15.0166C12.3721 15.054 12.3324 15.0824 12.3043 15.1021C12.2903 15.112 12.2791 15.1196 12.2711 15.1251L12.2613 15.1316L12.2582 15.1337L12.2571 15.1344C12.257 15.1345 12.2563 15.1349 12.0429 14.8081C11.8117 15.1226 11.8115 15.1224 11.8114 15.1223L11.8101 15.1213L11.8071 15.1191L11.7976 15.112C11.7925 15.1081 11.7861 15.1032 11.7785 15.0974C11.7742 15.094 11.7694 15.0903 11.7642 15.0864C11.7359 15.0643 11.6956 15.0323 11.6451 14.9904C11.544 14.9067 11.4017 14.7836 11.2318 14.622C10.8923 14.2991 10.4406 13.8209 9.98685 13.1956C9.07957 11.9454 8.1559 10.0953 8.11827 7.71909C8.08049 5.32727 9.07223 3.44003 10.0583 2.16156C10.5518 1.52156 11.0475 1.0293 11.4207 0.696275C11.6075 0.529581 11.7642 0.402258 11.8753 0.315773C11.9309 0.272517 11.9752 0.239433 12.0062 0.216705C12.0218 0.20534 12.034 0.19656 12.0427 0.190389L12.053 0.183089L12.0561 0.18091L12.0578 0.179716C12.058 0.179607 12.0578 0.179716 12.28 0.500615C12.5474 0.216331 12.5473 0.216203 12.5474 0.216331L12.5488 0.217706L12.5514 0.220111L12.5596 0.228C12.5665 0.234625 12.5761 0.243976 12.5882 0.256027C12.6125 0.280128 12.647 0.315039 12.6903 0.360539C12.7768 0.45152 12.8986 0.584956 13.0439 0.759089C13.3345 1.10716 13.7202 1.619 14.1079 2.2805C14.8829 3.6031 15.6692 5.53151 15.7065 7.94639ZM12.0429 14.8081L11.8114 15.1223L12.0297 15.2829L12.2563 15.1349L12.0429 14.8081ZM12.0539 14.314C12.1247 14.2576 12.2098 14.1869 12.3056 14.1018C12.6015 13.8387 12.998 13.4396 13.3927 12.9006C14.1804 11.8248 14.9617 10.1923 14.926 7.95888C14.8914 5.71039 14.1596 3.91264 13.4344 2.67514C13.072 2.05656 12.7122 1.57982 12.4447 1.25929C12.3681 1.16756 12.2991 1.08873 12.2399 1.02312C12.1559 1.09145 12.0546 1.17678 11.9404 1.27866C11.5952 1.58675 11.1345 2.04414 10.6763 2.63828C9.75868 3.82806 8.86467 5.54698 8.89878 7.70676C8.93313 9.87952 9.77663 11.5771 10.6186 12.7372C11.0394 13.317 11.4579 13.7597 11.7698 14.0564C11.8794 14.1607 11.9756 14.2467 12.0539 14.314ZM20.3211 10.8318L20.015 11.0741L19.8427 10.7239L20.1254 10.5848L20.3211 10.8318ZM21.8857 19.1872C21.1539 21.4505 19.7291 22.9498 18.4954 23.8798C17.8784 24.345 17.3064 24.6699 16.8872 24.8793C16.6773 24.9841 16.5052 25.0601 16.3841 25.1105C16.3235 25.1357 16.2756 25.1545 16.2421 25.1673C16.2253 25.1737 16.2121 25.1786 16.2027 25.182L16.1914 25.1861L16.188 25.1873L16.1868 25.1877C16.1867 25.1878 16.186 25.188 16.0572 24.8196C15.7575 25.0697 15.7573 25.0695 15.7572 25.0694L15.756 25.068L15.7537 25.0651L15.7463 25.0559C15.7402 25.0484 15.7317 25.0378 15.7211 25.0243C15.7001 24.9973 15.6705 24.9585 15.634 24.9083C15.5612 24.808 15.4608 24.6619 15.346 24.4735C15.1165 24.0971 14.8281 23.5496 14.5869 22.8577C14.1036 21.4713 13.8102 19.505 14.5591 17.1889C15.3052 14.8888 16.6215 13.2752 17.7489 12.2384C18.3127 11.7198 18.8308 11.3439 19.21 11.0967C19.3996 10.973 19.5549 10.8812 19.6641 10.8197C19.7188 10.789 19.7619 10.7657 19.7921 10.7499C19.8073 10.7419 19.8191 10.7357 19.8276 10.7314L19.8378 10.7263L19.8409 10.7247L19.8427 10.7239C19.8429 10.7238 19.8427 10.7239 20.015 11.0741C20.3211 10.8318 20.3209 10.8317 20.3211 10.8318L20.3215 10.8325L20.3223 10.8335L20.3246 10.8365L20.3325 10.8465C20.3389 10.8549 20.3481 10.8669 20.3596 10.8823C20.3826 10.9131 20.4154 10.9577 20.456 11.0153C20.5372 11.1304 20.65 11.2979 20.7801 11.5119C21.0401 11.9393 21.3709 12.5547 21.6563 13.3106C22.2264 14.8205 22.6233 16.914 21.8857 19.1872ZM16.0572 24.8196L15.7572 25.0694L15.9308 25.2773L16.186 25.188L16.0572 24.8196ZM16.1912 24.3441C16.14 24.2693 16.0793 24.1768 16.0125 24.0673C15.8064 23.7292 15.5439 23.2316 15.324 22.6008C14.8851 21.3418 14.6152 19.5527 15.3019 17.4291C15.9968 15.2869 17.2227 13.7828 18.2773 12.8129C18.8045 12.328 19.2873 11.9781 19.6364 11.7505C19.7362 11.6853 19.8251 11.6303 19.9007 11.585C19.9613 11.675 20.0335 11.7864 20.1133 11.9176C20.3538 12.3129 20.6611 12.8847 20.926 13.5863C21.4565 14.9914 21.8092 16.8944 21.1432 18.9463C20.4741 21.0162 19.1702 22.3935 18.0255 23.2565C17.4533 23.6879 16.9236 23.9886 16.5385 24.1809C16.403 24.2485 16.2858 24.3026 16.1912 24.3441ZM1.2248 11.9572L1.16009 12.3421L0.797215 12.1984L0.913452 11.9049L1.2248 11.9572ZM1.41669 12.799C1.38458 12.9027 1.34754 13.0302 1.30896 13.1787C1.19247 13.627 1.06271 14.2636 1.01078 15.0125C0.90677 16.5121 1.11588 18.4376 2.34149 20.2115C3.57683 22.004 5.22196 22.9498 6.56695 23.4482C7.23922 23.6973 7.83344 23.8332 8.25777 23.9068C8.40694 23.9328 8.5348 23.9509 8.63737 23.9634C8.66492 23.8771 8.69638 23.7709 8.72877 23.6468C8.82877 23.2634 8.93688 22.7109 8.96592 22.043C9.02391 20.7101 8.7678 18.9179 7.50013 17.0808C6.22091 15.2276 4.61448 14.1376 3.32518 13.5104C2.6807 13.1969 2.11734 12.9999 1.71733 12.8817C1.603 12.848 1.50215 12.8207 1.41669 12.799ZM8.90269 24.3804C8.88505 24.7703 8.88489 24.7703 8.88473 24.7703L8.88302 24.7703L8.87935 24.77L8.86741 24.7694C8.85741 24.7688 8.84336 24.7679 8.82549 24.7666C8.78966 24.764 8.7383 24.7597 8.67296 24.753C8.54237 24.7395 8.35557 24.7161 8.12436 24.676C7.6623 24.5959 7.02079 24.4487 6.29576 24.1801C4.84615 23.6431 3.04988 22.615 1.69901 20.6548C0.341322 18.6895 0.120327 16.5695 0.232055 14.9585C0.287991 14.1519 0.427566 13.4669 0.55345 12.9824C0.616466 12.7398 0.676244 12.5468 0.720808 12.4131C0.743094 12.3462 0.761593 12.294 0.774817 12.2578C0.781439 12.2398 0.786732 12.2257 0.790525 12.2157L0.795068 12.2039L0.79645 12.2004L0.797215 12.1984C0.797285 12.1983 0.797215 12.1984 1.16009 12.3421C1.2248 11.9572 1.22461 11.9572 1.2248 11.9572L1.22677 11.9575L1.23021 11.9581L1.24142 11.9602C1.2508 11.9618 1.26396 11.9643 1.28073 11.9676C1.31428 11.9741 1.36232 11.9841 1.42352 11.9979C1.54589 12.0255 1.72106 12.0689 1.93841 12.1332C2.37289 12.2614 2.97744 12.4732 3.66667 12.8084C5.04479 13.4789 6.76897 14.6475 8.14255 16.6375C9.52505 18.6409 9.80957 20.6094 9.74572 22.077C9.71387 22.8093 9.59538 23.417 9.48407 23.8438C9.42841 24.0573 9.37432 24.2262 9.33349 24.3433C9.31304 24.4019 9.29587 24.4476 9.28346 24.4796C9.27729 24.4956 9.27222 24.5081 9.26855 24.5171L9.2641 24.528L9.26262 24.5314L9.26215 24.5326C9.26207 24.5328 9.26176 24.5335 8.90269 24.3804ZM8.90269 24.3804L8.88473 24.7703L9.1556 24.7826L9.26176 24.5335L8.90269 24.3804ZM11.9483 17.7723C12.163 17.7912 12.3217 17.9807 12.3028 18.1954C11.6757 25.2889 15.6034 42.0258 35.1526 52.9924C35.3407 53.0979 35.4076 53.3358 35.3021 53.5238C35.1966 53.7117 34.9587 53.7787 34.7708 53.6733C14.9467 42.5524 10.8718 25.5181 11.5252 18.1267C11.5442 17.9119 11.7336 17.7532 11.9483 17.7723ZM22.2571 22.4862L21.9856 22.7665L21.769 22.4418L22.031 22.267L22.2571 22.4862ZM19.8575 36.9115C19.5931 37.1985 19.5929 37.1984 19.5928 37.1982L19.5914 37.1971L19.5887 37.1945L19.5801 37.1864C19.5731 37.1797 19.5633 37.1704 19.5512 37.1583C19.5267 37.1344 19.4923 37.0998 19.4497 37.0548C19.3644 36.9649 19.2459 36.8334 19.1077 36.6618C18.8313 36.3188 18.4743 35.8139 18.1452 35.1596C17.4856 33.8485 16.9385 31.9373 17.3775 29.5409C17.8173 27.1624 18.911 25.3907 19.8925 24.2158C20.3834 23.6282 20.8476 23.1882 21.1909 22.8936C21.3626 22.7463 21.5044 22.6352 21.6046 22.56C21.6547 22.5224 21.6944 22.4937 21.7223 22.4741C21.7362 22.4642 21.7472 22.4566 21.7551 22.4512L21.7644 22.4448L21.7673 22.4428L21.7683 22.4422L21.769 22.4418C21.7691 22.4417 21.769 22.4418 21.9856 22.7665C22.2571 22.4862 22.257 22.486 22.2571 22.4862L22.2578 22.4867L22.2586 22.4877L22.2614 22.4903L22.2703 22.4992C22.2744 22.5032 22.2794 22.5082 22.2852 22.514C22.2902 22.519 22.2958 22.5247 22.302 22.5311C22.3289 22.5586 22.3671 22.5984 22.4149 22.6502C22.5104 22.7537 22.6442 22.9049 22.8011 23.0998C23.1147 23.4892 23.5231 24.0559 23.9052 24.7678C24.6685 26.1902 25.3374 28.2142 24.9077 30.5682L24.9076 30.5692C24.4749 32.9051 23.2561 34.5769 22.1536 35.6602C21.602 36.202 21.0771 36.5991 20.6886 36.8616C20.4942 36.993 20.3334 37.0911 20.2199 37.1569C20.1631 37.1899 20.118 37.2148 20.0864 37.2319C20.0706 37.2405 20.0582 37.247 20.0493 37.2516L20.0387 37.2572L20.0355 37.2588L20.0344 37.2594C20.0342 37.2594 20.0336 37.2597 19.8575 36.9115ZM19.8575 36.9115L19.5928 37.1982L19.7921 37.3819L20.0336 37.2597L19.8575 36.9115ZM19.9282 36.4224C20.0166 36.3688 20.126 36.2997 20.2516 36.2148C20.6085 35.9736 21.0949 35.6058 21.6064 35.1033C22.63 34.0979 23.7442 32.5631 24.14 30.4274C24.5277 28.3019 23.9275 26.4603 23.2174 25.137C22.8627 24.476 22.4832 23.9496 22.1931 23.5894C22.097 23.4699 22.011 23.3691 21.9391 23.2879C21.8701 23.3426 21.7894 23.4087 21.6991 23.4861C21.3831 23.7572 20.9505 24.1669 20.4916 24.7162C19.5736 25.8151 18.5551 27.4662 18.1452 29.6816L19.9282 36.4224ZM19.9282 36.4224C19.8678 36.3551 19.7957 36.2715 19.7155 36.172C19.4673 35.8641 19.1425 35.4053 18.8425 34.8089C18.2436 33.6185 17.7428 31.8792 18.1452 29.6816L19.9282 36.4224ZM2.93279 24.1872C4.44693 24.421 6.4385 25.0293 8.33754 26.5269C10.2478 28.0342 11.1004 29.8299 11.4728 31.2497C11.6586 31.9582 11.7249 32.5732 11.7447 33.0132C11.7546 33.2335 11.7528 33.4104 11.7485 33.5342C11.7462 33.5962 11.7434 33.6448 11.741 33.679C11.7397 33.6961 11.7386 33.7095 11.7378 33.7192L11.7368 33.7309L11.7364 33.7346L11.7362 33.7359C11.7362 33.7362 11.7361 33.7369 11.348 33.6967C11.4462 34.0745 11.4461 34.0746 11.4458 34.0746L11.4442 34.075L11.4407 34.076L11.4291 34.0788C11.4193 34.0812 11.4056 34.0845 11.3882 34.0885C11.3531 34.0966 11.3028 34.1077 11.2384 34.1206C11.1095 34.1463 10.9239 34.1792 10.6911 34.2092C10.2258 34.2692 9.56908 34.3184 8.79676 34.2763C7.25259 34.192 5.23235 33.7416 3.36381 32.2696C1.48519 30.7899 0.649759 28.8283 0.28279 27.2553C0.0990871 26.4678 0.0312425 25.772 0.00928065 25.2718C-0.0017124 25.0214 -0.00124404 24.8194 0.00208439 24.6784C0.0037486 24.6079 0.00613016 24.5526 0.00815894 24.5141C0.00917371 24.4949 0.0101003 24.4799 0.0108051 24.4693L0.011681 24.4566L0.0119627 24.4529L0.0120595 24.4515C0.0120744 24.4514 0.0121251 24.4508 0.401196 24.4816C0.349263 24.0948 0.349434 24.0947 0.349622 24.0947L0.351252 24.0945L0.354716 24.0941L0.366017 24.0927C0.375479 24.0915 0.388774 24.09 0.405769 24.0882C0.439756 24.0845 0.488557 24.0798 0.551092 24.0749C0.676135 24.0651 0.856266 24.0549 1.08281 24.052C1.53565 24.0463 2.17555 24.0701 2.93279 24.1872ZM0.401196 24.4816L0.349622 24.0947L0.0370407 24.1367L0.0121251 24.4508L0.401196 24.4816ZM0.780612 24.8424C0.780343 24.951 0.782376 25.084 0.78912 25.2376C0.809439 25.7003 0.87244 26.347 1.04297 27.0779C1.38447 28.5418 2.1511 30.3208 3.84679 31.6564C5.55524 33.0022 7.40631 33.4186 8.8393 33.4968C9.55549 33.5359 10.1637 33.4902 10.5913 33.435C10.7416 33.4157 10.8693 33.3951 10.9712 33.3768C10.9719 33.2864 10.9706 33.176 10.9649 33.0482C10.9471 32.6529 10.8872 32.0938 10.7177 31.4477C10.3796 30.1582 9.60608 28.5221 7.85412 27.1397C6.0856 25.745 4.22988 25.1774 2.8136 24.9585C2.10562 24.8492 1.50952 24.8273 1.09267 24.8326C0.973284 24.8341 0.86874 24.8378 0.780612 24.8424ZM11.348 33.6967L11.4458 34.0746L11.7084 34.0062L11.7361 33.7369L11.348 33.6967ZM28.2443 30.1402L27.9998 30.4445L27.7538 30.1415L27.9985 29.9428L28.2443 30.1402ZM27.2087 44.728C26.972 45.0383 26.9718 45.0382 26.9717 45.0381L26.9703 45.037L26.9673 45.0347L26.958 45.0275C26.9544 45.0246 26.95 45.0211 26.9451 45.0171C26.9397 45.0129 26.9335 45.0079 26.9265 45.0022C26.8999 44.9805 26.8625 44.9492 26.8159 44.9083C26.7225 44.8267 26.5922 44.7066 26.4384 44.5484C26.131 44.2323 25.728 43.7623 25.3389 43.1412C24.559 41.8966 23.8347 40.0445 24.0473 37.6201C24.2597 35.2122 25.1825 33.3463 26.0502 32.0844C26.4841 31.4533 26.9054 30.9714 27.22 30.6459C27.3773 30.483 27.5082 30.359 27.6011 30.2747C27.6474 30.2325 27.6843 30.2003 27.7103 30.178C27.7232 30.1669 27.7335 30.1583 27.7408 30.1522L27.7496 30.1449L27.7523 30.1427L27.7532 30.1419L27.7538 30.1415C27.754 30.1413 27.7538 30.1415 27.9998 30.4445C28.2443 30.1402 28.2441 30.1402 28.2443 30.1402L28.2459 30.1416L28.2488 30.144L28.2586 30.152C28.2631 30.1557 28.2685 30.1602 28.2749 30.1656C28.2803 30.17 28.2863 30.1751 28.293 30.1808C28.3224 30.2057 28.3642 30.2419 28.4166 30.289C28.5214 30.3832 28.6687 30.5215 28.8433 30.7011C29.192 31.0599 29.6517 31.5863 30.0988 32.2598C30.992 33.605 31.8478 35.5574 31.6407 37.9384C31.4305 40.305 30.3742 42.0847 29.3779 43.2667C28.8796 43.8579 28.3941 44.3026 28.0318 44.6005C27.8505 44.7495 27.6995 44.8622 27.5925 44.9384C27.5391 44.9766 27.4966 45.0056 27.4667 45.0256C27.4518 45.0356 27.44 45.0433 27.4316 45.0488L27.4216 45.0552L27.4185 45.0572L27.4175 45.0578C27.4173 45.058 27.4168 45.0583 27.2087 44.728ZM27.2087 44.728L26.9717 45.0381L27.1874 45.2027L27.4168 45.0583L27.2087 44.728ZM27.2336 44.2343C27.3167 44.1726 27.419 44.0937 27.536 43.9975C27.869 43.7238 28.3189 43.312 28.7811 42.7637C29.7058 41.6666 30.6709 40.034 30.8631 37.8703C31.0499 35.721 30.2798 33.9436 29.4485 32.6915C29.0334 32.0663 28.6061 31.5771 28.2834 31.2451C28.1765 31.135 28.0813 31.0424 28.0021 30.9681C27.9384 31.0291 27.8641 31.1025 27.7813 31.1882C27.4918 31.4879 27.0991 31.9366 26.6934 32.5266C25.8818 33.707 25.0227 35.446 24.8249 37.6883C24.63 39.9114 25.292 41.5962 26.0004 42.7267C26.3552 43.2931 26.7219 43.7202 26.9981 44.0043C27.0873 44.0961 27.167 44.1729 27.2336 44.2343ZM6.58331 35.0533C8.11164 34.9443 10.1886 35.0941 12.3733 36.1326C14.5698 37.1773 15.8001 38.74 16.4787 40.0427C16.8174 40.6928 17.0189 41.2783 17.136 41.7034C17.1946 41.9162 17.2323 42.0894 17.2556 42.2112C17.2672 42.2721 17.2753 42.3202 17.2805 42.3541C17.2832 42.371 17.285 42.3845 17.2864 42.3941L17.2879 42.4057L17.2884 42.4094L17.2886 42.4107C17.2886 42.4109 17.2887 42.4116 16.9013 42.4589C17.0805 42.8056 17.0804 42.8057 17.0802 42.8057L17.0754 42.8082L17.0648 42.8136C17.0559 42.8181 17.0432 42.8243 17.0271 42.8321C16.9947 42.8477 16.9481 42.8697 16.8881 42.8964C16.7681 42.95 16.5944 43.023 16.374 43.1037C15.9335 43.265 15.304 43.458 14.5413 43.5877C13.0167 43.8471 10.9463 43.8552 8.797 42.8355C6.63998 41.8082 5.38988 40.0821 4.68254 38.6316C4.32845 37.9055 4.10746 37.243 3.97469 36.761C3.90823 36.5197 3.86367 36.323 3.83551 36.1849C3.82142 36.1159 3.81143 36.0616 3.80483 36.0238C3.80328 36.0149 3.80192 36.0068 3.80073 35.9998C3.7994 35.9918 3.7983 35.985 3.79741 35.9794L3.79544 35.9669L3.79487 35.9632L3.79469 35.9619C3.79466 35.9618 3.79456 35.9612 4.18071 35.9044C4.04388 35.5389 4.04403 35.5389 4.04421 35.5388L4.04576 35.5382L4.04904 35.537L4.05974 35.5331C4.06871 35.5299 4.08133 35.5254 4.0975 35.5199C4.12983 35.5087 4.17635 35.4932 4.23624 35.4745C4.35599 35.4371 4.52933 35.387 4.74958 35.3338C5.18982 35.2272 5.819 35.1079 6.58331 35.0533ZM4.18071 35.9044L4.04421 35.5388L3.74877 35.6494L3.79456 35.9612L4.18071 35.9044ZM4.63107 36.1715C4.65501 36.2772 4.68656 36.406 4.72725 36.5538C4.85008 36.9997 5.05541 37.6154 5.38415 38.2895C6.04249 39.6395 7.18468 41.203 9.1321 42.1305C11.0975 43.0628 12.9955 43.0589 14.4104 42.8182C15.1177 42.6979 15.7009 42.5189 16.1056 42.3707C16.2477 42.3187 16.3675 42.2705 16.4627 42.2302C16.4433 42.1418 16.4175 42.0343 16.3835 41.9109C16.2782 41.5289 16.0953 40.9963 15.7864 40.4033C15.1699 39.2198 14.0523 37.7955 12.0381 36.8375C10.0038 35.8705 8.06832 35.7299 6.63887 35.832C5.92432 35.8829 5.33831 35.9945 4.93308 36.0924C4.81706 36.1206 4.71597 36.1475 4.63107 36.1715ZM16.9013 42.4589L17.0802 42.8057L17.3216 42.681L17.2887 42.4116L16.9013 42.4589ZM33.6487 37.7431L33.5025 38.1049L33.1795 37.8858L33.3565 37.625L33.6487 37.7431ZM36.8584 52.0156C37.1526 52.2719 37.1528 52.2719 37.1529 52.2717L37.1541 52.2704L37.1564 52.2676L37.1641 52.2585C37.1706 52.2509 37.1797 52.2401 37.1911 52.2263C37.214 52.1985 37.2463 52.1584 37.2866 52.1065C37.3671 52.0026 37.4793 51.8511 37.6101 51.6561C37.8715 51.2663 38.2085 50.7005 38.5157 49.9906C39.1296 48.5713 39.6291 46.5631 39.1476 44.2367C38.6605 41.8939 37.2786 40.2693 36.0355 39.2381C35.4133 38.7219 34.8214 38.3503 34.3841 38.1072C34.1651 37.9856 33.9842 37.8958 33.8567 37.8357C33.7929 37.8058 33.7425 37.7832 33.7071 37.7678C33.6895 37.7602 33.6757 37.7542 33.6658 37.7502L33.6541 37.7453L33.6506 37.7439L33.6494 37.7434C33.6493 37.7433 33.6487 37.7431 33.5025 38.1049C33.1795 37.8858 33.1796 37.8856 33.1795 37.8858L33.1791 37.8865L33.1784 37.8874L33.1764 37.8903L33.1702 37.8998C33.1649 37.9078 33.1576 37.9189 33.1484 37.9334C33.1299 37.9622 33.1039 38.0037 33.0716 38.0575C33.007 38.1651 32.9174 38.3217 32.8136 38.5232C32.6062 38.9259 32.3415 39.5092 32.1077 40.239C31.6401 41.6983 31.2936 43.7516 31.7832 46.1181C32.2778 48.5035 33.505 50.069 34.6105 51.036C35.1622 51.5185 35.6835 51.8521 36.069 52.0661C36.262 52.1731 36.4214 52.2505 36.5343 52.3018C36.5908 52.3274 36.6357 52.3465 36.6674 52.3595C36.6833 52.3661 36.6958 52.3711 36.7049 52.3747L36.7158 52.379L36.7193 52.3803L36.7205 52.3807C36.7207 52.3808 36.7214 52.3811 36.8584 52.0156ZM36.8584 52.0156L37.1529 52.2717L36.9748 52.4761L36.7214 52.3811L36.8584 52.0156ZM36.7399 51.5358C36.8018 51.4528 36.8772 51.3475 36.9618 51.2213C37.202 50.8632 37.5144 50.339 37.7993 49.6806C38.3691 48.3634 38.8233 46.5218 38.3832 44.3953C37.9435 42.2798 36.6939 40.7985 35.5371 39.8388C34.9595 39.3596 34.4095 39.0144 34.0048 38.7895C33.8707 38.7151 33.7529 38.6539 33.6558 38.6056C33.6123 38.6825 33.5623 38.7745 33.5075 38.8806C33.3165 39.2514 33.0697 39.7948 32.8511 40.4772C32.4137 41.8424 32.0917 43.7562 32.5476 45.9599C33.0012 48.1475 34.1205 49.5703 35.1244 50.4484C35.6275 50.8883 36.1016 51.1914 36.4479 51.3835C36.5599 51.4458 36.6584 51.4962 36.7399 51.5358ZM11.5348 45.2058C12.9589 44.6421 14.9838 44.1584 17.3777 44.4853C19.7907 44.8172 21.4358 45.9334 22.4754 46.9688C22.9942 47.4854 23.3625 47.982 23.602 48.3514C23.7219 48.5362 23.8099 48.6897 23.8687 48.7986C23.8981 48.8531 23.9202 48.8965 23.9354 48.9273C23.943 48.9426 23.9488 48.9548 23.953 48.9636L23.958 48.9742L23.9595 48.9775L23.9601 48.9787C23.9602 48.9789 23.9605 48.9796 23.6053 49.1413C23.8812 49.4172 23.8812 49.4174 23.881 49.4176L23.8772 49.4213L23.8687 49.4297C23.8615 49.4367 23.8513 49.4464 23.8383 49.4588C23.8122 49.4834 23.7745 49.5185 23.7254 49.5621C23.6275 49.6496 23.4842 49.7717 23.2987 49.9154C22.9281 50.2027 22.387 50.5774 21.7002 50.932C20.3271 51.6409 18.3585 52.2757 16.0043 51.9543C13.6359 51.6282 11.9204 50.3598 10.8059 49.1898C10.248 48.604 9.83619 48.0387 9.56338 47.6189C9.42677 47.4086 9.3246 47.2343 9.25583 47.1112C9.22148 47.0496 9.19549 47.0007 9.17769 46.9666C9.16879 46.9495 9.16192 46.9361 9.15716 46.9265L9.15154 46.9152L9.14982 46.9118L9.14927 46.9107C9.1492 46.9105 9.14888 46.9099 9.49976 46.739C9.25965 46.4313 9.25981 46.4312 9.25996 46.431L9.26121 46.43L9.26402 46.4279L9.273 46.421C9.28057 46.4153 9.29126 46.4072 9.305 46.3971C9.33248 46.3768 9.37221 46.3481 9.42373 46.3123C9.52661 46.2408 9.67687 46.141 9.87085 46.0242C10.2586 45.7906 10.8225 45.4878 11.5348 45.2058ZM9.49976 46.739L9.25996 46.431L9.01041 46.6258L9.14888 46.9099L9.49976 46.739ZM10.0103 46.8581C10.0652 46.9517 10.1344 47.0649 10.2179 47.1935C10.4703 47.582 10.853 48.1075 11.3711 48.6513C12.4085 49.7405 13.972 50.8864 16.1099 51.1809C18.2623 51.4747 20.0678 50.8963 21.3421 50.2383C21.979 49.9095 22.4801 49.5623 22.8206 49.2984C22.9403 49.2056 23.04 49.1233 23.1185 49.056C23.0735 48.9777 23.0166 48.8832 22.9471 48.7761C22.732 48.4444 22.3976 47.9929 21.9245 47.5219C20.9806 46.5817 19.4851 45.5632 17.2717 45.2586C15.0421 44.9543 13.1546 45.4042 11.8221 45.9316C11.156 46.1953 10.6307 46.4777 10.2736 46.6928C10.1719 46.7541 10.084 46.8099 10.0103 46.8581ZM23.6053 49.1413L23.881 49.4176L24.0726 49.2259L23.9605 48.9796L23.6053 49.1413ZM20.7871 52.9215C22.1316 52.1898 24.0821 51.4656 26.4983 51.5028C28.9352 51.5417 30.7034 52.455 31.8606 53.3609C32.438 53.8129 32.8635 54.2631 33.146 54.6021C33.2872 54.7718 33.3931 54.914 33.4646 55.0155C33.5003 55.0662 33.5275 55.1067 33.5463 55.1354C33.5557 55.1498 33.563 55.1613 33.5682 55.1695L33.5744 55.1795L33.5763 55.1826L33.577 55.1838C33.5772 55.1839 33.5775 55.1845 33.2441 55.3873C33.5511 55.6284 33.5509 55.6285 33.5509 55.6287L33.5498 55.63L33.5475 55.6328L33.54 55.6422C33.5338 55.65 33.5249 55.6609 33.5134 55.6747C33.4904 55.7023 33.4572 55.7416 33.4137 55.7908C33.3268 55.8893 33.1992 56.0277 33.0322 56.1925C32.6986 56.5218 32.2062 56.9585 31.5665 57.3926C30.2876 58.2605 28.4083 59.1257 26.0307 59.0882C23.6396 59.0517 21.7863 57.9978 20.5412 56.9686C19.9179 56.4534 19.4423 55.9407 19.1218 55.5559C18.9613 55.3634 18.8392 55.2022 18.7564 55.088C18.715 55.0309 18.6835 54.9854 18.6618 54.9536C18.6509 54.9376 18.6426 54.9251 18.6366 54.9162L18.6297 54.9056L18.6276 54.9024L18.6269 54.9013C18.6268 54.9012 18.6265 54.9006 18.9548 54.6896C18.6789 54.4135 18.679 54.4133 18.6792 54.4132L18.6803 54.4121L18.6828 54.4096L18.691 54.4016C18.6977 54.395 18.7074 54.3857 18.7198 54.374C18.7446 54.3505 18.7805 54.3172 18.8272 54.2754C18.9206 54.192 19.0575 54.0747 19.2357 53.9352C19.592 53.6563 20.1147 53.2875 20.7871 52.9215ZM18.9548 54.6896L18.6792 54.4132L18.4562 54.6359L18.6265 54.9006L18.9548 54.6896ZM19.475 54.7466C19.5406 54.8333 19.6229 54.938 19.7215 55.0563C20.018 55.4123 20.4599 55.8887 21.0385 56.367C22.1971 57.3246 23.8848 58.2748 26.0428 58.3077C28.2169 58.342 29.9414 57.552 31.1282 56.7467C31.7214 56.3441 32.1773 55.9396 32.4838 55.637C32.5917 55.5305 32.6808 55.4368 32.7508 55.3606C32.6965 55.2879 32.6284 55.2004 32.5462 55.1016C32.2925 54.7971 31.906 54.3877 31.3794 53.9755C30.3287 53.1529 28.7208 52.319 26.4861 52.2833C24.2359 52.2487 22.4179 52.9227 21.1602 53.6071C20.5315 53.9493 20.0448 54.2931 19.7169 54.5499C19.623 54.6233 19.5422 54.6896 19.475 54.7466ZM33.2441 55.3873L33.5509 55.6287L33.7181 55.4156L33.5775 55.1845L33.2441 55.3873Z" fill="#4B5DFF"/>
</g>
<defs>
<clipPath id="clip0">
<rect width="39.81" height="59.3247" fill="white"/>
</clipPath>
</defs>
</svg>
