<svg width="51" height="76" viewBox="0 0 51 76" fill="none" xmlns="http://www.w3.org/2000/svg">
<path fill-rule="evenodd" clip-rule="evenodd" d="M34.9517 0.23023L34.6667 0.641331L34.3237 0.277139L34.6187 0L34.9517 0.23023ZM34.9707 18.9705L35.2667 19.3733L34.9877 19.5787L34.6967 19.3891L34.9707 18.9705ZM34.9567 18.3375C35.0567 18.2512 35.1797 18.141 35.3207 18.0075C35.7197 17.6275 36.2557 17.0603 36.7947 16.3174C37.8737 14.8312 38.9547 12.6566 38.9987 9.87305C39.0417 7.10616 37.8967 4.90406 36.7207 3.37985C36.1337 2.61872 35.5437 2.03276 35.1017 1.63807C34.9557 1.50755 34.8257 1.39823 34.7177 1.3107C34.6417 1.39475 34.5537 1.49574 34.4557 1.61326C34.1127 2.02387 33.6517 2.63463 33.1877 3.42708C32.2587 5.01242 31.3217 7.31522 31.2767 10.1958C31.2317 13.0569 32.2317 15.1487 33.2417 16.5268C33.7467 17.2174 34.2547 17.7287 34.6337 18.0656C34.7567 18.1747 34.8657 18.2653 34.9567 18.3375ZM37.5127 2.76913C38.7757 4.40697 40.0467 6.82469 39.9977 9.88885C39.9497 12.9331 38.7667 15.3032 37.6047 16.9048C37.0227 17.7059 36.4447 18.3184 36.0097 18.7321C35.7917 18.9391 35.6097 19.0969 35.4797 19.2041C35.4157 19.2577 35.3637 19.2987 35.3277 19.327C35.3097 19.3411 35.2947 19.352 35.2847 19.3598L35.2727 19.3689L35.2687 19.3717L35.2677 19.3727C35.2677 19.3728 35.2667 19.3733 34.9707 18.9705C34.6967 19.3891 34.6977 19.3893 34.6967 19.3891L34.6957 19.3885L34.6947 19.3875L34.6907 19.3849L34.6777 19.3765C34.6677 19.3696 34.6537 19.3598 34.6357 19.3472C34.5997 19.322 34.5487 19.2855 34.4857 19.2377C34.3587 19.1421 34.1807 19.0008 33.9697 18.8131C33.5477 18.4379 32.9887 17.875 32.4347 17.1176C31.3227 15.5999 30.2277 13.3001 30.2767 10.1801C30.3247 7.08632 31.3317 4.61587 32.3247 2.92151C32.8217 2.07408 33.3157 1.41835 33.6877 0.972452C33.8747 0.749382 34.0307 0.578434 34.1407 0.46188C34.1967 0.403591 34.2407 0.358868 34.2717 0.327992C34.2877 0.312554 34.2997 0.300573 34.3087 0.292087L34.3187 0.281981L34.3227 0.2789L34.3237 0.277854V0.277139C34.3247 0.276974 34.3237 0.277139 34.6667 0.641331C34.9517 0.23023 34.9507 0.230092 34.9517 0.23023L34.9527 0.230838L34.9537 0.231761L34.9577 0.234552L34.9707 0.243903C34.9817 0.25181 34.9977 0.263057 35.0177 0.277617C35.0567 0.306734 35.1137 0.349117 35.1847 0.404532C35.3277 0.515326 35.5287 0.678432 35.7677 0.891982C36.2457 1.31862 36.8807 1.94925 37.5127 2.76913ZM24.9787 13.7383L24.7577 14.1869L24.3657 13.8766L24.6157 13.5601L24.9787 13.7383ZM29.8277 31.7961L30.2117 32.1164L29.9897 32.3825L29.6627 32.268L29.8277 31.7961ZM29.6557 31.1869C29.7217 31.0912 29.7997 30.9726 29.8847 30.8323C30.1487 30.3992 30.4857 29.7617 30.7667 28.9535C31.3297 27.3407 31.6747 25.0488 30.7957 22.3282C29.9057 19.5839 28.3347 17.657 26.9837 16.4145C26.3087 15.7933 25.6897 15.345 25.2427 15.0534C25.1147 14.97 25.0007 14.8995 24.9037 14.8415C24.8267 14.9568 24.7337 15.0995 24.6317 15.2674C24.3237 15.774 23.9297 16.5065 23.5907 17.4053C22.9107 19.2053 22.4587 21.6433 23.3117 24.2719C24.1697 26.9235 25.8397 28.6881 27.3067 29.7936C28.0397 30.3463 28.7177 30.7316 29.2107 30.9779C29.3847 31.0645 29.5347 31.1337 29.6557 31.1869ZM27.6607 15.6784C29.1047 17.0067 30.7907 19.0734 31.7467 22.0201C32.7057 24.9872 32.3307 27.5066 31.7117 29.2827C31.4027 30.1691 31.0327 30.8706 30.7387 31.3528C30.5917 31.5941 30.4637 31.7812 30.3697 31.9097C30.3237 31.974 30.2857 32.0237 30.2587 32.0583C30.2447 32.0756 30.2337 32.0892 30.2257 32.0989L30.2167 32.1106L30.2137 32.1142L30.2127 32.1155C30.2127 32.1157 30.2117 32.1164 29.8277 31.7961C29.6627 32.268 29.6627 32.2681 29.6627 32.268L29.6597 32.2672L29.6557 32.2656L29.6417 32.2604C29.6297 32.256 29.6127 32.2497 29.5907 32.2415C29.5477 32.2251 29.4867 32.2011 29.4087 32.1688C29.2537 32.1042 29.0337 32.0068 28.7647 31.8726C28.2277 31.6044 27.4947 31.1881 26.7047 30.5922C25.1237 29.4006 23.2987 27.4797 22.3607 24.5801C21.4157 21.6678 21.9247 18.9864 22.6547 17.0521C23.0207 16.0837 23.4447 15.2953 23.7777 14.7478C23.9437 14.4737 24.0887 14.2591 24.1927 14.1115C24.2447 14.0377 24.2867 13.9806 24.3157 13.9412C24.3307 13.9215 24.3427 13.9061 24.3507 13.8953L24.3607 13.8825L24.3637 13.8787L24.3647 13.8774L24.3657 13.8766C24.3657 13.8764 24.3657 13.8766 24.7577 14.1869C24.9787 13.7383 24.9777 13.7382 24.9787 13.7383L24.9807 13.7394L24.9847 13.7414L24.9977 13.748C25.0087 13.7535 25.0237 13.7613 25.0427 13.7715C25.0817 13.7919 25.1367 13.8216 25.2067 13.861C25.3467 13.9398 25.5457 14.0573 25.7887 14.2158C26.2747 14.5326 26.9387 15.0141 27.6607 15.6784ZM49.3767 15.6273L48.9127 15.8113L48.8297 15.3183L49.2277 15.2512L49.3767 15.6273ZM48.2217 26.4606C46.4917 28.9718 44.1897 30.2888 42.3327 30.9768C41.4037 31.321 40.5827 31.5094 39.9907 31.6121C39.6947 31.6634 39.4547 31.6935 39.2877 31.7107C39.2037 31.7194 39.1377 31.7248 39.0927 31.7282C39.0787 31.7292 39.0657 31.73 39.0557 31.7307C39.0497 31.7311 39.0437 31.7314 39.0387 31.7317L39.0237 31.7326L39.0187 31.7328L39.0167 31.7329C39.0167 31.7329 39.0157 31.733 38.9937 31.2335C38.5337 31.4295 38.5337 31.4293 38.5327 31.429V31.4269L38.5307 31.4225L38.5247 31.4086C38.5197 31.397 38.5137 31.3809 38.5057 31.3605C38.4897 31.3195 38.4677 31.261 38.4417 31.1859C38.3887 31.0359 38.3197 30.8196 38.2487 30.546C38.1057 29.9993 37.9537 29.2208 37.9137 28.2825C37.8317 26.4025 38.1957 23.8807 39.9667 21.3141C41.7267 18.7648 43.9357 17.2677 45.7007 16.4088C46.5837 15.9792 47.3587 15.708 47.9147 15.5436C48.1937 15.4614 48.4177 15.4058 48.5747 15.3703C48.6527 15.3526 48.7147 15.34 48.7577 15.3316C48.7717 15.3288 48.7837 15.3266 48.7937 15.3247C48.7987 15.3237 48.8037 15.3228 48.8077 15.322L48.8227 15.3195L48.8267 15.3187L48.8287 15.3184L48.8297 15.3183C48.8297 15.3182 48.8297 15.3183 48.9127 15.8113C49.3767 15.6273 49.3767 15.627 49.3767 15.6273L49.3777 15.6283V15.6298L49.3797 15.6343L49.3857 15.6494C49.3907 15.6622 49.3977 15.6802 49.4057 15.7034C49.4227 15.7497 49.4467 15.8165 49.4747 15.9022C49.5317 16.0736 49.6087 16.3209 49.6897 16.6316C49.8507 17.2523 50.0297 18.1299 50.1007 19.1631C50.2447 21.227 49.9607 23.9429 48.2217 26.4606ZM38.9937 31.2335L38.5327 31.429L38.6697 31.7486L39.0157 31.733L38.9937 31.2335ZM39.3337 30.6992C39.4647 30.6831 39.6287 30.6599 39.8197 30.6268C40.3627 30.5325 41.1247 30.3582 41.9857 30.0391C43.7087 29.4008 45.8157 28.1895 47.3987 25.8932C48.9687 23.6207 49.2367 21.1535 49.1037 19.2323C49.0367 18.273 48.8707 17.4574 48.7217 16.8831C48.6717 16.6928 48.6247 16.5295 48.5837 16.3967C48.4737 16.4245 48.3447 16.4594 48.1987 16.5027C47.6857 16.654 46.9637 16.9063 46.1387 17.308C44.4867 18.1116 42.4287 19.5079 40.7897 21.8821C39.1657 24.2355 38.8377 26.5314 38.9127 28.239C38.9497 29.0947 39.0877 29.8025 39.2157 30.2936C39.2577 30.4526 39.2977 30.5886 39.3337 30.6992ZM35.0917 22.7678C35.3667 22.7435 35.6097 22.9468 35.6337 23.2219C36.4707 32.6908 31.2507 54.5132 5.85374 68.7599C5.61374 68.895 5.30874 68.8094 5.17374 68.5686C5.03874 68.3277 5.12374 68.023 5.36474 67.8879C30.4087 53.8387 35.4407 32.3973 34.6377 23.3099C34.6137 23.0348 34.8167 22.7921 35.0917 22.7678ZM22.5107 28.7498L22.2327 29.1658L21.8847 28.8068L22.1747 28.526L22.5107 28.7498ZM24.9597 47.2868L24.7337 47.733L25.0427 47.8895L25.2977 47.6546L24.9597 47.2868ZM22.2927 29.8338C22.2007 29.9378 22.0907 30.0671 21.9667 30.22C21.5957 30.6815 21.1097 31.3559 20.6547 32.2026C19.7447 33.898 18.9767 36.2573 19.4727 38.9802C19.9797 41.7162 21.4077 43.6823 22.7187 44.9704C23.3737 45.6142 23.9967 46.0853 24.4547 46.3944C24.6157 46.5031 24.7557 46.5916 24.8687 46.6602C24.9457 46.5741 25.0387 46.467 25.1417 46.3395C25.4587 45.9449 25.8757 45.3573 26.2597 44.5931C27.0267 43.0681 27.6687 40.8404 27.1527 38.0247C26.6277 35.1866 25.3227 33.0714 24.1467 31.6637C23.5587 30.9599 23.0047 30.435 22.5997 30.0878C22.4847 29.9885 22.3807 29.9039 22.2927 29.8338ZM24.9147 31.0225C26.1717 32.5276 27.5727 34.7965 28.1367 37.8437C28.6987 40.9136 27.9977 43.3629 27.1527 45.0425C26.7317 45.8807 26.2737 46.5275 25.9197 46.9669C25.7427 47.1868 25.5907 47.3553 25.4817 47.4704C25.4267 47.528 25.3827 47.5723 25.3517 47.6031C25.3357 47.6185 25.3237 47.6305 25.3147 47.6391L25.3037 47.6494L25.2997 47.6526L25.2987 47.6538C25.2987 47.6539 25.2977 47.6546 24.9597 47.2868C24.7337 47.733 24.7337 47.7331 24.7337 47.733L24.7327 47.7325L24.7317 47.7318L24.7267 47.7296L24.7137 47.7226C24.7017 47.7166 24.6867 47.7082 24.6657 47.6973C24.6257 47.6754 24.5677 47.6434 24.4947 47.6012C24.3497 47.5168 24.1437 47.3912 23.8947 47.2229C23.3967 46.8866 22.7247 46.3778 22.0177 45.6837C20.6057 44.296 19.0437 42.1543 18.4897 39.1618V39.1606C17.9387 36.1448 18.7957 33.552 19.7737 31.7298C20.2637 30.8176 20.7867 30.0918 21.1887 29.5929C21.3897 29.3431 21.5607 29.1494 21.6827 29.0169C21.7447 28.9506 21.7937 28.8995 21.8277 28.8643C21.8367 28.8548 21.8447 28.8465 21.8527 28.8393C21.8587 28.8332 21.8637 28.8279 21.8687 28.8234L21.8797 28.812L21.8837 28.8086L21.8847 28.8075V28.8068C21.8857 28.8066 21.8847 28.8068 22.2327 29.1658C22.5107 28.7498 22.5107 28.7497 22.5107 28.7498L22.5117 28.7504L22.5127 28.7513L22.5167 28.7538L22.5287 28.762C22.5387 28.7689 22.5527 28.7786 22.5707 28.7912C22.6057 28.8165 22.6567 28.8532 22.7207 28.9013C22.8497 28.9977 23.0307 29.14 23.2507 29.3288C23.6907 29.706 24.2857 30.2698 24.9147 31.0225ZM46.7937 31.9741C44.9797 32.2544 42.6017 32.9817 40.3367 34.7685C38.0927 36.5394 37.1017 38.6353 36.6677 40.2873C36.4507 41.115 36.3747 41.8313 36.3517 42.3377C36.3437 42.5013 36.3427 42.6427 36.3437 42.7586C36.4737 42.782 36.6377 42.8083 36.8297 42.8332C37.3777 42.9038 38.1567 42.9624 39.0747 42.9124C40.9107 42.8122 43.2817 42.2787 45.4707 40.5545C47.6427 38.8436 48.6247 36.5645 49.0627 34.6892C49.2807 33.7527 49.3617 32.9243 49.3877 32.3315C49.3957 32.1348 49.3987 31.9644 49.3987 31.8252C49.2857 31.8194 49.1517 31.8146 48.9987 31.8127C48.4647 31.806 47.7007 31.8339 46.7937 31.9741ZM49.8847 31.3631C50.3827 31.3235 50.3827 31.3238 50.3827 31.324V31.3262L50.3837 31.3311L50.3847 31.3472C50.3847 31.3523 50.3857 31.3582 50.3857 31.3649C50.3867 31.376 50.3867 31.3893 50.3877 31.4048C50.3907 31.454 50.3937 31.5249 50.3957 31.6152C50.3997 31.7958 50.4007 32.0547 50.3867 32.3754C50.3587 33.0161 50.2717 33.9076 50.0357 34.9164C49.5657 36.9315 48.4957 39.4446 46.0887 41.3401C43.6957 43.2258 41.1077 43.8029 39.1287 43.9109C38.1397 43.9649 37.2987 43.9019 36.7027 43.825C36.4037 43.7865 36.1657 43.7444 36.0007 43.7114C35.9187 43.695 35.8537 43.6807 35.8097 43.6704C35.7867 43.6652 35.7697 43.661 35.7567 43.6579L35.7417 43.6542L35.7377 43.6531L35.7357 43.6527C35.7357 43.6526 35.7347 43.6524 35.8607 43.1685C35.3637 43.2198 35.3637 43.2196 35.3637 43.2193L35.3627 43.217V43.2123L35.3617 43.1973C35.3607 43.1849 35.3587 43.1676 35.3577 43.1457C35.3537 43.102 35.3507 43.0396 35.3477 42.9603C35.3417 42.8017 35.3397 42.5749 35.3527 42.2928C35.3777 41.729 35.4627 40.9413 35.7007 40.0336C36.1777 38.2148 37.2697 35.9143 39.7167 33.9833C42.1497 32.0647 44.7017 31.2855 46.6417 30.9858C47.6117 30.8359 48.4307 30.8055 49.0117 30.8128C49.3017 30.8165 49.5317 30.8296 49.6927 30.8421C49.7727 30.8483 49.8347 30.8544 49.8787 30.8591C49.9007 30.8614 49.9177 30.8634 49.9297 30.8648L49.9437 30.8666L49.9487 30.8672L49.9497 30.8674C49.9497 30.8674 49.9507 30.8675 49.8847 31.3631ZM35.8607 43.1685L35.3637 43.2193L35.3987 43.565L35.7347 43.6524L35.8607 43.1685ZM49.8847 31.3631L49.9507 30.8675L50.3507 30.9212L50.3827 31.324L49.8847 31.3631ZM14.8437 38.6138L14.5287 39.0021L14.2147 38.6123L14.5297 38.3594L14.8437 38.6138ZM15.5417 57.3005L15.2757 57.7236L15.5687 57.9086L15.8447 57.698L15.5417 57.3005ZM14.5257 39.6729C14.4237 39.768 14.3017 39.8866 14.1647 40.0276C13.7517 40.453 13.2047 41.0797 12.6727 41.8807C11.6077 43.4848 10.6207 45.762 10.8607 48.5157C11.1067 51.2872 12.3427 53.3785 13.5277 54.7839C14.1197 55.4864 14.6957 56.0139 15.1227 56.3645C15.2727 56.4878 15.4037 56.589 15.5097 56.6679C15.5947 56.5892 15.6967 56.4909 15.8117 56.3732C16.1657 56.0094 16.6347 55.4622 17.0897 54.7366C17.9977 53.2884 18.8457 51.13 18.5957 48.2819C18.3417 45.4095 17.2417 43.1816 16.2017 41.6695C15.6827 40.9136 15.1787 40.3388 14.8077 39.9549C14.7017 39.8451 14.6067 39.751 14.5257 39.6729ZM14.2147 38.6123C14.2157 38.6121 14.2147 38.6123 14.5287 39.0021C14.8437 38.6138 14.8437 38.6137 14.8437 38.6138L14.8447 38.6145L14.8457 38.6155L14.8487 38.6183L14.8597 38.6276C14.8697 38.6354 14.8827 38.6465 14.8997 38.6607C14.9327 38.6892 14.9797 38.7305 15.0387 38.7845C15.1577 38.8925 15.3257 39.0514 15.5277 39.26C15.9307 39.6771 16.4697 40.2944 17.0257 41.1029C18.1377 42.7195 19.3197 45.1096 19.5917 48.1943C19.8637 51.3002 18.9367 53.6732 17.9367 55.2676C17.4387 56.0632 16.9227 56.6653 16.5287 57.0703C16.3317 57.273 16.1647 57.4269 16.0447 57.5315C15.9857 57.5838 15.9377 57.6239 15.9037 57.6517C15.8867 57.6655 15.8727 57.6763 15.8627 57.6841L15.8507 57.6933L15.8477 57.6962L15.8457 57.6973C15.8457 57.6974 15.8447 57.698 15.5417 57.3005C15.2757 57.7236 15.2757 57.7237 15.2757 57.7236L15.2747 57.723L15.2727 57.7221L15.2687 57.7196L15.2557 57.7113C15.2457 57.7044 15.2307 57.6945 15.2117 57.6817C15.1727 57.6561 15.1187 57.6189 15.0497 57.57C14.9127 57.4723 14.7197 57.328 14.4877 57.137C14.0227 56.7554 13.4017 56.1858 12.7627 55.4284C11.4867 53.9141 10.1337 51.635 9.86374 48.6032C9.59874 45.5531 10.6947 43.051 11.8397 41.3275C12.4117 40.4648 13.0007 39.7904 13.4477 39.3307C13.6717 39.1006 13.8597 38.9236 13.9947 38.8029C14.0617 38.7425 14.1147 38.6962 14.1527 38.6643C14.1717 38.6483 14.1867 38.636 14.1967 38.6273L14.2097 38.617L14.2127 38.614L14.2147 38.6123ZM41.8937 45.9039C40.0617 45.7732 37.5827 45.9532 34.9767 47.1921C32.3967 48.4194 30.9647 50.244 30.1747 51.7602C29.7787 52.5198 29.5447 53.202 29.4097 53.6914C29.3667 53.8495 29.3327 53.9872 29.3087 54.1005C29.4307 54.1522 29.5837 54.2139 29.7657 54.2805C30.2847 54.4704 31.0317 54.6997 31.9377 54.8538C33.7497 55.1622 36.1817 55.1671 38.6997 53.9728C41.1937 52.7846 42.6577 50.7816 43.5007 49.0522C43.9217 48.1885 44.1847 47.3999 44.3427 46.8285C44.3947 46.6393 44.4347 46.4743 44.4657 46.3388C44.3567 46.308 44.2277 46.2735 44.0787 46.2376C43.5597 46.112 42.8087 45.9692 41.8937 45.9039ZM45.0427 45.9967C45.5377 46.0693 45.5367 46.0696 45.5367 46.0698V46.072L45.5357 46.0768L45.5337 46.0928C45.5317 46.1063 45.5287 46.1253 45.5237 46.1495C45.5157 46.1981 45.5027 46.2677 45.4847 46.3561C45.4487 46.5328 45.3917 46.785 45.3067 47.0941C45.1367 47.7116 44.8537 48.5602 44.3997 49.4905C43.4937 51.3487 41.8927 53.5595 39.1297 54.8757C36.3757 56.182 33.7227 56.1719 31.7697 55.8397C30.7927 55.6735 29.9867 55.4262 29.4217 55.2195C29.1397 55.1161 28.9167 55.0226 28.7637 54.954C28.6867 54.9197 28.6267 54.8917 28.5857 54.8716C28.5647 54.8616 28.5487 54.8537 28.5367 54.8479L28.5237 54.841L28.5177 54.8382C28.5177 54.8381 28.5167 54.8377 28.7467 54.3935C28.2497 54.333 28.2497 54.3327 28.2497 54.3324L28.2507 54.3301V54.3254L28.2527 54.3105C28.2547 54.2981 28.2577 54.281 28.2607 54.2593C28.2677 54.2159 28.2777 54.1542 28.2927 54.0762C28.3227 53.9201 28.3707 53.6983 28.4457 53.4257C28.5957 52.8811 28.8537 52.1311 29.2877 51.2982C30.1567 49.6293 31.7327 47.6274 34.5467 46.289C37.3457 44.9586 40.0067 44.7667 41.9647 44.9064C42.9437 44.9763 43.7497 45.1292 44.3137 45.2656C44.5957 45.3339 44.8177 45.3981 44.9717 45.446C45.0477 45.4699 45.1077 45.4898 45.1487 45.504C45.1697 45.5111 45.1857 45.5169 45.1977 45.521L45.2117 45.526L45.2157 45.5275L45.2167 45.528C45.2167 45.5281 45.2177 45.5284 45.0427 45.9967ZM28.7467 54.3935L28.2497 54.3324L28.2077 54.678L28.5167 54.8377L28.7467 54.3935ZM45.0427 45.9967L45.2177 45.5284L45.5957 45.6699L45.5367 46.0698L45.0427 45.9967ZM7.89274 48.5349L7.47874 48.8157L7.29174 48.3521L7.66574 48.2008L7.89274 48.5349ZM3.17974 66.6364C2.80274 66.9649 2.80274 66.9647 2.80274 66.9645L2.80074 66.9629L2.79774 66.9593L2.78774 66.9477C2.77974 66.9379 2.76774 66.924 2.75374 66.9062C2.72374 66.8707 2.68274 66.8194 2.63074 66.7529C2.52774 66.6198 2.38474 66.4257 2.21674 66.1758C1.88174 65.6765 1.44974 64.9517 1.05674 64.0423C0.269737 62.2241 -0.36966 59.6514 0.24674 56.6711C0.87074 53.6696 2.64174 51.5884 4.23374 50.2674C5.03074 49.6061 5.78974 49.1301 6.34974 48.8187C6.62974 48.6628 6.86174 48.5477 7.02474 48.4709C7.10674 48.4324 7.17174 48.4035 7.21674 48.3839C7.23074 48.3777 7.24274 48.3724 7.25374 48.3681C7.25974 48.3655 7.26474 48.3632 7.26974 48.3612L7.28474 48.355L7.28874 48.3531L7.29074 48.3525L7.29174 48.3521C7.29174 48.352 7.29174 48.3521 7.47874 48.8157C7.89274 48.5349 7.89274 48.5347 7.89274 48.5349L7.89374 48.5358V48.5371L7.89674 48.5408L7.90474 48.5529C7.91174 48.5631 7.92074 48.5775 7.93274 48.5959C7.95574 48.6328 7.98974 48.6861 8.03074 48.755C8.11374 48.8928 8.22874 49.0935 8.36174 49.3516C8.62674 49.8675 8.96674 50.6147 9.26574 51.5497C9.86474 53.4191 10.3087 56.0495 9.68174 59.0813C9.04774 62.1371 7.47574 64.1427 6.05974 65.3814C5.35274 65.9996 4.68474 66.427 4.19074 66.701C3.94374 66.8382 3.73974 66.9374 3.59474 67.003C3.52274 67.0359 3.46474 67.0603 3.42474 67.077C3.40374 67.0854 3.38774 67.0919 3.37674 67.0965L3.36274 67.1019L3.35774 67.1036L3.35674 67.1041C3.35574 67.1042 3.35474 67.1046 3.17974 66.6364ZM3.17974 66.6364L2.80274 66.9645L3.03074 67.2262L3.35474 67.1046L3.17974 66.6364ZM3.33174 66.0218C3.43574 65.9711 3.56174 65.9064 3.70574 65.8267C4.14974 65.5806 4.75674 65.1924 5.40074 64.6287C6.68674 63.5038 8.12074 61.6809 8.70274 58.8785C9.28674 56.0553 8.87374 53.6037 8.31374 51.8548C8.03374 50.9805 7.71674 50.2845 7.47274 49.8095C7.40274 49.6734 7.33774 49.5556 7.28274 49.4572C7.15774 49.519 7.00674 49.5973 6.83574 49.6928C6.31674 49.9808 5.61274 50.4231 4.87274 51.037C3.39074 52.2663 1.78974 54.1638 1.22674 56.8737C0.662743 59.5982 1.24474 61.9576 1.97474 63.6452C2.33974 64.4887 2.73974 65.1601 3.04774 65.6189C3.15574 65.7805 3.25274 65.9154 3.33174 66.0218ZM35.2537 58.8424C33.5467 58.1666 31.1277 57.5904 28.2717 57.9802C25.4367 58.3703 23.5207 59.6752 22.3107 60.8796C21.7057 61.4831 21.2767 62.0615 21.0017 62.4864C20.9127 62.6236 20.8397 62.7446 20.7817 62.8449C20.8827 62.9311 21.0097 63.0366 21.1637 63.1555C21.5997 63.4935 22.2417 63.9383 23.0577 64.3596C24.6897 65.2025 27.0027 65.9436 29.7607 65.5671C32.4987 65.1898 34.5017 63.7218 35.8307 62.3266C36.4947 61.6299 36.9847 60.9567 37.3087 60.4589C37.4157 60.2943 37.5037 60.1492 37.5747 60.0292C37.4797 59.9675 37.3677 59.896 37.2367 59.8175C36.7797 59.5419 36.1067 59.1802 35.2537 58.8424ZM38.2287 59.8766C38.6777 60.0957 38.6777 60.0959 38.6777 60.0961L38.6767 60.0981L38.6747 60.1025L38.6677 60.117C38.6607 60.1291 38.6527 60.1463 38.6407 60.1682C38.6187 60.212 38.5847 60.2745 38.5407 60.3535C38.4527 60.5112 38.3217 60.7346 38.1467 61.0038C37.7977 61.5417 37.2697 62.266 36.5547 63.0163C35.1277 64.5152 32.9297 66.1401 29.8957 66.5579C26.8797 66.9696 24.3577 66.1565 22.5987 65.2482C21.7187 64.7939 21.0257 64.3139 20.5507 63.946C20.3137 63.7618 20.1297 63.6053 20.0037 63.4934C19.9417 63.4374 19.8927 63.3926 19.8597 63.3609C19.8427 63.3451 19.8297 63.3326 19.8207 63.3237L19.8097 63.313L19.8067 63.3097L19.8057 63.3086C19.8047 63.3084 19.8047 63.3078 20.1577 62.9542C19.7027 62.747 19.7027 62.7468 19.7037 62.7466V62.7444L19.7057 62.7401L19.7127 62.7265C19.7157 62.7204 19.7187 62.7131 19.7227 62.7045C19.7267 62.6972 19.7307 62.689 19.7347 62.68C19.7547 62.6407 19.7827 62.5851 19.8207 62.5153C19.8957 62.3757 20.0087 62.179 20.1627 61.9422C20.4687 61.469 20.9407 60.833 21.6057 60.1711C22.9377 58.8446 25.0447 57.4148 28.1357 56.9895C31.2027 56.5708 33.7967 57.1903 35.6217 57.9126C36.5337 58.2738 37.2567 58.6617 37.7527 58.9609C38.0017 59.1106 38.1937 59.2384 38.3257 59.33C38.3917 59.3758 38.4427 59.4126 38.4777 59.4386C38.4957 59.4516 38.5087 59.4619 38.5187 59.4693L38.5307 59.4781L38.5337 59.4809L38.5357 59.4818C38.5357 59.482 38.5357 59.4824 38.2287 59.8766ZM20.1577 62.9542L19.7037 62.7466L19.5597 63.0626L19.8047 63.3078L20.1577 62.9542ZM38.2287 59.8766L38.5357 59.4824L38.8557 59.7316L38.6777 60.0961L38.2287 59.8766ZM23.2907 68.6754C21.6797 67.7985 19.3497 66.9351 16.4677 66.9794C13.6047 67.0251 11.5447 68.0934 10.1987 69.1473C9.52374 69.6753 9.02874 70.1999 8.70374 70.59C8.59874 70.7165 8.51174 70.8286 8.44174 70.9218C8.53174 71.0194 8.64574 71.1393 8.78374 71.2757C9.17674 71.6633 9.76074 72.1817 10.5207 72.6973C12.0407 73.7291 14.2497 74.7411 17.0347 74.6971C19.7997 74.655 21.9617 73.4378 23.4467 72.2109C24.1877 71.5983 24.7537 70.9879 25.1337 70.5319C25.2597 70.3803 25.3647 70.2462 25.4497 70.1351C25.3627 70.0621 25.2597 69.9771 25.1397 69.8829C24.7197 69.5541 24.0957 69.1137 23.2907 68.6754ZM26.1157 70.062C26.5367 70.3324 26.5367 70.3327 26.5357 70.3329L26.5347 70.3347L26.5327 70.3388L26.5237 70.3523C26.5157 70.3637 26.5047 70.3798 26.4907 70.4002C26.4637 70.441 26.4227 70.4991 26.3697 70.5723C26.2637 70.7187 26.1077 70.9252 25.9017 71.172C25.4917 71.6649 24.8817 72.3217 24.0837 72.9817C22.4887 74.3001 20.1137 75.6503 17.0507 75.697C14.0047 75.7451 11.5977 74.6365 9.95874 73.5247C9.13974 72.9686 8.50874 72.4094 8.08174 71.9874C7.86774 71.7763 7.70374 71.5989 7.59274 71.4728C7.53674 71.4098 7.49474 71.3595 7.46474 71.3241C7.45074 71.3064 7.43874 71.2923 7.43074 71.2823L7.42174 71.2705L7.41874 71.2668L7.41774 71.2655C7.41674 71.2653 7.41674 71.2647 7.80974 70.956C7.38274 70.6961 7.38274 70.6958 7.38274 70.6956L7.38474 70.6936L7.38674 70.6896L7.39474 70.6768C7.40174 70.6662 7.41074 70.6517 7.42274 70.6333C7.44674 70.5965 7.48174 70.5445 7.52774 70.4795C7.61874 70.3496 7.75474 70.1673 7.93574 69.95C8.29774 69.5157 8.84274 68.939 9.58274 68.3599C11.0647 67.1993 13.3297 66.0294 16.4517 65.9795C19.5467 65.9318 22.0457 66.8596 23.7687 67.7971C24.6297 68.2659 25.2997 68.7383 25.7557 69.0956C25.9837 69.2743 26.1597 69.4244 26.2787 69.5314C26.3387 69.5849 26.3847 69.6277 26.4167 69.6577C26.4327 69.6728 26.4447 69.6847 26.4537 69.6932L26.4637 69.7034L26.4677 69.7065L26.4687 69.7076C26.4687 69.7078 26.4687 69.7082 26.1157 70.062ZM7.80974 70.956L7.38274 70.6956L7.20274 70.9921L7.41674 71.2646L7.80974 70.956ZM26.1157 70.062L26.4687 69.7083L26.7547 69.9933L26.5357 70.3329L26.1157 70.062Z" fill="#4B5DFF"/>
</svg>
