<svg width="50" height="76" viewBox="0 0 50 76" fill="none" xmlns="http://www.w3.org/2000/svg">
<path d="M48.4198 16.7508C48.3104 16.7787 48.1812 16.8136 48.0347 16.8569C47.5222 17.0082 46.8005 17.2605 45.9749 17.6622C44.3232 18.4657 42.2652 19.8621 40.6265 22.2362L48.4198 16.7508ZM48.4198 16.7508C48.461 16.8837 48.5084 17.047 48.5578 17.2372C48.7071 17.8116 48.8733 18.6272 48.9398 19.5865C49.0731 21.5077 48.8052 23.9744 47.2351 26.2469L47.2348 26.2474C45.6522 28.5437 43.545 29.7549 41.8219 30.3933C40.9607 30.7124 40.1995 30.8867 39.6559 30.981C39.4648 31.0141 39.301 31.0373 39.1696 31.0534C39.1343 30.9428 39.094 30.8068 39.0525 30.6478C38.9244 30.1566 38.7859 29.4488 38.7487 28.5932C38.6744 26.8856 39.0025 24.5897 40.6264 22.2363L48.4198 16.7508Z" stroke="#4B5DFF"/>
<path d="M23.1489 24.6265L23.1487 24.626C22.2957 21.9974 22.7475 19.5594 23.4271 17.7594C23.7665 16.8606 24.1602 16.1281 24.4683 15.6215C24.5705 15.4536 24.663 15.3109 24.7406 15.1956C24.8375 15.2536 24.9513 15.3241 25.0792 15.4075C25.5263 15.6992 26.1449 16.1474 26.8203 16.7686C28.1713 18.0111 29.7419 19.938 30.6321 22.6823L23.1489 24.6265ZM23.1489 24.6265C24.0062 27.2782 25.6764 29.0422 27.1429 30.1478C27.8759 30.7004 28.5545 31.0857 29.0478 31.332C29.2213 31.4186 29.3716 31.4878 29.4927 31.541M23.1489 24.6265L29.4927 31.541M29.4927 31.541C29.5584 31.4453 29.6362 31.3267 29.7217 31.1864C29.9857 30.7533 30.322 30.1158 30.6037 29.3076C31.1659 27.6949 31.5117 25.4031 30.6322 22.6827L29.4927 31.541Z" stroke="#4B5DFF"/>
<path d="M22.4365 30.442C22.3208 30.3427 22.2174 30.2581 22.1291 30.188C22.0371 30.292 21.9268 30.4213 21.8036 30.5742C21.432 31.0357 20.9458 31.7101 20.4914 32.5568C19.5816 34.2523 18.8127 36.6117 19.3096 39.3347C19.8166 42.0706 21.2441 44.0366 22.5552 45.3246C23.2105 45.9684 23.8336 46.4395 24.2909 46.7486C24.4518 46.8573 24.5919 46.9458 24.7052 47.0144C24.7826 46.9283 24.8749 46.8212 24.9777 46.6937C25.2956 46.2991 25.7117 45.7115 26.0961 44.9473C26.8633 43.4223 27.505 41.1949 26.9894 38.3794C26.4644 35.5411 25.1596 33.4257 23.9835 32.0179C23.3955 31.3141 22.8413 30.7892 22.4365 30.442Z" stroke="#4B5DFF"/>
<path d="M14.6449 40.309C14.5388 40.1992 14.4436 40.1051 14.362 40.027C14.2606 40.1222 14.1386 40.2407 14.0016 40.3818C13.5883 40.8071 13.0409 41.4338 12.5091 42.2348C11.4441 43.8388 10.4575 46.1158 10.6969 48.8692C10.943 51.641 12.1795 53.7326 13.3641 55.1381C13.9562 55.8405 14.5326 56.3681 14.959 56.7187C15.109 56.842 15.2401 56.9431 15.3465 57.0221C15.4318 56.9434 15.5339 56.8451 15.6483 56.7274C16.0021 56.3635 16.4718 55.8164 16.9264 55.0907C17.8339 53.6425 18.682 51.4841 18.4323 48.6361C18.1789 45.7636 17.0783 43.5357 16.0386 42.0236C15.5189 41.2677 15.0158 40.6929 14.6449 40.309ZM14.6786 39.7456C14.6786 39.7456 14.6786 39.7456 14.6786 39.7457L14.6786 39.7456Z" stroke="#4B5DFF"/>
<path d="M3.1681 66.3761C3.08881 66.2697 2.99215 66.1348 2.88378 65.9732C2.57609 65.5144 2.17582 64.8429 1.81091 63.9994C1.08082 62.3118 0.499025 59.9525 1.06281 57.2281L3.1681 66.3761ZM3.1681 66.3761C3.27245 66.3253 3.39861 66.2607 3.54222 66.181C3.9858 65.9348 4.59319 65.5466 5.23761 64.983C6.52368 63.8581 7.9576 62.0353 8.53871 59.2329L3.1681 66.3761ZM7.11912 49.8114C6.99461 49.8732 6.84366 49.9515 6.67186 50.047C6.15352 50.3351 5.44887 50.7773 4.70887 51.3912C3.22707 52.6205 1.62634 54.518 1.06283 57.228L7.11912 49.8114ZM7.11912 49.8114C7.17474 49.9099 7.23887 50.0276 7.30895 50.1637C7.55363 50.6387 7.8699 51.3348 8.14999 52.209C8.7103 53.9579 9.12277 56.4096 8.53876 59.2327L7.11912 49.8114ZM7.50332 49.6333C7.5034 49.6333 7.50339 49.6333 7.5033 49.6333L7.50332 49.6333Z" stroke="#4B5DFF"/>
<path d="M31.1133 10.55L31.1133 10.5503C31.0676 13.4114 32.0685 15.5029 33.0777 16.8811C33.5834 17.5716 34.0913 18.0829 34.4703 18.4199C34.593 18.5289 34.702 18.6195 34.7927 18.6918C34.893 18.6055 35.0163 18.4953 35.1568 18.3617C35.5564 17.9817 36.0924 17.4145 36.6315 16.6717C37.7101 15.1854 38.7907 13.0108 38.8347 10.2273C38.8784 7.46044 37.7331 5.25834 36.5575 3.73413C35.9705 2.97299 35.3804 2.38704 34.9381 1.99235C34.7919 1.86182 34.6621 1.75251 34.5544 1.66498C34.4786 1.74902 34.3903 1.85002 34.2922 1.96754C33.9494 2.37815 33.4886 2.9889 33.0242 3.78135C32.0952 5.3667 31.1577 7.6695 31.1133 10.55Z" stroke="#4B5DFF"/>
<path d="M49.2239 32.6857C49.2326 32.489 49.2352 32.3187 49.2348 32.1794C49.1219 32.1736 48.988 32.1689 48.8351 32.1669C48.301 32.1602 47.5374 32.1882 46.6304 32.3283C44.816 32.6086 42.4387 33.3359 40.1731 35.1226C37.9287 36.8936 36.9378 38.9895 36.5046 40.6415C36.2875 41.4692 36.2107 42.1855 36.1879 42.6919C36.1806 42.8556 36.1789 42.997 36.1799 43.1128C36.3104 43.1362 36.474 43.1626 36.6667 43.1874C37.2143 43.2581 37.9935 43.3166 38.911 43.2666C40.7468 43.1664 43.1181 42.6329 45.3068 40.9088L45.3068 40.9087C47.4791 39.1978 48.4612 36.9187 48.8987 35.0434C49.1172 34.1069 49.1979 33.2786 49.2239 32.6857ZM49.2224 31.7564C49.2224 31.7563 49.2224 31.7563 49.2224 31.7563L49.2224 31.7564Z" stroke="#4B5DFF"/>
<path d="M44.302 46.6929C44.2713 46.8284 44.2309 46.9934 44.1788 47.1826C44.0214 47.754 43.7583 48.5426 43.3372 49.4063C42.4938 51.1357 41.0306 53.1386 38.536 54.3269C36.018 55.5213 33.5865 55.5163 31.7738 55.2079C30.8677 55.0538 30.1206 54.8245 29.6022 54.6346C29.4201 54.568 29.2666 54.5063 29.1447 54.4546C29.1695 54.3413 29.2026 54.2037 29.2462 54.0455C29.381 53.5561 29.6154 52.874 30.0111 52.1143C30.8008 50.5981 32.2326 48.7735 34.813 47.5462L44.302 46.6929ZM44.302 46.6929C44.1932 46.6621 44.0637 46.6276 43.9151 46.5917C43.3959 46.4661 42.6452 46.3233 41.7298 46.258C39.8986 46.1273 37.4191 46.3073 34.8131 47.5461L44.302 46.6929ZM44.3843 46.2776C44.3843 46.2775 44.3843 46.2775 44.3843 46.2776L44.3843 46.2776Z" stroke="#4B5DFF"/>
<path d="M20.8377 62.8405C20.7487 62.9778 20.6758 63.0988 20.6182 63.199C20.7187 63.2853 20.8464 63.3907 20.9999 63.5096C21.4361 63.8477 22.078 64.2925 22.8939 64.7138C24.5264 65.5567 26.8395 66.2977 29.5968 65.9213C32.3356 65.544 34.3385 64.0759 35.6676 62.6807C36.3313 61.984 36.8215 61.3108 37.145 60.8131C37.252 60.6484 37.3405 60.5033 37.4108 60.3834C37.3166 60.3216 37.2039 60.2501 37.0735 60.1716C36.6162 59.8961 35.9431 59.5343 35.0898 59.1965C33.3828 58.5207 30.9645 57.9444 28.1081 58.3343C25.2727 58.7245 23.357 60.0294 22.1477 61.2337C21.5417 61.8372 21.1133 62.4156 20.8377 62.8405Z" stroke="#4B5DFF"/>
<path d="M8.27835 71.276C8.34781 71.1828 8.43506 71.0707 8.54041 70.9442C8.86534 70.5541 9.36053 70.0296 10.0351 69.5015C11.3812 68.4477 13.4409 67.3794 16.3037 67.3337L8.27835 71.276ZM8.27835 71.276C8.36787 71.3736 8.48207 71.4936 8.62026 71.63C9.0129 72.0177 9.59701 72.5359 10.3569 73.0516C11.8773 74.0833 14.0863 75.0954 16.8715 75.0514L16.8718 75.0514C19.6363 75.0093 21.7984 73.792 23.2827 72.5652C24.0239 71.9525 24.59 71.3422 24.9699 70.8861C25.0962 70.7346 25.2016 70.6004 25.2857 70.4893C25.1996 70.4163 25.0961 70.3314 24.9758 70.2373C24.5557 69.9084 23.9322 69.468 23.1268 69.0296C21.5156 68.1528 19.1865 67.2893 16.3039 67.3337L8.27835 71.276Z" stroke="#4B5DFF"/>
<path d="M34.972 23.6201C35.7922 32.8983 30.6662 54.5303 5.44596 68.6782" stroke="#4B5DFF" stroke-linecap="round" stroke-linejoin="round"/>
</svg>
