<svg width="40" height="60" viewBox="0 0 40 60" fill="none" xmlns="http://www.w3.org/2000/svg">
<g clip-path="url(#clip0)">
<path fill-rule="evenodd" clip-rule="evenodd" d="M27.2829 0.179715L27.0604 0.500615L26.7927 0.216331L27.0229 0L27.2829 0.179715ZM27.2977 14.8082L27.5288 15.1226L27.311 15.2829L27.0838 15.1349L27.2977 14.8082ZM27.2868 14.314C27.3648 14.2467 27.4609 14.1607 27.5709 14.0564C27.8824 13.7598 28.3008 13.3171 28.7215 12.7372C29.5638 11.5771 30.4076 9.87959 30.4419 7.70679C30.4755 5.54698 29.5817 3.82805 28.6637 2.63827C28.2055 2.04414 27.745 1.58675 27.4 1.27866C27.286 1.17678 27.1845 1.09144 27.1002 1.02312C27.0409 1.08873 26.9722 1.16756 26.8957 1.25929C26.628 1.57981 26.2681 2.05656 25.9059 2.67514C25.1808 3.91264 24.4494 5.71017 24.4142 7.95872C24.3791 10.1921 25.1597 11.8249 25.9481 12.9006C26.3423 13.4397 26.7388 13.8388 27.0347 14.1018C27.1307 14.187 27.2158 14.2577 27.2868 14.314ZM29.282 2.16155C30.2679 3.44003 31.26 5.32727 31.2217 7.71912C31.1843 10.0954 30.2608 11.9455 29.3538 13.1957C28.8995 13.821 28.4483 14.2991 28.1088 14.6221C27.9386 14.7836 27.7965 14.9068 27.695 14.9905C27.6451 15.0323 27.6045 15.0643 27.5764 15.0864C27.5623 15.0974 27.5506 15.1059 27.5428 15.112L27.5335 15.1191L27.5303 15.1213L27.5296 15.1221C27.5296 15.1222 27.5288 15.1226 27.2977 14.8082C27.0838 15.1349 27.0846 15.1351 27.0838 15.1349L27.0831 15.1344L27.0823 15.1337L27.0792 15.1316L27.069 15.1251C27.0612 15.1197 27.0503 15.112 27.0362 15.1022C27.0081 15.0825 26.9683 15.054 26.9191 15.0167C26.82 14.9421 26.6811 14.8318 26.5163 14.6853C26.1869 14.3924 25.7506 13.953 25.3181 13.3618C24.4501 12.1771 23.5954 10.3819 23.6336 7.94647C23.6711 5.5315 24.4572 3.60309 25.2323 2.2805C25.6202 1.619 26.0058 1.10715 26.2962 0.759085C26.4422 0.584959 26.564 0.451519 26.6498 0.360538C26.6935 0.315038 26.7279 0.280128 26.7521 0.256027C26.7646 0.243976 26.7739 0.234624 26.781 0.228L26.7888 0.220111L26.7919 0.217706L26.7927 0.21689V0.216331C26.7935 0.216203 26.7927 0.216331 27.0604 0.500615C27.2829 0.179715 27.2821 0.179607 27.2829 0.179715L27.2837 0.180189L27.2844 0.18091L27.2876 0.183089L27.2977 0.190388C27.3063 0.19656 27.3188 0.205339 27.3344 0.216705C27.3648 0.239433 27.4093 0.272517 27.4648 0.315773C27.5764 0.402257 27.7333 0.529576 27.9198 0.696271C28.293 1.0293 28.7886 1.52156 29.282 2.16155ZM19.4981 10.724L19.3256 11.0741L19.0196 10.8319L19.2147 10.5849L19.4981 10.724ZM23.2832 24.8197L23.5829 25.0697L23.4096 25.2774L23.1544 25.188L23.2832 24.8197ZM23.1489 24.3441C23.2004 24.2694 23.2613 24.1768 23.3276 24.0673C23.5337 23.7293 23.7968 23.2316 24.0161 22.6008C24.4556 21.3418 24.7249 19.5528 24.0388 17.4291C23.344 15.287 22.1177 13.7828 21.0632 12.813C20.5363 12.3281 20.0531 11.9781 19.7042 11.7505C19.6042 11.6854 19.5153 11.6304 19.4395 11.5851C19.3794 11.6751 19.3068 11.7865 19.2272 11.9176C18.9868 12.313 18.6792 12.8848 18.4146 13.5864C17.8838 14.9914 17.531 16.8945 18.1968 18.9464C18.8666 21.0162 20.1702 22.3936 21.3153 23.2565C21.8875 23.688 22.4167 23.9887 22.8015 24.181C22.9374 24.2486 23.0544 24.3026 23.1489 24.3441ZM21.5916 12.2384C22.7188 13.2752 24.0349 14.8885 24.7811 17.1886C25.5297 19.5047 25.237 21.4713 24.7538 22.8577C24.5126 23.5496 24.2238 24.0972 23.9943 24.4736C23.8795 24.662 23.7796 24.808 23.7062 24.9083C23.6703 24.9585 23.6407 24.9973 23.6196 25.0243C23.6087 25.0378 23.6001 25.0485 23.5938 25.056L23.5868 25.0652L23.5845 25.068L23.5837 25.069C23.5837 25.0691 23.5829 25.0697 23.2832 24.8197C23.1544 25.188 23.1544 25.1881 23.1544 25.188L23.152 25.1874L23.1489 25.1861L23.138 25.1821C23.1286 25.1787 23.1153 25.1737 23.0982 25.1673C23.0646 25.1545 23.017 25.1358 22.9561 25.1106C22.8351 25.0602 22.6634 24.9841 22.4534 24.8794C22.0342 24.67 21.462 24.3451 20.8454 23.8799C19.6113 22.9498 18.1867 21.4503 17.4545 19.1869C16.7168 16.9136 17.1142 14.8206 17.684 13.3107C17.9697 12.5547 18.3007 11.9393 18.5606 11.512C18.6902 11.298 18.8034 11.1305 18.8845 11.0153C18.9251 10.9577 18.9579 10.9131 18.9806 10.8823C18.9923 10.867 19.0016 10.8549 19.0079 10.8465L19.0157 10.8365L19.018 10.8336L19.0188 10.8325L19.0196 10.8319C19.0196 10.8318 19.0196 10.8319 19.3256 11.0741C19.4981 10.724 19.4973 10.7239 19.4981 10.724L19.4996 10.7248L19.5028 10.7264L19.5129 10.7315C19.5215 10.7358 19.5332 10.7419 19.548 10.7499C19.5785 10.7658 19.6214 10.789 19.6761 10.8197C19.7853 10.8812 19.9407 10.973 20.1304 11.0967C20.5097 11.344 21.028 11.7198 21.5916 12.2384ZM38.5429 12.1985L38.1807 12.3421L38.1159 11.9573L38.4266 11.9049L38.5429 12.1985ZM37.6413 20.6548C36.2909 22.615 34.494 23.6431 33.0444 24.1801C32.3192 24.4488 31.6784 24.5959 31.2163 24.676C30.9852 24.7161 30.7979 24.7396 30.6675 24.753C30.6019 24.7598 30.5504 24.764 30.5153 24.7667C30.5044 24.7674 30.4942 24.7681 30.4864 24.7686C30.4817 24.7689 30.4771 24.7692 30.4732 24.7694L30.4614 24.7701L30.4575 24.7703L30.456 24.7703C30.456 24.7703 30.4552 24.7704 30.438 24.3805C30.079 24.5335 30.079 24.5333 30.0782 24.5331V24.5315L30.0766 24.528L30.0719 24.5172C30.068 24.5081 30.0633 24.4956 30.0571 24.4796C30.0446 24.4476 30.0274 24.402 30.0071 24.3433C29.9658 24.2263 29.9119 24.0574 29.8565 23.8438C29.7449 23.4171 29.6262 22.8094 29.595 22.077C29.531 20.6095 29.8151 18.641 31.1975 16.6375C32.5714 14.6476 34.2957 13.479 35.6734 12.8085C36.3627 12.4732 36.9676 12.2615 37.4017 12.1332C37.6194 12.069 37.7943 12.0256 37.9168 11.9979C37.9777 11.9841 38.0261 11.9742 38.0597 11.9677C38.0706 11.9655 38.08 11.9638 38.0878 11.9623C38.0917 11.9615 38.0956 11.9608 38.0987 11.9602L38.1104 11.9582L38.1135 11.9576L38.1151 11.9574L38.1159 11.9573C38.1159 11.9572 38.1159 11.9573 38.1807 12.3421C38.5429 12.1985 38.5429 12.1983 38.5429 12.1985L38.5437 12.1993V12.2004L38.5452 12.204L38.5499 12.2157C38.5538 12.2257 38.5593 12.2398 38.5655 12.2579C38.5788 12.294 38.5975 12.3462 38.6194 12.4131C38.6639 12.5469 38.724 12.7399 38.7872 12.9824C38.9129 13.4669 39.0526 14.152 39.108 14.9585C39.2204 16.5695 38.9987 18.6895 37.6413 20.6548ZM30.438 24.3805L30.0782 24.5331L30.1851 24.7826L30.4552 24.7704L30.438 24.3805ZM30.7034 23.9634C30.8057 23.9509 30.9337 23.9328 31.0828 23.9069C31.5066 23.8333 32.1015 23.6973 32.7735 23.4482C34.1185 22.9499 35.7632 22.0044 36.9989 20.2119C38.2244 18.438 38.4336 16.5122 38.3298 15.0125C38.2775 14.2637 38.1479 13.627 38.0316 13.1788C37.9926 13.0302 37.9559 12.9027 37.9239 12.7991C37.838 12.8208 37.7373 12.848 37.6233 12.8818C37.2229 12.9999 36.6593 13.1969 36.0153 13.5104C34.7258 14.1377 33.1193 15.2276 31.84 17.0809C30.5723 18.9179 30.3163 20.7101 30.3748 22.043C30.4037 22.711 30.5114 23.2635 30.6113 23.6468C30.6441 23.7709 30.6753 23.8771 30.7034 23.9634ZM27.3922 17.7723C27.6068 17.7533 27.7965 17.912 27.8152 18.1267C28.4686 25.5181 24.3939 42.5524 4.56936 53.6732C4.38202 53.7786 4.14394 53.7118 4.03856 53.5238C3.93318 53.3358 3.99953 53.098 4.18765 52.9925C23.7367 42.0259 27.6646 25.289 27.0378 18.1954C27.019 17.9807 27.1775 17.7912 27.3922 17.7723ZM17.5716 22.4418L17.3546 22.7665L17.0829 22.4863L17.3093 22.2671L17.5716 22.4418ZM19.4832 36.9115L19.3068 37.2598L19.548 37.382L19.7471 37.1986L19.4832 36.9115ZM17.4014 23.2879C17.3296 23.3691 17.2437 23.47 17.1469 23.5894C16.8573 23.9496 16.478 24.476 16.1228 25.137C15.4125 26.4604 14.813 28.302 15.2002 30.4275C15.5959 32.5632 16.7106 34.0979 17.734 35.1034C18.2452 35.6059 18.7315 35.9736 19.0891 36.2149C19.2147 36.2998 19.324 36.3689 19.4122 36.4224C19.4723 36.3552 19.5449 36.2716 19.6253 36.1721C19.8728 35.8641 20.1983 35.4054 20.498 34.8089C21.0967 33.6185 21.5979 31.8795 21.1951 29.6816C20.7853 27.4662 19.7666 25.8151 18.8486 24.7163C18.3896 24.1669 17.9572 23.7572 17.6411 23.4862C17.5513 23.4087 17.4701 23.3426 17.4014 23.2879ZM19.4481 24.2158C20.4293 25.3907 21.5229 27.1617 21.9632 29.5403C22.4019 31.9367 21.8547 33.8486 21.1951 35.1596C20.8665 35.8139 20.5089 36.3188 20.2326 36.6618C20.0945 36.8335 19.9758 36.965 19.8907 37.0548C19.8478 37.0998 19.8134 37.1344 19.7892 37.1584C19.7768 37.1704 19.7674 37.1798 19.7604 37.1865L19.7518 37.1946L19.7486 37.1971L19.7479 37.198C19.7479 37.1981 19.7471 37.1986 19.4832 36.9115C19.3068 37.2598 19.3068 37.2599 19.3068 37.2598L19.3061 37.2594L19.3053 37.2589L19.3014 37.2572L19.2912 37.2517C19.2819 37.247 19.2701 37.2405 19.2538 37.232C19.2225 37.2149 19.1773 37.1899 19.1203 37.1569C19.0071 37.0911 18.8463 36.993 18.6519 36.8616C18.2632 36.5991 17.7386 36.202 17.1868 35.6602C16.0846 34.5769 14.8653 32.9052 14.4328 30.5692V30.5683C14.0027 28.2142 14.6717 26.1903 15.4351 24.7679C15.8176 24.0559 16.2259 23.4893 16.5397 23.0999C16.6965 22.9049 16.83 22.7537 16.9253 22.6503C16.9737 22.5985 17.0119 22.5586 17.0384 22.5311C17.0455 22.5237 17.0517 22.5172 17.058 22.5116C17.0626 22.5069 17.0665 22.5027 17.0705 22.4992L17.079 22.4903L17.0822 22.4877L17.0829 22.4868V22.4863C17.0837 22.4861 17.0829 22.4863 17.3546 22.7665C17.5716 22.4418 17.5716 22.4417 17.5716 22.4418L17.5724 22.4422L17.5731 22.4429L17.5763 22.4449L17.5856 22.4513C17.5934 22.4567 17.6044 22.4642 17.6184 22.4741C17.6457 22.4938 17.6856 22.5225 17.7355 22.56C17.8362 22.6353 17.9775 22.7463 18.1492 22.8937C18.4927 23.1882 18.9571 23.6283 19.4481 24.2158ZM36.5266 24.9586C35.1106 25.1774 33.2544 25.7451 31.4864 27.1399C29.7347 28.5222 28.9612 30.1583 28.6224 31.4478C28.453 32.0939 28.3937 32.653 28.3757 33.0483C28.3695 33.176 28.3687 33.2864 28.3695 33.3769C28.4709 33.3951 28.599 33.4157 28.7488 33.4351C29.1766 33.4902 29.7847 33.5359 30.5013 33.4969C31.9344 33.4187 33.7852 33.0023 35.4939 31.6564C37.1893 30.3209 37.9559 28.5418 38.2978 27.078C38.4679 26.347 38.5312 25.7003 38.5515 25.2376C38.5577 25.084 38.56 24.951 38.56 24.8424C38.4718 24.8378 38.3672 24.8341 38.2478 24.8326C37.831 24.8274 37.2346 24.8492 36.5266 24.9586ZM38.9394 24.4817C39.3281 24.4508 39.3281 24.451 39.3281 24.4511V24.4529L39.3289 24.4567L39.3297 24.4693C39.3297 24.4732 39.3305 24.4778 39.3305 24.4831C39.3313 24.4917 39.3313 24.5021 39.332 24.5142C39.3344 24.5526 39.3367 24.608 39.3383 24.6785C39.3414 24.8194 39.3422 25.0215 39.3313 25.2719C39.3094 25.772 39.2415 26.4679 39.0573 27.2553C38.6904 28.8283 37.8552 30.79 35.9763 32.2696C34.1084 33.7416 32.0882 34.192 30.5434 34.2763C29.7714 34.3185 29.1149 34.2693 28.6497 34.2093C28.4163 34.1792 28.2305 34.1464 28.1017 34.1206C28.0377 34.1078 27.987 34.0966 27.9526 34.0886C27.9347 34.0845 27.9214 34.0813 27.9113 34.0788L27.8996 34.076L27.8964 34.0751L27.8949 34.0748C27.8949 34.0747 27.8941 34.0746 27.9924 33.6968C27.6045 33.7369 27.6045 33.7367 27.6045 33.7365L27.6037 33.7347V33.731L27.6029 33.7193C27.6021 33.7096 27.6006 33.6961 27.5998 33.679C27.5967 33.6449 27.5943 33.5962 27.592 33.5343C27.5873 33.4105 27.5858 33.2335 27.5959 33.0133C27.6154 32.5732 27.6818 31.9583 27.8675 31.2498C28.2399 29.83 29.0923 28.0343 31.0024 26.527C32.9016 25.0293 34.8936 24.4211 36.408 24.1872C37.1651 24.0701 37.8044 24.0464 38.258 24.0521C38.4843 24.055 38.6639 24.0652 38.7895 24.075C38.852 24.0798 38.9004 24.0846 38.9347 24.0883C38.9519 24.09 38.9652 24.0916 38.9745 24.0927L38.9855 24.0941L38.9894 24.0946L38.9901 24.0947C38.9901 24.0947 38.9909 24.0948 38.9394 24.4817ZM27.9924 33.6968L27.6045 33.7365L27.6318 34.0063L27.8941 34.0746L27.9924 33.6968ZM38.9394 24.4817L38.9909 24.0948L39.3032 24.1367L39.3281 24.4511L38.9394 24.4817ZM11.5868 30.1415L11.3409 30.4446L11.0958 30.1403L11.3417 29.9429L11.5868 30.1415ZM12.1317 44.7281L11.924 45.0584L12.1527 45.2028L12.3682 45.0384L12.1317 44.7281ZM11.3386 30.9682C11.259 31.0424 11.1637 31.135 11.0568 31.2451C10.7344 31.5771 10.3074 32.0663 9.89216 32.6916C9.06083 33.9437 8.29039 35.7213 8.47773 37.8708C8.66976 40.0342 9.63457 41.6666 10.5596 42.7637C11.0217 43.312 11.4713 43.7238 11.8046 43.9975C11.9217 44.0937 12.0239 44.1727 12.1067 44.2343C12.173 44.1729 12.2527 44.0961 12.3424 44.0043C12.6188 43.7203 12.9849 43.2931 13.34 42.7267C14.0488 41.5963 14.7107 39.9115 14.5156 37.6883C14.3173 35.4461 13.4587 33.707 12.6469 32.5267C12.2417 31.9367 11.8483 31.488 11.5587 31.1883C11.476 31.1026 11.4018 31.0292 11.3386 30.9682ZM11.0958 30.1403C11.0966 30.1402 11.0958 30.1403 11.3409 30.4446C11.5868 30.1415 11.5868 30.1414 11.5868 30.1415L11.5876 30.142L11.5884 30.1428L11.5907 30.145L11.5993 30.1523C11.6071 30.1583 11.6173 30.167 11.6305 30.1781C11.6563 30.2003 11.693 30.2326 11.739 30.2747C11.8319 30.359 11.9631 30.4831 12.1207 30.6459C12.4353 30.9715 12.8561 31.4533 13.2901 32.0844C14.1581 33.3463 15.0807 35.212 15.2931 37.6199C15.5054 40.0443 14.7818 41.8967 14.0012 43.1412C13.6124 43.7623 13.2097 44.2323 12.9021 44.5484C12.7483 44.7066 12.618 44.8268 12.5243 44.9084C12.4783 44.9492 12.4408 44.9805 12.4142 45.0022C12.401 45.013 12.39 45.0214 12.3822 45.0275L12.3729 45.0347L12.3705 45.037L12.369 45.0378C12.369 45.0379 12.3682 45.0384 12.1317 44.7281C11.924 45.0584 11.924 45.0584 11.924 45.0584L11.9233 45.0579L11.9217 45.0572L11.9186 45.0552L11.9084 45.0488C11.9006 45.0434 11.8889 45.0357 11.8741 45.0257C11.8436 45.0057 11.8015 44.9766 11.7476 44.9385C11.6407 44.8622 11.49 44.7496 11.3089 44.6005C10.946 44.3026 10.4612 43.858 9.96241 43.2668C8.96638 42.0847 7.91025 40.3057 7.69952 37.9391C7.49266 35.5582 8.34816 33.6051 9.24193 32.2598C9.68843 31.5863 10.1482 31.0599 10.4971 30.7011C10.672 30.5215 10.8187 30.3833 10.9241 30.2891C10.9764 30.2419 11.0178 30.2058 11.0474 30.1809C11.0623 30.1684 11.074 30.1588 11.0818 30.152L11.0919 30.144L11.0943 30.1416L11.0958 30.1403ZM32.7017 35.832C31.2717 35.73 29.3366 35.8705 27.3024 36.8376C25.2885 37.7956 24.1707 39.2199 23.554 40.4034C23.2449 40.9963 23.0622 41.5289 22.9569 41.9109C22.9233 42.0343 22.8968 42.1418 22.878 42.2302C22.9733 42.2706 23.0927 42.3187 23.2348 42.3707C23.6399 42.519 24.223 42.6979 24.9302 42.8182C26.3446 43.059 28.243 43.0628 30.2085 42.1305C32.1553 41.203 33.2981 39.6395 33.9561 38.2896C34.2848 37.6154 34.4901 36.9998 34.6134 36.5538C34.654 36.4061 34.6852 36.2773 34.7094 36.1715C34.6243 36.1475 34.5236 36.1206 34.4073 36.0925C34.0022 35.9945 33.416 35.883 32.7017 35.832ZM35.1598 35.9045C35.5462 35.9612 35.5454 35.9614 35.5454 35.9615V35.9633L35.5446 35.967L35.5431 35.9795C35.5415 35.99 35.5392 36.0049 35.5353 36.0238C35.529 36.0617 35.5189 36.116 35.5048 36.185C35.4767 36.323 35.4322 36.5198 35.3659 36.7611C35.2332 37.2431 35.0123 37.9055 34.6579 38.6317C33.9507 40.0822 32.7009 41.8079 30.5442 42.8353C28.3944 43.855 26.3235 43.8471 24.7991 43.5878C24.0364 43.4581 23.4073 43.265 22.9662 43.1037C22.7461 43.023 22.572 42.95 22.4526 42.8964C22.3925 42.8697 22.3457 42.8478 22.3137 42.8321C22.2973 42.8243 22.2848 42.8182 22.2754 42.8136L22.2653 42.8082L22.2606 42.8061C22.2606 42.806 22.2598 42.8057 22.4393 42.4589C22.0514 42.4117 22.0514 42.4115 22.0514 42.4112L22.0522 42.4094V42.4058L22.0537 42.3941C22.0553 42.3845 22.0576 42.3711 22.06 42.3542C22.0654 42.3203 22.0732 42.2721 22.0849 42.2112C22.1084 42.0894 22.1458 41.9163 22.2044 41.7035C22.3215 41.2784 22.5229 40.6929 22.8616 40.0428C23.54 38.74 24.7702 37.1774 26.9667 36.1327C29.1516 35.0942 31.2288 34.9444 32.7572 35.0534C33.5213 35.108 34.1505 35.2273 34.5908 35.3338C34.8109 35.3871 34.9842 35.4372 35.1044 35.4746C35.1637 35.4933 35.2105 35.5088 35.2425 35.5199C35.2589 35.5254 35.2714 35.53 35.2808 35.5332L35.2917 35.5371L35.2948 35.5382L35.2956 35.5386C35.2956 35.5387 35.2964 35.5389 35.1598 35.9045ZM22.4393 42.4589L22.0514 42.4112L22.0186 42.681L22.2598 42.8057L22.4393 42.4589ZM35.1598 35.9045L35.2964 35.5389L35.5915 35.6494L35.5454 35.9615L35.1598 35.9045ZM6.16098 37.8858L5.83782 38.105L5.69185 37.7431L5.98379 37.625L6.16098 37.8858ZM2.48207 52.0156C2.18779 52.272 2.18779 52.2719 2.18779 52.2717L2.18622 52.2705L2.18388 52.2676L2.17608 52.2586C2.16983 52.2509 2.16047 52.2401 2.14954 52.2262C2.12612 52.1985 2.09411 52.1584 2.05352 52.1065C1.97312 52.0026 1.8615 51.8511 1.73036 51.6561C1.46886 51.2663 1.13165 50.7005 0.824879 49.9907C0.210553 48.5714 -0.288553 46.5632 0.192602 44.2368C0.679689 41.8939 2.06211 40.2693 3.30481 39.2381C3.92694 38.7219 4.5194 38.3504 4.95653 38.1073C5.1751 37.9856 5.35619 37.8958 5.48343 37.8358C5.54744 37.8058 5.59818 37.7832 5.6333 37.7679C5.64423 37.7631 5.6536 37.7589 5.66218 37.7556C5.66687 37.7535 5.67077 37.7517 5.67467 37.7502L5.68638 37.7453L5.6895 37.7439L5.69107 37.7434L5.69185 37.7431C5.69185 37.743 5.69185 37.7431 5.83782 38.105C6.16098 37.8858 6.16098 37.8856 6.16098 37.8858L6.16176 37.8865V37.8875L6.1641 37.8904L6.17035 37.8998C6.17581 37.9078 6.18284 37.919 6.1922 37.9334C6.21016 37.9622 6.2367 38.0038 6.2687 38.0576C6.33349 38.1651 6.42326 38.3218 6.52708 38.5233C6.73393 38.926 6.99933 39.5092 7.23273 40.2391C7.7003 41.6983 8.04685 43.7516 7.55745 46.1182C7.06256 48.5035 5.83547 50.069 4.73016 51.036C4.17829 51.5185 3.65685 51.8521 3.27124 52.066C3.07844 52.1731 2.9192 52.2505 2.80601 52.3018C2.74981 52.3274 2.70454 52.3465 2.67331 52.3595C2.65692 52.3661 2.64443 52.3711 2.63584 52.3747L2.62492 52.379L2.62101 52.3803L2.62023 52.3807C2.61945 52.3808 2.61867 52.3811 2.48207 52.0156ZM2.48207 52.0156L2.18779 52.2717L2.36576 52.476L2.61867 52.3811L2.48207 52.0156ZM2.60072 51.5358C2.6819 51.4963 2.78025 51.4458 2.89266 51.3835C3.23924 51.1914 3.71306 50.8884 4.21575 50.4484C5.21959 49.5703 6.33895 48.1474 6.79326 45.9599C7.24912 43.7561 6.92674 41.8424 6.48961 40.4772C6.27104 39.7948 6.0236 39.2515 5.83313 38.8807C5.77849 38.7745 5.72775 38.6825 5.68482 38.6057C5.58725 38.6539 5.46938 38.7151 5.3359 38.7896C4.93077 39.0144 4.38124 39.3597 3.8036 39.8389C2.64677 40.7985 1.39705 42.2796 0.957578 44.3949C0.517329 46.5217 0.971629 48.3634 1.54146 49.6807C1.82637 50.3391 2.13861 50.8632 2.37903 51.2213C2.46333 51.3475 2.53905 51.4528 2.60072 51.5358ZM27.5186 45.9317C26.1862 45.4042 24.2979 44.9544 22.0686 45.2587C19.8556 45.5632 18.36 46.5818 17.4155 47.5219C16.9432 47.993 16.6083 48.4445 16.3937 48.7762C16.3242 48.8832 16.2672 48.9777 16.222 49.056C16.3008 49.1233 16.3999 49.2056 16.5201 49.2984C16.8605 49.5623 17.3616 49.9095 17.9986 50.2383C19.2725 50.8963 21.078 51.4748 23.2309 51.1809C25.3681 50.8864 26.9316 49.7405 27.969 48.6514C28.4873 48.1076 28.8698 47.5821 29.1227 47.1935C29.2063 47.065 29.2749 46.9518 29.3304 46.8581C29.2562 46.8099 29.1688 46.7541 29.0665 46.6928C28.7098 46.4777 28.1845 46.1954 27.5186 45.9317ZM29.8409 46.739C30.1914 46.91 30.1914 46.9102 30.1914 46.9103L30.1906 46.9119L30.189 46.9153L30.1836 46.9266C30.1781 46.9361 30.1718 46.9495 30.1625 46.9666C30.1453 47.0008 30.1188 47.0496 30.0844 47.1112C30.0157 47.2343 29.9135 47.4087 29.7769 47.6189C29.5044 48.0387 29.0923 48.6041 28.5342 49.1898C27.4203 50.3598 25.7045 51.6282 23.3362 51.9543C20.982 52.2757 19.0133 51.641 17.6403 50.932C16.9534 50.5774 16.4124 50.2027 16.0416 49.9155C15.8566 49.7717 15.713 49.6496 15.6147 49.5622C15.5663 49.5185 15.528 49.4835 15.5022 49.4588C15.489 49.4464 15.4788 49.4367 15.4718 49.4297L15.4632 49.4214L15.4609 49.4188L15.4601 49.418C15.4593 49.4178 15.4593 49.4173 15.7349 49.1413C15.3797 48.9796 15.3797 48.9794 15.3805 48.9793V48.9775L15.382 48.9742L15.3875 48.9636C15.3898 48.9588 15.3922 48.9531 15.3953 48.9464C15.3984 48.9407 15.4016 48.9343 15.4047 48.9273C15.4203 48.8966 15.4421 48.8532 15.4718 48.7987C15.5303 48.6897 15.6186 48.5362 15.7388 48.3514C15.9776 47.982 16.3461 47.4855 16.8652 46.9689C17.9049 45.9334 19.5496 44.8173 21.9624 44.4853C24.3565 44.1585 26.3813 44.6421 27.8059 45.2059C28.5178 45.4878 29.0821 45.7906 29.4693 46.0242C29.6637 46.141 29.8136 46.2408 29.9166 46.3123C29.9681 46.3481 30.0079 46.3768 30.0352 46.3971C30.0493 46.4072 30.0594 46.4153 30.0672 46.421L30.0766 46.4279L30.079 46.4301L30.0805 46.4308C30.0805 46.431 30.0805 46.4313 29.8409 46.739ZM15.7349 49.1413L15.3805 48.9793L15.2681 49.2259L15.4593 49.4173L15.7349 49.1413ZM29.8409 46.739L30.0805 46.4313L30.3303 46.6258L30.1914 46.9103L29.8409 46.739ZM18.1804 53.6072C16.9229 52.9227 15.1041 52.2488 12.8545 52.2833C10.6197 52.319 9.01166 53.1529 7.96099 53.9756C7.43412 54.3877 7.04773 54.7972 6.79404 55.1017C6.71208 55.2005 6.64416 55.288 6.58952 55.3607C6.65978 55.4369 6.74876 55.5305 6.85648 55.637C7.16326 55.9395 7.61912 56.3442 8.21234 56.7467C9.39883 57.5521 11.1231 58.342 13.2971 58.3077C15.4554 58.2748 17.143 57.3247 18.3022 56.367C18.8806 55.8888 19.3224 55.4123 19.6191 55.0564C19.7174 54.938 19.7994 54.8334 19.8657 54.7466C19.7978 54.6897 19.7174 54.6233 19.6238 54.5498C19.2959 54.2931 18.8088 53.9493 18.1804 53.6072ZM20.3856 54.6896C20.7142 54.9006 20.7142 54.9009 20.7135 54.901L20.7127 54.9024L20.7111 54.9056L20.7041 54.9162C20.6978 54.9251 20.6893 54.9376 20.6783 54.9536C20.6573 54.9854 20.6252 55.0308 20.5839 55.0879C20.5011 55.2022 20.3794 55.3634 20.2186 55.556C19.8985 55.9408 19.4224 56.4535 18.7995 56.9687C17.5544 57.9978 15.7005 59.0517 13.3096 59.0882C10.9319 59.1257 9.05303 58.2604 7.77368 57.3925C7.13437 56.9584 6.64182 56.5219 6.30851 56.1925C6.14147 56.0277 6.01345 55.8893 5.9268 55.7908C5.88309 55.7417 5.85031 55.7024 5.82689 55.6748C5.81596 55.6609 5.80659 55.6499 5.80035 55.6421L5.79332 55.6329L5.79098 55.63L5.7902 55.629C5.78942 55.6289 5.78942 55.6284 6.09619 55.3874C5.76288 55.1845 5.76288 55.1843 5.76288 55.1842L5.76444 55.1826L5.766 55.1795L5.77225 55.1695C5.77771 55.1612 5.78474 55.1499 5.7941 55.1355C5.81284 55.1068 5.84016 55.0662 5.87607 55.0155C5.9471 54.9141 6.05326 54.7718 6.19455 54.6021C6.47712 54.2631 6.90254 53.813 7.48017 53.3609C8.63697 52.455 10.405 51.5418 12.842 51.5028C15.2579 51.4656 17.2086 52.1898 18.5536 52.9216C19.2257 53.2876 19.7486 53.6563 20.1046 53.9352C20.2826 54.0747 20.42 54.1919 20.5128 54.2754C20.5597 54.3172 20.5956 54.3506 20.6206 54.374C20.6331 54.3858 20.6424 54.3951 20.6494 54.4017L20.6573 54.4097L20.6604 54.4121L20.6612 54.4129C20.6612 54.4131 20.6612 54.4134 20.3856 54.6896ZM6.09619 55.3874L5.76288 55.1842L5.62237 55.4156L5.78942 55.6283L6.09619 55.3874ZM20.3856 54.6896L20.6612 54.4135L20.8844 54.6359L20.7135 54.901L20.3856 54.6896Z" fill="#4B5DFF"/>
</g>
<defs>
<clipPath id="clip0">
<rect width="39.81" height="59.3247" fill="white"/>
</clipPath>
</defs>
</svg>
