<svg width="51" height="76" viewBox="0 0 51 76" fill="none" xmlns="http://www.w3.org/2000/svg">
<path d="M2.15487 16.7508C2.26435 16.7787 2.39355 16.8136 2.54001 16.8569C3.05246 17.0082 3.77417 17.2605 4.59981 17.6622C6.2515 18.4657 8.30946 19.8621 9.94823 22.2362L2.15487 16.7508ZM2.15487 16.7508C2.11373 16.8837 2.06628 17.047 2.01686 17.2372C1.86763 17.8116 1.70139 18.6272 1.63486 19.5865C1.50162 21.5077 1.76952 23.9744 3.33962 26.2469L3.33996 26.2474C4.92252 28.5437 7.02975 29.7549 8.75279 30.3933C9.61403 30.7124 10.3752 30.8867 10.9188 30.981C11.1099 31.0141 11.2737 31.0373 11.4051 31.0534C11.4404 30.9428 11.4808 30.8068 11.5222 30.6478C11.6503 30.1566 11.7888 29.4488 11.826 28.5932C11.9003 26.8856 11.5722 24.5897 9.94828 22.2363L2.15487 16.7508Z" stroke="#4B5DFF"/>
<path d="M27.4258 24.6265L27.426 24.626C28.279 21.9974 27.8272 19.5594 27.1476 17.7594C26.8082 16.8606 26.4145 16.1281 26.1064 15.6215C26.0043 15.4536 25.9117 15.3109 25.8341 15.1956C25.7372 15.2536 25.6234 15.3241 25.4955 15.4075C25.0484 15.6992 24.4298 16.1474 23.7544 16.7686C22.4034 18.0111 20.8328 19.938 19.9426 22.6823L27.4258 24.6265ZM27.4258 24.6265C26.5685 27.2782 24.8983 29.0422 23.4319 30.1478C22.6989 30.7004 22.0202 31.0857 21.5269 31.332C21.3534 31.4186 21.2031 31.4878 21.082 31.541M27.4258 24.6265L21.082 31.541M21.082 31.541C21.0163 31.4453 20.9385 31.3267 20.853 31.1864C20.589 30.7533 20.2527 30.1158 19.971 29.3076C19.4088 27.6949 19.063 25.4031 19.9425 22.6827L21.082 31.541Z" stroke="#4B5DFF"/>
<path d="M28.1382 30.442C28.2539 30.3427 28.3573 30.2581 28.4456 30.188C28.5377 30.292 28.6479 30.4213 28.7711 30.5742C29.1427 31.0357 29.6289 31.7101 30.0833 32.5568C30.9931 34.2523 31.762 36.6117 31.2651 39.3347C30.7581 42.0706 29.3306 44.0366 28.0195 45.3246C27.3642 45.9684 26.7411 46.4395 26.2838 46.7486C26.1229 46.8573 25.9828 46.9458 25.8695 47.0144C25.7921 46.9283 25.6998 46.8212 25.597 46.6937C25.2791 46.2991 24.863 45.7115 24.4786 44.9473C23.7114 43.4223 23.0697 41.1949 23.5853 38.3794C24.1103 35.5411 25.4151 33.4257 26.5913 32.0179C27.1792 31.3141 27.7334 30.7892 28.1382 30.442Z" stroke="#4B5DFF"/>
<path d="M35.9298 40.309C36.036 40.1992 36.1311 40.1051 36.2127 40.027C36.3141 40.1222 36.4361 40.2407 36.5731 40.3818C36.9864 40.8071 37.5338 41.4338 38.0656 42.2348C39.1306 43.8388 40.1172 46.1158 39.8778 48.8692C39.6317 51.641 38.3952 53.7326 37.2106 55.1381C36.6185 55.8405 36.0421 56.3681 35.6157 56.7187C35.4657 56.842 35.3346 56.9431 35.2282 57.0221C35.1429 56.9434 35.0408 56.8451 34.9264 56.7274C34.5726 56.3635 34.1029 55.8164 33.6483 55.0907C32.7408 53.6425 31.8927 51.4841 32.1424 48.6361C32.3959 45.7636 33.4964 43.5357 34.5361 42.0236C35.0558 41.2677 35.5589 40.6929 35.9298 40.309ZM35.8961 39.7456C35.8961 39.7456 35.8961 39.7456 35.8962 39.7457L35.8961 39.7456Z" stroke="#4B5DFF"/>
<path d="M47.4066 66.3761C47.4859 66.2697 47.5826 66.1348 47.6909 65.9732C47.9986 65.5144 48.3989 64.8429 48.7638 63.9994C49.4939 62.3118 50.0757 59.9525 49.5119 57.2281L47.4066 66.3761ZM47.4066 66.3761C47.3023 66.3253 47.1761 66.2607 47.0325 66.181C46.5889 65.9348 45.9815 65.5466 45.3371 64.983C44.051 63.8581 42.6171 62.0353 42.036 59.2329L47.4066 66.3761ZM43.4556 49.8114C43.5801 49.8732 43.731 49.9515 43.9028 50.047C44.4212 50.3351 45.1258 50.7773 45.8658 51.3912C47.3476 52.6205 48.9484 54.518 49.5119 57.228L43.4556 49.8114ZM43.4556 49.8114C43.4 49.9099 43.3358 50.0276 43.2658 50.1637C43.0211 50.6387 42.7048 51.3348 42.4247 52.209C41.8644 53.9579 41.4519 56.4096 42.0359 59.2327L43.4556 49.8114ZM43.0714 49.6333C43.0713 49.6333 43.0713 49.6333 43.0714 49.6333L43.0714 49.6333Z" stroke="#4B5DFF"/>
<path d="M19.4614 10.55L19.4614 10.5503C19.5071 13.4114 18.5062 15.5029 17.497 16.8811C16.9914 17.5716 16.4835 18.0829 16.1044 18.4199C15.9817 18.5289 15.8727 18.6195 15.782 18.6918C15.6817 18.6055 15.5584 18.4953 15.4179 18.3617C15.0184 17.9817 14.4823 17.4145 13.9432 16.6717C12.8646 15.1854 11.784 13.0108 11.74 10.2273C11.6963 7.46044 12.8416 5.25834 14.0172 3.73413C14.6042 2.97299 15.1943 2.38704 15.6366 1.99235C15.7829 1.86182 15.9126 1.75251 16.0203 1.66498C16.0961 1.74902 16.1844 1.85002 16.2825 1.96754C16.6253 2.37815 17.0861 2.9889 17.5505 3.78135C18.4795 5.3667 19.417 7.6695 19.4614 10.55Z" stroke="#4B5DFF"/>
<path d="M1.35077 32.6857C1.34213 32.489 1.33953 32.3187 1.33987 32.1794C1.45277 32.1736 1.5867 32.1689 1.73964 32.1669C2.27366 32.1602 3.03732 32.1882 3.9443 32.3283C5.75868 32.6086 8.13601 33.3359 10.4016 35.1226C12.646 36.8936 13.6369 38.9895 14.0701 40.6415C14.2872 41.4692 14.364 42.1855 14.3868 42.6919C14.3941 42.8556 14.3958 42.997 14.3948 43.1128C14.2643 43.1362 14.1007 43.1626 13.9081 43.1874C13.3604 43.2581 12.5812 43.3166 11.6637 43.2666C9.82795 43.1664 7.45661 42.6329 5.26795 40.9088L5.26791 40.9087C3.09558 39.1978 2.11347 36.9187 1.67597 35.0434C1.45751 34.1069 1.3768 33.2786 1.35077 32.6857ZM1.35228 31.7564C1.35229 31.7563 1.35229 31.7563 1.35228 31.7563L1.35228 31.7564Z" stroke="#4B5DFF"/>
<path d="M6.27275 46.6929C6.30341 46.8284 6.34383 46.9934 6.39596 47.1826C6.55332 47.754 6.81636 48.5426 7.2375 49.4063C8.08087 51.1357 9.54408 53.1386 12.0387 54.3269C14.5567 55.5213 16.9882 55.5163 18.8009 55.2079C19.707 55.0538 20.4541 54.8245 20.9725 54.6346C21.1546 54.568 21.3081 54.5063 21.43 54.4546C21.4053 54.3413 21.3721 54.2037 21.3286 54.0455C21.1937 53.5561 20.9594 52.874 20.5636 52.1143C19.7739 50.5981 18.3421 48.7735 15.7617 47.5462L6.27275 46.6929ZM6.27275 46.6929C6.38151 46.6621 6.51101 46.6276 6.65965 46.5917C7.17878 46.4661 7.92951 46.3233 8.84491 46.258C10.6761 46.1273 13.1556 46.3073 15.7616 47.5461L6.27275 46.6929ZM6.19042 46.2776C6.19041 46.2775 6.1904 46.2775 6.19042 46.2776L6.19042 46.2776Z" stroke="#4B5DFF"/>
<path d="M29.737 62.8405C29.826 62.9778 29.8989 63.0988 29.9565 63.199C29.856 63.2853 29.7283 63.3907 29.5748 63.5096C29.1386 63.8477 28.4968 64.2925 27.6808 64.7138C26.0483 65.5567 23.7352 66.2977 20.9779 65.9213C18.2391 65.544 16.2362 64.0759 14.9071 62.6807C14.2434 61.984 13.7532 61.3108 13.4297 60.8131C13.3227 60.6484 13.2342 60.5033 13.1639 60.3834C13.2581 60.3216 13.3708 60.2501 13.5012 60.1716C13.9585 59.8961 14.6316 59.5343 15.4849 59.1965C17.1919 58.5207 19.6102 57.9444 22.4666 58.3343C25.302 58.7245 27.2177 60.0294 28.427 61.2337C29.033 61.8372 29.4614 62.4156 29.737 62.8405Z" stroke="#4B5DFF"/>
<path d="M42.2964 71.276C42.2269 71.1828 42.1396 71.0707 42.0343 70.9442C41.7094 70.5541 41.2142 70.0296 40.5396 69.5015C39.1935 68.4477 37.1338 67.3794 34.271 67.3337L42.2964 71.276ZM42.2964 71.276C42.2068 71.3736 42.0926 71.4936 41.9544 71.63C41.5618 72.0177 40.9777 72.5359 40.2178 73.0516C38.6974 74.0833 36.4884 75.0954 33.7032 75.0514L33.7029 75.0514C30.9384 75.0093 28.7763 73.792 27.292 72.5652C26.5508 71.9525 25.9847 71.3422 25.6048 70.8861C25.4785 70.7346 25.3731 70.6004 25.289 70.4893C25.3751 70.4163 25.4786 70.3314 25.5989 70.2373C26.019 69.9084 26.6425 69.468 27.4479 69.0296C29.0591 68.1528 31.3882 67.2893 34.2708 67.3337L42.2964 71.276Z" stroke="#4B5DFF"/>
<path d="M15.6027 23.6201C14.7825 32.8983 19.9085 54.5303 45.1287 68.6782" stroke="#4B5DFF" stroke-linecap="round" stroke-linejoin="round"/>
</svg>
