<svg width="18" height="18" viewBox="0 0 18 18" fill="none" xmlns="http://www.w3.org/2000/svg">
<path d="M17.3271 8.10356C17.3267 8.10317 17.3263 8.10279 17.3259 8.1024L10.433 1.20976C10.1392 0.915828 9.74857 0.753906 9.33307 0.753906C8.91756 0.753906 8.52694 0.915699 8.233 1.20963L1.34372 8.09879C1.3414 8.10111 1.33908 8.10356 1.33676 8.10588C0.733419 8.7127 0.73445 9.69725 1.33972 10.3025C1.61625 10.5792 1.98148 10.7394 2.37198 10.7562C2.38783 10.7577 2.40382 10.7585 2.41993 10.7585H2.69466V15.8311C2.69466 16.8348 3.51136 17.6515 4.51538 17.6515H7.2121C7.48541 17.6515 7.70715 17.4299 7.70715 17.1565V13.1796C7.70715 12.7216 8.07972 12.349 8.53777 12.349H10.1284C10.5864 12.349 10.959 12.7216 10.959 13.1796V17.1565C10.959 17.4299 11.1806 17.6515 11.454 17.6515H14.1508C15.1548 17.6515 15.9715 16.8348 15.9715 15.8311V10.7585H16.2262C16.6416 10.7585 17.0322 10.5967 17.3263 10.3028C17.9322 9.69648 17.9325 8.71025 17.3271 8.10356Z" fill="#4B5DFF"/>
</svg>
