<svg width="17" height="18" viewBox="0 0 17 18" fill="none" xmlns="http://www.w3.org/2000/svg">
<path d="M13.0785 11.6604C12.4008 11.2596 11.7109 11.5091 11.4256 11.9028L10.8289 12.6916C10.5257 13.0924 9.95922 13.0391 9.95922 13.0391C5.82491 11.9224 4.71932 7.50313 4.71932 7.50313C4.71932 7.50313 4.66857 6.90483 5.04716 6.58396L5.79336 5.95344C6.16647 5.65079 6.4024 4.92218 6.02244 4.20619C5.00738 2.33283 4.32564 1.6869 3.9786 1.19089C3.61373 0.724299 3.06505 0.619212 2.49442 0.934473H2.48208C1.29556 1.64346 -0.00344062 2.97036 0.412185 4.3365C1.12135 5.77689 2.42447 10.3685 6.57798 13.8378C8.52991 15.4785 11.619 17.1599 12.9303 17.5481L12.9427 17.5677C14.2348 18.0076 15.4913 16.6289 16.162 15.3805V15.3707C16.4597 14.7668 16.3609 14.1951 15.9261 13.821C15.1552 13.0531 13.992 12.2054 13.0785 11.6604Z" fill="#4B5DFF"/>
</svg>
